<svg width="32" height="32" fill="none" xmlns="http://www.w3.org/2000/svg"><path fill-rule="evenodd" clip-rule="evenodd" d="M32 16c0-8.828-7.172-16-16-16S0 7.172 0 16c0 8.829 7.172 16 16 16s16-7.171 16-16z" fill="#fff"/><path fill-rule="evenodd" clip-rule="evenodd" d="M26.285 28.257L25.063 26.8c-5.721 4.8-14.193 4.307-19.318-1.125-5.125-5.433-5.125-13.92 0-19.351C10.87.893 19.342.399 25.063 5.199l1.222-1.456C19.792-1.704 10.178-1.145 4.362 5.02c-5.816 6.165-5.816 15.796 0 21.96 5.816 6.165 15.43 6.724 21.923 1.277z" fill="url(#paint0_linear)"/><path fill-rule="evenodd" clip-rule="evenodd" d="M26.285 28.257L25.063 26.8a14.1 14.1 0 000-21.602l1.222-1.456a16 16 0 010 24.514z" fill="#EDF0F2"/><path fill-rule="evenodd" clip-rule="evenodd" d="M11.553 18.537v3.402l-.001.001v.006c1.438-.02 2.875-.02 4.313 0 .488.007.976-.024 1.454-.117.505-.098 1-.246 1.467-.46.202-.093.395-.205.591-.318l.154-.089c.232-.163.454-.34.665-.529a4.92 4.92 0 001.305-1.883.155.155 0 01.18-.117h1.175c.094 0 .125-.03.125-.135v-.745a1.206 1.206 0 000-.215c0-.019.005-.037.01-.056.009-.037.019-.074-.01-.11h-.982c-.118 0-.118-.013-.118-.117a7.79 7.79 0 000-1.126c-.006-.11.019-.11.106-.11h.857c.1 0 .133-.026.137-.124.016-.337.016-.673 0-1.01-.003-.066-.004-.1-.022-.117-.018-.018-.054-.018-.127-.018H21.72a.162.162 0 01-.186-.129 4.704 4.704 0 00-.485-.942 5.375 5.375 0 00-.665-.818 5.344 5.344 0 00-1.094-.837 6.116 6.116 0 00-1.945-.713A5.604 5.604 0 0016.338 11h-4.66c-.125 0-.125.025-.125.123v3.317c0 .117-.025.117-.118.117H10.1c-.099 0-.099.018-.099.085v1.083c0 .099.03.099.106.099h1.348c.1 0 .1.018.1.092v1.156c0 .105-.032.105-.112.105H10v1.169c0 .098.03.098.106.098h1.348c.1 0 .1.012.1.093zm8.88-1.367h-7.482c-.075 0-.113 0-.13-.018-.018-.018-.018-.053-.018-.123v-1.095c0-.087.024-.117.117-.117h7.52c.08 0 .118.03.118.104.03.381.021.763 0 1.145-.006.104-.044.104-.125.104zm-.297-2.633a.118.118 0 000-.086 2.427 2.427 0 00-.225-.388c-.13-.208-.285-.4-.46-.572a1.515 1.515 0 00-.286-.277 4.486 4.486 0 00-1.864-.935 4.46 4.46 0 00-1.057-.11c-1.112.009-2.224.009-3.336 0-.094-.002-.106.036-.106.116v2.184c0 .092 0 .117.118.117h7.171c.003 0 .062-.012.075-.05h-.03zm-.318 3.913c.106-.011.212-.011.318 0 .049.025.008.113.005.118a4.017 4.017 0 01-1.734 1.729h-.043c-.143.084-.297.15-.453.209a4.77 4.77 0 01-1.35.295 1.618 1.618 0 01-.453.03h-3.181c-.124 0-.124-.024-.124-.122v-2.136c0-.123.03-.123.124-.123h6.891z" fill="#000"/><defs><linearGradient id="paint0_linear" x1="3.376" y1="0" x2="3.376" y2="32" gradientUnits="userSpaceOnUse"><stop stop-color="#27D3A2"/><stop offset="1" stop-color="#9388FD"/></linearGradient></defs></svg>