<svg width="32" height="32" fill="none" xmlns="http://www.w3.org/2000/svg"><path fill-rule="evenodd" clip-rule="evenodd" d="M32 16c0-2.094-.417-4.188-1.218-6.123a16.058 16.058 0 00-3.468-5.19 16.051 16.051 0 00-5.191-3.47A16.054 16.054 0 0016 0c-2.094 0-4.188.417-6.123 1.218a16.055 16.055 0 00-5.19 3.468 16.05 16.05 0 00-3.47 5.191A16.049 16.049 0 000 16c0 2.094.416 4.188 1.218 6.123a16.056 16.056 0 003.468 5.19 16.055 16.055 0 005.19 3.469A16.056 16.056 0 0016 32c2.094 0 4.188-.417 6.123-1.218a16.051 16.051 0 005.19-3.468 16.063 16.063 0 003.47-5.191A16.054 16.054 0 0032 16z" fill="#fff"/><path fill-rule="evenodd" clip-rule="evenodd" d="M11.855 3.384a13.267 13.267 0 0113.213 2.914 13.155 13.155 0 013.417 5.189c.71 1.99.946 4.19.672 6.284a13.194 13.194 0 01-2.243 5.795 13.207 13.207 0 01-4.64 4.134 13.622 13.622 0 01-6.12 1.576 13.207 13.207 0 01-6.059-1.381 13.19 13.19 0 01-4.763-3.991 13.662 13.662 0 01-2.444-5.83 13.13 13.13 0 01.487-6.193 13.392 13.392 0 012.23-4.145H4.12V5.282h5.817v5.431H7.483V9.23a10.961 10.961 0 00-1.827 3.397 10.787 10.787 0 00-.4 5.07 11.107 11.107 0 002.81 5.75 10.952 10.952 0 006.8 3.375 11.023 11.023 0 007.351-1.892 10.999 10.999 0 004.325-6.24c.637-2.5.342-5.237-.807-7.547a10.919 10.919 0 00-5.546-5.183c-2.394-.99-5.181-1.085-7.585-.295l-.75-2.28z" fill="url(#paint0_linear)"/><path d="M11.167 11.333l1.166-.67.156.27 4.298-2.478-.314-.18-.316-.185L16 8l-7 4.044v.18l2.01-1.162.157.27zM11.167 13.879l3.368-1.946.157.273 4.297-2.48-.314-.183-.315-.18-.158-.089L9 14.587v.18l2.01-1.162.157.274zM11.167 15.151l4.469-2.58.158.27 4.295-2.481-.313-.178-.314-.184-.159-.09L9 15.856v.184l2.01-1.161.157.272zM11.167 16.422l5.602-3.234.159.271L21.19 11l-.313-.185-.316-.18-.157-.09L9 17.13v.18l2.01-1.162.157.274zM11.167 17.692l6.703-3.87.158.274 4.264-2.464-.314-.18-.314-.183-.159-.09L9 18.399v.18l2.01-1.16.157.273zM22.765 11.906l-.158-.092L9 19.674v.18l2.01-1.16.157.27 6.703-3.867.158.27L23 12.498V12.044l-.235-.138zM9.862 20.625l1.127-.65.157.271 6.692-3.863.157.275L23 13.768V12.857L9.708 20.535l.154.09zM17.838 17.657l.157.275L23 15.042V14.131l-12.191 7.039.158.09 1.144-.662.158.274M12.067 21.898l1.146-.664.156.274 4.47-2.582.156.275L23 16.31v-.909l-11.092 6.403.16.093zM13.168 22.533l1.145-.66.158.27 3.367-1.943.157.271L23 17.581v-.905l-9.989 5.767.157.09zM14.113 23.078l.157.09 1.148-.661.154.273 2.266-1.31.157.274L23 18.854V17.944l-8.887 5.134zM15.37 23.807l1.145-.665.158.274 1.165-.675.157.273L23 20.128v-.909l-7.787 4.497.158.09zM17.889 9.09l-.316-.18-.314-.181-.157-.093L9 13.313v.18l2.01-1.158.157.27 2.266-1.308.162.274 4.294-2.481z" fill="#000"/><defs><linearGradient id="paint0_linear" x1="2.043" y1="13.297" x2="15.222" y2="29.576" gradientUnits="userSpaceOnUse"><stop stop-color="#004CFF"/><stop offset=".252" stop-color="#00E0FB"/><stop offset=".506" stop-color="#87FF70"/><stop offset=".755" stop-color="#F8F500"/><stop offset="1" stop-color="#FF1A00"/></linearGradient></defs></svg>