<svg fill="none" viewBox="0 0 32 32"><path fill="#06B596" fill-rule="evenodd" d="M32 16L16 0 0 16l16 16 16-16z" clip-rule="evenodd"/><path fill="#01FEB5" fill-rule="evenodd" d="M32 16L16 0 0 16c8.05-4.176 12.038-1.98 16.084-.003 4.045 1.978 8.15 3.738 15.916.003z" clip-rule="evenodd"/><path fill="#fff" fill-rule="evenodd" d="M12.127 19.738c.079.542.472 1.332.942 1.83.47.497 1.017.702 1.531.82.515.118.997.15 1.505.136a7.899 7.899 0 001.535-.19c.494-.114.948-.282 1.297-.635.348-.353.59-.89.654-1.417a2.24 2.24 0 00-.319-1.46c-.264-.42-.676-.744-1.464-1.042-.787-.298-1.95-.569-2.815-.806-.866-.238-1.436-.441-1.951-.687-.515-.245-.976-.533-1.335-.852a3.43 3.43 0 01-.788-1.022 3.47 3.47 0 01-.323-1.029 4.227 4.227 0 01-.04-.975c.024-.318.08-.635.182-.957.103-.322.25-.649.467-.974.216-.326.5-.65.877-.947.379-.296.85-.565 1.376-.762a6.625 6.625 0 011.74-.375V6.4h1.375v1.982c2.647.24 4.71 1.914 4.79 4.446h-1.994c-.149-1.547-.992-2.24-2.347-2.583-.414-.105-.876-.177-1.824-.052-1.742.23-2.658 1.283-2.658 2.395 0 1.053.414 1.622 1.807 2.184.645.26 1.499.518 2.247.676 3.29.694 4.93 1.952 4.93 4.358 0 2.762-2.247 4.263-4.95 4.47v1.981h-1.376v-1.993c-2.727-.241-4.984-1.857-5.064-4.526h1.993z" clip-rule="evenodd"/></svg>