<svg viewBox="0 0 32 32"><defs><linearGradient id="a" x1="50%" x2="50%" y1="-29.386%" y2="100%"><stop offset="0%" stop-color="#08021E"/><stop offset="100%" stop-color="#074007"/></linearGradient></defs><g fill="none" fill-rule="evenodd"><path fill="url(#a)" fill-rule="nonzero" d="M32 16c0-2.094-.417-4.188-1.218-6.123a16.047 16.047 0 00-3.468-5.19 16.047 16.047 0 00-5.191-3.47A16.055 16.055 0 0016 0c-2.094 0-4.188.417-6.123 1.218a16.047 16.047 0 00-5.19 3.468 16.047 16.047 0 00-3.47 5.191A16.055 16.055 0 000 16c0 2.094.417 4.188 1.218 6.123a16.047 16.047 0 003.468 5.19 16.047 16.047 0 005.191 3.47A16.055 16.055 0 0016 32c2.094 0 4.188-.417 6.123-1.218a16.047 16.047 0 005.19-3.468 16.047 16.047 0 003.47-5.191A16.055 16.055 0 0032 16z"/><path fill="#011D07" d="M26.223 12.37l.015-.025c.55-.96.76-2.16.552-3.274a4.816 4.816 0 00-1.71-2.847 4.816 4.816 0 00-3.151-1.05 4.898 4.898 0 00-3.076 1.253l-.054.049-.048.054c-3.679 4.154-7.632 7.765-11.71 10.709a5.576 5.576 0 00-1.736 2.053 5.585 5.585 0 00-.57 2.629 5.6 5.6 0 00.73 2.59 5.6 5.6 0 003.083 2.524 6.028 6.028 0 002.557.25c.2-.025.392-.058.59-.105a3.8 3.8 0 00.647-.217 4.98 4.98 0 00.683-.374c.235-.15.486-.33.782-.553.296-.224.638-.493 1.05-.824.411-.332.896-.723 1.474-1.21a42.345 42.345 0 004.328-4.182c1.685-1.874 3.57-4.288 5.55-7.426l.014-.024z"/><path fill="#13A10E" d="M19.782 7.443c-.895 1.01-1.814 2-2.759 2.967a73.7 73.7 0 01-5.968 5.474 64.91 64.91 0 01-3.209 2.472 4.216 4.216 0 00-1.428 1.816 4.215 4.215 0 00-.247 2.296 4.216 4.216 0 001.007 2.079 4.217 4.217 0 001.957 1.228c.75.216 1.56.218 2.196.075.635-.142 1.093-.428 3.287-2.219 2.17-1.77 6.037-5.013 10.425-11.971.393-.684.541-1.54.393-2.333a3.432 3.432 0 00-1.218-2.028 3.43 3.43 0 00-2.244-.748 3.49 3.49 0 00-2.192.892z"/><path fill="#107C10" d="M6.11 21.733a4.168 4.168 0 001.068 2.814 4.217 4.217 0 001.957 1.228c.75.216 1.56.218 2.196.075.635-.142 1.093-.428 3.287-2.219 2.17-1.77 6.037-5.013 10.425-11.971a3.419 3.419 0 00.28-2.773c-4.584 6.486-8.23 9.825-10.6 11.791-2.368 1.967-3.46 2.561-4.427 2.777-.967.216-1.81.054-2.838-.562-.434-.26-.9-.599-1.349-1.16z"/><path fill="#16C50C" d="M8.549 19.658c-.149 0-.298.034-.446.102a1.013 1.013 0 00-.577.676c-.044.158-.054.31-.03.457a.312.312 0 00.558.132.321.321 0 00.054-.232.441.441 0 01.013-.19.423.423 0 01.24-.282.44.44 0 01.186-.043.312.312 0 00.22-.529.317.317 0 00-.218-.09zm2.79-.033a1.06 1.06 0 00-.445.102 1.013 1.013 0 00-.577.677 1.048 1.048 0 00-.03.456.313.313 0 00.356.256.313.313 0 00.256-.356.435.435 0 01.013-.19.422.422 0 01.24-.282.434.434 0 01.186-.042.32.32 0 00.22-.09.314.314 0 00.091-.22.314.314 0 00-.09-.22.32.32 0 00-.22-.09zm.756-2.79a1.041 1.041 0 00-.446.101 1.012 1.012 0 00-.577.677 1.048 1.048 0 00-.03.456.32.32 0 00.125.202.313.313 0 00.433-.07.318.318 0 00.054-.231.436.436 0 01.013-.19.422.422 0 01.24-.283.437.437 0 01.186-.042.32.32 0 00.22-.09.313.313 0 00.001-.44.32.32 0 00-.219-.09zm2.693.032c-.15 0-.298.034-.447.102a1.015 1.015 0 00-.577.676c-.043.158-.054.31-.03.457a.311.311 0 00.558.131.318.318 0 00.055-.23.435.435 0 01.012-.19.423.423 0 01.24-.283.435.435 0 01.187-.042.328.328 0 00.22-.09.312.312 0 000-.44.32.32 0 00-.218-.09zm.69-2.758c-.15 0-.298.034-.447.102a1.015 1.015 0 00-.577.676c-.044.157-.054.31-.03.457a.311.311 0 00.558.132.318.318 0 00.054-.232.441.441 0 01.013-.19.423.423 0 01.24-.282.44.44 0 01.186-.043.319.319 0 00.22-.09.312.312 0 00-.218-.53zm2.79.033c-.149 0-.298.033-.446.102a1.013 1.013 0 00-.577.676c-.044.157-.054.31-.03.457a.312.312 0 00.558.132.321.321 0 00.054-.232.441.441 0 01.013-.19.423.423 0 01.24-.282.436.436 0 01.186-.043.312.312 0 00.22-.529.318.318 0 00-.218-.09zm0-2.791c-.149 0-.298.034-.446.102a1.013 1.013 0 00-.577.676c-.044.157-.054.31-.03.457a.31.31 0 00.612-.1.441.441 0 01.013-.19.423.423 0 01.24-.282.44.44 0 01.186-.043.312.312 0 00.22-.529.319.319 0 00-.218-.091zm3.448-.723a1.05 1.05 0 00-.446.103 1.012 1.012 0 00-.577.676c-.044.157-.055.31-.03.456a.32.32 0 00.124.202.312.312 0 00.488-.301.431.431 0 01.012-.19.422.422 0 01.241-.282.435.435 0 01.186-.043.312.312 0 00.22-.529.32.32 0 00-.218-.092zm.032-2.692c-.149 0-.297.034-.446.102a1.015 1.015 0 00-.577.677 1.048 1.048 0 00-.03.456.319.319 0 00.125.202.313.313 0 00.433-.07.318.318 0 00.055-.232.436.436 0 01.012-.19.422.422 0 01.24-.282.44.44 0 01.187-.043.311.311 0 00.22-.529.317.317 0 00-.219-.09z"/><path fill="#13A00E" d="M24.045 12.322a.314.314 0 00-.091-.22.314.314 0 00-.22-.09.315.315 0 00-.219.09.314.314 0 00-.09.22c0 .08.033.162.09.22a.314.314 0 00.439 0 .315.315 0 00.09-.22zM12.647 24.51c.149 0 .297-.034.445-.102a1.01 1.01 0 00.577-.676c.045-.158.055-.31.03-.457a.312.312 0 00-.558-.132.321.321 0 00-.054.232.436.436 0 01-.012.19.423.423 0 01-.24.282.44.44 0 01-.187.043.312.312 0 00-.22.529c.057.057.14.09.219.09zm2.766-2.7c.149 0 .298-.034.446-.102.297-.137.489-.363.577-.677.044-.157.054-.31.03-.456a.31.31 0 00-.612.1.436.436 0 01-.013.19.422.422 0 01-.24.282.44.44 0 01-.186.042.319.319 0 00-.22.09.314.314 0 00-.091.22c0 .08.032.161.09.219a.32.32 0 00.22.091zm2.767-2.745c.149 0 .297-.034.445-.102a1.01 1.01 0 00.577-.677c.044-.157.055-.309.03-.456a.32.32 0 00-.124-.202.313.313 0 00-.232-.054.314.314 0 00-.201.125.32.32 0 00-.055.23.43.43 0 01-.012.191.422.422 0 01-.241.282.435.435 0 01-.186.042.313.313 0 00-.22.529.32.32 0 00.219.092zm2.667-2.8c.15 0 .298-.033.446-.101.296-.137.489-.362.577-.677.044-.157.054-.31.03-.456a.32.32 0 00-.125-.202.313.313 0 00-.433.07.318.318 0 00-.054.232.435.435 0 01-.013.19.421.421 0 01-.24.282.436.436 0 01-.186.042.312.312 0 00-.22.529.32.32 0 00.218.092z"/></g></svg>