<svg xmlns="http://www.w3.org/2000/svg" width="32" height="32"><defs><linearGradient id="a" x1="80.75%" x2="13.5%" y1="80.75%" y2="13.5%"><stop offset="0%" stop-color="#003CDA"/><stop offset="100%" stop-color="#33DFCC"/></linearGradient></defs><g fill="none"><path fill="url(#a)" d="M0 16C0 7.163 7.163 0 16 0s16 7.163 16 16-7.163 16-16 16S0 24.837 0 16z"/><path fill="#FFF" d="M9.306 1.463A15.88 15.88 0 0112.513.381v6.69H9.306V1.463zM.36 12.61a15.88 15.88 0 011.064-3.217h16.473a4.357 4.357 0 014.353 4.366v4.251a4.357 4.357 0 01-4.353 4.366h-4.238a4.357 4.357 0 01-4.353-4.366v-3.102h3.207v3.079c0 .643.504 1.149 1.146 1.149h4.238c.641 0 1.145-.506 1.145-1.149v-4.228c0-.643-.504-1.149-1.145-1.149H.36z"/></g></svg>