<svg xmlns="http://www.w3.org/2000/svg" width="32" height="32"><g fill="none" fill-rule="evenodd"><circle cx="16" cy="16" r="16" fill="#FFF"/><g fill-rule="nonzero"><path fill="#4460EF" d="M16.86 4.5a7.47 7.47 0 00-7.471 7.409V26.65c0 .249.2.45.45.45h2.785a4.174 4.174 0 004.174-4.174v-3.486h.064A7.471 7.471 0 0016.859 4.5z"/><path fill="#FFF" d="M15.73 13.164c-.519 0-.941-.844-.941-1.883 0-1.041.422-1.884.94-1.884.519 0 .943.843.943 1.884 0 1.039-.422 1.883-.943 1.883zm5.399 0c-.518 0-.94-.844-.94-1.883 0-1.041.422-1.884.94-1.884s.943.843.943 1.884c-.003 1.039-.425 1.883-.943 1.883z"/></g></g></svg>