<svg width="32" height="32" fill="none" xmlns="http://www.w3.org/2000/svg"><path fill-rule="evenodd" clip-rule="evenodd" d="M32 16c0-2.094-.417-4.188-1.218-6.123a16.058 16.058 0 00-3.468-5.19 16.051 16.051 0 00-5.191-3.47A16.054 16.054 0 0016 0c-2.094 0-4.188.417-6.123 1.218a16.055 16.055 0 00-5.19 3.468 16.05 16.05 0 00-3.47 5.191A16.049 16.049 0 000 16c0 2.094.416 4.188 1.218 6.123a16.056 16.056 0 003.468 5.19 16.055 16.055 0 005.19 3.469A16.056 16.056 0 0016 32c2.094 0 4.188-.417 6.123-1.218a16.051 16.051 0 005.19-3.468 16.063 16.063 0 003.47-5.191A16.054 16.054 0 0032 16z" fill="#fff"/><path fill-rule="evenodd" clip-rule="evenodd" d="M11.855 3.384a13.267 13.267 0 0113.213 2.914 13.155 13.155 0 013.417 5.189c.71 1.99.946 4.19.672 6.284a13.194 13.194 0 01-2.243 5.795 13.207 13.207 0 01-4.64 4.134 13.622 13.622 0 01-6.12 1.576 13.207 13.207 0 01-6.059-1.381 13.19 13.19 0 01-4.763-3.991 13.662 13.662 0 01-2.444-5.83 13.13 13.13 0 01.487-6.193 13.392 13.392 0 012.23-4.145H4.12V5.282h5.817v5.431H7.483V9.23a10.961 10.961 0 00-1.827 3.397 10.787 10.787 0 00-.4 5.07 11.107 11.107 0 002.81 5.75 10.952 10.952 0 006.8 3.375 11.023 11.023 0 007.351-1.892 10.999 10.999 0 004.325-6.24c.637-2.5.342-5.237-.807-7.547a10.919 10.919 0 00-5.546-5.183c-2.394-.99-5.181-1.085-7.585-.295l-.75-2.28z" fill="url(#paint0_linear)"/><path d="M15.704 21.139a5.007 5.007 0 01-1.445-.322 4.045 4.045 0 01-1.168-.716 3.45 3.45 0 01-.784-1.01A2.83 2.83 0 0112 17.85h1.89c.02.477.195.877.523 1.199.338.312.768.492 1.29.54v-2.894l-.722-.103c-.83-.107-1.49-.404-1.982-.892-.482-.487-.722-1.106-.722-1.856 0-.39.092-.756.276-1.097.185-.351.436-.658.753-.921a3.907 3.907 0 011.091-.658 4.629 4.629 0 011.307-.307V9.5h1.121v1.389a4.45 4.45 0 011.276.35c.39.167.727.381 1.014.644.287.264.512.566.676.907.174.341.272.707.292 1.096h-1.89a1.348 1.348 0 00-.415-.906 1.9 1.9 0 00-.953-.541v2.676l.523.073c.39.058.758.16 1.106.307.349.146.65.336.907.57.266.234.471.517.615.848.153.322.23.687.23 1.097 0 .438-.087.838-.261 1.199-.164.35-.4.662-.707.935a3.834 3.834 0 01-1.076.658c-.41.166-.855.273-1.337.322v1.506h-1.121v-1.491zm1.121-1.565c.482-.078.856-.244 1.122-.497.267-.263.4-.595.4-.994 0-.37-.128-.644-.384-.819a2.103 2.103 0 00-.876-.366l-.262-.043v2.72zm-1.121-7.179c-.43.059-.8.21-1.107.453-.297.234-.445.551-.445.95 0 .342.097.6.291.776.205.165.472.273.8.321l.46.073v-2.573z" fill="#000"/><circle cx="16" cy="16" r="8" fill="#000"/><circle cx="16" cy="16" r="8" fill="url(#paint1_linear)" fill-opacity=".75"/><circle cx="16" cy="16" r="6.933" fill="#fff"/><circle cx="15.983" cy="15.983" r="6.317" fill="#000"/><path fill-rule="evenodd" clip-rule="evenodd" d="M18.785 15.156c.12-.8-.494-1.228-1.333-1.516l.272-1.08-.665-.165-.266 1.053a25.396 25.396 0 00-.532-.124l.266-1.06-.664-.164-.273 1.082-.091-.021a27.99 27.99 0 01-.334-.078l.002-.004-.918-.227-.177.704h.006c.057.014.487.112.477.119.269.066.319.243.31.383l-.746 2.963c-.033.081-.117.203-.305.157.007.01-.46-.113-.484-.12l-.33.754.866.214.275.07.199.05-.275 1.095.664.164.273-1.082c.181.048.357.093.53.135l-.272 1.078.665.164.276-1.092c1.133.213 1.987.127 2.346-.89.289-.817-.015-1.288-.612-1.596.435-.099.762-.382.85-.966zm-3.436 2.408a8.962 8.962 0 00-.131-.034l.365-1.45c.046.012.101.024.165.039.562.124 1.71.38 1.517 1.146-.189.75-1.373.44-1.916.299zm.51-2.12c.452.12 1.44.382 1.611-.3.176-.698-.783-.909-1.252-1.011l-.137-.031-.33 1.314.108.029z" fill="#fff"/><defs><linearGradient id="paint0_linear" x1="2.043" y1="13.297" x2="15.222" y2="29.576" gradientUnits="userSpaceOnUse"><stop stop-color="#004CFF"/><stop offset=".252" stop-color="#00E0FB"/><stop offset=".506" stop-color="#87FF70"/><stop offset=".755" stop-color="#F8F500"/><stop offset="1" stop-color="#FF1A00"/></linearGradient><linearGradient id="paint1_linear" x1="8" y1="8" x2="24" y2="24" gradientUnits="userSpaceOnUse"><stop stop-color="#fff"/><stop offset="1" stop-color="#fff" stop-opacity="0"/></linearGradient></defs></svg>