<svg width="32" height="32" fill="none" xmlns="http://www.w3.org/2000/svg"><path fill-rule="evenodd" clip-rule="evenodd" d="M32 16c0-8.828-7.172-16-16-16S0 7.172 0 16s7.172 16 16 16 16-7.172 16-16z" fill="#fff"/><path fill-rule="evenodd" clip-rule="evenodd" d="M13.082 26.195h5.836v-1.978h-5.836v1.978zM11.375 22.899h9.25V20.92h-9.25V22.9zM11.071 15.433c.13 1.851 1.022 2.857 2.055 3.468 1.032.61 2.204.825 3.327.8 1.122-.026 2.196-.293 2.983-.842a3.481 3.481 0 001.442-2.264 3.743 3.743 0 00-.483-2.539c-.44-.711-1.12-1.192-1.856-1.557-.736-.366-1.527-.617-2.262-.869-.736-.251-1.415-.502-1.847-.878-.431-.376-.615-.876-.561-1.36.053-.486.344-.956.837-1.25.493-.293 1.188-.41 1.981-.268.793.142 1.684.543 1.826 2.133h2.402c-.153-2.604-1.625-3.48-2.948-3.897-1.324-.418-2.498-.378-3.498-.054-1 .323-1.825.929-2.319 1.652a3.46 3.46 0 00-.574 2.317c.082.754.408 1.421.973 1.977.564.556 1.368 1 2.313 1.357.945.357 2.031.627 2.706 1.024.675.398.939.923.984 1.458.044.536-.129 1.082-.63 1.476-.5.395-1.329.638-2.298.476-.97-.162-2.082-.729-2.166-2.36h-2.387z" fill="#000"/></svg>