<svg xmlns="http://www.w3.org/2000/svg" width="32" height="32"><g fill="none" fill-rule="evenodd"><path fill="#FFF" d="M32 16c0-2.094-.417-4.188-1.218-6.123a16.057 16.057 0 00-3.468-5.19 16.052 16.052 0 00-5.191-3.47A16.055 16.055 0 0016 0c-2.094 0-4.188.417-6.123 1.218a16.055 16.055 0 00-5.19 3.468 16.05 16.05 0 00-3.47 5.191A16.049 16.049 0 000 16c0 2.094.416 4.188 1.218 6.123a16.056 16.056 0 003.468 5.19 16.054 16.054 0 005.19 3.469A16.056 16.056 0 0016 32c2.094 0 4.188-.417 6.123-1.218a16.05 16.05 0 005.19-3.468 16.062 16.062 0 003.47-5.191A16.055 16.055 0 0032 16z"/><path fill="#0657F9" d="M11.855 3.384a13.266 13.266 0 0113.213 2.914 13.155 13.155 0 013.417 5.189c.71 1.99.946 4.19.672 6.284a13.194 13.194 0 01-2.243 5.795 13.207 13.207 0 01-4.64 4.134 13.622 13.622 0 01-6.12 1.576 13.207 13.207 0 01-6.059-1.381 13.19 13.19 0 01-4.763-3.991 13.662 13.662 0 01-2.444-5.83 13.13 13.13 0 01.487-6.193 13.391 13.391 0 012.23-4.145H4.12V5.282h5.817v5.432H7.483V9.229a10.961 10.961 0 00-1.827 3.397 10.786 10.786 0 00-.4 5.07 11.107 11.107 0 002.81 5.75 10.952 10.952 0 006.8 3.375 11.023 11.023 0 007.351-1.892 10.999 10.999 0 004.325-6.24c.637-2.5.342-5.237-.807-7.547a10.919 10.919 0 00-5.546-5.183c-2.394-.99-5.181-1.085-7.585-.295l-.75-2.28z"/><path fill="#000" d="M16.285 10.5c.34 0 .678.05 1.012.11.689.127 1.35.37 1.955.718.402.231.77.516 1.099.84.252.25.47.53.668.823.2.295.36.615.488.946.016.087.1.145.186.13h1.118c.144 0 .144 0 .15.136.016.338.016.676 0 1.015-.004.098-.037.123-.138.123h-.861c-.088 0-.113 0-.107.112.02.377.034.754 0 1.131 0 .105 0 .117.12.117h.986c.043.056 0 .112 0 .168a1.22 1.22 0 010 .216v.748c0 .105-.032.136-.126.136h-1.18a.156.156 0 00-.181.118 4.945 4.945 0 01-1.312 1.892c-.211.19-.435.367-.668.532-.25.142-.493.29-.75.408a6.48 6.48 0 01-1.473.463 7.17 7.17 0 01-1.462.118c-1.444-.02-2.889-.02-4.334 0v-.007h.002v-3.42c0-.08 0-.093-.1-.093h-1.355c-.075 0-.106 0-.106-.098v-1.175h1.449c.08 0 .112 0 .112-.105v-1.163c0-.074 0-.092-.1-.092h-1.355c-.075 0-.106 0-.106-.1V14.16c0-.068 0-.086.1-.086h1.342c.094 0 .119 0 .119-.118v-3.333c0-.099 0-.124.125-.124h4.683zm3.497 7.486h-6.925c-.094 0-.125 0-.125.124v2.146c0 .099 0 .124.125.124h3.197c.153.011.306 0 .456-.031.464-.033.92-.133 1.356-.297.156-.06.31-.125.455-.21h.044a4.036 4.036 0 001.742-1.737c.002-.005.044-.093-.005-.118a1.424 1.424 0 00-.32 0zm.625-2.646H12.85c-.093 0-.118.03-.118.118v1.1c0 .122 0 .14.094.142h7.575c.08 0 .119 0 .125-.105a8.432 8.432 0 000-1.15c0-.074-.037-.105-.119-.105zm-4.216-3.667c-1.118.01-2.235.01-3.353 0-.094 0-.106.037-.106.118v2.195c0 .092 0 .117.118.117h7.207c.003 0 .062-.012.075-.05H20.1a.116.116 0 000-.086 2.443 2.443 0 00-.225-.39 3.163 3.163 0 00-.462-.574 1.524 1.524 0 00-.288-.279 4.507 4.507 0 00-1.873-.94 4.484 4.484 0 00-1.062-.11z"/></g></svg>