<svg fill="none" viewBox="0 0 32 32"><path fill="#FFA415" fill-rule="evenodd" d="M32 16c0-2.094-.417-4.188-1.218-6.123a16.046 16.046 0 00-3.468-5.19 16.046 16.046 0 00-5.191-3.47A16.055 16.055 0 0016 0c-2.094 0-4.188.417-6.123 1.218a16.047 16.047 0 00-5.19 3.468 16.047 16.047 0 00-3.47 5.191A16.054 16.054 0 000 16c0 2.094.417 4.188 1.218 6.123a16.046 16.046 0 003.468 5.19 16.046 16.046 0 005.191 3.47A16.054 16.054 0 0016 32c2.094 0 4.188-.417 6.123-1.218a16.046 16.046 0 005.19-3.468 16.046 16.046 0 003.47-5.191A16.054 16.054 0 0032 16z" clip-rule="evenodd"/><path fill="#000" fill-rule="evenodd" d="M8.433 19.929v1.164h.582v.582h.582v.582h.583v.582h.582v.582h.582v.582h.582V22.84h-.582v-.582h-.582v-.582h-.582v-.582h-.583v-.582h-.582v-.582h-.582z" clip-rule="evenodd"/><path fill="#C7C7C7" fill-rule="evenodd" d="M11.926 24.585h.582v-2.91h-.582v2.91zm-.582-2.91h.582v-1.164h-.582v1.164zm-.582-1.164h.582v-1.164h-.582v1.164zm-.582-1.164h.582v-2.328h-.582v2.328zm-.583-2.328h.583v-1.746h-.583v1.746zm-.582-1.746h.582v-1.747h-.582v1.747zm-.582-1.747h.582v-1.164h-.582v1.164zm-.582-1.746v.582h.582v-.582h-.582z" clip-rule="evenodd"/><path fill="#000" fill-rule="evenodd" d="M23.567 19.929v1.164h-.582v.582h-.582v.582h-.582v.582h-.583v.582h-.582v.582h-.582V22.84h.582v-.582h.582v-.582h.582v-.582h.583v-.582h.582v-.582h.582z" clip-rule="evenodd"/><path fill="#C7C7C7" fill-rule="evenodd" d="M20.074 24.585h-.582v-2.91h.582v2.91zm.582-2.91h-.582v-1.164h.582v1.164zm.582-1.164h-.582v-1.164h.582v1.164zm.582-1.164h-.582v-2.328h.582v2.328zm.582-2.328h-.582v-1.746h.582v1.746zm.583-1.746h-.582v-1.747h.582v1.747zm.582-1.747h-.582v-1.164h.582v1.164zm.582-1.746v.582h-.582v-.582h.582z" clip-rule="evenodd"/><path fill="#fff" fill-rule="evenodd" d="M7.851 7.124v.582h.582v-.582h-.582zm1.746 0v.582h.583v-.582h-.583zm0-.582H8.433v.582h1.164v-.582z" clip-rule="evenodd"/><path fill="#C7C7C7" fill-rule="evenodd" d="M9.597 5.96H8.433v.582h1.164V5.96zm1.747 1.164h-.582v-.582H9.597v.582h.583v.582h1.164v-.582z" clip-rule="evenodd"/><path fill="#fff" fill-rule="evenodd" d="M24.149 7.124v.582h-.582v-.582h.582zm-1.747 0v.582h-.582v-.582h.582zm0-.582h1.165v.582h-1.164v-.582z" clip-rule="evenodd"/><path fill="#C7C7C7" fill-rule="evenodd" d="M22.403 5.96h1.164v.582h-1.164V5.96zm-1.747 1.164h.582v-.582h1.165v.582h-.582v.582h-1.165v-.582zM9.597 20.51v.582h.583v-.582h-.583zm.583.582v.582h.582v-.582h-.582zm.582.582v.582h.582v-.582h-.582zm.582.582v.582h.582v-.582h-.582zM9.015 19.93v.582h.582v-.582h-.582zm-.582-.582v.582h.582v-.582h-.582zm13.97 1.164v.582h-.582v-.582h.581zm-.582.582v.582h-.583v-.582h.582zm-.583.582v.582h-.582v-.582h.582zm-.582.582v.582h-.582v-.582h.582zm2.329-2.328v.582h-.582v-.582h.582zm.582-.582v.582h-.582v-.582h.582z" clip-rule="evenodd"/><path fill="#fff" fill-rule="evenodd" d="M9.015 19.347v.582h.582v.582h.583v.582h.582v.582h.582v-1.164h-.582v-1.164h-.582v-2.328h-.583v-1.746h-.582v-1.747h-.582v-1.164h-.582v-.582H7.27v1.164h-.582v1.747h-.582v2.328h.582v1.164h.582v.582h.582v.582h1.164zm2.91 2.328h-.581v.582h.582v-.582zm11.06-2.328v.582h-.582v.582h-.582v.582h-.583v.582h-.582v-1.164h.582v-1.164h.582v-2.328h.583v-1.746h.582v-1.747h.582v-1.164h.582v-.582h.582v1.164h.582v1.747h.582v2.328h-.582v1.164h-.582v.582h-.582v.582h-1.164zm-2.91 2.328h.581v.582h-.582v-.582z" clip-rule="evenodd"/><path fill="#191919" fill-rule="evenodd" d="M13.672 11.198h.582V9.452h-.582V8.288h.582v-.582h-.582V6.542h-1.164v.582h-1.164v.582H9.597v-.582H8.433v.582H7.27v2.328h.582v1.746h.582v.582h.582v1.164h.582v1.747h.583v1.746h.582v2.328h.582v1.164h.582v1.164h.582v2.91h.582v-.582h.582v-3.492h.582v-2.91h-.582v-6.403z" clip-rule="evenodd"/><path fill="#000" fill-rule="evenodd" d="M13.09 19.347h-1.164v-.582h-.582V17.6h.582v-.582h1.164v.582h.582v1.164h-.582v.582z" clip-rule="evenodd"/><path fill="#fff" fill-rule="evenodd" d="M11.926 18.183h.582V17.6h-.582v.582z" clip-rule="evenodd"/><path fill="#191919" fill-rule="evenodd" d="M18.328 11.198h-.582V9.452h.582V8.288h-.582v-.582h.582V6.542h1.164v.582h1.164v.582h1.747v-.582h1.164v.582h1.164v2.328h-.582v1.746h-.582v.582h-.582v1.164h-.582v1.747h-.582v1.746h-.583v2.328h-.582v1.164h-.582v1.164h-.582v2.91h-.582v-.582h-.582v-3.492h-.582v-2.91h.582v-6.403z" clip-rule="evenodd"/><path fill="#000" fill-rule="evenodd" d="M18.91 19.347h1.164v-.582h.582V17.6h-.582v-.582H18.91v.582h-.582v1.164h.582v.582z" clip-rule="evenodd"/><path fill="#fff" fill-rule="evenodd" d="M19.492 18.183h-.582V17.6h.582v.582z" clip-rule="evenodd"/><path fill="#C7C7C7" fill-rule="evenodd" d="M7.27 7.706V6.542h1.163v.582h-.582v.582H7.27zm17.46 0V6.542h-1.163v.582h.582v.582h.582zm-10.476 3.492v6.403h-.582v-6.403h.582zm0-1.746V8.288h-.582v1.164h.582zm0-1.746V6.542h-.582v1.164h.582zm0 12.805v3.492h-.582v-3.492h.582zm3.492-9.313v6.403h.582v-6.403h-.582zm0-1.746V8.288h.582v1.164h-.582zm0-1.746V6.542h.582v1.164h-.582zm0 12.805v3.492h.582v-3.492h-.582zm-3.492-2.91h.582v2.91h-.582v-2.91zm3.492 0h-.582v2.91h.582v-2.91zm-3.492-8.149h.582v1.746h-.582V9.452zm3.492 0h-.582v1.746h.582V9.452zm-3.492-1.746v.582h.582v-.582h-.582zm3.492 0v.582h-.582v-.582h.582zM13.09 24.003v.582h.582v-.582h-.582zm.582.582v.582h.582v-.582h-.582z" clip-rule="evenodd"/><path fill="#fff" fill-rule="evenodd" d="M13.672 24.003v.582h.582v-.582h-.582zm-.582.582v.582h.582v-.582h-.582z" clip-rule="evenodd"/><path fill="#C7C7C7" fill-rule="evenodd" d="M13.672 26.914v.582h.582v-.582h-.582zm0 0v-1.747h-.582v-.582h-.582v1.164h.582v1.165h.582zm4.656 0v-1.747h.582v-.582h.582v1.164h-.582v1.165h-.582zm0 0v.582h-.582v-.582h.582zm.582-2.91v.581h-.582v-.582h.582zm-.582.581v.582h-.582v-.582h.582z" clip-rule="evenodd"/><path fill="#fff" fill-rule="evenodd" d="M18.328 24.003v.582h-.582v-.582h.582zm.582.582v.582h-.582v-.582h.582z" clip-rule="evenodd"/><path fill="#C7C7C7" fill-rule="evenodd" d="M14.254 24.585h3.492v-.582h-3.492v.582z" clip-rule="evenodd"/><path fill="#191919" fill-rule="evenodd" d="M14.254 25.167v-.582h3.492v.582h.582v1.747h-.582v.582h-.582v.582h-2.328v-.582h-.582v-.582h-.582v-1.747h.582z" clip-rule="evenodd"/><path fill="#fff" fill-rule="evenodd" d="M14.254 6.542h3.492v1.164h-.582v.582h.582v1.164h-.582v1.746h.582v6.403h-.582v2.91h.582v3.492h-3.492v-3.492h.582v-2.91h-.582v-6.403h.582V9.452h-.582V8.288h.582v-.582h-.582V6.542z" clip-rule="evenodd"/></svg>