<svg width="32" height="32" fill="none" xmlns="http://www.w3.org/2000/svg"><path fill-rule="evenodd" clip-rule="evenodd" d="M32 16c0-2.094-.417-4.188-1.218-6.123a16.046 16.046 0 00-3.468-5.19 16.046 16.046 0 00-5.191-3.47A16.055 16.055 0 0016 0c-2.094 0-4.188.417-6.123 1.218a16.047 16.047 0 00-5.19 3.468 16.047 16.047 0 00-3.47 5.191A16.054 16.054 0 000 16c0 2.094.417 4.188 1.218 6.123a16.046 16.046 0 003.468 5.19 16.046 16.046 0 005.191 3.47A16.054 16.054 0 0016 32c2.094 0 4.188-.417 6.123-1.218a16.046 16.046 0 005.19-3.468 16.046 16.046 0 003.47-5.191A16.054 16.054 0 0032 16z" fill="#FFA415"/><path fill-rule="evenodd" clip-rule="evenodd" d="M8.433 19.929v1.164h.582v.582h.582v.582h.583v.582h.582v.582h.582v.582h.582V22.84h-.582v-.582h-.582v-.582h-.582v-.582h-.583v-.582h-.582v-.582h-.582z" fill="#000"/><path fill-rule="evenodd" clip-rule="evenodd" d="M11.926 24.585h.582V21.675h-.582V24.585zM11.344 21.675h.582v-1.164h-.582v1.164zM10.762 20.511h.582v-1.164h-.582v1.164zM10.18 19.347h.582v-2.328h-.582v2.328zM9.597 17.019h.583v-1.746h-.583v1.746z" fill="#C7C7C7"/><path fill-rule="evenodd" clip-rule="evenodd" d="M9.015 15.273h.582V13.526h-.582V15.273zM8.433 13.526h.582v-1.164h-.582v1.164zM7.851 11.78v.582h.582v-.582h-.582z" fill="#C7C7C7"/><path fill-rule="evenodd" clip-rule="evenodd" d="M23.567 19.929v1.164h-.582v.582h-.582v.582h-.582v.582h-.583v.582h-.582v.582h-.582V22.84h.582v-.582h.582v-.582h.582v-.582h.583v-.582h.582v-.582h.582z" fill="#000"/><path fill-rule="evenodd" clip-rule="evenodd" d="M20.074 24.585h-.582V21.675h.582V24.585zM20.656 21.675h-.582v-1.164h.582v1.164zM21.238 20.511h-.582v-1.164h.582v1.164zM21.82 19.347h-.582v-2.328h.582v2.328zM22.402 17.019h-.582v-1.746h.582v1.746zM22.985 15.273h-.582V13.526h.582V15.273zM23.567 13.526h-.582v-1.164h.582v1.164zM24.149 11.78v.582h-.582v-.582h.582z" fill="#C7C7C7"/><path fill-rule="evenodd" clip-rule="evenodd" d="M7.851 7.124v.582h.582v-.582h-.582zM9.597 7.124v.582h.583v-.582h-.583zM9.597 6.542H8.433v.582h1.164v-.582z" fill="#fff"/><path fill-rule="evenodd" clip-rule="evenodd" d="M9.597 5.96H8.433v.582h1.164V5.96zM11.344 7.124h-.582v-.582H9.597v.582h.583v.582h1.164v-.582z" fill="#C7C7C7"/><path fill-rule="evenodd" clip-rule="evenodd" d="M24.149 7.124v.582h-.582v-.582h.582zM22.402 7.124v.582h-.582v-.582h.582zM22.403 6.542h1.164v.582h-1.164v-.582z" fill="#fff"/><path fill-rule="evenodd" clip-rule="evenodd" d="M22.403 5.96h1.164v.582h-1.164V5.96zM20.656 7.124h.582v-.582h1.165v.582h-.582v.582h-1.165v-.582zM9.597 20.511v.582h.583v-.582h-.583zM10.18 21.093v.582h.582v-.582h-.582zM10.762 21.675v.582h.582v-.582h-.582zM11.344 22.257v.582h.582v-.582h-.582zM9.015 19.929v.582h.582v-.582h-.582zM8.433 19.347v.582h.582v-.582h-.582zM22.402 20.511v.582h-.582v-.582h.582zM21.82 21.093v.582h-.582v-.582h.582zM21.238 21.675v.582h-.582v-.582h.582zM20.656 22.257v.582h-.582v-.582h.582zM22.985 19.929v.582h-.582v-.582h.582zM23.567 19.347v.582h-.582v-.582h.582z" fill="#C7C7C7"/><path fill-rule="evenodd" clip-rule="evenodd" d="M9.015 19.347v.582h.582v.582h.583v.582h.582v.582h.582v-1.164h-.582v-1.164h-.582v-2.328h-.583v-1.746h-.582V13.526h-.582v-1.164h-.582v-.582H7.27v1.164h-.582V14.691h-.582v2.328h.582v1.164h.582v.582h.582v.582h1.164z" fill="#fff"/><path fill-rule="evenodd" clip-rule="evenodd" d="M11.926 21.675h-.582v.582h.582v-.582zM22.985 19.347v.582h-.582v.582h-.582v.582h-.583v.582h-.582v-1.164h.582v-1.164h.582v-2.328h.583v-1.746h.582V13.526h.582v-1.164h.582v-.582h.582v1.164h.582V14.691h.582v2.328h-.582v1.164h-.582v.582h-.582v.582h-1.164z" fill="#fff"/><path fill-rule="evenodd" clip-rule="evenodd" d="M20.074 21.675h.582v.582h-.582v-.582z" fill="#fff"/><path fill-rule="evenodd" clip-rule="evenodd" d="M13.672 11.198h.582V9.452h-.582V8.288h.582v-.582h-.582V6.542h-1.164v.582h-1.164v.582H9.597v-.582H8.433v.582H7.27v2.328h.582v1.746h.582v.582h.582v1.164h.582v1.747h.583v1.746h.582v2.328h.582v1.164h.582v1.164h.582v2.91h.582v-.582h.582v-3.492h.582v-2.91h-.582v-6.403z" fill="#191919"/><path fill-rule="evenodd" clip-rule="evenodd" d="M13.09 19.347h-1.164v-.582h-.582V17.6h.582v-.582h1.164v.582h.582v1.164h-.582v.582z" fill="#000"/><path fill-rule="evenodd" clip-rule="evenodd" d="M11.926 18.183h.582V17.6h-.582v.582z" fill="#fff"/><path fill-rule="evenodd" clip-rule="evenodd" d="M18.328 11.198h-.582V9.452h.582V8.288h-.582v-.582h.582V6.542h1.164v.582h1.164v.582h1.747v-.582h1.164v.582h1.164v2.328h-.582v1.746h-.582v.582h-.582v1.164h-.582v1.747h-.582v1.746h-.583v2.328h-.582v1.164h-.582v1.164h-.582v2.91h-.582v-.582h-.582v-3.492h-.582v-2.91h.582v-6.403z" fill="#191919"/><path fill-rule="evenodd" clip-rule="evenodd" d="M18.91 19.347h1.164v-.582h.582V17.6h-.582v-.582H18.91v.582h-.582v1.164h.582v.582z" fill="#000"/><path fill-rule="evenodd" clip-rule="evenodd" d="M19.492 18.183h-.582V17.6h.582v.582z" fill="#fff"/><path fill-rule="evenodd" clip-rule="evenodd" d="M7.27 7.706V6.542h1.163v.582h-.582v.582H7.27zM24.73 7.706V6.542h-1.163v.582h.582v.582h.582zM14.254 11.198v6.403h-.582v-6.403h.582zM14.254 9.452V8.288h-.582v1.164h.582zM14.254 7.706V6.542h-.582v1.164h.582zM14.254 20.511v3.492h-.582v-3.492h.582zM17.746 11.198v6.403h.582v-6.403h-.582zM17.746 9.452V8.288h.582v1.164h-.582zM17.746 7.706V6.542h.582v1.164h-.582zM17.746 20.511v3.492h.582v-3.492h-.582zM14.254 17.601h.582v2.91h-.582v-2.91zM17.746 17.601h-.582v2.91h.582v-2.91zM14.254 9.452h.582v1.746h-.582V9.452zM17.746 9.452h-.582v1.746h.582V9.452zM14.254 7.706v.582h.582v-.582h-.582zM17.746 7.706v.582h-.582v-.582h.582zM13.09 24.003v.582h.582v-.582h-.582zM13.672 24.585v.582h.582v-.582h-.582z" fill="#C7C7C7"/><path fill-rule="evenodd" clip-rule="evenodd" d="M13.672 24.003v.582h.582v-.582h-.582zM13.09 24.585v.582h.582v-.582h-.582z" fill="#fff"/><path fill-rule="evenodd" clip-rule="evenodd" d="M13.672 26.914v.582h.582v-.582h-.582zM13.672 26.914V25.167h-.582v-.582h-.582v1.164h.582v1.165h.582zM18.328 26.914V25.167h.582v-.582h.582v1.164h-.582v1.165h-.582zM18.328 26.914v.582h-.582v-.582h.582zM18.91 24.003v.582h-.582v-.582h.582zM18.328 24.585v.582h-.582v-.582h.582z" fill="#C7C7C7"/><path fill-rule="evenodd" clip-rule="evenodd" d="M18.328 24.003v.582h-.582v-.582h.582zM18.91 24.585v.582h-.582v-.582h.582z" fill="#fff"/><path fill-rule="evenodd" clip-rule="evenodd" d="M14.254 24.585h3.492v-.582h-3.492v.582z" fill="#C7C7C7"/><path fill-rule="evenodd" clip-rule="evenodd" d="M14.254 25.167v-.582h3.492v.582h.582v1.747h-.582v.582h-.582v.582h-2.328v-.582h-.582v-.582h-.582v-1.747h.582z" fill="#191919"/><path fill-rule="evenodd" clip-rule="evenodd" d="M14.254 6.542h3.492v1.164h-.582v.582h.582v1.164h-.582v1.746h.582v6.403h-.582v2.91h.582v3.492h-3.492v-3.492h.582v-2.91h-.582v-6.403h.582V9.452h-.582V8.288h.582v-.582h-.582V6.542z" fill="#fff"/></svg>