<svg viewBox="0 0 32 32"><g fill="none" fill-rule="evenodd"><path fill="#54AE94" d="M32 16c0-2.094-.417-4.188-1.218-6.123a16.047 16.047 0 00-3.468-5.19 16.047 16.047 0 00-5.191-3.47A16.055 16.055 0 0016 0c-2.094 0-4.188.417-6.123 1.218a16.047 16.047 0 00-5.19 3.468 16.047 16.047 0 00-3.47 5.191A16.055 16.055 0 000 16c0 2.094.417 4.188 1.218 6.123a16.047 16.047 0 003.468 5.19 16.047 16.047 0 005.191 3.47A16.055 16.055 0 0016 32c2.094 0 4.188-.417 6.123-1.218a16.047 16.047 0 005.19-3.468 16.047 16.047 0 003.47-5.191A16.055 16.055 0 0032 16z"/><path fill="#FFF" d="M23.78 8v3.568h-5.42v2.011l.016.001c2.218.101 4.16.367 5.574.747.707.19 1.28.404 1.705.661.212.128.388.267.521.432a.94.94 0 01.224.584.94.94 0 01-.224.585c-.133.165-.31.304-.521.432-.424.256-.998.472-1.705.661-1.413.38-3.356.646-5.574.747h-.015V25.6h-3.922v-7.17l-.015-.001c-2.218-.101-4.16-.367-5.574-.747-.707-.19-1.28-.405-1.705-.661a1.957 1.957 0 01-.521-.432.94.94 0 01-.224-.585.94.94 0 01.224-.584c.133-.165.31-.304.521-.432.424-.257.998-.472 1.705-.661 1.413-.38 3.356-.646 5.574-.747h.016v-2.012H9.02V8h14.76zm-5.418 6.367v2.009l-.039.003c-.05.004-.228.02-.548.033a27.9 27.9 0 01-1.175.025h-.507l-.103-.002a38.994 38.994 0 01-.965-.023c-.32-.013-.498-.029-.548-.033l-.039-.003v-2.009c-1.93.085-3.614.295-4.804.58-.596.141-1.068.304-1.376.468a1.272 1.272 0 00-.332.238c-.065.072-.084.124-.084.168 0 .045.019.096.084.169.066.071.178.155.332.237.308.165.78.327 1.376.47 1.192.283 2.88.494 4.813.579l1.953.043 1.953-.043c1.933-.085 3.621-.296 4.813-.58.596-.142 1.068-.304 1.376-.469.154-.082.266-.166.332-.237.065-.073.084-.124.084-.169 0-.044-.019-.096-.084-.168a1.272 1.272 0 00-.332-.238c-.308-.164-.78-.327-1.376-.469-1.19-.284-2.874-.494-4.804-.579z"/></g></svg>