<svg viewBox="0 0 32 32"><defs><linearGradient id="a" x1="50%" x2="50%" y1="0%" y2="100%"><stop offset="0%" stop-color="#0C3D2E"/><stop offset="100%" stop-color="#0C3D2E"/></linearGradient></defs><g fill="none" fill-rule="evenodd"><path fill="url(#a)" fill-rule="nonzero" d="M16 32c8.837 0 16-7.163 16-16S24.837 0 16 0 0 7.163 0 16s7.163 16 16 16z"/><path fill="#00D395" d="M9.243 21.365a1.611 1.611 0 01-.771-1.373v-3.126a.67.67 0 011.011-.58l7.055 4.114c.412.24.667.682.667 1.16v3.238a.803.803 0 01-1.226.688l-6.736-4.121zm10.515-5.935c.413.24.666.684.668 1.16v6.573a.534.534 0 01-.274.467l-1.544.87a.27.27 0 01-.062.025v-3.65c0-.472-.248-.91-.655-1.153l-6.195-3.706v-4.12a.67.67 0 011.011-.58l7.051 4.114zm3.088-4.854c.415.24.67.683.67 1.162v9.6a.544.544 0 01-.284.472l-1.464.79v-6.683c0-.472-.248-.909-.651-1.152l-6.333-3.799V7.06a.674.674 0 011.008-.58l7.054 4.097z"/></g></svg>