<svg xmlns="http://www.w3.org/2000/svg" width="32" height="32"><defs><linearGradient id="a" x1="50%" x2="50%" y1="0%" y2="100%"><stop offset="0%" stop-color="#FF1A00"/><stop offset="24.495%" stop-color="#F8F500"/><stop offset="49.429%" stop-color="#87FF70"/><stop offset="74.787%" stop-color="#00E0FB"/><stop offset="100%" stop-color="#004CFF"/></linearGradient></defs><g fill="none" fill-rule="evenodd"><g fill="#F0B90B" fill-rule="nonzero"><path d="M14.517.061l3.582 3.657-9.019 8.993L5.498 9.14zM19.955 5.482l3.582 3.658L9.08 23.554l-3.582-3.572zM3.642 10.904l3.582 3.657-3.582 3.571L.06 14.561zM25.392 10.904l3.582 3.657-14.457 14.414-3.582-3.571z"/></g><path fill="#FFF" d="M25.224 29.277c.72-.27 1.47-.465 2.219-.643.6-.141 1.2-.271 1.797-.425.373-.097.745-.202 1.094-.368.278-.133.54-.303.757-.52.216-.217.385-.48.511-.758.159-.349.25-.722.314-1.101.077-.455.112-.917.057-1.37a4.262 4.262 0 00-.401-1.31c-.2-.417-.451-.805-.75-1.153-.4-.463-.883-.854-1.395-1.197-.64-.429-1.324-.784-2.025-1.1a20.212 20.212 0 00-2.154-.826 11.289 11.289 0 00-1.795-.436 5.643 5.643 0 00-1.382-.047c-.46.047-.917.167-1.329.373-.412.206-.78.498-1.094.835-.315.338-.575.72-.79 1.125-.217.406-.39.833-.522 1.273-.131.44-.222.89-.275 1.346a9.152 9.152 0 00-.028 1.83c.063.76.217 1.511.392 2.257.175.746.373 1.487.674 2.19.24.563.546 1.102.95 1.566.252.289.543.549.87.752.26.163.545.29.844.362.225.054.457.076.688.065.231-.01.461-.053.68-.13.289-.101.557-.261.793-.458.294-.247.538-.552.739-.88a5.68 5.68 0 00.56-1.252z"/><path fill="url(#a)" d="M3.077 12.05l-.38-.121-.373-.218-.378-.322-.312-.372-.284-.442-.249-.501-.235-.625-.28-.87-.261-.965L.24 7.26l-.127-.761-.05-.397-.055-.74.014-.738.091-.728.153-.677.1-.426.22-.604.266-.493.581-.788.332-.286.363-.257.322-.163.46-.136.827-.057.705.074.833.167.926.272.977.349.976.415.093.032.944.469.832.51.646.525.173.124.606.689.135.218.318.735.091.282.062.307.026.315v.343l-.025.3-.122.614-.083.272-.102.239-.142.24-.158.199-.164.135-.465.253-.543.184-.783.206-.757.185-.908.217-.664.181-.25.061-.86.273-.405.154-.176.065-.051.246-.104.302-.092.257-.102.22-.242.458-.297.381-.32.282-.444.233-.376.073z" transform="translate(18.972 18.972)"/><g fill-rule="nonzero"><path fill="#FBF100" d="M24.067 22.461l-.105.145.089.731.082-.17z"/><path fill="#A40000" d="M22.71 18.972l-.559.034.276.099.489-.034z"/><path fill="#FFAE00" d="M23.969 21.775l-.138.121.131.709.105-.144z"/><path fill="#A80000" d="M22.917 19.071l-.49.034.276.218.421-.039z"/><path fill="#FF7300" d="M23.842 21.13l-.181.098.17.668.138-.12z"/><path fill="#B60000" d="M23.123 19.284l-.42.039.269.331.353-.047z"/><path fill="#FF3F00" d="M23.689 20.543l-.231.077.203.607.181-.097z"/><path fill="#D60000" d="M23.325 19.607l-.353.047.254.437.289-.061z"/><path fill="#FF1300" d="M23.515 20.03l-.289.061.232.529.231-.077z"/></g><g fill-rule="nonzero"><path fill="#16FFE1" d="M25.192 24.756l-.485.101-.023.547.503-.132z"/><path fill="#4DFFAA" d="M25.196 24.196l-.476.068-.013.593.485-.101z"/><path fill="#80FF77" d="M25.2 23.607l-.477.032-.002.625.475-.068z"/><path fill="#B7FF40" d="M25.202 23.005l-.489-.007.009.641.478-.032z"/><path fill="#EBFF0C" d="M25.203 22.406l-.51-.047.02.639.489.007z"/><path fill="#ED0400" d="M25.173 19.482l-.926-.267.069.088.864.256z"/><path fill="#FC0" d="M25.203 21.826l-.541-.086.031.619.51.047z"/><path fill="#F10800" d="M25.18 19.56l-.864-.257.069.191.801.241z"/><path fill="#FF9800" d="M25.202 21.282l-.581-.125.041.583.541.086z"/><path fill="#FF1300" d="M25.186 19.735l-.801-.241.067.29.739.219z"/><path fill="#FF6C00" d="M25.199 20.787l-.627-.159.049.529.581.124z"/><path fill="#FF2900" d="M25.191 20.003l-.739-.219.063.381.681.192z"/><path fill="#FF4700" d="M25.196 20.357l-.681-.191.057.462.627.159z"/></g><g fill-rule="nonzero"><path fill="#13FCE4" d="M24.707 24.857l-.357.155-.044.574.377-.183z"/><path fill="#49FFAD" d="M24.72 24.263l-.348.124-.022.625.357-.155z"/><path fill="#80FF77" d="M24.722 23.638l-.372.09.023.659.347-.124z"/><path fill="#BAFF3C" d="M24.712 22.997l-.36.055.021.676.349-.09z"/><path fill="#F1FC06" d="M24.692 22.359l-.383.018.043.675.36-.055z"/><path fill="#D10000" d="M24.246 19.214l-.832-.172.137.095.764.165z"/><path fill="#FFC100" d="M24.661 21.739l-.416-.017.064.655.383-.019z"/><path fill="#D60000" d="M24.316 19.302l-.765-.165.137.204.697.152z"/><path fill="#FF8900" d="M24.62 21.156l-.459-.051.084.617.416.017z"/><path fill="#E40000" d="M24.384 19.493l-.696-.152.133.309.63.133z"/><path fill="#FF5D00" d="M24.571 20.627l-.51-.083.1.561.459.051z"/><path fill="#FF1300" d="M24.451 19.783l-.63-.133.126.405.567.11z"/><path fill="#FF3400" d="M24.514 20.165l-.567-.111.114.49.51.083z"/></g><g fill-rule="nonzero"><path fill="#1CFFDB" d="M25.777 24.709l-.585.047-.006.517.602-.079z"/><path fill="#50FFA7" d="M25.774 24.184l-.578.012-.004.56.585-.047z"/><path fill="#80FF77" d="M25.778 23.634l-.579-.026-.003.588.578-.012z"/><path fill="#B4FF43" d="M25.791 23.073l-.59-.067-.002.602.579.026z"/><path fill="#E4FF13" d="M25.811 22.516l-.608-.109-.001.599.589.067z"/><path fill="gold" d="M25.839 21.978l-.636-.152v.58l.608.11z"/><path fill="#FF1E00" d="M26.15 19.832l-.977-.35.007.078.921.338z"/><path fill="#FFA700" d="M25.873 21.474l-.672-.192.002.544.636.152z"/><path fill="#FF1E00" d="M26.101 19.898l-.921-.338.006.175.866.32z"/><path fill="#FF7E00" d="M25.912 21.018l-.713-.231.002.495.671.192z"/><path fill="#FF2900" d="M26.052 20.055l-.866-.32.005.268.812.295z"/><path fill="#FF5900" d="M25.956 20.622l-.761-.265.004.43.713.231z"/><path fill="#FF3B00" d="M26.003 20.298l-.812-.295.005.354.76.265z"/></g><g fill-rule="nonzero"><path fill="#0CF" d="M24.371 28.593l.787-.297-.157.083-.798.304z"/><path fill="#00DCFE" d="M24.525 28.458l.776-.288-.143.126-.787.297z"/><path fill="#09F0EE" d="M24.66 28.278l.767-.275-.126.167-.776.287z"/><path fill="#1CFFDB" d="M24.773 28.061l.761-.259-.107.202-.767.275z"/><path fill="#33FFC4" d="M24.862 27.81l.755-.241-.083.233-.76.259z"/><path fill="#4DFFAA" d="M24.922 27.531l.752-.221-.057.258-.755.241z"/><path fill="#63FF94" d="M24.954 27.233l.75-.199-.03.277-.752.22z"/><path fill="#7DFF7A" d="M24.955 26.923l.752-.176-.002.287-.751.199z"/><path fill="#97FF60" d="M24.926 26.609l.755-.153.026.291-.752.176z"/><path fill="#B1FF46" d="M24.868 26.298l.76-.13.053.287-.755.154z"/><path fill="#C7FF30" d="M24.781 26l.767-.108.08.276-.76.13z"/><path fill="#DEFF19" d="M24.667 25.723l.777-.087.104.256-.767.108z"/><path fill="#FC0" d="M23.646 24.861l.853-.041.175.054-.839.046z"/><path fill="#F1FC06" d="M24.531 25.473l.788-.069.125.232-.776.087z"/><path fill="#FC0" d="M23.835 24.872l.839-.024.174.075-.825.03z"/><path fill="#FFEA00" d="M24.376 25.258l.799-.053.144.199-.788.069z"/><path fill="#FFD000" d="M24.023 24.953l.825-.03.169.12-.812.04z"/><path fill="#FFDB00" d="M24.204 25.083l.812-.04.159.162-.799.053z"/></g><g fill-rule="nonzero"><path fill="#BEFF39" d="M24.352 23.052l-.219.115.033.707.208-.146z"/><path fill="#F8F500" d="M24.309 22.377l-.243.084.067.706.219-.115z"/><path fill="#B00" d="M23.414 19.043l-.705-.071.207.099.635.066z"/><path fill="#FFB900" d="M24.245 21.722l-.277.053.098.686.243-.084z"/><path fill="#BF0000" d="M23.551 19.137l-.635-.066.207.213.565.058z"/><path fill="#FF7E00" d="M24.162 21.106l-.321.024.127.645.277-.053z"/><path fill="#CD0000" d="M23.688 19.342l-.565-.058.202.323.496.043z"/><path fill="#FF4E00" d="M24.061 20.545l-.372-.002.152.587.321-.024z"/><path fill="#E80000" d="M23.821 19.65l-.496-.043.19.423.432.025z"/><path fill="#F20" d="M23.947 20.055l-.432-.025.174.513.372.002z"/></g><g fill-rule="nonzero"><path fill="#00D0FF" d="M23.886 28.763l.639-.306-.153.136-.653.318z"/><path fill="#00E4F8" d="M24.032 28.568l.628-.29-.135.179-.64.306z"/><path fill="#16FFE1" d="M24.154 28.331l.62-.271-.114.218-.628.29z"/><path fill="#2CFFCA" d="M24.25 28.058l.612-.248-.088.251-.619.27z"/><path fill="#46FFB1" d="M24.315 27.754l.608-.223-.061.279-.612.248z"/><path fill="#63FF94" d="M24.348 27.429l.606-.196-.031.298-.608.223z"/><path fill="#7DFF7A" d="M24.348 27.091l.607-.168-.001.31-.606.196z"/><path fill="#9AFF5D" d="M24.316 26.748l.61-.139.029.314-.607.168z"/><path fill="#B7FF40" d="M24.25 26.409l.618-.111.058.311-.611.139z"/><path fill="#D1FF26" d="M24.155 26.084l.626-.084.087.298-.617.111z"/><path fill="#E7FF0F" d="M24.031 25.78l.637-.057.113.277-.626.083z"/><path fill="#FBF100" d="M23.881 25.508l.651-.035.136.25-.637.057z"/><path fill="#FFDB00" d="M23.711 25.273l.665-.015.156.215-.651.035z"/></g><g fill-rule="nonzero"><path fill="#00B4FF" d="M19.491 27.339l.109.354-.183-.695-.112-.368z"/><path fill="#16FFE1" d="M19.207 26.232l.101.411.109.355-.119-.719-.17-.602z"/><path fill="#56FFA0" d="M19.183 25.895l.115.384-.053-.728-.117-.399z"/><path fill="#97FF60" d="M19.128 25.152l.117.399.015-.716-.116-.415z"/><path fill="#D4FF23" d="M19.144 24.42l.117.415.084-.687-.115-.431z"/><path fill="gold" d="M19.23 23.717l.115.431.153-.64-.113-.446z"/><path fill="#FF9400" d="M19.385 23.062l.113.446.217-.576-.109-.459z"/><path fill="#FF5900" d="M19.606 22.473l.109.459.277-.495-.104-.471z"/><path fill="#FF2500" d="M19.888 21.966l.104.471.33-.401-.098-.481z"/><path fill="#C1FF36" d="M24.576 25.309l.014.407.086.746-.012-.39z"/><path fill="#DF0000" d="M20.224 21.555l.098.481.374-.294-.09-.489z"/><path fill="#FFEA00" d="M24.433 24.553l.014.423.14.739-.011-.406z"/><path fill="#B00" d="M20.606 21.253l.09.489.41-.179-.082-.493z"/><path fill="#FFA700" d="M24.221 23.826l.018.439.208.711-.014-.423z"/><path fill="#9F0000" d="M21.024 21.07l.082.493.433-.057-.073-.496z"/><path fill="#FF6C00" d="M23.945 23.147l.024.453.27.665-.018-.439z"/><path fill="#920000" d="M21.466 21.01l.074.496.445.067-.064-.496z"/><path fill="#FF3400" d="M23.613 22.536l.031.466.325.598-.024-.453z"/><path fill="#960000" d="M21.92 21.078l.065.495.446.19-.056-.492z"/><path fill="#F10800" d="M23.233 22.01l.039.477.372.515-.031-.466z"/><path fill="#A40000" d="M22.375 21.271l.056.492.432.307-.046-.486z"/><path fill="#C40000" d="M22.817 21.584l.046.486.408.418-.038-.478z"/></g><g fill-rule="nonzero"><path fill="#53FFA4" d="M19.082 25.487l.1.407-.054-.743-.101-.416z"/><path fill="#97FF60" d="M19.027 24.735l.101.416.015-.732-.101-.426z"/><path fill="#D7FF1F" d="M19.042 23.993l.101.426.086-.703-.1-.435z"/><path fill="#FFD300" d="M19.129 23.28l.1.436.155-.655-.099-.444z"/><path fill="#FF9100" d="M19.285 22.617l.099.444.221-.589-.097-.453z"/><path fill="#FF5200" d="M19.508 22.019l.097.453.282-.507-.094-.461z"/><path fill="#FF1E00" d="M19.793 21.504l.094.461.336-.411-.091-.467z"/><path fill="#D60000" d="M20.132 21.087l.091.467.382-.302-.087-.471z"/><path fill="#AD0000" d="M20.518 20.781l.087.471.418-.183-.083-.476z"/><path fill="#FFA300" d="M24.173 23.38l.047.445.213.728-.046-.436z"/><path fill="#920000" d="M20.94 20.593l.083.476.442-.06-.078-.477z"/><path fill="#FF6400" d="M23.894 22.693l.051.454.275.678-.047-.445z"/><path fill="#840000" d="M21.387 20.532l.078.477.455.068-.073-.478z"/><path fill="#FF2D00" d="M23.558 22.074l.054.461.332.611-.05-.453z"/><path fill="#890000" d="M21.847 20.599l.073.478.454.193-.068-.476z"/><path fill="#E40000" d="M23.174 21.542l.059.467.379.526-.054-.461z"/><path fill="#9B0000" d="M22.306 20.794l.068.476.442.314-.063-.473z"/><path fill="#B00" d="M22.753 21.111l.063.473.417.425-.059-.467z"/><path fill="#13FCE4" d="M19.152 25.821l.054.41-.124-.744-.054-.414z"/></g><g fill-rule="nonzero"><path fill="#19FFDE" d="M19.417 26.997l.104.323-.116-.699-.108-.343z"/><path fill="#56FFA0" d="M19.297 26.278l.108.343-.051-.705-.11-.365z"/><path fill="#94FF63" d="M19.244 25.551l.11.365.016-.694-.11-.388z"/><path fill="#D1FF26" d="M19.26 24.834l.11.388.083-.666-.108-.409z"/><path fill="#FFDB00" d="M19.345 24.147l.108.409.148-.621-.104-.428z"/><path fill="#FF9C00" d="M19.497 23.507l.104.429.211-.558-.098-.447z"/><path fill="#FF6000" d="M19.714 22.931l.099.447.269-.479-.091-.463z"/><path fill="#FF3000" d="M19.991 22.436l.091.463.32-.387-.081-.477z"/><path fill="#C1FF36" d="M24.587 25.715l-.043.37.068.723.044-.347z"/><path fill="#F10800" d="M20.321 22.035l.081.477.364-.284-.07-.487z"/><path fill="#FBF100" d="M24.446 24.976l-.038.392.136.717.043-.37z"/><path fill="#C80000" d="M20.696 21.741l.07.487.398-.172-.059-.494z"/><path fill="#FFAE00" d="M24.239 24.264l-.033.415.202.689.039-.393z"/><path fill="#AD0000" d="M21.105 21.562l.059.494.421-.055-.046-.496z"/><path fill="#FF7300" d="M23.968 23.6l-.025.435.263.644.032-.415z"/><path fill="#A40000" d="M21.539 21.505l.046.496.433.066-.034-.495z"/><path fill="#FF3F00" d="M23.643 23.002l-.015.453.315.58.025-.435z"/><path fill="#A40000" d="M21.985 21.572l.033.495.432.185-.02-.49z"/><path fill="#FF1300" d="M23.271 22.487l-.005.469.361.499.016-.453z"/><path fill="#B60000" d="M22.43 21.762l.02.49.42.299-.007-.481z"/><path fill="#D10000" d="M22.863 22.069l.007.482.396.404.005-.468z"/><path fill="#00BCFF" d="M19.599 27.692l.099.302-.177-.674-.104-.323z"/></g><g fill-rule="nonzero"><path fill="#00C4FF" d="M19.698 27.994l.077.239-.17-.648-.084-.265z"/><path fill="#1CFFDB" d="M19.521 27.32l.084.265-.111-.671-.089-.292z"/><path fill="#56FFA0" d="M19.405 26.622l.088.292-.048-.678-.091-.319z"/><path fill="#94FF63" d="M19.354 25.917l.091.319.015-.667-.09-.346z"/><path fill="#CEFF29" d="M19.37 25.223l.09.346.08-.64-.087-.372z"/><path fill="#00B0FF" d="M24.402 28.831l-.099.212-.191.545.092-.19z"/><path fill="#FFE200" d="M19.453 24.557l.087.372.143-.595-.082-.398z"/><path fill="#0CF4EB" d="M24.54 28.2l-.105.236-.132.607.1-.212z"/><path fill="#FFA300" d="M19.601 23.936l.082.398.204-.535-.075-.42z"/><path fill="#46FFB1" d="M24.61 27.52l-.108.263-.068.653.105-.236z"/><path fill="#FF6C00" d="M19.813 23.379l.074.42.259-.459-.064-.44z"/><path fill="#80FF77" d="M24.612 26.809l-.109.291-.001.683.108-.263z"/><path fill="#FF3B00" d="M20.082 22.9l.064.44.309-.371-.053-.457z"/><path fill="#BEFF39" d="M24.544 26.086l-.106.32.066.694.108-.291z"/><path fill="#FF1300" d="M20.402 22.512l.053.457.35-.272-.039-.469z"/><path fill="#F8F500" d="M24.408 25.369l-.102.349.132.688.106-.32z"/><path fill="#DA0000" d="M20.766 22.228l.039.469.383-.164-.024-.477z"/><path fill="#FFB600" d="M24.206 24.679l-.094.376.194.663.102-.349z"/><path fill="#C40000" d="M21.164 22.056l.024.477.404-.051-.007-.48z"/><path fill="#FF7E00" d="M23.943 24.036l-.083.401.252.618.094-.376z"/><path fill="#B60000" d="M21.585 22.002l.007.48.416.064.01-.478z"/><path fill="#FF4A00" d="M23.627 23.456l-.071.425.304.556.083-.401z"/><path fill="#B00" d="M22.018 22.068l-.01.478.416.178.026-.471z"/><path fill="#FF1E00" d="M23.267 22.956l-.058.445.347.48.072-.425z"/><path fill="#C80000" d="M22.45 22.253l-.026.471.404.288.042-.461z"/><path fill="#E40000" d="M22.87 22.552l-.042.46.381.389.057-.445z"/></g><g fill-rule="nonzero"><path fill="#00C4FF" d="M23.475 28.553l.849-.293-.161-.139-.861.283z"/><path fill="#00D0FF" d="M23.301 28.404l.862-.282-.149-.177-.873.268z"/><path fill="#00E0FB" d="M23.141 28.213l.874-.268-.134-.211-.884.252z"/><path fill="#0FF8E7" d="M22.997 27.986l.884-.252-.114-.238-.894.233z"/><path fill="#00B4FF" d="M22.744 28.866l.731-.313-.173-.149-.747.298z"/><path fill="#00C0FF" d="M22.555 28.703l.747-.299-.161-.191-.761.282z"/><path fill="#00A8FF" d="M22.942 28.98l.714-.322-.181-.105-.731.313z"/><path fill="#23FFD4" d="M22.873 27.728l.894-.233-.092-.261-.903.213z"/><path fill="#00D4FF" d="M22.38 28.495l.761-.282-.144-.227-.775.262z"/><path fill="#00A8FF" d="M23.143 29.043l.698-.328-.185-.057-.714.322z"/><path fill="#06ECF1" d="M22.222 28.247l.775-.261-.124-.257-.786.238z"/><path fill="#39FFBE" d="M22.772 27.447l.903-.213-.068-.277-.909.191z"/><path fill="#00A8FF" d="M23.343 29.052l.682-.328-.184-.009-.698.328z"/><path fill="#1CFFDB" d="M22.087 27.967l.786-.239-.101-.281-.796.212z"/><path fill="#53FFA4" d="M22.698 27.148l.909-.191-.042-.286-.914.168z"/><path fill="#36FFC1" d="M21.976 27.66l.796-.213-.074-.299-.805.186z"/><path fill="#6DFF8A" d="M22.651 26.839l.914-.168-.015-.288-.916.145z"/><path fill="#50FFA7" d="M21.894 27.334l.804-.186-.047-.309-.809.158z"/><path fill="#87FF70" d="M22.634 26.528l.916-.145.013-.283-.917.124z"/><path fill="#6AFF8D" d="M21.841 26.997l.81-.158-.017-.311-.813.13z"/><path fill="#A0FF56" d="M22.646 26.224l.917-.124.041-.269-.916.102z"/><path fill="#87FF70" d="M21.821 26.658l.813-.13.012-.304-.813.102z"/><path fill="#B7FF40" d="M22.688 25.933l.916-.102.067-.249-.912.082z"/><path fill="#A4FF53" d="M21.833 26.326l.813-.102.042-.291-.81.076z"/><path fill="#D1FF26" d="M22.759 25.664l.912-.082.092-.223-.906.064z"/><path fill="#BEFF39" d="M21.878 26.009l.81-.076.071-.269-.806.052z"/><path fill="#E4FF13" d="M22.857 25.423l.906-.064.115-.191-.898.05z"/><path fill="#D7FF1F" d="M21.953 25.716l.806-.052.098-.24-.798.029z"/><path fill="#EEFF09" d="M22.059 25.453l.798-.03.123-.205-.789.011z"/><path fill="#FFEA00" d="M22.191 25.229l.789-.011.144-.165-.777-.004z"/><path fill="gold" d="M22.347 25.049l.777.004.162-.12-.763-.015z"/></g><g fill-rule="nonzero"><path fill="#00F" d="M21.295 30.683l-.039-.029-.338-.293.02.013z"/><path fill="#0010FF" d="M20.938 30.374l-.02-.013-.315-.371.001-.009z"/><path fill="#0000F1" d="M21.669 30.901l-.06-.041-.353-.206.039.029z"/><path fill="#0038FF" d="M20.604 29.981l-.001.009-.284-.442-.015-.034z"/><path fill="#0000E8" d="M22.049 31.023l-.081-.048-.359-.115.059.041z"/><path fill="#0064FF" d="M20.304 29.513l.015.035-.247-.502-.029-.063z"/><path fill="#0000ED" d="M22.426 31.075l-.101-.072-.357-.028.081.069z"/><path fill="#0098FF" d="M20.043 28.983l.029.063-.202-.549-.041-.095z"/><path fill="#00F" d="M22.792 30.964l-.121-.045-.346.076.101.049z"/><path fill="#00D4FF" d="M19.829 28.402l.041.095-.154-.584-.05-.129z"/><path fill="#0008FF" d="M23.138 30.785l-.141-.036-.326.17.121.045z"/><path fill="#26FFD1" d="M19.666 27.784l.05.129-.1-.604-.056-.165z"/><path fill="#002CFF" d="M23.453 30.509l-.158-.02-.298.26.141.036z"/><path fill="#5AFF9D" d="M19.56 27.144l.056.165-.043-.609-.059-.201z"/><path fill="#0054FF" d="M23.731 30.143h-.174l-.262.346.158.02z"/><path fill="#90FF66" d="M19.514 26.499l.08.201.02-.6-.08-.237z"/><path fill="#08F" d="M23.964 29.695l-.188.025-.219.423h.174z"/><path fill="#C7FF30" d="M19.529 25.863l.058.237.072-.574-.054-.271z"/><path fill="#00C4FF" d="M24.146 29.176l-.199.054-.17.49.187-.025z"/><path fill="#FBF100" d="M19.606 25.255l.054.271.129-.533-.047-.304z"/><path fill="#16FFE1" d="M24.27 28.599l-.206.086-.117.545.199-.054z"/><path fill="#FFB900" d="M19.742 24.689l.047.304.184-.479-.036-.333z"/><path fill="#4DFFAA" d="M24.334 27.977l-.211.121-.059.587.206-.086z"/><path fill="#FF8600" d="M19.936 24.181l.036.333.234-.41-.022-.36z"/><path fill="#80FF77" d="M24.335 27.327l-.212.158.001.613.21-.121z"/><path fill="#FF5D00" d="M20.184 23.744l.022.36.278-.332-.006-.38z"/><path fill="#B7FF40" d="M24.272 26.666l-.209.196.061.624.211-.159z"/><path fill="#FF3800" d="M20.478 23.392l.006.381.314-.242.014-.396z"/><path fill="#EBFF0C" d="M24.146 26.012l-.202.233.119.617.209-.196z"/><path fill="#FF1A00" d="M20.811 23.135l-.013.396.344-.146.034-.405z"/><path fill="#FFC800" d="M23.96 25.382l-.191.27.175.593.202-.233z"/><path fill="#F10800" d="M21.176 22.98l-.034.405.363-.044.056-.409z"/><path fill="#FF9400" d="M23.72 24.794l-.179.304.228.554.191-.27z"/><path fill="#E80000" d="M21.561 22.932l-.056.409.374.059.078-.406z"/><path fill="#FF6800" d="M23.43 24.264l-.162.335.273.499.179-.304z"/><path fill="#ED0400" d="M21.957 22.994l-.078.406.373.161.101-.397z"/><path fill="#FF4300" d="M23.1 23.808l-.144.36.312.43.162-.334z"/><path fill="#FA0F00" d="M22.353 23.164l-.101.397.362.258.123-.381z"/><path fill="#F20" d="M22.737 23.438l-.123.381.342.349.144-.36z"/></g><g fill-rule="nonzero"><path fill="#0CF" d="M19.775 28.233l.054.169-.162-.618-.062-.199z"/><path fill="#1FFFD7" d="M19.605 27.585l.062.199-.106-.64-.067-.23z"/><path fill="#0018FF" d="M23.576 30.442l-.122.067-.316.276.106-.054z"/><path fill="#5AFF9D" d="M19.494 26.914l.067.23-.046-.645-.07-.263z"/><path fill="#04F" d="M23.868 30.058l-.136.085-.278.366.122-.067z"/><path fill="#94FF63" d="M19.445 26.236l.082.262.018-.635-.082-.294z"/><path fill="#007CFF" d="M24.113 29.588l-.148.107-.233.448.136-.085z"/><path fill="#CAFF2C" d="M19.461 25.569l.069.294.076-.608-.065-.326z"/><path fill="#00B8FF" d="M24.304 29.043l-.158.133-.181.519.148-.107z"/><path fill="#FFEA00" d="M19.541 24.929l.065.326.137-.566-.059-.355z"/><path fill="#0FF8E7" d="M24.435 28.436l-.164.163-.125.577.158-.133z"/><path fill="#FFAE00" d="M19.684 24.334l.059.355.194-.508-.05-.382z"/><path fill="#49FFAD" d="M24.503 27.783l-.168.194-.064.622.164-.163z"/><path fill="#FF7A00" d="M19.887 23.799l.05.381.247-.436-.037-.404z"/><path fill="#80FF77" d="M24.504 27.1l-.169.227v.65l.168-.194z"/><path fill="#FF4A00" d="M20.147 23.34l.037.404.295-.352-.024-.423z"/><path fill="#BAFF3C" d="M24.438 26.406l-.166.26.063.661.169-.227z"/><path fill="#FF2500" d="M20.455 22.969l.023.423.334-.257-.007-.438z"/><path fill="#F1FC06" d="M24.307 25.718l-.16.294.125.654.166-.26z"/><path fill="#F10800" d="M20.805 22.697l.007.438.364-.155.012-.447z"/><path fill="#FFC100" d="M24.112 25.056l-.151.326.186.63.16-.294z"/><path fill="#DA0000" d="M21.188 22.533l-.012.447.386-.048.031-.45z"/><path fill="#FF8900" d="M23.86 24.437l-.139.357.24.588.152-.327z"/><path fill="#CD0000" d="M21.593 22.482l-.031.45.396.062.051-.448z"/><path fill="#FF5900" d="M23.556 23.881l-.125.383.289.53.14-.357z"/><path fill="#D10000" d="M22.009 22.546l-.051.448.396.17.071-.44z"/><path fill="#FF3000" d="M23.209 23.401l-.109.407.331.456.125-.383z"/><path fill="#DF0000" d="M22.424 22.724l-.071.44.385.274.09-.426z"/><path fill="#FA0F00" d="M22.828 23.012l-.09.426.362.37.109-.407z"/></g><g fill-rule="nonzero"><path fill="#9F0000" d="M21.882 19.029l-.468.145.33-.03.406-.138z"/><path fill="#960000" d="M22.15 19.006l-.406.138.341.094.341-.133z"/><path fill="#FFAB00" d="M23.83 21.895l-.014.182.161.728-.016-.2z"/><path fill="#960000" d="M22.426 19.105l-.341.133.34.217.277-.133z"/><path fill="#FF6C00" d="M23.661 21.227l-.054.167.209.683.014-.182z"/><path fill="#A80000" d="M22.702 19.322l-.276.134.331.334.214-.136z"/><path fill="#FF3400" d="M23.457 20.62l-.101.153.251.621.053-.166z"/><path fill="#C80000" d="M22.971 19.654l-.214.137.313.443.155-.143z"/><path fill="#F10800" d="M23.225 20.091l-.155.143.286.539.101-.153z"/></g><g fill-rule="nonzero"><path fill="#53FFA4" d="M19.028 25.073l.054.414-.055-.753-.055-.417z"/><path fill="#97FF60" d="M18.972 24.318l.078.416.022-.742-.079-.419z"/><path fill="#D7FF1F" d="M18.987 23.573l.055.419.087-.712-.055-.423z"/><path fill="#FFD000" d="M19.074 22.857l.055.423.156-.664-.055-.426z"/><path fill="#FF8D00" d="M19.23 22.19l.055.426.223-.597-.055-.43z"/><path fill="#FF4E00" d="M19.453 21.589l.055.43.285-.515-.055-.432z"/><path fill="#FF1A00" d="M19.738 21.072l.055.432.339-.417-.054-.434z"/><path fill="#D10000" d="M20.078 20.652l.055.435.385-.307-.053-.437z"/><path fill="#FFE600" d="M24.342 23.686l.091.877.143.76-.089-.869z"/><path fill="#A80000" d="M20.465 20.344l.053.436.422-.187-.053-.438z"/><path fill="#FF9F00" d="M24.127 22.946l.046.434.215.736-.046-.43z"/><path fill="#8D0000" d="M20.887 20.155l.053.438.447-.061-.052-.44z"/><path fill="#FF6000" d="M23.847 22.257l.047.435.279.688-.046-.434z"/><path fill="maroon" d="M21.335 20.092l.052.44.46.067-.052-.44z"/><path fill="#FF2900" d="M23.51 21.636l.048.438.336.618-.047-.435z"/><path fill="maroon" d="M21.796 20.159l.051.44.46.195-.051-.441z"/><path fill="#DF0000" d="M23.126 21.102l.048.439.384.533-.048-.438z"/><path fill="#920000" d="M22.256 20.353l.051.441.446.317-.049-.44z"/><path fill="#B20000" d="M22.703 20.671l.05.44.421.43-.049-.439z"/><path fill="#FFE600" d="M24.244 23.33l.098.356.145.768-.103-.357z"/></g><g fill-rule="nonzero"><path fill="#B20000" d="M21.103 19.327l-.366.259.364-.166.314-.246z"/><path fill="#960000" d="M21.415 19.174l-.314.247.385-.042.259-.235z"/><path fill="#890000" d="M21.745 19.144l-.259.235.397.086.203-.227zM22.086 19.238l-.203.227.397.212.146-.221z"/><path fill="#FF2D00" d="M23.357 20.774l.007.221.292.626-.048-.227z"/><path fill="#9B0000" d="M22.426 19.456l-.146.221.386.332.092-.218z"/><path fill="#E80000" d="M23.071 20.234l-.04.219.333.542-.007-.221z"/><path fill="#B00" d="M22.758 19.791l-.092.218.365.444.04-.219z"/><path fill="#FF6400" d="M23.608 21.394l.048.227.242.692-.081-.235z"/></g><g fill-rule="nonzero"><path fill="#D10000" d="M20.404 19.872l-.255.367.371-.301.216-.351z"/><path fill="#A80000" d="M20.736 19.586l-.216.352.405-.181.175-.337z"/><path fill="#8D0000" d="M21.1 19.42l-.175.337.43-.055.13-.323z"/><path fill="maroon" d="M21.485 19.379l-.13.323.442.074.085-.311z"/><path fill="#840000" d="M21.882 19.465l-.085.311.442.201.04-.3z"/><path fill="#FF2900" d="M23.363 20.995l.081.28.324.623-.113-.277z"/><path fill="#920000" d="M22.279 19.677l-.04.3.429.323-.002-.291z"/><path fill="#DF0000" d="M23.031 20.453l.043.284.37.538-.081-.28z"/><path fill="#B20000" d="M22.666 20.009l.002.291.406.437-.044-.285z"/><path fill="#FF1A00" d="M20.113 20.268l-.29.383.326-.412.256-.367z"/></g><g fill-rule="nonzero"><path fill="#FF8D00" d="M19.337 21.755l-.107.436.223-.601.097-.429z"/><path fill="#FF4E00" d="M19.55 21.161l-.097.429.285-.518.086-.421z"/><path fill="#FF1600" d="M19.824 20.651l-.086.421.34-.419.071-.414z"/><path fill="#D10000" d="M20.149 20.239l-.071.414.387-.309.055-.406z"/><path fill="#A40000" d="M20.52 19.938l-.055.406.423-.189.037-.398z"/><path fill="#890000" d="M20.925 19.757l-.037.398.447-.062.02-.391z"/><path fill="#FF6000" d="M23.768 21.898l.079.359.28.69-.09-.357z"/><path fill="maroon" d="M21.355 19.702l-.02.39.461.067.001-.383z"/><path fill="#FF2900" d="M23.444 21.275l.066.362.337.62-.079-.359z"/><path fill="maroon" d="M21.797 19.776l-.001.383.46.195-.017-.377z"/><path fill="#DF0000" d="M23.074 20.737l.052.366.384.534-.066-.362z"/><path fill="#920000" d="M22.239 19.977l.017.377.448.317-.035-.371z"/><path fill="#B20000" d="M22.669 20.3l.035.371.422.432-.052-.366z"/></g><g fill-rule="nonzero"><path fill="#23FFD4" d="M26.423 24.713l-.646-.005.011.485.659-.026z"/><path fill="#53FFA4" d="M26.414 24.225l-.64-.041.003.524.646.006z"/><path fill="#80FF77" d="M26.42 23.714l-.641-.081-.005.55.64.042z"/><path fill="#ADFF49" d="M26.441 23.195l-.649-.123-.013.561.641.081z"/><path fill="#DBFF1C" d="M26.478 22.682l-.666-.167-.021.557.65.124z"/><path fill="#FFE200" d="M26.528 22.187l-.689-.21-.027.538.666.167z"/><path fill="#FF3800" d="M27.126 20.25l-.975-.419-.049.066.929.405z"/><path fill="#FFB600" d="M26.592 21.726l-.719-.253-.034.504.689.21z"/><path fill="#FF3800" d="M27.031 20.302l-.929-.405-.05.157.882.386z"/><path fill="#FF9100" d="M26.666 21.309l-.754-.292-.039.456.719.253z"/><path fill="#FF4300" d="M26.935 20.439l-.883-.385-.049.244.837.359z"/><path fill="#FF6F00" d="M26.75 20.95l-.794-.328-.044.395.754.292z"/><path fill="#F50" d="M26.84 20.657l-.837-.359-.047.324.794.328z"/></g><g fill-rule="nonzero"><path fill="#2CFFCA" d="M27.079 24.768l-.657-.054.025.454.667.022z"/><path fill="#56FFA0" d="M27.065 24.315l-.652-.09.009.489.657.054z"/><path fill="#80FF77" d="M27.072 23.845l-.653-.13-.006.51.652.09z"/><path fill="#AAFF4D" d="M27.101 23.368l-.66-.172-.022.519.654.13z"/><path fill="#D4FF23" d="M27.151 22.898l-.673-.216-.037.514.66.172z"/><path fill="#FBF100" d="M27.219 22.447l-.691-.259-.05.494.673.216z"/><path fill="#F50" d="M28.172 20.759l-.954-.477-.092-.032.918.47z"/><path fill="#FFC400" d="M27.306 22.027l-.715-.301-.063.462.691.259z"/><path fill="#FF4E00" d="M28.044 20.72l-.918-.47-.095.053.881.457z"/><path fill="#FFA300" d="M27.408 21.651l-.742-.341-.075.416.715.301z"/><path fill="#FF5200" d="M27.911 20.76l-.881-.457-.096.137.844.437z"/><path fill="#FF8200" d="M27.523 21.328l-.774-.378-.083.36.742.341z"/><path fill="#FF5900" d="M27.778 20.876l-.844-.436-.094.218.807.41z"/><path fill="#FF6C00" d="M27.647 21.068l-.808-.41-.09.292.774.378z"/></g><g fill-rule="nonzero"><path fill="#33FFC4" d="M27.692 24.864l-.613-.097.035.423.62.065z"/><path fill="#5AFF9D" d="M27.674 24.447l-.609-.132.014.453.613.096z"/><path fill="#80FF77" d="M27.682 24.015l-.61-.171-.007.471.609.132z"/><path fill="#A7FF50" d="M27.716 23.579l-.615-.212-.029.477.61.17z"/><path fill="#CEFF29" d="M27.775 23.151l-.625-.254-.049.471.615.211z"/><path fill="#F1FC06" d="M27.857 22.743l-.638-.297-.069.451.625.254z"/><path fill="gold" d="M27.96 22.365l-.654-.338-.087.419.638.297z"/><path fill="#FF6F00" d="M29.002 21.27l-.83-.511-.128-.039.804.504z"/><path fill="#FFB600" d="M28.083 22.028l-.675-.377-.102.376.654.338z"/><path fill="#FF6800" d="M28.847 21.224l-.803-.504-.133.039.777.491z"/><path fill="#FF9800" d="M28.22 21.741l-.697-.413-.115.323.675.377z"/><path fill="#FF6C00" d="M28.688 21.25l-.776-.491-.134.117.749.47z"/><path fill="#FF8200" d="M28.37 21.512l-.723-.444-.124.26.697.413z"/><path fill="#FF7300" d="M28.527 21.346l-.749-.47-.131.192.723.444z"/></g><g fill-rule="nonzero"><path fill="#39FFBE" d="M28.205 24.994l-.513-.13.042.391.519.101z"/><path fill="#5AFF9D" d="M28.185 24.611l-.511-.165.018.418.513.13z"/><path fill="#80FF77" d="M28.193 24.216l-.511-.202-.008.432.511.165z"/><path fill="#A4FF53" d="M28.23 23.82l-.514-.241-.034.436.512.201z"/><path fill="#C7FF30" d="M28.295 23.432l-.52-.281-.059.428.514.241z"/><path fill="#E7FF0F" d="M28.386 23.065l-.529-.322-.082.408.52.281z"/><path fill="#FFE600" d="M28.5 22.726l-.54-.361-.103.378.529.322z"/><path fill="#FFC400" d="M28.635 22.426l-.553-.398-.122.337.54.361z"/><path fill="#FF8600" d="M29.656 21.794l-.654-.524-.155-.046.637.518z"/><path fill="#FFAB00" d="M28.788 22.173l-.568-.432-.137.287.552.398z"/><path fill="#FF8200" d="M29.484 21.742l-.637-.518-.16.026.619.505z"/><path fill="#FF9800" d="M28.953 21.973l-.583-.461-.15.229.568.432z"/><path fill="#FF8200" d="M29.306 21.755l-.619-.505-.16.096.601.486z"/><path fill="#FF8900" d="M29.128 21.833l-.601-.486-.158.165.584.461z"/></g><g fill-rule="nonzero"><path fill="#3CFFBA" d="M28.568 25.151l-.363-.157.048.362.366.129z"/><path fill="#5DFF9A" d="M28.547 24.799l-.362-.188.02.383.363.157z"/><path fill="#80FF77" d="M28.555 24.438l-.361-.222-.009.395.362.188z"/><path fill="#A0FF56" d="M28.594 24.078l-.364-.258-.037.396.362.222z"/><path fill="#C1FF36" d="M28.661 23.728l-.366-.296-.065.388.364.258z"/><path fill="#DEFF19" d="M28.756 23.398l-.371-.333-.09.368.366.295z"/><path fill="#FBF100" d="M28.876 23.096l-.376-.37-.115.339.371.333z"/><path fill="gold" d="M29.017 22.83l-.382-.404-.135.3.376.37z"/><path fill="#FFA700" d="M30.263 22.429l-.445-.519-.162-.116.436.52z"/><path fill="#FFC100" d="M29.178 22.608l-.39-.435-.153.253.383.404z"/><path fill="#FF9C00" d="M30.092 22.314l-.436-.52-.172-.052.427.514z"/><path fill="#FFAE00" d="M29.352 22.435l-.399-.462-.165.2.39.434z"/><path fill="#FF9800" d="M29.911 22.256l-.427-.514-.178.013.417.502z"/><path fill="#FF9F00" d="M29.535 22.317l-.407-.484-.175.14.399.462z"/><path fill="#FF9800" d="M29.723 22.257l-.417-.502-.178.078.407.484z"/></g><g fill-rule="nonzero"><path fill="#43FFB4" d="M28.742 25.325l-.173-.174.05.334.175.15z"/><path fill="#60FF97" d="M28.719 25.001l-.172-.202.021.352.174.174z"/><path fill="#7DFF7A" d="M28.728 24.671l-.172-.233-.009.361.172.202z"/><path fill="#9DFF5A" d="M28.766 24.343l-.172-.265-.039.36.172.233z"/><path fill="#BAFF3C" d="M28.834 24.027l-.173-.299-.067.35.172.265z"/><path fill="#D4FF23" d="M28.929 23.729l-.173-.332-.095.331.173.299z"/><path fill="#EEFF09" d="M29.05 23.459l-.174-.364-.12.302.173.332z"/><path fill="#FFDE00" d="M30.756 23.299l-.199-.481-.137-.219.196.491z"/><path fill="#FFE600" d="M29.193 23.224l-.175-.395-.142.266.174.364z"/><path fill="#FC0" d="M30.616 23.09l-.196-.491-.156-.17.193.497z"/><path fill="#FFD000" d="M29.355 23.029l-.177-.422-.16.222.176.395z"/><path fill="#FFB900" d="M30.457 22.926l-.193-.497-.172-.116.19.497z"/><path fill="#FFC100" d="M29.532 22.881l-.18-.446-.174.172.177.422z"/><path fill="#FFB200" d="M30.282 22.811l-.19-.498-.181-.058.187.492zM29.717 22.783l-.182-.466-.183.118.179.446z"/><path fill="#FFAB00" d="M30.098 22.747l-.187-.492-.187.001.184.482z"/><path fill="#FFAE00" d="M29.908 22.738l-.185-.482-.187.061.181.466z"/><path fill="#CEFF29" d="M28.881 24.048l.048-.319-.095.297-.047.291z"/></g><g fill-rule="nonzero"><path fill="#50FFA7" d="M30.912 25.725l.069-.295.056-.32-.07.323z"/><path fill="#6AFF8D" d="M30.967 25.433l.072-.323.028-.329-.073.35z"/><path fill="#87FF70" d="M30.995 25.131l.094-.35-.004-.329-.096.374z"/><path fill="#A0FF56" d="M30.989 24.827l.072-.375-.033-.321-.073.397z"/><path fill="#BEFF39" d="M30.955 24.528l.073-.397-.063-.304-.073.417z"/><path fill="#D4FF23" d="M30.892 24.244l.073-.418-.091-.279-.073.434z"/><path fill="#E4FF13" d="M29.001 23.806l.05-.347-.121.27-.048.319z"/><path fill="#EBFF0C" d="M30.801 23.981l.073-.434-.117-.248-.073.447z"/><path fill="#F8F500" d="M29.141 23.596l.053-.372-.143.235-.05.346z"/><path fill="#FEED00" d="M30.685 23.747l.072-.448-.14-.209-.071.457z"/><path fill="#FFDE00" d="M29.301 23.425l.055-.396-.162.195-.053.372z"/><path fill="#FFDB00" d="M30.546 23.547l.071-.457-.159-.164-.07.461z"/><path fill="#FFD000" d="M29.474 23.298l.059-.417-.177.148-.055.396z"/><path fill="#FC0" d="M30.388 23.387l.07-.461-.175-.116-.068.462z"/><path fill="#FFC400" d="M29.658 23.217l.06-.434-.185.098-.059.417zM30.215 23.272l.068-.462-.184-.063-.066.457z"/><path fill="#FFC100" d="M29.845 23.186l.064-.448-.191.045-.061.434z"/><path fill="#FFBD00" d="M30.033 23.204l.066-.457-.19-.009-.064.448z"/></g><g fill-rule="nonzero"><path fill="#00D4FF" d="M29.962 26.982l.312-.18.165-.144-.317.197z"/><path fill="#00E4F8" d="M30.122 26.855l.317-.197.15-.185-.322.217z"/><path fill="#0FF8E7" d="M30.267 26.69l.322-.217.131-.221-.327.239z"/><path fill="#26FFD1" d="M30.393 26.491l.327-.239.108-.251-.33.261z"/><path fill="#3CFFBA" d="M30.498 26.262l.33-.261.082-.275-.333.283z"/><path fill="#53FFA4" d="M30.577 26.009l.333-.283.056-.293-.336.306z"/><path fill="#6DFF8A" d="M30.63 25.739l.336-.306.026-.302-.338.327z"/><path fill="#87FF70" d="M30.654 25.458l.338-.327-.004-.304-.338.347z"/><path fill="#A0FF56" d="M30.65 25.174l.338-.347-.034-.298-.338.365z"/><path fill="#B7FF40" d="M30.616 24.894l.338-.365-.063-.284-.338.381z"/><path fill="#CEFF29" d="M30.553 24.626l.337-.382-.091-.263-.335.395z"/><path fill="#E4FF13" d="M30.464 24.376l.336-.395-.117-.234-.332.405z"/><path fill="#FEED00" d="M29.009 23.785l.29-.359-.159.17-.285.34z"/><path fill="#F4F802" d="M30.351 24.152l.332-.405-.139-.2-.329.412z"/><path fill="#FFDE00" d="M29.177 23.675l.296-.377-.173.128-.291.359z"/><path fill="#FFE600" d="M30.215 23.959l.329-.412-.157-.16-.325.415z"/><path fill="#FFD300" d="M29.354 23.609l.302-.391-.183.08-.297.377z"/><path fill="#FFDB00" d="M30.062 23.802l.325-.415-.173-.115-.319.414z"/><path fill="#FFD000" d="M29.535 23.588l.309-.402-.188.032-.303.391zM29.895 23.686l.319-.414-.182-.068-.315.41z"/><path fill="#FC0" d="M29.717 23.614l.315-.41-.188-.018-.308.402z"/></g><g fill-rule="nonzero"><path fill="#00D0FF" d="M29.259 27.244l.533-.178.171-.085-.54.191z"/><path fill="#00DCFE" d="M29.423 27.172l.54-.191.16-.126-.548.205z"/><path fill="#06ECF1" d="M29.575 27.06l.548-.205.145-.165-.554.22z"/><path fill="#19FFDE" d="M29.714 26.91l.554-.22.126-.199-.56.236z"/><path fill="#29FFCE" d="M29.834 26.727l.56-.236.104-.229-.564.253z"/><path fill="#40FFB7" d="M29.934 26.515l.564-.253.08-.253-.568.269z"/><path fill="#56FFA0" d="M30.01 26.279l.568-.27.053-.27-.572.286z"/><path fill="#6DFF8A" d="M30.059 26.025l.572-.287.024-.28-.573.302z"/><path fill="#87FF70" d="M30.082 25.76l.573-.302-.005-.284-.574.316z"/><path fill="#9DFF5A" d="M30.076 25.49l.574-.316-.034-.28-.573.33z"/><path fill="#B4FF43" d="M30.043 25.223l.573-.329-.062-.269-.572.341z"/><path fill="#CAFF2C" d="M29.982 24.966l.572-.341-.089-.249-.569.35z"/><path fill="#DEFF19" d="M29.896 24.726l.569-.35-.114-.224-.565.356z"/><path fill="#EEFF09" d="M29.786 24.508l.565-.356-.135-.194-.56.361z"/><path fill="#FFDE00" d="M28.829 23.948l.525-.34-.177.067-.517.327z"/><path fill="#FBF100" d="M29.656 24.319l.56-.36-.154-.157-.554.362z"/><path fill="#FFDB00" d="M29.004 23.937l.532-.349-.182.02-.525.34z"/><path fill="#FFE600" d="M29.508 24.163l.555-.361-.168-.116-.547.36z"/><path fill="gold" d="M29.178 23.97l.54-.356-.182-.026-.533.349z"/><path fill="#FFDB00" d="M29.348 24.046l.547-.36-.177-.072-.54.356z"/></g><g fill-rule="nonzero"><path fill="#00D8FF" d="M28.537 27.437l.722-.193.163-.072-.73.203z"/><path fill="#00E4F8" d="M28.692 27.375l.73-.203.153-.112-.738.213z"/><path fill="#0CF4EB" d="M28.837 27.273l.738-.213.138-.15-.744.225z"/><path fill="#1CFFDB" d="M28.969 27.135l.745-.225.12-.183-.751.236z"/><path fill="#2CFFCA" d="M29.083 26.963l.751-.236.099-.212-.756.247z"/><path fill="#43FFB4" d="M29.177 26.762l.756-.247.076-.236-.761.258z"/><path fill="#56FFA0" d="M29.248 26.537l.761-.258.049-.254-.764.269z"/><path fill="#6DFF8A" d="M29.294 26.294l.765-.269.022-.265-.766.278z"/><path fill="#83FF73" d="M29.315 26.038l.766-.278-.005-.27-.767.287z"/><path fill="#9AFF5D" d="M29.309 25.777l.767-.287-.034-.267-.766.295z"/><path fill="#B1FF46" d="M29.276 25.518l.766-.294-.061-.258-.764.3z"/><path fill="#C4FF33" d="M29.217 25.266l.764-.3-.086-.24-.761.304z"/><path fill="#D7FF1F" d="M29.134 25.03l.761-.304-.11-.218-.756.306z"/><path fill="#FFE600" d="M28.117 24.231l.712-.283-.17.055-.703.274z"/><path fill="#E7FF0F" d="M29.029 24.814l.757-.306-.131-.189-.751.307z"/><path fill="#FFE200" d="M28.283 24.228l.72-.291-.174.011-.712.283z"/><path fill="#F4F802" d="M28.904 24.626l.751-.307-.147-.155-.745.305z"/><path fill="#FFE200" d="M28.448 24.268l.729-.298-.174-.033-.721.291z"/><path fill="#FEED00" d="M28.763 24.469l.745-.305-.161-.118-.737.303z"/><path fill="#FFE200" d="M28.61 24.349l.737-.303-.17-.076-.729.298z"/></g><g fill-rule="nonzero"><path fill="#00DCFE" d="M27.677 27.649l.861-.212.155-.062-.869.219z"/><path fill="#02E8F4" d="M27.824 27.594l.869-.219.145-.102-.877.227z"/><path fill="#0FF8E7" d="M27.961 27.5l.877-.227.131-.138-.884.233z"/><path fill="#1FFFD7" d="M28.085 27.368l.884-.233.115-.172-.891.24z"/><path fill="#30FFC7" d="M28.193 27.203l.891-.24.094-.201-.897.246z"/><path fill="#43FFB4" d="M28.281 27.008l.896-.246.071-.225-.901.251z"/><path fill="#5AFF9D" d="M28.348 26.788l.901-.251.046-.244-.904.256z"/><path fill="#6DFF8A" d="M28.391 26.548l.904-.255.021-.255-.907.258z"/><path fill="#83FF73" d="M28.409 26.296l.906-.258-.006-.261-.907.26z"/><path fill="#9AFF5D" d="M28.402 26.037l.907-.26-.032-.26-.907.262z"/><path fill="#B1FF46" d="M28.37 25.779l.907-.262-.059-.251-.904.261z"/><path fill="#C4FF33" d="M28.314 25.527l.904-.261-.083-.236-.901.259z"/><path fill="#D7FF1F" d="M28.234 25.289l.901-.259-.105-.216-.896.258z"/><path fill="#FFE600" d="M27.425 24.46l.858-.232-.165.003-.85.226z"/><path fill="#E4FF13" d="M28.134 25.072l.896-.258-.125-.188-.89.254z"/><path fill="#FFE600" d="M27.582 24.506l.867-.238-.166-.04-.859.232z"/><path fill="#F1FC06" d="M28.015 24.88l.89-.254-.141-.157-.883.25z"/><path fill="#FFE600" d="M27.735 24.593l.876-.244-.162-.081-.867.238z"/><path fill="#FEED00" d="M27.881 24.719l.883-.25-.153-.12-.876.244z"/></g><g fill-rule="nonzero"><path fill="#00E4F8" d="M26.972 27.775l.921-.223-.142.075-.923.224z"/><path fill="#0CF4EB" d="M27.104 27.66l.921-.222-.132.114-.921.223z"/><path fill="#19FFDE" d="M27.22 27.509l.921-.219-.117.148-.92.222z"/><path fill="#29FFCE" d="M27.319 27.326l.92-.217-.098.18-.921.22z"/><path fill="#3CFFBA" d="M27.397 27.115l.92-.215-.078.209-.92.217z"/><path fill="#53FFA4" d="M27.451 26.881l.921-.211-.055.23-.92.214z"/><path fill="#66FF90" d="M27.481 26.63l.922-.206-.031.246-.921.211z"/><path fill="#7DFF7A" d="M27.486 26.37l.923-.203-.006.256-.922.207z"/><path fill="#94FF63" d="M27.465 26.107l.924-.2.02.26-.923.203z"/><path fill="#AAFF4D" d="M27.419 25.847l.926-.195.044.255-.924.2z"/><path fill="#BEFF39" d="M27.348 25.597l.928-.191.069.245-.926.196z"/><path fill="#D1FF26" d="M27.256 25.365l.93-.188.09.229-.928.191z"/><path fill="#FFE200" d="M26.402 24.629l.944-.176.157.025-.942.176z"/><path fill="#E1FF16" d="M27.144 25.156l.932-.184.11.205-.93.188z"/><path fill="#FFE600" d="M26.561 24.655l.942-.177.156.067-.94.178z"/><path fill="#EEFF09" d="M27.015 24.977l.934-.182.127.177-.932.184z"/><path fill="#FFEA00" d="M26.719 24.722l.94-.177.15.106-.937.18z"/><path fill="#FBF100" d="M26.872 24.831l.937-.18.14.144-.935.182z"/></g><g fill-rule="nonzero"><path fill="#00E0FB" d="M26.041 28.023l.931-.248-.144.076-.936.25z"/><path fill="#09F0EE" d="M26.177 27.903l.927-.243-.132.115-.931.247z"/><path fill="#16FFE1" d="M26.297 27.746l.924-.237-.117.151-.927.243z"/><path fill="#29FFCE" d="M26.398 27.556l.921-.23-.099.183-.923.237z"/><path fill="#3CFFBA" d="M26.478 27.336l.919-.222-.078.212-.921.23z"/><path fill="#50FFA7" d="M26.533 27.093l.918-.212-.054.233-.919.222z"/><path fill="#66FF90" d="M26.563 26.833l.918-.203-.03.251-.918.212z"/><path fill="#7DFF7A" d="M26.567 26.562l.919-.192-.005.26-.918.203z"/><path fill="#94FF63" d="M26.544 26.288l.921-.181.021.263-.919.192z"/><path fill="#AAFF4D" d="M26.494 26.018l.925-.171.046.259-.922.182z"/><path fill="#C1FF36" d="M26.42 25.758l.929-.161.07.25-.924.171z"/><path fill="#D4FF23" d="M26.323 25.517l.933-.152.093.232-.929.161z"/><path fill="#FFDE00" d="M25.434 24.75l.968-.121.159.025-.962.123z"/><path fill="#E4FF13" d="M26.206 25.299l.938-.143.112.209-.933.152z"/><path fill="#FFDE00" d="M25.599 24.777l.962-.123.159.068-.956.125z"/><path fill="#F1FC06" d="M26.071 25.112l.944-.135.129.179-.938.143z"/><path fill="#FFE600" d="M25.764 24.847l.956-.125.152.109-.95.129z"/><path fill="#FEED00" d="M25.922 24.96l.95-.129.143.146-.944.135z"/></g><g fill-rule="nonzero"><path fill="#0CF" d="M25.001 28.379l.891-.278-.157.037-.9.279z"/><path fill="#00D8FF" d="M25.158 28.295l.883-.273-.149.079-.891.278z"/><path fill="#02E8F4" d="M25.301 28.169l.876-.266-.136.119-.883.273z"/><path fill="#13FCE4" d="M25.428 28.003l.869-.257-.12.157-.876.266z"/><path fill="#23FFD4" d="M25.534 27.801l.865-.245-.102.19-.869.257z"/><path fill="#39FFBE" d="M25.617 27.568l.861-.232-.08.22-.864.245z"/><path fill="#50FFA7" d="M25.674 27.31l.859-.217-.055.243-.861.232z"/><path fill="#66FF90" d="M25.705 27.034l.858-.201-.03.26-.859.217z"/><path fill="#7DFF7A" d="M25.707 26.746l.86-.184-.004.271-.858.201z"/><path fill="#97FF60" d="M25.681 26.455l.863-.167.023.274-.86.184z"/><path fill="#ADFF49" d="M25.628 26.167l.866-.149.05.27-.863.167z"/><path fill="#C4FF33" d="M25.548 25.892l.872-.134.074.26-.866.149z"/><path fill="#D7FF1F" d="M25.444 25.635l.879-.118.097.241-.872.134z"/><path fill="gold" d="M24.499 24.821l.935-.071.166.027-.926.073z"/><path fill="#EBFF0C" d="M25.319 25.404l.887-.105.117.218-.879.118z"/><path fill="gold" d="M24.674 24.848l.925-.071.165.07-.916.076z"/><path fill="#F8F500" d="M25.175 25.205l.896-.093.135.187-.887.105z"/><path fill="#FFDB00" d="M24.848 24.923l.916-.076.158.113-.905.083z"/><path fill="#FFE600" d="M25.017 25.043l.905-.083.149.152-.896.093z"/></g><g fill-rule="nonzero"><path fill="#00A0FF" d="M22.157 29.189l.587-.324-.189-.163-.605.309z"/><path fill="#00B0FF" d="M21.95 29.011l.606-.309-.176-.208-.623.289z"/><path fill="#0094FF" d="M22.373 29.315l.569-.335-.198-.115-.587.324z"/><path fill="#00C4FF" d="M21.757 28.783l.623-.289-.157-.247-.639.265z"/><path fill="#0094FF" d="M22.593 29.384l.55-.342-.201-.062-.569.335z"/><path fill="#00E0FB" d="M21.584 28.512l.638-.265-.135-.281-.653.238z"/><path fill="#0094FF" d="M22.812 29.395l.531-.343-.2-.01-.55.342z"/><path fill="#13FCE4" d="M21.435 28.204l.652-.238-.111-.307-.663.208z"/><path fill="#009CFF" d="M23.024 29.346l.513-.339-.194.045-.531.343z"/><path fill="#30FFC7" d="M21.313 27.868l.663-.209-.082-.326-.673.177z"/><path fill="#00ACFF" d="M23.223 29.24l.496-.33-.182.097-.513.339z"/><path fill="#49FFAD" d="M21.221 27.51l.673-.177-.052-.336-.679.144z"/><path fill="#6AFF8D" d="M21.163 27.141l.679-.144-.021-.339-.682.112z"/><path fill="#87FF70" d="M21.139 26.77l.682-.112.012-.332-.682.08z"/><path fill="#A7FF50" d="M21.151 26.406l.682-.08.045-.317-.68.049z"/><path fill="#C4FF33" d="M21.198 26.058l.68-.049.075-.294-.673.021z"/><path fill="#DEFF19" d="M21.28 25.736l.674-.021.105-.262-.664-.006z"/><path fill="#F8F500" d="M21.394 25.447l.665.006.132-.225-.653-.027z"/><path fill="#FFDB00" d="M21.538 25.201l.653.027.156-.18-.638-.045z"/><path fill="#FFC800" d="M21.709 25.003l.638.045.176-.13-.622-.058z"/><path fill="#FFB900" d="M21.9 24.859l.623.058.191-.077-.605-.066z"/><path fill="#FFAE00" d="M22.109 24.776l.605.073.201-.025-.586-.075z"/></g><g fill-rule="nonzero"><path fill="#008CFF" d="M21.721 29.515l.435-.326-.207-.179-.455.308z"/><path fill="#009CFF" d="M21.494 29.318l.455-.308-.192-.228-.475.286z"/><path fill="#0080FF" d="M21.958 29.652l.415-.337-.217-.126-.435.325z"/><path fill="#00B4FF" d="M21.282 29.068l.475-.285-.173-.272-.492.26z"/><path fill="#007CFF" d="M22.2 29.728l.393-.344-.22-.069-.415.337z"/><path fill="#00D0FF" d="M21.092 28.771l.492-.259-.15-.308-.507.229z"/><path fill="#007CFF" d="M22.44 29.741l.372-.347-.219-.01-.393.345z"/><path fill="#09F0EE" d="M20.927 28.433l.507-.229-.122-.337-.52.197z"/><path fill="#08F" d="M22.672 29.688l.351-.342-.211.048-.372.346z"/><path fill="#26FFD1" d="M20.792 28.064l.52-.197-.091-.357-.53.162z"/><path fill="#0098FF" d="M22.89 29.572l.333-.332-.2.106-.351.342z"/><path fill="#46FFB1" d="M20.691 27.672l.53-.162-.059-.369-.536.126z"/><path fill="#00ACFF" d="M23.089 29.395l.316-.317-.182.162-.333.332z"/><path fill="#66FF90" d="M20.626 27.267l.536-.126-.023-.371-.54.089z"/><path fill="#8AFF6D" d="M20.599 26.859l.54-.089.012-.364-.54.053z"/><path fill="#AAFF4D" d="M20.611 26.459l.54-.053.047-.348-.536.019z"/><path fill="#CAFF2C" d="M20.662 26.077l.536-.019.082-.323-.53-.013z"/><path fill="#E7FF0F" d="M20.75 25.722l.53.014.114-.289-.519-.042z"/><path fill="#FFE600" d="M20.875 25.405l.519.042.144-.246-.506-.067z"/><path fill="#FC0" d="M21.032 25.134l.506.067.17-.198-.49-.087z"/><path fill="#FFB600" d="M21.218 24.916l.491.087.192-.144-.472-.101z"/><path fill="#FFA300" d="M21.428 24.758l.472.101.209-.085-.452-.11z"/><path fill="#FF9800" d="M21.658 24.664l.451.11.22-.025-.43-.113z"/><path fill="#FF9400" d="M21.899 24.636l.43.113.226.037-.408-.11z"/><path fill="#FF9400" d="M22.147 24.676l.408.109.224.098-.385-.099z"/></g><g fill-rule="nonzero"><path fill="#0074FF" d="M21.433 29.829l.288-.314-.227-.196-.31.294z"/><path fill="#0084FF" d="M21.184 29.613l.31-.294-.211-.25-.331.271z"/><path fill="#0068FF" d="M21.693 29.98l.265-.327-.237-.138-.288.314z"/><path fill="#00A0FF" d="M20.952 29.339l.33-.27-.19-.298-.349.243z"/><path fill="#0064FF" d="M21.957 30.064l.243-.335-.242-.076-.266.327z"/><path fill="#00C0FF" d="M20.743 29.014l.349-.243-.165-.337-.365.21z"/><path fill="#0064FF" d="M22.219 30.077l.221-.336-.24-.012-.243.335z"/><path fill="#00E4F8" d="M20.562 28.644l.365-.21-.134-.369-.379.175z"/><path fill="#0070FF" d="M22.474 30.02l.198-.331-.232.052-.22.336z"/><path fill="#1FFFD7" d="M20.414 28.24l.379-.175-.102-.392-.389.137z"/><path fill="#0080FF" d="M22.713 29.894l.177-.321-.218.116-.199.331z"/><path fill="#40FFB7" d="M20.302 27.81l.389-.137-.065-.405-.396.098z"/><path fill="#0098FF" d="M22.931 29.701l.158-.305-.199.177-.177.321z"/><path fill="#66FF90" d="M20.23 27.366l.396-.098-.027-.408-.4.059z"/><path fill="#00B4FF" d="M23.122 29.445l.142-.282-.175.233-.158.305z"/><path fill="#8AFF6D" d="M20.199 26.919l.4-.059.012-.4-.4.02z"/><path fill="#ADFF49" d="M20.211 26.481l.4-.021.051-.382-.396-.017z"/><path fill="#D1FF26" d="M20.266 26.061l.396.017.088-.355-.388-.051z"/><path fill="#F4F802" d="M20.362 25.672l.388.051.125-.317-.377-.082z"/><path fill="gold" d="M20.498 25.324l.377.082.157-.271-.362-.109z"/><path fill="#FFB900" d="M20.67 25.026l.362.109.186-.218-.345-.13z"/><path fill="#FF9F00" d="M20.873 24.787l.345.13.211-.158-.325-.147z"/><path fill="#FF8D00" d="M21.103 24.612l.326.147.229-.095-.304-.156z"/><path fill="#FF8200" d="M21.354 24.509l.304.156.241-.028-.28-.159z"/><path fill="#FF7A00" d="M21.619 24.478l.28.159.248.04-.256-.155z"/><path fill="#FF7E00" d="M21.891 24.522l.256.155.247.108-.231-.145z"/><path fill="#00C8FF" d="M23.264 29.163l.3-.297-.159.213-.316.317z"/></g><g fill-rule="nonzero"><path fill="#0028FF" d="M21.219 30.541l-.007-.184-.294-.255-.016.165z"/><path fill="#0040FF" d="M20.902 30.267l.016-.164-.274-.324-.037.14z"/><path fill="#0018FF" d="M21.55 30.735l-.03-.198-.308-.18.007.184z"/><path fill="#0060FF" d="M20.607 29.919l.037-.14-.248-.385-.056.111z"/><path fill="#0010FF" d="M21.886 30.842l-.053-.206-.313-.099.03.197z"/><path fill="#08F" d="M20.34 29.505l.056-.111-.214-.437-.072.078z"/><path fill="#0014FF" d="M22.22 30.861l-.077-.208-.311-.017.054.206z"/><path fill="#00B4FF" d="M20.109 29.035l.073-.078-.176-.478-.086.041z"/><path fill="#0020FF" d="M22.544 30.789l-.1-.202-.301.066.078.207z"/><path fill="#02E8F4" d="M19.92 28.52l.086-.041-.134-.508-.096.002z"/><path fill="#0038FF" d="M22.849 30.63l-.122-.192-.283.149.1.202z"/><path fill="#30FFC7" d="M19.776 27.973l.096-.002-.086-.525-.103-.038z"/><path fill="#0054FF" d="M23.128 30.386l-.143-.175-.258.227.122.192z"/><path fill="#60FF97" d="M19.683 27.408l.103.038-.037-.53-.107-.078z"/><path fill="#007CFF" d="M23.372 30.062l-.16-.153-.227.302.143.175z"/><path fill="#8DFF6A" d="M19.642 26.837l.106.079.013-.52-.105-.119z"/><path fill="#00A8FF" d="M23.577 29.666l-.175-.124-.19.368.16.152z"/><path fill="#BEFF39" d="M19.656 26.277l.105.119.064-.498-.101-.158z"/><path fill="#00D8FF" d="M23.736 29.207l-.187-.092-.147.426.175.124z"/><path fill="#EBFF0C" d="M19.724 25.74l.101.158.113-.462-.093-.194z"/><path fill="#23FFD4" d="M23.845 28.697l-.196-.055-.1.473.187.092z"/><path fill="#FFD300" d="M19.845 25.242l.093.194.159-.414-.08-.227z"/><path fill="#50FFA7" d="M23.9 28.148l-.201-.015-.05.509.196.055z"/><path fill="#FFA700" d="M20.017 24.795l.08.227.203-.355-.065-.255z"/><path fill="#80FF77" d="M23.899 27.575l-.201.026.001.532.201.015z"/><path fill="#FF8200" d="M20.235 24.412l.065.256.241-.286-.046-.279z"/><path fill="#B1FF46" d="M23.842 26.993l-.197.068.053.54.201-.026z"/><path fill="#FF6000" d="M20.495 24.103l.046.279.273-.208-.025-.296z"/><path fill="#DEFF19" d="M23.73 26.416l-.189.111.104.534.197-.069z"/><path fill="#FF4A00" d="M20.789 23.878l.025.296.298-.125-.002-.306z"/><path fill="#FFE200" d="M23.566 25.862l-.178.151.152.514.19-.111z"/><path fill="#FF3800" d="M21.11 23.743l.002.306.315-.037.023-.31z"/><path fill="#FFB200" d="M23.353 25.344l-.163.19.198.479.178-.152z"/><path fill="#FF3000" d="M21.45 23.702l-.023.31.323.052.049-.306z"/><path fill="#FF8D00" d="M23.098 24.878l-.145.224.237.432.163-.19z"/><path fill="#FF3400" d="M21.799 23.758l-.049.306.323.14.075-.296z"/><path fill="#FF6800" d="M22.806 24.476l-.123.254.27.372.144-.224z"/><path fill="#FF3B00" d="M22.148 23.908l-.075.296.314.224.099-.278z"/><path fill="#FF4E00" d="M22.486 24.15l-.099.278.296.302.123-.254z"/></g><g fill-rule="nonzero"><path fill="#0040FF" d="M21.212 30.357l.06-.243-.271-.235-.083.223z"/><path fill="#0058FF" d="M20.918 30.102l.082-.223-.253-.298-.104.198z"/><path fill="#0034FF" d="M21.519 30.536l.037-.257-.284-.165-.06.243z"/><path fill="#0074FF" d="M20.643 29.779l.105-.198-.229-.356-.123.169z"/><path fill="#002CFF" d="M21.832 30.636l.012-.265-.288-.091-.037.256z"/><path fill="#009CFF" d="M20.396 29.394l.123-.169-.197-.403-.141.135z"/><path fill="#0030FF" d="M22.143 30.653l-.013-.267-.286-.015-.012.265z"/><path fill="#00C4FF" d="M20.181 28.957l.141-.135-.162-.441-.155.097z"/><path fill="#003CFF" d="M22.443 30.587l-.036-.262-.277.061.013.267z"/><path fill="#0CF4EB" d="M20.005 28.478l.155-.097-.123-.468-.165.057z"/><path fill="#0050FF" d="M22.726 30.438l-.058-.251-.261.138.036.262z"/><path fill="#36FFC1" d="M19.872 27.97l.165-.057-.079-.485-.172.017z"/><path fill="#006CFF" d="M22.985 30.211l-.079-.234-.238.21.058.251z"/><path fill="#60FF97" d="M19.785 27.445l.173-.017-.034-.488-.176-.024z"/><path fill="#0090FF" d="M23.212 29.909l-.097-.21-.209.278.079.234z"/><path fill="#8DFF6A" d="M19.748 26.916l.176.024.012-.479-.175-.065z"/><path fill="#00B8FF" d="M23.401 29.541l-.111-.182-.175.34.097.21z"/><path fill="#B7FF40" d="M19.761 26.396l.175.065.059-.458-.171-.105z"/><path fill="#02E8F4" d="M23.548 29.115l-.123-.149-.135.393.111.182z"/><path fill="#E1FF16" d="M19.825 25.898l.17.105.105-.425-.163-.142z"/><path fill="#29FFCE" d="M23.648 28.641l-.131-.111-.092.436.123.149z"/><path fill="#FFDE00" d="M19.937 25.436l.162.142.148-.381-.15-.175z"/><path fill="#53FFA4" d="M23.699 28.132l-.136-.071-.046.468.131.112z"/><path fill="#FFB600" d="M20.097 25.022l.15.175.187-.326-.134-.204z"/><path fill="#80FF77" d="M23.698 27.601l-.137-.03.002.49.136.071z"/><path fill="#FF9400" d="M20.3 24.667l.134.204.222-.262-.115-.227z"/><path fill="#ADFF49" d="M23.644 27.061l-.132.013.049.497.137.03z"/><path fill="#F70" d="M20.541 24.382l.115.227.252-.191-.094-.244z"/><path fill="#D7FF1F" d="M23.54 26.527l-.124.056.096.491.132-.013z"/><path fill="#FF6000" d="M20.814 24.174l.093.244.275-.114-.071-.255z"/><path fill="#FEED00" d="M23.387 26.013l-.112.097.141.473.124-.056z"/><path fill="#FF5200" d="M21.112 24.049l.07.255.289-.034-.045-.258z"/><path fill="#FFC400" d="M23.19 25.534l-.097.136.182.441.112-.098z"/><path fill="#FF4A00" d="M21.426 24.012l.045.258.298.048-.019-.254z"/><path fill="#FF9F00" d="M22.953 25.102l-.078.171.218.397.097-.136z"/><path fill="#FF4A00" d="M21.75 24.064l.019.254.297.129.007-.243z"/><path fill="#FF7E00" d="M22.683 24.73l-.056.201.248.342.078-.171z"/><path fill="#F50" d="M22.073 24.204l-.007.243.288.206.032-.225z"/><path fill="#FF6800" d="M22.387 24.428l-.033.225.273.278.056-.201z"/></g><g fill-rule="nonzero"><path fill="#005CFF" d="M21.272 30.114l.16-.286-.249-.215-.183.266z"/><path fill="#0070FF" d="M21 29.879l.183-.266-.232-.274-.204.242z"/><path fill="#004CFF" d="M21.555 30.279l.137-.3-.26-.151-.16.286z"/><path fill="#008CFF" d="M20.747 29.581l.204-.242-.209-.326-.223.212z"/><path fill="#0048FF" d="M21.844 30.371l.112-.308-.264-.084-.137.301z"/><path fill="#00ACFF" d="M20.519 29.226l.223-.213-.181-.369-.24.178z"/><path fill="#004CFF" d="M22.13 30.386l.089-.309-.263-.014-.112.308z"/><path fill="#00D4FF" d="M20.321 28.822l.24-.178-.148-.405-.254.142z"/><path fill="#0054FF" d="M22.407 30.325l.066-.305-.254.057-.089.309z"/><path fill="#16FFE1" d="M20.159 28.381l.254-.142-.112-.429-.264.103z"/><path fill="#0068FF" d="M22.668 30.187l.044-.294-.239.127-.066.305z"/><path fill="#3CFFBA" d="M20.037 27.913l.264-.103-.072-.444-.272.062z"/><path fill="#0080FF" d="M22.906 29.977l.024-.277-.218.193-.044.294z"/><path fill="#63FF94" d="M19.957 27.428l.272-.062-.031-.447-.275.021z"/><path fill="#00A0FF" d="M23.115 29.699l.006-.254-.191.255-.024.277z"/><path fill="#8DFF6A" d="M19.923 26.94l.276-.021.012-.439-.275-.019z"/><path fill="#00C8FF" d="M23.289 29.359l-.008-.226-.159.312-.007.254z"/><path fill="#B4FF43" d="M19.936 26.461l.275.019.054-.419-.271-.058z"/><path fill="#0CF4EB" d="M23.424 28.966l-.019-.193-.124.36.008.226z"/><path fill="#DBFF1C" d="M19.994 26.003l.271.057.096-.389-.262-.093z"/><path fill="#30FFC7" d="M23.516 28.53l-.027-.157-.084.4.019.193z"/><path fill="#FEED00" d="M20.099 25.578l.262.094.136-.349-.251-.126z"/><path fill="#56FFA0" d="M23.589 28.061l-.043-.118-.057.43.037.157z"/><path fill="#FFC800" d="M20.247 25.197l.25.127.172-.298-.235-.155z"/><path fill="#80FF77" d="M23.625 27.571l-.095-.075.004.447.096.118z"/><path fill="#FFA700" d="M20.434 24.871l.235.154.204-.239-.217-.177z"/><path fill="#A7FF50" d="M23.52 27.074l-.036-.033.059.455.041.075z"/><path fill="#FF8D00" d="M20.656 24.609l.216.177.231-.174-.196-.194z"/><path fill="#CEFF29" d="M23.415 26.583l-.019.009.088.449.028.033z"/><path fill="#F70" d="M20.907 24.418l.196.194.251-.104-.173-.204z"/><path fill="#F4F802" d="M23.274 26.111l-.007.049.129.432.019-.009z"/><path fill="#FF6C00" d="M21.181 24.304l.173.204.265-.031-.148-.207z"/><path fill="#FFD300" d="M23.093 25.67l.008.087.167.403.007-.05z"/><path fill="#FF6400" d="M21.471 24.27l.148.207.272.045-.123-.204z"/><path fill="#FFB200" d="M22.875 25.273l.027.121.199.363-.008-.087z"/><path fill="#FF6400" d="M21.768 24.318l.123.204.271.117-.097-.192z"/><path fill="#FF9400" d="M22.626 24.931l.049.151.227.312-.027-.121z"/><path fill="#FF6C00" d="M22.065 24.447l.097.192.264.189-.072-.175z"/><path fill="#FF7E00" d="M22.354 24.653l.072.175.249.254-.049-.151z"/></g><g fill-rule="nonzero"><path fill="#000CFF" d="M21.256 30.654l-.038-.112-.316-.274.016.093z"/><path fill="#0028FF" d="M20.918 30.361l-.017-.093-.295-.349-.003.07z"/><path fill="#00F" d="M21.609 30.86l-.06-.125-.331-.193.039.111z"/><path fill="#004CFF" d="M20.603 29.989l.003-.07-.266-.414-.021.043z"/><path fill="#00F" d="M21.969 30.974l-.083-.132-.337-.107.06.125z"/><path fill="#0074FF" d="M20.319 29.547l.021-.042-.231-.47-.036.011z"/><path fill="#00F" d="M22.325 30.994l-.105-.133-.334-.019.083.132z"/><path fill="#00A8FF" d="M20.072 29.046l.037-.011-.19-.515-.049-.023z"/><path fill="#0008FF" d="M22.671 30.919l-.128-.129-.323.071.105.133z"/><path fill="#00E0FB" d="M19.87 28.497l.049.023-.143-.546-.059-.061z"/><path fill="#0020FF" d="M22.997 30.749l-.148-.119-.305.159.127.13z"/><path fill="#2CFFCA" d="M19.717 27.913l.059.061-.094-.566-.065-.099z"/><path fill="#0040FF" d="M23.295 30.489l-.168-.103-.278.244.148.119z"/><path fill="#5DFF9A" d="M19.617 27.309l.065.099-.04-.57-.069-.139z"/><path fill="#0068FF" d="M23.557 30.143l-.185-.081-.245.324.168.102z"/><path fill="#90FF66" d="M19.573 26.699l.083.139.017-.561-.083-.177z"/><path fill="#0098FF" d="M23.777 29.72l-.2-.054-.205.396.185.081z"/><path fill="#C1FF36" d="M19.587 26.1l.068.177.068-.536-.063-.215z"/><path fill="#0CF" d="M23.947 29.23l-.211-.023-.159.459.2.054z"/><path fill="#F4F802" d="M19.66 25.526l.063.214.122-.498-.056-.25z"/><path fill="#1CFFDB" d="M24.064 28.685l-.219.012-.109.51.212.023z"/><path fill="#FFC400" d="M19.789 24.992l.056.25.171-.447-.043-.281z"/><path fill="#4DFFAA" d="M24.124 28.098l-.224.05-.055.549.219-.012z"/><path fill="#FF9800" d="M19.973 24.514l.043.281.219-.383-.029-.309z"/><path fill="#80FF77" d="M24.124 27.485l-.225.09.001.573.224-.05z"/><path fill="#FF6F00" d="M20.206 24.103l.029.309.259-.309-.01-.331z"/><path fill="#B4FF43" d="M24.064 26.862l-.222.131.057.582.225-.09z"/><path fill="#FF4A00" d="M20.484 23.772l.011.331.294-.225.01-.348z"/><path fill="#E4FF13" d="M23.944 26.245l-.214.171.112.577.222-.131z"/><path fill="#FF3000" d="M20.799 23.53l-.01.348.321-.135.032-.358z"/><path fill="#FFD300" d="M23.769 25.652l-.203.21.164.554.215-.171z"/><path fill="#F20" d="M21.142 23.385l-.032.358.34-.041.056-.361z"/><path fill="#FFA300" d="M23.542 25.097l-.189.247.213.518.203-.21z"/><path fill="#FF1A00" d="M21.506 23.341l-.056.361.349.056.08-.358z"/><path fill="#FF7A00" d="M23.268 24.598l-.171.28.256.466.189-.247z"/><path fill="#FF1A00" d="M21.879 23.4l-.08.358.348.151.105-.348z"/><path fill="#F50" d="M22.957 24.168l-.151.308.291.402.171-.28z"/><path fill="#FF2500" d="M22.252 23.561l-.105.347.339.242.129-.331z"/><path fill="#FF3800" d="M22.615 23.819l-.129.331.319.326.152-.308z"/></g></g></svg>