<svg viewBox="0 0 32 32"><g fill="none" fill-rule="evenodd"><path fill="#0657F9" d="M32 16c0-2.094-.417-4.188-1.218-6.123a16.047 16.047 0 00-3.468-5.19 16.047 16.047 0 00-5.191-3.47A16.055 16.055 0 0016 0c-2.094 0-4.188.417-6.123 1.218a16.047 16.047 0 00-5.19 3.468 16.047 16.047 0 00-3.47 5.191A16.055 16.055 0 000 16c0 2.094.417 4.188 1.218 6.123a16.047 16.047 0 003.468 5.19 16.047 16.047 0 005.191 3.47A16.055 16.055 0 0016 32c2.094 0 4.188-.417 6.123-1.218a16.047 16.047 0 005.19-3.468 16.047 16.047 0 003.47-5.191A16.055 16.055 0 0032 16z"/><path fill="#FFF" d="M15.173 8.776h1.654v14.449h-1.654z"/><path fill="#FFF" d="M14.235 15.573v-1.727A4.006 4.006 0 0116 6.246c2.484 0 4.277 1.793 4.277 4.004 0 .558-.115 1.089-.39 1.72l-.706-2.297-1.416.443 1.256 4.778 4.873-1.793-.592-1.397-1.818.622c.33-.714.394-1.238.394-2.076 0-3.096-2.51-5.606-5.878-5.606a5.606 5.606 0 00-1.765 10.929zm3.53.855v1.727a4.006 4.006 0 01-1.765 7.6c-2.484 0-4.277-1.793-4.277-4.005 0-.557.115-1.088.39-1.719l.706 2.296 1.416-.442-1.256-4.778L8.106 18.9l.592 1.397 1.818-.622c-.33.713-.394 1.238-.394 2.075 0 3.097 2.51 5.607 5.878 5.607a5.606 5.606 0 001.765-10.93z"/></g></svg>