<svg fill="none" viewBox="0 0 32 32"><path fill="url(#paint0_linear)" fill-rule="evenodd" d="M32 16c0-2.094-.417-4.188-1.218-6.123a16.046 16.046 0 00-3.468-5.19 16.046 16.046 0 00-5.191-3.47A16.055 16.055 0 0016 0c-2.094 0-4.188.417-6.123 1.218a16.047 16.047 0 00-5.19 3.468 16.047 16.047 0 00-3.47 5.191A16.054 16.054 0 000 16c0 2.094.417 4.188 1.218 6.123a16.046 16.046 0 003.468 5.19 16.046 16.046 0 005.191 3.47A16.054 16.054 0 0016 32c2.094 0 4.188-.417 6.123-1.218a16.046 16.046 0 005.19-3.468 16.046 16.046 0 003.47-5.191A16.054 16.054 0 0032 16z" clip-rule="evenodd"/><path fill="#fff" fill-rule="evenodd" d="M15.173 8.776h1.654v14.449h-1.654V8.776z" clip-rule="evenodd"/><path fill="#fff" fill-rule="evenodd" d="M14.235 15.573v-1.727A4.006 4.006 0 0116 6.246c2.483 0 4.277 1.793 4.277 4.004 0 .558-.115 1.089-.39 1.72l-.706-2.297-1.416.443 1.256 4.778 4.873-1.793-.592-1.397-1.817.622c.329-.713.393-1.238.393-2.076 0-3.096-2.51-5.606-5.878-5.606a5.606 5.606 0 00-1.765 10.929zm3.53.855v1.727a4.006 4.006 0 01-1.765 7.6c-2.483 0-4.277-1.793-4.277-4.005 0-.557.115-1.088.39-1.719l.706 2.296 1.416-.442-1.256-4.778L8.106 18.9l.592 1.397 1.817-.622c-.328.713-.393 1.238-.393 2.075 0 3.097 2.51 5.607 5.878 5.607a5.606 5.606 0 001.765-10.93z" clip-rule="evenodd"/><defs><linearGradient id="paint0_linear" x1="-16" x2="16" y1="16" y2="48" gradientUnits="userSpaceOnUse"><stop stop-color="#0077FC"/><stop offset="1" stop-color="#095EB5"/></linearGradient></defs></svg>