<svg xmlns="http://www.w3.org/2000/svg" width="32" height="32"><g fill="none" fill-rule="evenodd"><circle cx="16" cy="16" r="16" fill="#FFF"/><path fill="#82CBED" d="M22.014 13.424l-.576-6.016h-5.29c-.624 1.08-1.144 3.041-1.486 5.026a32.007 32.007 0 00-.395 3.262h1.526c.407-.39.854-.738 1.343-1.043a8.121 8.121 0 013.178-1.161 8.167 8.167 0 011.7-.068z"/><path fill="#000" d="M25.916 20.388a4.994 4.994 0 00-1.443-3.483 4.996 4.996 0 00-3.483-1.443 4.998 4.998 0 00-3.484 1.443 4.996 4.996 0 00-1.442 3.483c0 1.287.532 2.574 1.442 3.483a4.997 4.997 0 003.484 1.443 4.996 4.996 0 003.483-1.443 4.996 4.996 0 001.443-3.483z"/><path fill="#FFCD00" d="M23.474 20.388a2.52 2.52 0 00-.728-1.756 2.52 2.52 0 00-1.756-.728 2.52 2.52 0 00-1.757.728 2.52 2.52 0 00-.727 1.756c0 .649.268 1.298.727 1.757a2.52 2.52 0 001.757.727 2.52 2.52 0 001.756-.727 2.521 2.521 0 00.728-1.757z"/><path fill="#000" d="M22.065 20.388c0-.281-.117-.561-.315-.76a1.09 1.09 0 00-.76-.315c-.281 0-.562.116-.76.315-.199.199-.315.479-.315.76 0 .28.116.562.315.76.198.198.479.315.76.315.28 0 .561-.117.76-.315a1.09 1.09 0 00.315-.76zM12.156 22.046c0-.872-.361-1.743-.977-2.36a3.386 3.386 0 00-2.36-.977c-.872 0-1.743.36-2.36.977a3.387 3.387 0 00-.977 2.36c0 .871.36 1.743.977 2.36a3.385 3.385 0 002.36.977c.871 0 1.743-.361 2.36-.977a3.386 3.386 0 00.977-2.36z"/><path fill="#FFCD00" d="M9.945 22.046c0-.294-.122-.588-.33-.796a1.142 1.142 0 00-.796-.33c-.294 0-.589.122-.796.33-.208.208-.33.502-.33.796 0 .294.122.588.33.796.207.208.502.33.796.33.294 0 .588-.122.796-.33.208-.208.33-.502.33-.796z"/><path fill="#FFCD00" stroke="#0B0B0B" d="M14.47 12.96c-.15.998-.246 1.972-.275 2.783h2.057c.365-.373.774-.7 1.226-.983a6.561 6.561 0 012.567-.938 6.597 6.597 0 011.365-.056c.561.057.79.094 1.011.143.607.16.88.253 1.146.365.211.09.416.188.616.298l.121.07-.156-.035a17.443 17.443 0 01-.544-.142l-.262-.072c-.472-.132-.921-.256-1.378-.327a6.425 6.425 0 00-3.928.648 6.427 6.427 0 00-2.784 2.846 6.532 6.532 0 00-.636 3.352h0-1.162a4.862 4.862 0 00-1.115-2.088 4.79 4.79 0 00-2.399-1.417 4.792 4.792 0 00-2.782.165c-.509.19-.986.47-1.402.818-.125-1.552-.178-2.354-.185-2.828v-.154c.002-.237.019-.376.046-.505.062-.296.201-.498.61-.697.58-.282 1.571-.539 3-.743a32.07 32.07 0 011.235-.15h0l1.262-.122c.351-.031.734-.063 1.155-.098l.678-.056h0z"/><path fill="#000" d="M11.679 12.693l-1.265.122v-.159a5.17 5.17 0 00-.01-.321.635.635 0 00-.298-.515 5.243 5.243 0 00-.273-.17l-.715-.412a.651.651 0 01-.295-.384.639.639 0 01.063-.48.64.64 0 01.385-.295.652.652 0 01.48.063l.477.276c.209.12.421.247.637.381.43.268.682.654.757 1.159.037.251.056.496.057.735zm1.836-.154l1.55-.13c.296-1.725.748-3.43 1.29-4.367h4.596l.5 5.226a6.904 6.904 0 011.087.155c.12.026.238.056.356.089l-.584-5.42a.637.637 0 00.394-.202.587.587 0 00.139-.546c-.065-.239-.302-.459-.533-.484h-7.507a.637.637 0 00-.432.176.623.623 0 00.4 1.062c-.609 1.334-1.028 2.814-1.256 4.44z"/></g></svg>