<svg xmlns="http://www.w3.org/2000/svg" width="32" height="32"><g fill="none" fill-rule="evenodd"><path fill="#00DCFA" d="M32 16c0-2.094-.417-4.188-1.218-6.123a16.047 16.047 0 00-3.468-5.19 16.047 16.047 0 00-5.191-3.47A16.055 16.055 0 0016 0c-2.094 0-4.188.417-6.123 1.218a16.047 16.047 0 00-5.19 3.468 16.047 16.047 0 00-3.47 5.191A16.055 16.055 0 000 16c0 2.094.417 4.188 1.218 6.123a16.047 16.047 0 003.468 5.19 16.047 16.047 0 005.191 3.47A16.055 16.055 0 0016 32c2.094 0 4.188-.417 6.123-1.218a16.047 16.047 0 005.19-3.468 16.047 16.047 0 003.47-5.191A16.055 16.055 0 0032 16z"/><path fill="#FFF" d="M19.38 5c4.208.005 7.62 3.382 7.62 7.55 0 3.826-2.973 7.085-6.807 7.493-.401 3.795-3.704 6.744-7.573 6.74C8.412 26.776 5 23.4 5 19.232c0-3.826 2.973-7.086 6.807-7.494C12.219 7.944 15.51 5 19.38 5zm-.921 15.094H6.787c.426 2.866 2.91 4.986 5.833 4.986 2.927 0 5.41-2.12 5.839-4.986zm-6.704-6.637c-2.567.386-4.583 2.388-4.968 4.936l.002-.017 4.966.001zm6.772-.068h-5.054v4.988h5.054v-4.988zm6.686 0h-4.968v4.926c2.562-.387 4.578-2.383 4.968-4.926zM19.38 6.702c-2.927 0-5.41 2.12-5.839 4.986h11.672c-.426-2.866-2.91-4.986-5.833-4.986z"/></g></svg>