<svg width="32" height="32" fill="none" xmlns="http://www.w3.org/2000/svg"><path fill-rule="evenodd" clip-rule="evenodd" d="M32 16c0-8.828-7.172-16-16-16S0 7.172 0 16s7.172 16 16 16 16-7.172 16-16z" fill="url(#paint0_linear)"/><path fill-rule="evenodd" clip-rule="evenodd" d="M13.54 10.643a3.973 3.973 0 114.92 0 2.048 2.048 0 102.897 2.897 3.973 3.973 0 110 4.92 2.048 2.048 0 10-2.897 2.897 3.973 3.973 0 11-4.92 0 2.048 2.048 0 10-2.897-2.897 3.973 3.973 0 110-4.92 2.048 2.048 0 102.897-2.897zm4.743-3.12A2.285 2.285 0 0016 5.24a2.285 2.285 0 00-2.283 2.283A2.285 2.285 0 0016 9.806a2.285 2.285 0 002.283-2.283zm6.194 6.194A2.285 2.285 0 0126.76 16a2.285 2.285 0 01-2.283 2.283A2.285 2.285 0 0122.194 16a2.285 2.285 0 012.283-2.283zm-6.194 10.76A2.285 2.285 0 0016 22.194a2.285 2.285 0 00-2.283 2.283A2.285 2.285 0 0016 26.76a2.285 2.285 0 002.283-2.283zm-10.76-10.76A2.285 2.285 0 019.806 16a2.285 2.285 0 01-2.283 2.283A2.285 2.285 0 015.24 16a2.285 2.285 0 012.283-2.283z" fill="#fff"/><path fill-rule="evenodd" clip-rule="evenodd" d="M7.523 17.506a1.507 1.507 0 000-3.012 1.507 1.507 0 000 3.012zM16 9.028a1.507 1.507 0 000-3.011 1.507 1.507 0 000 3.011zM24.477 17.506a1.507 1.507 0 000-3.012 1.507 1.507 0 000 3.012zM16 25.983a1.507 1.507 0 000-3.012 1.507 1.507 0 000 3.012z" fill="#fff"/><defs><linearGradient id="paint0_linear" x1="16" y1="0" x2="16" y2="32" gradientUnits="userSpaceOnUse"><stop stop-color="#3E3E3E"/><stop offset="1" stop-color="#2D2D2D"/></linearGradient></defs></svg>