<svg xmlns="http://www.w3.org/2000/svg" width="32" height="32"><g fill="none" fill-rule="evenodd"><path fill="#FFF" d="M32 16c0-2.094-.417-4.188-1.218-6.123a16.057 16.057 0 00-3.468-5.19 16.052 16.052 0 00-5.191-3.47A16.055 16.055 0 0016 0c-2.094 0-4.188.417-6.123 1.218a16.055 16.055 0 00-5.19 3.468 16.05 16.05 0 00-3.47 5.191A16.049 16.049 0 000 16c0 2.094.416 4.188 1.218 6.123a16.056 16.056 0 003.468 5.19 16.054 16.054 0 005.19 3.469A16.056 16.056 0 0016 32c2.094 0 4.188-.417 6.123-1.218a16.05 16.05 0 005.19-3.468 16.062 16.062 0 003.47-5.191A16.055 16.055 0 0032 16z"/><path fill="#0657F9" d="M11.855 3.384a13.266 13.266 0 0113.213 2.914 13.155 13.155 0 013.417 5.189c.71 1.99.946 4.19.672 6.284a13.194 13.194 0 01-2.243 5.795 13.207 13.207 0 01-4.64 4.134 13.622 13.622 0 01-6.12 1.576 13.207 13.207 0 01-6.059-1.381 13.19 13.19 0 01-4.763-3.991 13.662 13.662 0 01-2.444-5.83 13.13 13.13 0 01.487-6.193 13.391 13.391 0 012.23-4.145H4.12V5.282h5.817v5.432H7.483V9.229a10.961 10.961 0 00-1.827 3.397 10.786 10.786 0 00-.4 5.07 11.107 11.107 0 002.81 5.75 10.952 10.952 0 006.8 3.375 11.023 11.023 0 007.351-1.892 10.999 10.999 0 004.325-6.24c.637-2.5.342-5.237-.807-7.547a10.919 10.919 0 00-5.546-5.183c-2.394-.99-5.181-1.085-7.585-.295l-.75-2.28z"/><g fill="#000"><path d="M15.394 11.014h1.148v10.034h-1.148z"/><path d="M14.742 15.734v-1.199a2.782 2.782 0 011.226-5.278c1.724 0 2.97 1.245 2.97 2.781 0 .387-.08.756-.27 1.194l-.491-1.595-.983.308.871 3.318 3.385-1.245-.412-.97-1.262.431c.229-.495.274-.86.274-1.441 0-2.15-1.743-3.893-4.082-3.893a3.893 3.893 0 00-1.226 7.59zm2.452.594v1.199a2.782 2.782 0 01-1.226 5.278c-1.725 0-2.97-1.246-2.97-2.781 0-.387.08-.756.27-1.194l.49 1.595.984-.308-.872-3.318-3.384 1.245.411.97 1.262-.431c-.228.495-.273.86-.273 1.44 0 2.151 1.743 3.894 4.082 3.894a3.893 3.893 0 001.226-7.59z"/></g></g></svg>