<svg fill="none" viewBox="0 0 32 32"><path fill="#fff" fill-rule="evenodd" d="M32 16c0-2.094-.417-4.188-1.218-6.123a16.058 16.058 0 00-3.468-5.19 16.051 16.051 0 00-5.191-3.47A16.055 16.055 0 0016 0c-2.094 0-4.188.417-6.123 1.218a16.055 16.055 0 00-5.19 3.468 16.05 16.05 0 00-3.47 5.191A16.048 16.048 0 000 16c0 2.094.416 4.188 1.218 6.123a16.055 16.055 0 003.468 5.19 16.054 16.054 0 005.19 3.47A16.056 16.056 0 0016 32c2.094 0 4.188-.417 6.123-1.218a16.05 16.05 0 005.19-3.468 16.062 16.062 0 003.47-5.191A16.054 16.054 0 0032 16z" clip-rule="evenodd"/><path fill="#000" fill-rule="evenodd" d="M11.855 3.384a13.266 13.266 0 0113.213 2.914 13.155 13.155 0 013.417 5.189c.71 1.99.946 4.19.672 6.284a13.195 13.195 0 01-2.243 5.795 13.206 13.206 0 01-4.64 4.135 13.621 13.621 0 01-6.12 1.575 13.206 13.206 0 01-6.059-1.381 13.19 13.19 0 01-4.763-3.991 13.662 13.662 0 01-2.444-5.83 13.13 13.13 0 01.487-6.193 13.392 13.392 0 012.23-4.145H4.12V5.282h5.817v5.432H7.483V9.229a10.96 10.96 0 00-1.827 3.397 10.787 10.787 0 00-.4 5.071 11.107 11.107 0 002.81 5.749 10.953 10.953 0 006.8 3.375 11.022 11.022 0 007.351-1.892 10.999 10.999 0 004.325-6.24c.637-2.5.342-5.236-.807-7.547a10.919 10.919 0 00-5.546-5.183c-2.395-.99-5.181-1.085-7.585-.295l-.75-2.28z" clip-rule="evenodd"/><circle cx="16" cy="16" r="8" fill="#000"/><circle cx="16" cy="16" r="8" fill="url(#paint0_linear)"/><circle cx="16" cy="16" r="6.933" fill="#fff"/><circle cx="15.983" cy="15.983" r="6.317" fill="#000"/><path fill="#fff" d="M15.644 18.837a2.901 2.901 0 01-.836-.186 2.343 2.343 0 01-.676-.415 1.999 1.999 0 01-.454-.584 1.638 1.638 0 01-.178-.72h1.094a.997.997 0 00.303.695c.195.18.444.284.747.313v-1.676l-.418-.06c-.48-.061-.863-.234-1.148-.516-.278-.282-.418-.64-.418-1.074 0-.226.053-.438.16-.635a1.74 1.74 0 01.436-.533 2.26 2.26 0 01.632-.381c.24-.096.496-.155.756-.178V12.1h.65v.804c.266.034.512.102.737.203.226.096.421.22.587.373.167.152.297.327.392.524.1.198.157.41.169.635h-1.094a.78.78 0 00-.24-.525 1.1 1.1 0 00-.552-.313v1.549l.303.042c.225.034.438.093.64.178.202.085.377.195.525.33.154.135.273.299.356.49.088.187.133.399.133.636 0 .253-.05.485-.151.694a1.662 1.662 0 01-.41.541c-.171.153-.379.28-.622.381a2.808 2.808 0 01-.774.186v.872h-.65v-.863zm.65-.906c.278-.045.494-.14.648-.288a.775.775 0 00.232-.575c0-.215-.074-.372-.223-.474a1.218 1.218 0 00-.507-.212l-.15-.025v1.574zm-.65-4.155a1.288 1.288 0 00-.64.262.663.663 0 00-.259.55c0 .198.057.347.17.449a.94.94 0 00.462.186l.267.042v-1.49z"/><defs><linearGradient id="paint0_linear" x1="8" x2="24" y1="8" y2="24" gradientUnits="userSpaceOnUse"><stop stop-color="#fff"/><stop offset="1" stop-color="#fff" stop-opacity="0"/></linearGradient></defs></svg>