<svg viewBox="0 0 32 32"><g fill="none" fill-rule="evenodd"><path fill="#FFF" d="M32 16c0-2.094-.417-4.188-1.218-6.123a16.057 16.057 0 00-3.468-5.19 16.052 16.052 0 00-5.191-3.47A16.055 16.055 0 0016 0c-2.094 0-4.188.417-6.123 1.218a16.055 16.055 0 00-5.19 3.468 16.05 16.05 0 00-3.47 5.191A16.049 16.049 0 000 16c0 2.094.416 4.188 1.218 6.123a16.056 16.056 0 003.468 5.19 16.054 16.054 0 005.19 3.469A16.056 16.056 0 0016 32c2.094 0 4.188-.417 6.123-1.218a16.05 16.05 0 005.19-3.468 16.062 16.062 0 003.47-5.191A16.055 16.055 0 0032 16z"/><path fill="#0657F9" d="M11.855 3.384a13.266 13.266 0 0113.213 2.914 13.155 13.155 0 013.417 5.189c.71 1.99.946 4.19.672 6.284a13.194 13.194 0 01-2.243 5.795 13.207 13.207 0 01-4.64 4.134 13.622 13.622 0 01-6.12 1.576 13.207 13.207 0 01-6.059-1.381 13.19 13.19 0 01-4.763-3.991 13.662 13.662 0 01-2.444-5.83 13.13 13.13 0 01.487-6.193 13.391 13.391 0 012.23-4.145H4.12V5.282h5.817v5.432H7.483V9.229a10.961 10.961 0 00-1.827 3.397 10.786 10.786 0 00-.4 5.07 11.107 11.107 0 002.81 5.75 10.952 10.952 0 006.8 3.375 11.023 11.023 0 007.351-1.892 10.999 10.999 0 004.325-6.24c.637-2.5.342-5.237-.807-7.547a10.919 10.919 0 00-5.546-5.183c-2.394-.99-5.181-1.085-7.585-.295l-.75-2.28z"/><g fill="#000"><path d="M16 7.839c1.055 0 2.11.21 3.086.614a8.087 8.087 0 012.616 1.748 8.087 8.087 0 011.748 2.616c.404.975.614 2.03.614 3.086 0 1.055-.21 2.11-.614 3.086a8.087 8.087 0 01-1.748 2.616 8.087 8.087 0 01-2.616 1.748 8.091 8.091 0 01-3.086.614c-1.055 0-2.11-.21-3.086-.614a8.087 8.087 0 01-2.616-1.748A8.087 8.087 0 018.55 18.99a8.091 8.091 0 01-.614-3.086c0-1.055.21-2.11.614-3.086a8.087 8.087 0 011.748-2.616 8.087 8.087 0 012.616-1.748A8.091 8.091 0 0116 7.839zm0 1.008c-.924 0-1.847.184-2.7.537a7.082 7.082 0 00-2.29 1.53 7.082 7.082 0 00-1.529 2.289 7.082 7.082 0 00-.537 2.7c0 .924.184 1.847.537 2.7a7.082 7.082 0 001.53 2.29 7.082 7.082 0 002.289 1.529 7.082 7.082 0 002.7.537c.924 0 1.847-.184 2.7-.537a7.082 7.082 0 002.29-1.53 7.082 7.082 0 001.529-2.289 7.082 7.082 0 00.537-2.7c0-.924-.184-1.847-.537-2.7a7.082 7.082 0 00-1.53-2.29A7.082 7.082 0 0018.7 9.385a7.082 7.082 0 00-2.7-.537z"/><path d="M16 9.967l1.135.647 3.093 1.769 1.135.647v6.122l-1.135.647-3.065 1.77-1.135.645-1.135-.644-3.12-1.77-1.136-.648V13.03l1.135-.647 3.093-1.769L16 9.967zm0 2.584l-3.093 1.77v3.54L16 19.63l3.093-1.77v-3.54L16 12.552z"/></g></g></svg>