<svg xmlns="http://www.w3.org/2000/svg" width="32" height="32"><g fill="none" transform="translate(0 .48)"><circle cx="14.418" cy="14.418" r="14.418" fill="#000"/><path fill="#FF0079" d="M14.418 27.807c7.395 0 13.389-5.994 13.389-13.389 0-7.394-5.994-13.388-13.389-13.388C7.024 1.03 1.03 7.024 1.03 14.418c0 7.395 5.994 13.389 13.388 13.389z"/><circle cx="17.508" cy="16.478" r="13.389" fill="#FFF"/><path fill="#000" d="M17.508 30.897c-7.963 0-14.418-6.456-14.418-14.419S9.545 2.06 17.508 2.06c7.963 0 14.418 6.455 14.418 14.418 0 7.963-6.455 14.419-14.418 14.419zm0-1.03c7.394 0 13.389-5.995 13.389-13.389 0-7.394-5.995-13.388-13.389-13.388-7.394 0-13.388 5.994-13.388 13.388s5.994 13.389 13.388 13.389z"/><path fill="#000" d="M12.347 20.005h-1.47l-.825-3.476a18.19 18.19 0 01-.156-.767 9.453 9.453 0 01-.127-.78c-.017.163-.058.424-.125.785-.067.36-.118.618-.154.772l-.82 3.466H7.204L5.65 13.39h1.27L7.699 17c.136.667.235 1.245.296 1.734.017-.172.055-.439.114-.8.06-.36.116-.64.17-.839l.886-3.706h1.22l.887 3.706c.039.166.088.42.146.76.058.341.103.634.133.879.028-.236.072-.53.133-.88.062-.352.117-.637.167-.854l.775-3.611h1.27l-1.55 6.616zm5.821 0h-3.506V13.39h3.506v1.15h-2.215v1.452h2.061v1.15h-2.061v1.706h2.215v1.158zm3.619 0h-1.291v-5.449h-1.653V13.39h4.597v1.167h-1.653v5.45zm7.579 0h-1.287V17.15h-2.411v2.856h-1.291V13.39h1.29v2.593h2.412v-2.593h1.287v6.616z"/></g></svg>