<svg width="32" height="31" fill="none" xmlns="http://www.w3.org/2000/svg"><path fill-rule="evenodd" clip-rule="evenodd" d="M24.4 3.202L9.125 8.949C6.99 7.952 5.809 6.185 6.019 4.172l1.952-2.08C11.188.301 13.805-.115 16.346.024c2.543.139 5.01.833 8.054 3.177z" fill="#0E3CA5"/><path fill-rule="evenodd" clip-rule="evenodd" d="M1.543 7.921c1.69-3.339 3.605-4.85 4.91-5.698 1.306-.849 2.003-1.035 2.632-1.074.629-.039 1.19.07 1.51.328.321.257.404.663.365 1.066-.039.404-.198.805-.558 1.256-.36.45-.92.952-1.627 1.435-.707.483-1.559.948-2.702 1.488-1.144.54-2.58 1.155-4.53 1.2zM10.665 28.999l-2.836-9.844C5.624 14.923 3.014 11.602.94 9.275c-1.624 4.718-.93 8.296.452 11.34 1.381 3.044 3.45 5.554 9.272 8.384zM29.806 14.301l-18.079.85c-2.107-1.23-2.74-1.91-3.19-2.744-.45-.833-.717-1.82-.447-2.824.269-1.005 1.073-2.029 2.114-2.913 1.04-.884 2.318-1.63 3.7-2.228 1.381-.6 2.867-1.053 4.189-1.374 1.32-.32 2.477-.509 3.412-.546.934-.038 1.646.075 2.222.31.577.235 1.018.591 1.611 1.22.594.63 1.34 1.531 2.146 2.807.805 1.275 1.67 2.925 2.322 7.442z" fill="#5493F7"/><path fill-rule="evenodd" clip-rule="evenodd" d="M31.323 11.183c.086.017.174.042.265.073a.423.423 0 01.306.376c.01.095.017.185.017.271V27.309c0 1.005 0 1.172-.011 1.319-.01.145-.032.27-.15.397-.116.127-.33.258-.68.417-.35.158-.836.344-1.444.495-.607.151-1.335.266-2.161.372-.827.106-1.754.202-2.912.292-1.16.09-2.55.173-4.137.232-1.587.06-3.369.095-5.223.112-1.854.018-3.78.018-5.005.017-1.224 0-1.746-.002-2.088-.004-.343 0-.505-.001-.668-.025a1.038 1.038 0 01-.47-.176.992.992 0 01-.324-.42c-.063-.158-.068-.315-.071-1.303-.003-.988-.003-2.807-.003-5.13v-6.761c0-1.613 0-2.014.02-2.288s.06-.422.135-.55a.821.821 0 01.311-.309c.126-.068.267-.093.696-.109.43-.016 1.148-.022 2.188-.072 1.04-.05 2.402-.142 3.896-.29 1.493-.147 3.119-.349 4.777-.588a200.82 200.82 0 004.975-.79c1.624-.276 3.178-.552 4.306-.723 1.129-.171 1.83-.239 2.486-.273.35-.018.686-.026.969.032z" fill="maroon"/><path fill-rule="evenodd" clip-rule="evenodd" d="M6.57 29.525l-.005-1.305c3.854-.087 5.661-.211 7.414-.384 1.754-.173 3.454-.393 5.265-.666 1.81-.273 3.732-.597 5.37-.879 1.637-.28 2.991-.518 3.935-.656.945-.138 1.479-.176 1.883-.187.403-.01.676.005.877.043.201.037.33.095.421.16.092.066.145.139.18.341v1.306c-.035-.203-.088-.276-.18-.341a1.02 1.02 0 00-.42-.161c-.202-.038-.475-.053-.878-.042-.404.01-.938.048-1.883.186-.944.138-2.298.375-3.936.657-1.637.281-3.559.606-5.37.878-1.81.273-3.51.494-5.263.666-1.754.173-3.56.298-7.41.384z" fill="url(#paint0_linear)"/><path fill-rule="evenodd" clip-rule="evenodd" d="M6.565 28.22v-1.306c3.854-.086 5.661-.21 7.414-.383 1.754-.173 3.454-.394 5.265-.666 1.81-.273 3.732-.598 5.37-.879 1.637-.281 2.991-.519 3.935-.656.945-.138 1.479-.176 1.883-.187.403-.01.676.005.877.042.201.037.33.096.421.161.092.066.145.139.18.341v1.305c-.035-.202-.088-.275-.18-.34a1.02 1.02 0 00-.42-.161c-.202-.038-.475-.054-.878-.043-.404.011-.938.049-1.883.187-.944.137-2.298.375-3.936.656-1.637.282-3.559.606-5.37.879-1.81.273-3.51.493-5.263.666-1.754.173-3.56.297-7.415.384z" fill="url(#paint1_linear)"/><path fill-rule="evenodd" clip-rule="evenodd" d="M6.564 26.914V25.61c3.855-.086 5.662-.21 7.415-.384 1.754-.173 3.454-.393 5.265-.666 1.81-.272 3.732-.597 5.37-.878 1.637-.281 2.991-.52 3.935-.657.945-.138 1.479-.175 1.883-.186.403-.011.676.005.877.042.201.037.33.095.421.161.092.066.145.138.18.34v1.306c-.035-.203-.088-.275-.18-.34a1.02 1.02 0 00-.42-.162c-.202-.037-.475-.053-.878-.042-.404.01-.938.049-1.883.187-.944.137-2.298.375-3.936.656-1.637.281-3.559.606-5.37.879-1.81.272-3.51.493-5.263.666-1.754.172-3.56.297-7.416.383z" fill="url(#paint2_linear)"/><path fill-rule="evenodd" clip-rule="evenodd" d="M6.564 25.609v-1.305c3.855-.086 5.662-.211 7.415-.384 1.754-.173 3.454-.393 5.265-.666 1.81-.273 3.732-.597 5.37-.878 1.637-.282 2.991-.52 3.935-.657.945-.138 1.479-.176 1.883-.187.403-.01.676.005.877.043.201.037.33.095.421.16.092.066.145.139.18.341v1.306c-.035-.203-.088-.276-.18-.341a1.02 1.02 0 00-.42-.161c-.202-.037-.475-.053-.878-.042-.404.01-.938.048-1.883.186-.944.138-2.298.376-3.936.657-1.637.281-3.559.606-5.37.878-1.81.273-3.51.493-5.263.666-1.754.173-3.56.298-7.416.384z" fill="url(#paint3_linear)"/><path fill-rule="evenodd" clip-rule="evenodd" d="M6.564 24.304v-1.306c3.855-.086 5.662-.21 7.415-.383 1.754-.173 3.454-.394 5.265-.666 1.81-.273 3.732-.597 5.37-.879 1.637-.28 2.991-.519 3.935-.656.945-.138 1.479-.176 1.883-.187.403-.01.676.005.877.042.201.038.33.096.421.161.092.066.145.139.18.341v1.305c-.035-.202-.088-.275-.18-.34a1.02 1.02 0 00-.42-.161c-.202-.038-.475-.053-.878-.043-.404.011-.938.05-1.883.187-.944.138-2.298.375-3.936.657-1.637.28-3.559.605-5.37.878-1.81.273-3.51.493-5.263.666-1.754.173-3.56.298-7.416.384z" fill="url(#paint4_linear)"/><path fill-rule="evenodd" clip-rule="evenodd" d="M31.91 19.466v1.305c-.035-.202-.088-.275-.18-.34a1.024 1.024 0 00-.42-.162c-.202-.037-.475-.053-.878-.042-.404.011-.938.049-1.883.187-.944.137-2.298.375-3.936.656a271.238 271.238 0 01-5.757.936v-1.305l.387-.058c1.811-.272 3.733-.597 5.37-.878 1.638-.281 2.992-.519 3.936-.657.945-.137 1.479-.175 1.883-.186.403-.011.676.005.877.042.201.037.33.096.421.161.092.066.145.138.18.34z" fill="url(#paint5_linear)"/><path fill-rule="evenodd" clip-rule="evenodd" d="M31.91 18.16v1.306c-.035-.203-.088-.275-.18-.34a1.025 1.025 0 00-.42-.162c-.202-.037-.475-.053-.878-.042-.404.01-.938.049-1.883.186-.944.138-2.298.376-3.936.657a270.504 270.504 0 01-5.757.936v-1.305l.387-.058c1.811-.272 3.733-.597 5.37-.878 1.638-.281 2.992-.52 3.936-.657.945-.138 1.479-.175 1.883-.186.403-.011.676.004.877.042.201.037.33.095.421.16.092.066.145.14.18.342z" fill="url(#paint6_linear)"/><path fill-rule="evenodd" clip-rule="evenodd" d="M31.91 16.855v1.306c-.035-.203-.088-.276-.18-.341a1.024 1.024 0 00-.42-.161c-.202-.038-.475-.053-.878-.042-.404.01-.938.048-1.883.186-.944.138-2.298.376-3.936.657a270.504 270.504 0 01-5.757.936V18.09l.387-.058c1.811-.273 3.733-.597 5.37-.878 1.638-.282 2.992-.52 3.936-.657.945-.138 1.479-.176 1.883-.187.403-.01.676.005.877.042.201.038.33.096.421.162.092.065.145.138.18.34z" fill="url(#paint7_linear)"/><path fill-rule="evenodd" clip-rule="evenodd" d="M31.91 15.55v1.305c-.035-.202-.088-.275-.18-.34a1.024 1.024 0 00-.42-.162c-.202-.037-.475-.053-.878-.042-.404.011-.938.049-1.883.187-.944.137-2.298.375-3.936.657a271.976 271.976 0 01-5.757.936v-1.306l.387-.057c1.811-.273 3.733-.597 5.37-.879 1.638-.281 2.992-.519 3.936-.656.945-.138 1.479-.176 1.883-.187.403-.01.676.005.877.042.201.037.33.096.421.161.092.066.145.139.18.341z" fill="url(#paint8_linear)"/><path fill-rule="evenodd" clip-rule="evenodd" d="M31.91 14.245v1.305c-.035-.203-.088-.275-.18-.34a1.024 1.024 0 00-.42-.162c-.202-.037-.475-.053-.878-.042-.404.011-.938.049-1.883.187-.944.137-2.298.375-3.936.656a271.238 271.238 0 01-5.757.936V15.48l.387-.058c1.811-.272 3.733-.597 5.37-.878 1.638-.281 2.992-.519 3.936-.657.945-.138 1.479-.175 1.883-.186.403-.011.676.005.877.042.201.037.33.095.421.161.092.066.145.138.18.34z" fill="url(#paint9_linear)"/><path fill-rule="evenodd" clip-rule="evenodd" d="M18.856 14.175l.387-.058c1.811-.273 3.733-.597 5.37-.878 1.638-.282 2.992-.52 3.936-.657.945-.138 1.479-.176 1.883-.187.403-.01.676.005.877.042.201.038.33.096.421.162.092.065.145.138.18.34v1.306c-.035-.203-.088-.275-.18-.341a1.024 1.024 0 00-.42-.161c-.202-.037-.475-.053-.878-.042-.404.01-.938.048-1.883.186-.944.138-2.298.376-3.936.657a271.238 271.238 0 01-5.757.936v-1.305z" fill="url(#paint10_linear)"/><path fill-rule="evenodd" clip-rule="evenodd" d="M18.856 12.898c1.572-.23 3.17-.49 4.706-.751 1.624-.276 3.178-.552 4.306-.723 1.129-.171 1.83-.239 2.486-.273.35-.018.686-.026.969.032.086.017.174.042.265.073a.423.423 0 01.306.376c.01.095.017.185.017.271v1.037c-.036-.203-.09-.276-.18-.341a1.025 1.025 0 00-.422-.162c-.2-.037-.474-.052-.877-.041-.404.01-.938.048-1.883.186-.944.138-2.298.375-3.936.657a270.504 270.504 0 01-5.757.936v-1.277z" fill="url(#paint11_linear)"/><path fill-rule="evenodd" clip-rule="evenodd" d="M31.903 28.576c-.035-.173-.087-.24-.172-.301a1.02 1.02 0 00-.422-.161c-.2-.038-.474-.053-.877-.043-.404.011-.938.049-1.883.187-.944.137-2.298.375-3.936.657-1.637.28-3.559.605-5.37.878-1.81.273-3.51.493-5.263.666-1.674.165-3.396.286-6.897.371a.784.784 0 01-.12-.073.992.992 0 01-.325-.42c-.05-.127-.064-.254-.069-.812 3.85-.086 5.657-.211 7.41-.384 1.754-.172 3.454-.393 5.265-.666 1.81-.272 3.732-.597 5.37-.878 1.637-.282 2.991-.52 3.935-.657.945-.138 1.479-.175 1.883-.186.403-.011.676.004.877.042.201.037.33.095.422.16.09.066.144.139.18.342v.011c0 .891 0 1.124-.008 1.267z" fill="url(#paint12_linear)"/><path fill-rule="evenodd" clip-rule="evenodd" d="M18.856 12.898l-.269.039c-1.658.239-3.284.44-4.777.588-1.494.148-2.856.24-3.896.29-1.04.05-1.758.056-2.188.072-.43.016-.57.041-.696.11a.821.821 0 00-.311.307c-.075.13-.115.277-.135.551-.02.274-.02.675-.02 2.288v5.855c3.855-.086 5.662-.21 7.415-.383 1.628-.16 3.21-.362 4.877-.609v-9.108z" fill="#1B3BBA"/><defs><linearGradient id="paint0_linear" x1="6.565" y1="25.959" x2="31.911" y2="25.959" gradientUnits="userSpaceOnUse"><stop stop-color="#fff"/><stop offset=".834" stop-color="#fff"/><stop offset=".946" stop-color="#C8C8C8"/><stop offset="1" stop-color="#fff"/></linearGradient><linearGradient id="paint1_linear" x1="6.564" y1="28.22" x2="31.911" y2="28.22" gradientUnits="userSpaceOnUse"><stop stop-color="#E84040"/><stop offset=".769" stop-color="#E84040"/><stop offset=".953" stop-color="#A30303"/><stop offset="1" stop-color="#CD1E1E"/></linearGradient><linearGradient id="paint2_linear" x1="6.564" y1="23.349" x2="31.911" y2="23.349" gradientUnits="userSpaceOnUse"><stop stop-color="#fff"/><stop offset=".834" stop-color="#fff"/><stop offset=".946" stop-color="#C8C8C8"/><stop offset="1" stop-color="#fff"/></linearGradient><linearGradient id="paint3_linear" x1="6.564" y1="25.609" x2="31.911" y2="25.609" gradientUnits="userSpaceOnUse"><stop stop-color="#E84040"/><stop offset=".769" stop-color="#E84040"/><stop offset=".953" stop-color="#A30303"/><stop offset="1" stop-color="#CD1E1E"/></linearGradient><linearGradient id="paint4_linear" x1="6.564" y1="20.738" x2="31.911" y2="20.738" gradientUnits="userSpaceOnUse"><stop stop-color="#fff"/><stop offset=".834" stop-color="#fff"/><stop offset=".946" stop-color="#C8C8C8"/><stop offset="1" stop-color="#fff"/></linearGradient><linearGradient id="paint5_linear" x1="6.586" y1="23.457" x2="31.911" y2="23.457" gradientUnits="userSpaceOnUse"><stop stop-color="#E84040"/><stop offset=".769" stop-color="#E84040"/><stop offset=".953" stop-color="#A30303"/><stop offset="1" stop-color="#CD1E1E"/></linearGradient><linearGradient id="paint6_linear" x1="6.709" y1="19.439" x2="31.911" y2="19.439" gradientUnits="userSpaceOnUse"><stop stop-color="#fff"/><stop offset=".834" stop-color="#fff"/><stop offset=".946" stop-color="#C8C8C8"/><stop offset="1" stop-color="#fff"/></linearGradient><linearGradient id="paint7_linear" x1="6.586" y1="20.847" x2="31.911" y2="20.847" gradientUnits="userSpaceOnUse"><stop stop-color="#E84040"/><stop offset=".769" stop-color="#E84040"/><stop offset=".953" stop-color="#A30303"/><stop offset="1" stop-color="#CD1E1E"/></linearGradient><linearGradient id="paint8_linear" x1="6.709" y1="16.829" x2="31.911" y2="16.829" gradientUnits="userSpaceOnUse"><stop stop-color="#fff"/><stop offset=".834" stop-color="#fff"/><stop offset=".946" stop-color="#C8C8C8"/><stop offset="1" stop-color="#fff"/></linearGradient><linearGradient id="paint9_linear" x1="6.586" y1="18.236" x2="31.911" y2="18.236" gradientUnits="userSpaceOnUse"><stop stop-color="#E84040"/><stop offset=".769" stop-color="#E84040"/><stop offset=".953" stop-color="#A30303"/><stop offset="1" stop-color="#CD1E1E"/></linearGradient><linearGradient id="paint10_linear" x1="6.709" y1="14.218" x2="31.911" y2="14.218" gradientUnits="userSpaceOnUse"><stop stop-color="#fff"/><stop offset=".834" stop-color="#fff"/><stop offset=".946" stop-color="#C8C8C8"/><stop offset="1" stop-color="#fff"/></linearGradient><linearGradient id="paint11_linear" x1="6.586" y1="15.602" x2="31.911" y2="15.602" gradientUnits="userSpaceOnUse"><stop stop-color="#E84040"/><stop offset=".769" stop-color="#E84040"/><stop offset=".953" stop-color="#A30303"/><stop offset="1" stop-color="#CD1E1E"/></linearGradient><linearGradient id="paint12_linear" x1="6.569" y1="30.83" x2="31.911" y2="30.83" gradientUnits="userSpaceOnUse"><stop stop-color="#E84040"/><stop offset=".769" stop-color="#E84040"/><stop offset=".953" stop-color="#A30303"/><stop offset="1" stop-color="#CD1E1E"/></linearGradient></defs></svg>