<svg xmlns="http://www.w3.org/2000/svg" width="32" height="32"><g fill="none" fill-rule="evenodd"><circle cx="16" cy="16" r="15.5" fill="#FFF"/><g fill-rule="nonzero"><path fill="#F7931A" d="M21.875 12.228c-.2-2.08-1.994-2.778-4.264-2.991V6.372h-1.755v2.812h-1.403V6.372h-1.741v2.885h-3.56v1.878s1.296-.024 1.276 0a.907.907 0 01.997.77v7.898a.615.615 0 01-.212.428.608.608 0 01-.452.153c.023.02-1.277 0-1.277 0l-.332 2.097h3.526v2.932h1.755v-2.888h1.403v2.874h1.758v-2.898c2.965-.18 5.032-.91 5.291-3.686.21-2.233-.84-3.23-2.52-3.632 1.021-.502 1.653-1.433 1.51-2.955zm-2.46 6.242c0 2.18-3.735 1.93-4.925 1.93v-3.868c1.19.003 4.925-.339 4.925 1.938zm-.814-5.45c0 1.993-3.118 1.75-4.108 1.75v-3.516c.99 0 4.108-.312 4.108 1.765z"/><path fill="#000" d="M15.999 0c8.836 0 16 7.161 16.001 15.997A16 16 0 0115.997 32C7.161 31.998 0 24.835 0 15.999 0 7.163 7.163.001 15.999 0zm-.002 1.248c-8.14.006-14.735 6.609-14.732 14.75.003 8.14 6.603 14.737 14.744 14.737 8.14 0 14.74-6.598 14.743-14.738a14.744 14.744 0 00-14.755-14.75z"/><path fill="#5A5564" d="M26.03 6.772l-.872.873a12.355 12.355 0 010 16.675l.873.873c4.802-5.21 4.802-13.232 0-18.441v.02zm-18.353.076a12.355 12.355 0 0116.675 0l.873-.873c-5.21-4.802-13.232-4.802-18.44 0l.892.873zm-.817 17.48a12.355 12.355 0 010-16.666l-.873-.872c-4.802 5.209-4.802 13.232 0 18.44l.873-.901zm17.48.806a12.355 12.355 0 01-16.674 0l-.873.873c5.209 4.802 13.232 4.802 18.44 0l-.893-.873z"/></g></g></svg>