<svg fill="none" viewBox="0 0 32 32"><path fill="#F4B731" fill-rule="evenodd" d="M29 16a13.03 13.03 0 00-.99-4.975 13.037 13.037 0 00-2.818-4.217 13.037 13.037 0 00-4.217-2.818A13.044 13.044 0 0016 3c-1.701 0-3.403.339-4.975.99a13.038 13.038 0 00-4.217 2.818 13.038 13.038 0 00-2.818 4.217A13.044 13.044 0 003 16c0 1.701.339 3.403.99 4.975a13.037 13.037 0 002.818 4.217 13.037 13.037 0 004.217 2.818c1.572.651 3.274.99 4.975.99a13.03 13.03 0 004.975-.99 13.036 13.036 0 004.217-2.818 13.036 13.036 0 002.818-4.217C28.661 19.403 29 17.7 29 16z" clip-rule="evenodd"/><path fill="#fff" fill-rule="evenodd" d="M9.809 18.796v4.448l-.002.001v.009c1.88-.026 3.76-.026 5.638 0a9.331 9.331 0 001.902-.153 8.436 8.436 0 001.918-.603c.264-.121.517-.268.773-.415l.202-.116c.303-.214.593-.445.869-.692a6.435 6.435 0 001.706-2.461.203.203 0 01.236-.153h1.536c.122 0 .163-.041.163-.178v-.973a1.571 1.571 0 000-.281c0-.025.006-.05.012-.073.013-.049.025-.097-.012-.145h-1.284c-.155 0-.155-.016-.155-.153.045-.49.027-.98 0-1.472-.008-.144.025-.144.139-.144h1.12c.131 0 .174-.033.18-.162.02-.44.02-.88 0-1.32-.004-.086-.006-.13-.029-.153-.024-.023-.07-.023-.166-.023h-1.454a.212.212 0 01-.243-.17 6.153 6.153 0 00-.635-1.23 7.03 7.03 0 00-.869-1.07 6.99 6.99 0 00-1.43-1.094 7.996 7.996 0 00-2.543-.933 7.321 7.321 0 00-1.316-.145H9.972c-.163 0-.163.032-.163.161v4.336c0 .153-.033.153-.155.153H7.908c-.13 0-.13.023-.13.112v1.416c0 .129.04.129.138.129h1.763c.13 0 .13.023.13.12v1.512c0 .137-.041.137-.146.137H7.778v1.528c0 .13.04.13.138.13h1.763c.13 0 .13.015.13.12zm11.61-1.787h-9.783c-.098 0-.147 0-.171-.024-.023-.023-.023-.07-.023-.16v-1.432c0-.113.032-.153.154-.153h9.831c.106 0 .155.04.155.136.04.498.027.998 0 1.497-.008.136-.058.136-.163.136zm-.389-3.443a.155.155 0 000-.112 3.175 3.175 0 00-.294-.507 4.117 4.117 0 00-.6-.748 1.985 1.985 0 00-.375-.362 5.865 5.865 0 00-2.438-1.223 5.835 5.835 0 00-1.381-.145c-1.454.013-2.908.013-4.363 0-.122 0-.138.048-.138.153v2.856c0 .12 0 .153.155.153h9.375c.005-.001.082-.017.098-.065h-.039zm-.416 5.117c.139-.015.278-.015.416 0 .063.032.01.147.007.154a5.252 5.252 0 01-2.267 2.26h-.057a3.87 3.87 0 01-.592.273 6.234 6.234 0 01-1.764.386 2.108 2.108 0 01-.593.04h-4.16c-.162 0-.162-.032-.162-.16v-2.793c0-.16.04-.16.162-.16h9.01z" clip-rule="evenodd"/><path fill="url(#paint0_linear)" fill-rule="evenodd" d="M30.782 9.877A16.054 16.054 0 0132 16c0 2.094-.417 4.188-1.218 6.123a16.046 16.046 0 01-3.468 5.19 16.046 16.046 0 01-5.191 3.47A16.054 16.054 0 0116 32c-2.094 0-4.188-.417-6.123-1.218a16.046 16.046 0 01-5.19-3.468 16.046 16.046 0 01-3.47-5.191A16.055 16.055 0 010 16c0-2.094.417-4.188 1.218-6.123a16.047 16.047 0 013.468-5.19 16.047 16.047 0 015.191-3.47A16.054 16.054 0 0116 0c2.094 0 4.188.417 6.123 1.218a16.046 16.046 0 015.19 3.468 16.046 16.046 0 013.47 5.191zm-1.848.765A14.05 14.05 0 0130 16a14.05 14.05 0 01-1.066 5.358A14.053 14.053 0 0125.9 25.9a14.053 14.053 0 01-4.542 3.034A14.05 14.05 0 0116 30a14.05 14.05 0 01-5.358-1.066A14.052 14.052 0 016.1 25.9a14.053 14.053 0 01-3.034-4.542A14.052 14.052 0 012 16c0-1.832.365-3.665 1.066-5.358A14.052 14.052 0 016.1 6.1a14.052 14.052 0 014.542-3.034A14.052 14.052 0 0116 2c1.832 0 3.665.365 5.358 1.066A14.053 14.053 0 0125.9 6.1a14.052 14.052 0 013.034 4.542z" clip-rule="evenodd"/><defs><linearGradient id="paint0_linear" x1="19.008" x2="-4.8" y1="-4.64" y2="15.392" gradientUnits="userSpaceOnUse"><stop stop-color="#B6509E"/><stop offset="1" stop-color="#2EBAC6"/></linearGradient></defs></svg>