<svg xmlns="http://www.w3.org/2000/svg" width="32" height="32"><g fill="none" fill-rule="evenodd"><path fill="#002868" d="M32 16c0-2.094-.417-4.188-1.218-6.123a16.047 16.047 0 00-3.468-5.19 16.047 16.047 0 00-5.191-3.47A16.055 16.055 0 0016 0c-2.094 0-4.188.417-6.123 1.218a16.047 16.047 0 00-5.19 3.468 16.047 16.047 0 00-3.47 5.191A16.055 16.055 0 000 16c0 2.094.417 4.188 1.218 6.123a16.047 16.047 0 003.468 5.19 16.047 16.047 0 005.191 3.47A16.055 16.055 0 0016 32c2.094 0 4.188-.417 6.123-1.218a16.047 16.047 0 005.19-3.468 16.047 16.047 0 003.47-5.191A16.055 16.055 0 0032 16z"/><path fill="#FFF" d="M9.04 25.042c-.06 0-.109-.055-.109-.114v-3.041c0-.06-.049-.114-.108-.114H7.738c-.061 0-.115-.048-.115-.108v-.588a.12.12 0 01.115-.114h3.337c.06 0 .115.054.115.114v.588c0 .06-.055.108-.115.108H9.997a.119.119 0 00-.115.114v3.04c0 .06-.049.115-.109.115H9.04zm5.481-3.965c0-.06.049-.114.11-.114h.726c.06 0 .115.054.115.114v2.076c0 1.23-.702 1.943-1.817 1.943-1.108 0-1.805-.713-1.805-1.943v-2.076c0-.06.05-.114.109-.114h.727c.06 0 .115.054.115.114v2.105c0 .606.314 1.037.86 1.037s.86-.43.86-1.037v-2.105zm4.289 1.218c-.097 0-.127-.036-.164-.108-.127-.294-.406-.48-.83-.48-.381 0-.702.132-.702.384 0 .276.297.39.95.468.994.118 1.563.414 1.563 1.193 0 .876-.776 1.337-1.768 1.337-.86 0-1.599-.413-1.714-1.282-.011-.084.03-.114.115-.114h.667c.084 0 .133.036.157.102.105.283.4.51.848.51.394 0 .74-.145.74-.45 0-.366-.364-.432-1.091-.522-.836-.104-1.417-.348-1.417-1.11 0-.762.66-1.307 1.696-1.307.932 0 1.58.498 1.715 1.242.014.084-.007.138-.098.138h-.667v-.001zm3.288-1.332c1.224 0 2.175.834 2.175 2.052 0 1.199-.939 2.027-2.175 2.027h-1.647c-.06 0-.109-.055-.109-.114v-3.85c0-.06.049-.115.11-.115h1.646zm-.006.81h-.684c-.06 0-.11.053-.11.113v2.237c0 .06.05.108.11.108h.69c.66 0 1.175-.516 1.175-1.23 0-.712-.515-1.229-1.18-1.229zm-7.466-11.058h-4.305a.289.289 0 01-.289-.286V7.951c0-.157.13-.285.289-.285h11.358c.16 0 .289.128.289.285v2.478c0 .157-.13.286-.289.286h-3.972v7.72c0 .157-.13.286-.29.286h-2.502a.289.289 0 01-.289-.286v-7.72z"/></g></svg>