<svg xmlns="http://www.w3.org/2000/svg" width="32" height="32"><g fill="none" fill-rule="evenodd"><path fill="#0657F9" d="M32 16c0-2.094-.417-4.188-1.218-6.123a16.047 16.047 0 00-3.468-5.19 16.047 16.047 0 00-5.191-3.47A16.055 16.055 0 0016 0c-2.094 0-4.188.417-6.123 1.218a16.047 16.047 0 00-5.19 3.468 16.047 16.047 0 00-3.47 5.191A16.055 16.055 0 000 16c0 2.094.417 4.188 1.218 6.123a16.047 16.047 0 003.468 5.19 16.047 16.047 0 005.191 3.47A16.055 16.055 0 0016 32c2.094 0 4.188-.417 6.123-1.218a16.047 16.047 0 005.19-3.468 16.047 16.047 0 003.47-5.191A16.055 16.055 0 0032 16z"/><path fill="#FFF" d="M26.418 12.296a2.26 2.26 0 01-.153-.12c-1.193-1-1.415-1.035-1.572-.959-.177.054-.28.157-.699 1.905l-.054.227c-.228.989-.17 1.258-.058 1.383a.363.363 0 00.176.107c.066.03.148.036.224.01.26-.09.482-.487.626-.915.024.124.04.249.055.374a10.548 10.548 0 01.058.803c.005.138.01.28.01.419 0 .143-.01.285-.014.423-.005.13-.019.255-.028.38-.01.13-.026.254-.045.379l-.053.378c-.015.113-.041.224-.063.33-.03.144-.064.278-.095.416-.031.14-.077.277-.117.41-.038.124-.076.246-.117.365-.04.121-.086.241-.131.362-.045.122-.1.241-.15.357-.051.12-.106.236-.16.352a9.098 9.098 0 01-1.226 1.914c-.074.09-.157.183-.235.272a12.728 12.728 0 01-.9.896 4.302 4.302 0 01-.28.232c-.84.628-1.684 1.169-2.657 1.548-.12.047-.248.089-.364.129-.128.044-.248.08-.374.12a10.547 10.547 0 01-2.36.402c-.114.006-.227.009-.343.009-.14 0-.284.004-.423 0a9.166 9.166 0 01-.812-.058c-.112-.012-.225-.027-.338-.04a5.638 5.638 0 01-.423-.072 8.584 8.584 0 01-.379-.08c-.139-.034-.274-.066-.414-.103a12.25 12.25 0 01-.9-.294.532.532 0 00-.72.514c.01.436.526.793 1.503 1.056h.004c.123.032.244.062.37.093.135.033.275.058.415.086.143.028.283.049.423.07.14.022.279.04.423.059.14.017.279.026.423.035.14.009.284.018.425.023.144.005.283.009.428.005.139-.005.283 0 .423-.01.125-.008.252-.013.378-.022.158-.012.315-.027.468-.05.144-.012.284-.035.423-.057.141-.021.28-.049.42-.076.14-.028.28-.058.419-.09.14-.03.274-.07.413-.111.14-.041.276-.08.411-.125.14-.045.27-.089.405-.138.136-.05.27-.102.406-.16.13-.057.262-.111.396-.17.112-.058.23-.111.346-.17.132-.066.258-.133.384-.204.112-.063.225-.13.337-.197.11-.065.222-.138.33-.21.11-.073.216-.142.324-.218a14.437 14.437 0 00.63-.482c.104-.084.204-.173.306-.262.088-.076.172-.157.258-.237.061-.06.122-.116.184-.174l.279-.29a14.215 14.215 0 00.527-.602c.084-.101.163-.21.244-.313.07-.09.136-.182.198-.28.085-.116.167-.242.248-.361.065-.097.122-.192.18-.29.072-.125.144-.25.216-.38.063-.11.117-.222.176-.338a8.177 8.177 0 00.333-.74c.055-.135.108-.264.158-.398.044-.118.08-.24.121-.36.045-.134.082-.274.122-.407.041-.137.072-.272.104-.414.03-.134.062-.272.09-.41.025-.125.045-.246.067-.371.024-.138.041-.281.059-.42.015-.124.027-.25.035-.374l.028-.419c.008-.125.01-.25.01-.374 0-.157 0-.313-.005-.47-.004-.124-.014-.249-.019-.374-.005-.156-.026-.307-.045-.464-.017-.142-.03-.28-.054-.419-.023-.138-.045-.276-.071-.419-.02-.108-.045-.22-.069-.325.357.28.884.623 1.217.53a.331.331 0 00.198-.151c.05-.058.081-.13.086-.21.016-.28-.329-.683-1-1.196zm-14.766 7.038c.54-.535-.04-1.984-1.298-3.224-1.254-1.238-2.715-1.82-3.256-1.285-.541.536.04 1.985 1.292 3.23 1.253 1.244 2.72 1.815 3.262 1.28zm7.59-7.52c.54-.534-.04-1.984-1.293-3.224-1.252-1.24-2.716-1.815-3.257-1.28-.54.536.04 1.985 1.293 3.225s2.716 1.815 3.257 1.28z"/></g></svg>