<svg xmlns="http://www.w3.org/2000/svg" width="32" height="32"><g fill="none" fill-rule="evenodd"><path fill="#69E2DC" d="M16 0C7.165 0 0 7.165 0 16c0 8.838 7.165 16 16 16 8.838 0 16-7.165 16-16 .003-8.835-7.162-16-16-16z"/><path fill="#FFF" d="M17.289 16.753l5.611 5.612c.458.458.4 1.207-.11 1.605a10.09 10.09 0 01-6.255 2.162c-5.984 0-10.753-5.184-10.07-11.304.523-4.686 4.342-8.45 9.033-8.913a10.12 10.12 0 017.334 2.142c.49.39.511 1.131.068 1.573l-5.615 5.614a1.07 1.07 0 00.004 1.51z"/></g></svg>