<svg viewBox="0 0 32 32"><g fill="none" fill-rule="evenodd"><path fill="#99999E" d="M32 16c0-2.094-.417-4.188-1.218-6.123a16.047 16.047 0 00-3.468-5.19 16.047 16.047 0 00-5.191-3.47A16.055 16.055 0 0016 0c-2.094 0-4.188.417-6.123 1.218a16.047 16.047 0 00-5.19 3.468 16.047 16.047 0 00-3.47 5.191A16.055 16.055 0 000 16c0 2.094.417 4.188 1.218 6.123a16.047 16.047 0 003.468 5.19 16.047 16.047 0 005.191 3.47A16.055 16.055 0 0016 32c2.094 0 4.188-.417 6.123-1.218a16.047 16.047 0 005.19-3.468 16.047 16.047 0 003.47-5.191A16.055 16.055 0 0032 16z"/><path fill="#FFF" d="M15.343 5.8l1.753.435-.703 2.797c.471.106.945.214 1.406.328l.7-2.78 1.756.433-.719 2.854c2.217.759 3.837 1.89 3.519 4-.232 1.542-1.094 2.29-2.243 2.55 1.576.813 2.378 2.058 1.615 4.217-.948 2.682-3.2 2.908-6.193 2.346l-.727 2.883-1.755-.433.716-2.844c-.456-.111-.92-.23-1.4-.359l-.718 2.857-1.755-.433.726-2.888c-.408-.103-.825-.214-1.25-.32l-2.286-.564.872-1.989.092.024c.299.078 1.2.313 1.184.291.497.122.719-.199.805-.413l1.971-7.824c.022-.368-.109-.835-.82-1.01.03-.018-1.208-.3-1.273-.315l.466-1.857 2.422.599-.003.01c.365.088.74.173 1.12.26l.722-2.854zm-.74 10.509l-.963 3.827c1.19.292 4.86 1.46 5.404-.701.565-2.252-3.25-2.831-4.44-3.126zm1.315-5.224l-.872 3.47c.99.245 4.045 1.244 4.54-.719.515-2.05-2.675-2.506-3.668-2.751z"/></g></svg>