<svg fill="none" viewBox="0 0 32 32"><path fill="url(#paint0_linear)" d="M32 16c0-2.094-.417-4.188-1.218-6.123a16.046 16.046 0 00-3.468-5.19 16.046 16.046 0 00-5.191-3.47A16.055 16.055 0 0016 0c-2.094 0-4.188.417-6.123 1.218a16.047 16.047 0 00-5.19 3.468 16.047 16.047 0 00-3.47 5.191A16.054 16.054 0 000 16c0 2.094.417 4.188 1.218 6.123a16.046 16.046 0 003.468 5.19 16.046 16.046 0 005.191 3.47A16.054 16.054 0 0016 32c2.094 0 4.188-.417 6.123-1.218a16.046 16.046 0 005.19-3.468 16.046 16.046 0 003.47-5.191A16.054 16.054 0 0032 16z"/><path fill="url(#paint1_linear)" fill-rule="evenodd" d="M16 19.746c2.637 0 4.71-.151 6.344-.405 1.633-.253 2.828-.609 3.67-1.15.844-.542 1.335-1.27 1.632-2.103.297-.834.398-1.773.232-2.88a8.801 8.801 0 00-1.414-3.588c-.816-1.207-2.015-2.348-3.625-3.349-1.61-1-3.633-1.861-6.839-1.861-3.206 0-5.228.86-6.839 1.861-1.61 1.001-2.809 2.142-3.625 3.35a8.8 8.8 0 00-1.414 3.588c-.166 1.106-.065 2.045.232 2.879.297.833.788 1.561 1.632 2.103.842.541 2.037.897 3.67 1.15 1.634.254 3.707.405 6.344.405z" clip-rule="evenodd"/><g filter="url(#filter0_f)"><path fill="url(#paint2_linear)" fill-rule="evenodd" d="M16 10.349c2.638 0 5.287-.31 6.749-.552 1.461-.243 1.736-.42 1.8-.63.064-.211-.083-.457-.623-.957-.54-.5-1.472-1.255-2.651-1.905-1.18-.65-2.607-1.195-5.275-1.253-2.668.058-4.095.603-5.275 1.253a13.856 13.856 0 00-2.65 1.905c-.54.5-.687.746-.624.957.064.21.339.387 1.8.63a44.53 44.53 0 006.749.552z" clip-rule="evenodd"/></g><g filter="url(#filter1_f)"><path fill="url(#paint3_linear)" fill-rule="evenodd" d="M16 14.037c3.277 0 5.95.13 7.545.516 1.595.387 2.113 1.03 2.392 1.454.278.424.317.628.247.863-.07.236-.251.503-.824.797-.573.294-1.539.616-2.857.895-1.318.278-2.99.514-6.503.537-3.513-.023-5.185-.259-6.503-.537-1.318-.279-2.284-.6-2.857-.895-.573-.294-.753-.561-.824-.797-.07-.235-.031-.439.247-.863.28-.424.797-1.067 2.392-1.454 1.595-.386 4.268-.516 7.545-.516z" clip-rule="evenodd"/></g><path fill="url(#paint4_linear)" fill-rule="evenodd" d="M9.89 15.097c-.694.664-.588 1.919.194 2.517.781.598 2.236.538 2.93-.126s.625-1.932-.156-2.53c-.78-.597-2.275-.524-2.969.14z" clip-rule="evenodd"/><path fill="url(#paint5_linear)" fill-rule="evenodd" d="M4.968 16.5c.158-.088.192-.692.069-1.203-.123-.51-.402-.929-.56-.84-.159.09-.195.687-.072 1.198.123.51.405.935.563.846z" clip-rule="evenodd"/><path fill="url(#paint6_linear)" fill-rule="evenodd" d="M17.502 12.67c-1.352 1.005-1.397 3.244-.232 4.419 1.166 1.175 3.543 1.286 4.894.282 1.351-1.005 1.678-3.126.512-4.301-1.166-1.175-3.823-1.405-5.174-.4z" clip-rule="evenodd"/><path fill="url(#paint7_linear)" fill-rule="evenodd" d="M5.615 12.366c-.487.98-.4 2.176.246 2.7.646.522 1.85.373 2.737-.254.888-.628 1.46-1.733 1.345-2.638a1.823 1.823 0 00-1.85-1.58c-.93.029-1.991.792-2.478 1.772z" clip-rule="evenodd"/><path fill="#F8F7F1" fill-rule="evenodd" d="M15.428 6.55c-.179.353-.026.824.374 1.058.4.234 1.045.232 1.463.02.418-.211.61-.632.466-.984-.144-.352-.622-.634-1.117-.658-.495-.024-1.007.21-1.186.564z" clip-rule="evenodd"/><path fill="url(#paint8_linear)" fill-rule="evenodd" d="M21.583 19.447c-1.504.19-3.34.299-5.583.299-2.244 0-4.08-.11-5.583-.299-.822 3.794-.821 4.646-.768 5.25.054.618.162.976.467 1.314.304.338.804.654 1.72.936.879.27 2.14.508 4.164.533 2.024-.025 3.285-.263 4.164-.533.916-.282 1.416-.598 1.72-.936.305-.338.413-.696.467-1.313.053-.605.054-1.457-.768-5.25z" clip-rule="evenodd"/><path fill="#F8F7F1" fill-rule="evenodd" d="M11.665 5.066c-.966.328-1.777.751-2.504 1.203-.286.178-.56.36-.82.547-.313.318-.408.814-.065.974.34.16 1.11-.007 1.844-.31.735-.301 1.435-.738 1.813-1.201.377-.463.432-.95.162-1.128-.103-.069-.255-.093-.43-.085zm8.537.312c-.553-.122-1.077-.122-1.386.048-.308.17-.402.511-.375.915.027.403.173.87.594 1.368a4.652 4.652 0 001.868 1.298c.752.27 1.559.28 2.084.097.526-.183.77-.56.78-.934.01-.374-.216-.748-.563-1.11a5.963 5.963 0 00-1.342-1.016c-.526-.3-1.107-.544-1.66-.666z" clip-rule="evenodd"/><path fill="url(#paint9_linear)" fill-rule="evenodd" d="M27.912 14.981a6.356 6.356 0 00-.024-1.772 8.547 8.547 0 00-.457-1.716c-.39-.48-.675-.54-.96-.458a.753.753 0 00-.476.375c-.114.214-.161.536-.147.955.014.42.09.938.23 1.356.142.419.348.738.587 1.012.381.439.849.764 1.247.248z" clip-rule="evenodd"/><g filter="url(#filter2_f)"><path fill="url(#paint10_radial)" fill-rule="evenodd" d="M16 26.74c1.52 0 2.948-.25 3.824-.498.875-.248 1.199-.493 1.38-.768.182-.274.221-.578.206-1.177a29.393 29.393 0 00-.157-2.163c-.073-.672-.151-1.123-.522-1.304-.37-.18-1.032-.09-1.612-.01-.58.08-1.079.149-1.842.183-.763.034-1.79.034-2.554 0-.763-.034-1.262-.103-1.842-.183-.58-.08-1.242-.17-1.612.01-.37.18-.449.632-.522 1.304a29.339 29.339 0 00-.157 2.163c-.015.599.024.903.206 1.177.181.275.505.52 1.38.768.876.248 2.303.498 3.824.498z" clip-rule="evenodd"/></g><defs><filter id="filter0_f" width="20.115" height="8.287" x="5.942" y="3.556" color-interpolation-filters="sRGB" filterUnits="userSpaceOnUse"><feFlood flood-opacity="0" result="BackgroundImageFix"/><feBlend in="SourceGraphic" in2="BackgroundImageFix" result="shape"/><feGaussianBlur result="effect1_foregroundBlur" stdDeviation=".748"/></filter><filter id="filter1_f" width="23.419" height="8.052" x="4.29" y="12.542" color-interpolation-filters="sRGB" filterUnits="userSpaceOnUse"><feFlood flood-opacity="0" result="BackgroundImageFix"/><feBlend in="SourceGraphic" in2="BackgroundImageFix" result="shape"/><feGaussianBlur result="effect1_foregroundBlur" stdDeviation=".748"/></filter><filter id="filter2_f" width="13.816" height="9.004" x="9.092" y="19.231" color-interpolation-filters="sRGB" filterUnits="userSpaceOnUse"><feFlood flood-opacity="0" result="BackgroundImageFix"/><feBlend in="SourceGraphic" in2="BackgroundImageFix" result="shape"/><feGaussianBlur result="effect1_foregroundBlur" stdDeviation=".748"/></filter><linearGradient id="paint0_linear" x1="-7.394" x2="-7.394" y1="0" y2="46.788" gradientUnits="userSpaceOnUse"><stop stop-color="#1E0202"/><stop offset="1" stop-color="#770707"/></linearGradient><linearGradient id="paint1_linear" x1="2.276" x2="2.276" y1="3.568" y2="21.17" gradientUnits="userSpaceOnUse"><stop stop-color="#F81B0D"/><stop offset=".652" stop-color="#FF0509"/><stop offset="1" stop-color="#D10004"/></linearGradient><linearGradient id="paint2_linear" x1="10.069" x2="10.069" y1="6.679" y2="10.349" gradientUnits="userSpaceOnUse"><stop stop-color="#FFAFA9"/><stop offset="1" stop-color="#FF060A"/></linearGradient><linearGradient id="paint3_linear" x1="7.565" x2="7.565" y1="14.919" y2="19.099" gradientUnits="userSpaceOnUse"><stop stop-color="#FF060A"/><stop offset=".999" stop-color="#FF6E63"/></linearGradient><linearGradient id="paint4_linear" x1="8.95" x2="9.654" y1="14.958" y2="18.482" gradientUnits="userSpaceOnUse"><stop stop-color="#F8F7F1"/><stop offset="1" stop-color="#E5E1CA"/></linearGradient><linearGradient id="paint5_linear" x1="4.24" x2="5.216" y1="14.687" y2="16.262" gradientUnits="userSpaceOnUse"><stop stop-color="#F8F7F1"/><stop offset="1" stop-color="#E5E1CA"/></linearGradient><linearGradient id="paint6_linear" x1="15.622" x2="16.856" y1="12.739" y2="18.837" gradientUnits="userSpaceOnUse"><stop stop-color="#F8F7F1"/><stop offset="1" stop-color="#E5E1CA"/></linearGradient><linearGradient id="paint7_linear" x1="5.753" x2="2.566" y1="9.027" y2="15.269" gradientUnits="userSpaceOnUse"><stop stop-color="#F8F7F1"/><stop offset="1" stop-color="#E5E1CA"/></linearGradient><linearGradient id="paint8_linear" x1="13.26" x2="13.26" y1="19.447" y2="22.903" gradientUnits="userSpaceOnUse"><stop stop-color="#6C4523"/><stop offset="1" stop-color="#9D836C"/></linearGradient><linearGradient id="paint9_linear" x1="25.596" x2="27.314" y1="11.5" y2="15.168" gradientUnits="userSpaceOnUse"><stop stop-color="#F8F7F1"/><stop offset="1" stop-color="#E5E1CA"/></linearGradient><radialGradient id="paint10_radial" cx="0" cy="0" r="1" gradientTransform="matrix(0 6.01407 -9.76991 0 16 23.733)" gradientUnits="userSpaceOnUse"><stop stop-color="#EAD2BA"/><stop offset="1" stop-color="#D6BEA6"/></radialGradient></defs></svg>