<svg viewBox="0 0 32 32"><g fill="none" fill-rule="evenodd"><path fill="#FFF" d="M32 16c0-2.094-.417-4.188-1.218-6.123a16.057 16.057 0 00-3.468-5.19 16.052 16.052 0 00-5.191-3.47A16.055 16.055 0 0016 0c-2.094 0-4.188.417-6.123 1.218a16.055 16.055 0 00-5.19 3.468 16.05 16.05 0 00-3.47 5.191A16.049 16.049 0 000 16c0 2.094.416 4.188 1.218 6.123a16.056 16.056 0 003.468 5.19 16.054 16.054 0 005.19 3.469A16.056 16.056 0 0016 32c2.094 0 4.188-.417 6.123-1.218a16.05 16.05 0 005.19-3.468 16.062 16.062 0 003.47-5.191A16.055 16.055 0 0032 16z"/><path fill="#0657F9" d="M11.855 3.384a13.266 13.266 0 0113.213 2.914 13.155 13.155 0 013.417 5.189c.71 1.99.946 4.19.672 6.284a13.194 13.194 0 01-2.243 5.795 13.207 13.207 0 01-4.64 4.134 13.622 13.622 0 01-6.12 1.576 13.207 13.207 0 01-6.059-1.381 13.19 13.19 0 01-4.763-3.991 13.662 13.662 0 01-2.444-5.83 13.13 13.13 0 01.487-6.193 13.391 13.391 0 012.23-4.145H4.12V5.282h5.817v5.432H7.483V9.229a10.961 10.961 0 00-1.827 3.397 10.786 10.786 0 00-.4 5.07 11.107 11.107 0 002.81 5.75 10.952 10.952 0 006.8 3.375 11.023 11.023 0 007.351-1.892 10.999 10.999 0 004.325-6.24c.637-2.5.342-5.237-.807-7.547a10.919 10.919 0 00-5.546-5.183c-2.394-.99-5.181-1.085-7.585-.295l-.75-2.28z"/><g fill="#000"><path d="M14.183 18.414h-.735l-.413-1.738a10.204 10.204 0 01-.141-.775 9.512 9.512 0 01-.14.779 440.91 440.91 0 01-.41 1.735h-.734l-.777-3.311h.636l.39 1.807c.07.333.117.623.147.868.008-.087.028-.22.057-.4a4.7 4.7 0 01.085-.42c.163-.615.31-1.233.444-1.855h.61l.444 1.855a10.268 10.268 0 01.14.82 8.87 8.87 0 01.15-.868c.138-.6.267-1.203.387-1.807h.636l-.776 3.31zm2.914.001h-1.755v-3.311h1.755v.575h-1.109v.727h1.032v.575h-1.032v.854h1.109zm1.811 0h-.646v-2.727h-.827v-.584h2.3v.584h-.827zm3.792 0h-.644v-1.429H20.85v1.429h-.646v-3.311h.646v1.298h1.206v-1.298h.644z"/><path d="M15.22 8.404c1.479 0 2.853.445 3.997 1.208l1.546 1.03a7.215 7.215 0 11-7.998 12.013l-1.65-1.1a7.215 7.215 0 014.105-13.15zm1.546 1.547a6.7 6.7 0 100 13.399 6.7 6.7 0 000-13.4z"/></g></g></svg>