<svg width="32" height="32" fill="none" xmlns="http://www.w3.org/2000/svg"><path d="M16 32c8.837 0 16-7.163 16-16S24.837 0 16 0 0 7.163 0 16s7.163 16 16 16z" fill="#000"/><path fill-rule="evenodd" clip-rule="evenodd" d="M15.635 18.673c-2.277-.2-3.934-1.39-4.017-3.548h3.046c.066.686.401 1.104.97 1.289v-2.645l-.163-.042c-1.76-.459-3.87-1.008-3.87-3.556 0-2.092 1.757-3.331 4.033-3.482V5.333h1.072V6.69c2.293.184 3.766 1.356 3.916 3.482H17.56c-.067-.62-.384-1.005-.853-1.172v2.594l.292.081c1.738.48 3.791 1.046 3.791 3.501 0 1.807-1.439 3.398-4.083 3.515v1.355h-1.071v-1.372zm0-7.431V8.915c-.62.1-1.005.469-1.005 1.122 0 .585.402.937 1.005 1.205zm1.07 5.222v-2.377c.654.251 1.089.586 1.089 1.188 0 .62-.419 1.072-1.088 1.189zM6.519 22.147h19.14v2.884H6.518v-2.884z" fill="#fff"/></svg>