<svg viewBox="0 0 32 32"><g fill="none"><path fill="#000" d="M16 0C7.164 0 0 7.164 0 16s7.164 16 16 16 16-7.164 16-16v-.01C31.995 7.16 24.833 0 16 0z"/><path fill="#FFF" d="M7.498 10.025c0-.703-.042-1.383-.108-2.086h3.118l.108 1.426c.35-.48 1.2-1.668 3.402-1.668 2.53 0 3.25 1.559 3.467 2.086.916-1.778 2.4-2.063 3.533-2.063 2.225 0 3.121 1.34 3.359 1.778.59.965.543 2.305.543 3.27v6.074h-3.25v-6.336c0-1.187-.174-2.504-1.855-2.504-1.931 0-1.974 1.824-1.974 3.47v5.37h-3.25V12.44c0-.856-.023-2.438-1.81-2.438-2.03 0-2.03 1.758-2.03 2.504v6.336H7.498v-8.817zM7.39 21.28h17.54v2.703H7.39z"/></g></svg>