<svg width="32" height="32" fill="none" xmlns="http://www.w3.org/2000/svg"><path d="M32 16c0-2.094-.417-4.188-1.218-6.123a16.046 16.046 0 00-3.468-5.19 16.046 16.046 0 00-5.191-3.47A16.055 16.055 0 0016 0c-2.094 0-4.188.417-6.123 1.218a16.047 16.047 0 00-5.19 3.468 16.047 16.047 0 00-3.47 5.191A16.054 16.054 0 000 16c0 2.094.417 4.188 1.218 6.123a16.046 16.046 0 003.468 5.19 16.046 16.046 0 005.191 3.47A16.054 16.054 0 0016 32c2.094 0 4.188-.417 6.123-1.218a16.046 16.046 0 005.19-3.468 16.046 16.046 0 003.47-5.191A16.054 16.054 0 0032 16z" fill="url(#paint0_linear)"/><path fill-rule="evenodd" clip-rule="evenodd" d="M26.335 18.94l-4.019 5.601c-.632.89-1.858 1.318-3.452 1.187-2.057-.17-4.783-1.257-7.396-3.131-2.613-1.875-4.518-4.11-5.349-6-.632-1.466-.622-2.76.02-3.651l4.009-5.602c.64-.89 1.867-1.317 3.452-1.186 2.056.17 4.792 1.257 7.405 3.132 2.613 1.874 4.518 4.108 5.34 6 .64 1.465.622 2.76-.01 3.65z" fill="#fff"/><path fill-rule="evenodd" clip-rule="evenodd" d="M10.404 7.527c.584-.817 1.711-1.177 3.17-1.06 2.012.165 4.676 1.244 7.242 3.072 2.557 1.837 4.433 4.025 5.23 5.872.584 1.341.603 2.528.02 3.344l-4.005 5.6c-.584.816-1.721 1.176-3.17 1.06-2.012-.176-4.686-1.245-7.242-3.082-2.567-1.828-4.433-4.015-5.24-5.862-.584-1.342-.603-2.528-.02-3.345l4.015-5.6z" fill="#0E0F23"/><path fill-rule="evenodd" clip-rule="evenodd" d="M25.512 18.357v-.01c.466-.642.369-1.595-.088-2.664-.768-1.76-2.566-3.83-5.016-5.58-2.44-1.75-4.978-2.79-6.893-2.946-1.166-.097-2.09.117-2.557.768l-.02.04c-.437.65-.34 1.574.118 2.624.768 1.77 2.566 3.84 5.006 5.59 2.44 1.75 4.978 2.79 6.893 2.946 1.147.087 2.051-.117 2.528-.73l.029-.048v.01z" fill="#fff"/><path fill-rule="evenodd" clip-rule="evenodd" d="M20.822 9.545c-2.568-1.83-5.235-2.913-7.248-3.078-1.46-.117-2.588.245-3.171 1.063l-4.018 5.606c-.584.818-.565 2.005.02 3.349.533 1.222 1.544 2.586 2.9 3.903.12-.012.224-.024.344-.05.694-.155 1.362-.754 2.025-1.368l.095-.087c.884-.82 1.764-1.627 2.695-1.408.626.14 1.13.776 1.64 1.452l.045.06.046.061c.221.294.445.59.682.852.778.9 1.635 1.292 2.5 1.108.99-.195 1.756-1.08 2.457-2.06-1.726-.393-3.779-1.34-5.762-2.762-2.442-1.752-4.226-3.813-4.994-5.584-.457-1.051-.578-1.982-.14-2.634l.02-.04c.466-.651 1.39-.865 2.558-.768 1.917.156 4.456 1.197 6.897 2.95 2.452 1.751 4.244 3.817 5.017 5.579l.116.009c.276.029.503.097.694.195a6.462 6.462 0 00-.184-.47c-.797-1.849-2.675-4.039-5.234-5.878zm.978 4.944c-.38-.886-1.284-1.926-2.509-2.802-1.215-.875-2.49-1.391-3.442-1.479-.544-.039-.982.049-1.196.35-.214.302-.156.74.058 1.236.38.885 1.284 1.916 2.509 2.792 1.225.875 2.49 1.4 3.452 1.479.535.048.972-.04 1.186-.34.224-.302.165-.74-.058-1.236z" fill="url(#paint1_linear)"/><path fill-rule="evenodd" clip-rule="evenodd" d="M21.989 19.893c.758.127 1.458.156 2.041.058a.151.151 0 00.127-.165c-.02-.078-.088-.136-.165-.126-.564.097-1.225.068-1.954-.059a.151.151 0 00-.166.127c-.01.078.04.155.117.165zM20.842 19.64c.194.049.379.098.574.136.077.02.155-.029.165-.107a.145.145 0 00-.107-.175c-.185-.038-.37-.087-.554-.136a.142.142 0 00-.185.098c-.02.077.03.155.107.184zM9.983 10.434c.544 2.226 2.683 4.307 4.404 5.784a.14.14 0 00.204-.01c.049-.067.049-.155-.02-.204-1.672-1.448-3.772-3.47-4.296-5.638a.155.155 0 00-.185-.107.145.145 0 00-.107.175zM9.856 9.54c0 .097.01.204.02.3.01.079.087.137.165.127a.142.142 0 00.127-.155c-.01-.097-.02-.195-.02-.282 0-.088-.068-.146-.155-.146a.157.157 0 00-.137.156z" fill="#fff"/><defs><linearGradient id="paint0_linear" x1="-4.702" y1="-9.404" x2="-4.702" y2="32" gradientUnits="userSpaceOnUse"><stop/><stop offset="1" stop-color="#0E0F23"/></linearGradient><linearGradient id="paint1_linear" x1="26.15" y1="19.637" x2="24.937" y2="5.514" gradientUnits="userSpaceOnUse"><stop stop-color="#FA52A0"/><stop offset=".48" stop-color="#C26BB3"/><stop offset="1" stop-color="#27B0E6"/></linearGradient></defs></svg>