<svg viewBox="0 0 32 32"><g fill="none" fill-rule="evenodd"><path fill="#FFF" d="M32 16c0-2.094-.417-4.188-1.218-6.123a16.057 16.057 0 00-3.468-5.19 16.052 16.052 0 00-5.191-3.47A16.055 16.055 0 0016 0c-2.094 0-4.188.417-6.123 1.218a16.055 16.055 0 00-5.19 3.468 16.05 16.05 0 00-3.47 5.191A16.049 16.049 0 000 16c0 2.094.416 4.188 1.218 6.123a16.056 16.056 0 003.468 5.19 16.054 16.054 0 005.19 3.469A16.056 16.056 0 0016 32c2.094 0 4.188-.417 6.123-1.218a16.05 16.05 0 005.19-3.468 16.062 16.062 0 003.47-5.191A16.055 16.055 0 0032 16z"/><path fill="#0657F9" d="M11.855 3.384a13.266 13.266 0 0113.213 2.914 13.155 13.155 0 013.417 5.189c.71 1.99.946 4.19.672 6.284a13.194 13.194 0 01-2.243 5.795 13.207 13.207 0 01-4.64 4.134 13.622 13.622 0 01-6.12 1.576 13.207 13.207 0 01-6.059-1.381 13.19 13.19 0 01-4.763-3.991 13.662 13.662 0 01-2.444-5.83 13.13 13.13 0 01.487-6.193 13.391 13.391 0 012.23-4.145H4.12V5.282h5.817v5.432H7.483V9.229a10.961 10.961 0 00-1.827 3.397 10.786 10.786 0 00-.4 5.07 11.107 11.107 0 002.81 5.75 10.952 10.952 0 006.8 3.375 11.023 11.023 0 007.351-1.892 10.999 10.999 0 004.325-6.24c.637-2.5.342-5.237-.807-7.547a10.919 10.919 0 00-5.546-5.183c-2.394-.99-5.181-1.085-7.585-.295l-.75-2.28z"/><path fill="#000" d="M18.21 8.94c2.714.003 4.915 2.18 4.915 4.869 0 2.467-1.918 4.57-4.39 4.832-.26 2.448-2.39 4.35-4.885 4.347-2.713-.004-4.914-2.182-4.914-4.87 0-2.467 1.918-4.569 4.39-4.832.266-2.448 2.389-4.346 4.884-4.346zm-.594 9.735h-7.528c.276 1.848 1.878 3.215 3.762 3.215 1.888 0 3.49-1.367 3.766-3.215zm-4.324-4.281a3.805 3.805 0 00-3.204 3.183l.002-.01h3.202zm4.368-.044H14.4v3.217h3.26V14.35zm4.312 0h-3.204v3.177a3.81 3.81 0 003.204-3.177zm-3.762-4.313c-1.887 0-3.49 1.367-3.765 3.216h7.527c-.275-1.849-1.877-3.216-3.762-3.216z"/></g></svg>