<svg xmlns="http://www.w3.org/2000/svg" width="32" height="32"><g fill="none" fill-rule="evenodd"><path fill="#FFF" d="M32 16c0-2.094-.417-4.188-1.218-6.123a16.057 16.057 0 00-3.468-5.19 16.052 16.052 0 00-5.191-3.47A16.055 16.055 0 0016 0c-2.094 0-4.188.417-6.123 1.218a16.055 16.055 0 00-5.19 3.468 16.05 16.05 0 00-3.47 5.191A16.049 16.049 0 000 16c0 2.094.416 4.188 1.218 6.123a16.056 16.056 0 003.468 5.19 16.054 16.054 0 005.19 3.469A16.056 16.056 0 0016 32c2.094 0 4.188-.417 6.123-1.218a16.05 16.05 0 005.19-3.468 16.062 16.062 0 003.47-5.191A16.055 16.055 0 0032 16z"/><path fill="#000" d="M11.855 3.384a13.266 13.266 0 0113.213 2.914 13.155 13.155 0 013.417 5.189c.71 1.99.946 4.19.672 6.284a13.194 13.194 0 01-2.243 5.795 13.207 13.207 0 01-4.64 4.134 13.622 13.622 0 01-6.12 1.576 13.207 13.207 0 01-6.059-1.381 13.19 13.19 0 01-4.763-3.991 13.662 13.662 0 01-2.444-5.83 13.13 13.13 0 01.487-6.193 13.391 13.391 0 012.23-4.145H4.12V5.282h5.817v5.432H7.483V9.229a10.961 10.961 0 00-1.827 3.397 10.786 10.786 0 00-.4 5.07 11.107 11.107 0 002.81 5.75 10.952 10.952 0 006.8 3.375 11.023 11.023 0 007.351-1.892 10.999 10.999 0 004.325-6.24c.637-2.5.342-5.237-.807-7.547a10.919 10.919 0 00-5.546-5.183c-2.394-.99-5.181-1.085-7.585-.295l-.75-2.28z"/><g fill="#000"><path d="M14.104 22.953c0 .25-.173.333-.425.333-3.15-1.008-5.359-3.872-5.359-7.24 0-3.367 2.21-6.23 5.359-7.238.252-.081.425.083.425.338v.587c0 .171-.09.338-.257.42-2.467.926-4.168 3.202-4.168 5.894 0 2.697 1.785 5.051 4.168 5.893a.47.47 0 01.257.42v.593z"/><path d="M16.655 20.849c0 .166-.173.332-.341.332h-.683c-.167 0-.34-.166-.34-.332v-1.014c-1.36-.166-2.037-.925-2.294-2.021 0-.167.084-.333.257-.333h.76c.174 0 .258.083.342.25.173.592.509 1.096 1.617 1.096.85 0 1.443-.42 1.443-1.097 0-.67-.336-.924-1.527-1.09-1.786-.25-2.635-.76-2.635-2.194 0-1.09.85-1.933 2.036-2.105v-1.008c0-.166.174-.337.341-.337h.683c.168 0 .341.171.341.337v1.008c1.018.172 1.7.76 1.868 1.684 0 .172-.083.338-.257.338h-.677c-.173 0-.257-.083-.341-.25-.168-.592-.593-.841-1.36-.841-.85 0-1.275.42-1.275 1.008 0 .587.252.925 1.527 1.097 1.792.24 2.64.753 2.64 2.187 0 1.091-.85 2.022-2.125 2.271v1.014z"/><path d="M18.266 23.286c-.252.088-.425-.083-.425-.333v-.592a.47.47 0 01.257-.421c2.467-.925 4.168-3.196 4.168-5.893 0-2.692-1.785-5.051-4.168-5.893a.463.463 0 01-.257-.421v-.587c0-.255.173-.338.425-.338 3.066 1.008 5.36 3.871 5.36 7.239 0 3.367-2.21 6.23-5.36 7.239z"/></g></g></svg>