<svg xmlns="http://www.w3.org/2000/svg" width="32" height="32"><g fill="none" fill-rule="evenodd"><path fill="#FFF" d="M32 16c0-2.094-.417-4.188-1.218-6.123a16.057 16.057 0 00-3.468-5.19 16.052 16.052 0 00-5.191-3.47A16.055 16.055 0 0016 0c-2.094 0-4.188.417-6.123 1.218a16.055 16.055 0 00-5.19 3.468 16.05 16.05 0 00-3.47 5.191A16.049 16.049 0 000 16c0 2.094.416 4.188 1.218 6.123a16.056 16.056 0 003.468 5.19 16.054 16.054 0 005.19 3.469A16.056 16.056 0 0016 32c2.094 0 4.188-.417 6.123-1.218a16.05 16.05 0 005.19-3.468 16.062 16.062 0 003.47-5.191A16.055 16.055 0 0032 16z"/><path fill="#0657F9" d="M11.855 3.384a13.266 13.266 0 0113.213 2.914 13.155 13.155 0 013.417 5.189c.71 1.99.946 4.19.672 6.284a13.194 13.194 0 01-2.243 5.795 13.207 13.207 0 01-4.64 4.134 13.622 13.622 0 01-6.12 1.576 13.207 13.207 0 01-6.059-1.381 13.19 13.19 0 01-4.763-3.991 13.662 13.662 0 01-2.444-5.83 13.13 13.13 0 01.487-6.193 13.391 13.391 0 012.23-4.145H4.12V5.282h5.817v5.432H7.483V9.229a10.961 10.961 0 00-1.827 3.397 10.786 10.786 0 00-.4 5.07 11.107 11.107 0 002.81 5.75 10.952 10.952 0 006.8 3.375 11.023 11.023 0 007.351-1.892 10.999 10.999 0 004.325-6.24c.637-2.5.342-5.237-.807-7.547a10.919 10.919 0 00-5.546-5.183c-2.394-.99-5.181-1.085-7.585-.295l-.75-2.28z"/><g fill="#000" fill-rule="nonzero"><path d="M20.953 11.335l-.437.437a6.177 6.177 0 010 8.337l.437.437a6.801 6.801 0 000-9.22v.01zm-9.177.038a6.177 6.177 0 018.337 0l.437-.436a6.801 6.801 0 00-9.22 0l.446.436zm-.409 8.74a6.177 6.177 0 010-8.333l-.436-.436a6.801 6.801 0 000 9.22l.436-.45zm8.74.403a6.177 6.177 0 01-8.337 0l-.436.437a6.801 6.801 0 009.22 0l-.446-.437z"/><path d="M18.931 14.114c-.1-1.04-.997-1.39-2.132-1.496v-1.432h-.877v1.406h-.701v-1.406h-.871v1.442h-1.78v.94s.648-.012.638 0a.454.454 0 01.499.385V17.9a.307.307 0 01-.107.215.304.304 0 01-.226.076c.012.01-.638 0-.638 0l-.166 1.049h1.763v1.465h.878v-1.444h.7V20.7h.88v-1.45c1.482-.09 2.516-.455 2.646-1.842.104-1.117-.42-1.616-1.26-1.817.51-.25.826-.716.754-1.477zm-1.23 3.12c0 1.091-1.867.966-2.462.966v-1.934c.595.002 2.463-.17 2.463.969zm-.407-2.724c0 .997-1.558.875-2.054.875v-1.758c.496 0 2.054-.156 2.054.883z"/><path d="M15.94 8a7.946 7.946 0 110 15.892A7.946 7.946 0 0115.94 8zm-.001.62a7.322 7.322 0 10.011 14.644A7.322 7.322 0 0015.94 8.62z"/></g></g></svg>