<svg width="32" height="32" fill="none" xmlns="http://www.w3.org/2000/svg"><path fill-rule="evenodd" clip-rule="evenodd" d="M30.782 9.877A16.054 16.054 0 0132 16c0 2.094-.417 4.188-1.218 6.123a16.046 16.046 0 01-3.468 5.19 16.046 16.046 0 01-5.191 3.47A16.054 16.054 0 0116 32c-2.094 0-4.188-.417-6.123-1.218a16.046 16.046 0 01-5.19-3.468 16.046 16.046 0 01-3.47-5.191A16.055 16.055 0 010 16c0-2.094.417-4.188 1.218-6.123a16.047 16.047 0 013.468-5.19 16.047 16.047 0 015.191-3.47A16.054 16.054 0 0116 0c2.094 0 4.188.417 6.123 1.218a16.046 16.046 0 015.19 3.468 16.046 16.046 0 013.47 5.191zm-1.848.765A14.05 14.05 0 0130 16a14.05 14.05 0 01-1.066 5.358A14.053 14.053 0 0125.9 25.9a14.053 14.053 0 01-4.542 3.034A14.05 14.05 0 0116 30a14.05 14.05 0 01-5.358-1.066A14.052 14.052 0 016.1 25.9a14.053 14.053 0 01-3.034-4.542A14.052 14.052 0 012 16c0-1.832.365-3.665 1.066-5.358A14.052 14.052 0 016.1 6.1a14.052 14.052 0 014.542-3.034A14.052 14.052 0 0116 2c1.832 0 3.665.365 5.358 1.066A14.053 14.053 0 0125.9 6.1a14.052 14.052 0 013.034 4.542z" fill="url(#paint0_linear)"/><path fill-rule="evenodd" clip-rule="evenodd" d="M29 16c0-1.701-.338-3.403-.99-4.975a13.037 13.037 0 00-2.818-4.217 13.037 13.037 0 00-4.217-2.818A13.044 13.044 0 0016 3c-1.701 0-3.403.339-4.975.99a13.038 13.038 0 00-4.217 2.818 13.038 13.038 0 00-2.818 4.217A13.044 13.044 0 003 16c0 1.701.339 3.403.99 4.975a13.037 13.037 0 002.818 4.217 13.037 13.037 0 004.217 2.818c1.572.651 3.274.99 4.975.99 1.701 0 3.403-.338 4.975-.99a13.036 13.036 0 004.217-2.818 13.036 13.036 0 002.818-4.217C28.661 19.403 29 17.7 29 16z" fill="#54AE94"/><path fill-rule="evenodd" clip-rule="evenodd" d="M10.329 9.5h11.993v2.9h-4.405v1.633h.014c1.801.083 3.38.3 4.528.607.575.154 1.041.33 1.385.538.172.104.316.216.424.35a.764.764 0 01.182.476c0 .175-.073.34-.182.474a1.589 1.589 0 01-.424.351c-.344.209-.81.384-1.385.538-1.148.308-2.727.524-4.528.606h-.013V23.8h-3.186v-5.826h-.013c-1.801-.083-3.38-.299-4.528-.607-.575-.154-1.04-.33-1.385-.538a1.588 1.588 0 01-.424-.35.764.764 0 01-.182-.475c0-.176.073-.34.182-.475a1.59 1.59 0 01.424-.351c.344-.209.81-.384 1.385-.538 1.148-.308 2.727-.524 4.528-.606h.014v-1.635h-4.405V9.5zm4.409 7.537l1.587.035 1.587-.035c1.57-.07 2.942-.24 3.91-.471.484-.116.868-.248 1.118-.382a1.03 1.03 0 00.27-.193c.053-.058.068-.1.068-.136 0-.036-.015-.079-.068-.137a1.037 1.037 0 00-.27-.193c-.25-.134-.634-.266-1.117-.381-.967-.23-2.336-.401-3.904-.47v1.631l-.032.003c-.04.004-.184.016-.444.027a22.227 22.227 0 01-.956.02h-.324a29.467 29.467 0 01-.956-.02 9.853 9.853 0 01-.444-.027l-.032-.003v-1.632c-1.568.07-2.937.24-3.903.47-.484.116-.868.248-1.119.382a1.035 1.035 0 00-.269.193c-.053.058-.068.1-.068.137 0 .036.015.078.068.136.053.059.144.127.27.193.25.134.634.266 1.118.382.968.23 2.34.402 3.91.47z" fill="#fff"/><defs><linearGradient id="paint0_linear" x1="19.008" y1="-4.64" x2="-4.8" y2="15.392" gradientUnits="userSpaceOnUse"><stop stop-color="#B6509E"/><stop offset="1" stop-color="#2EBAC6"/></linearGradient></defs></svg>