<svg fill="none" viewBox="0 0 32 32"><path fill="#fff" fill-rule="evenodd" d="M32 16c0-2.094-.417-4.188-1.218-6.123a16.058 16.058 0 00-3.468-5.19 16.051 16.051 0 00-5.191-3.47A16.054 16.054 0 0016 0c-2.094 0-4.188.417-6.123 1.218a16.055 16.055 0 00-5.19 3.468 16.05 16.05 0 00-3.47 5.191A16.049 16.049 0 000 16c0 2.094.416 4.188 1.218 6.123a16.056 16.056 0 003.468 5.19 16.055 16.055 0 005.19 3.469A16.056 16.056 0 0016 32c2.094 0 4.188-.417 6.123-1.218a16.051 16.051 0 005.19-3.468 16.063 16.063 0 003.47-5.191A16.054 16.054 0 0032 16z" clip-rule="evenodd"/><path fill="url(#paint0_linear)" fill-rule="evenodd" d="M11.855 3.384a13.267 13.267 0 0113.213 2.914 13.155 13.155 0 013.417 5.189c.71 1.99.946 4.19.672 6.284a13.194 13.194 0 01-2.243 5.795 13.207 13.207 0 01-4.64 4.134 13.622 13.622 0 01-6.12 1.576 13.207 13.207 0 01-6.059-1.381 13.19 13.19 0 01-4.763-3.991 13.662 13.662 0 01-2.444-5.83 13.13 13.13 0 01.487-6.193 13.392 13.392 0 012.23-4.145H4.12V5.282h5.817v5.431H7.483V9.23a10.961 10.961 0 00-1.827 3.397 10.787 10.787 0 00-.4 5.07 11.107 11.107 0 002.81 5.75 10.952 10.952 0 006.8 3.375 11.023 11.023 0 007.351-1.892 10.999 10.999 0 004.325-6.24c.637-2.5.342-5.237-.807-7.547a10.919 10.919 0 00-5.546-5.183c-2.394-.99-5.181-1.085-7.585-.295l-.75-2.28z" clip-rule="evenodd"/><path fill="#818181" fill-rule="evenodd" d="M24 16c0-4.414-3.586-8-8-8s-8 3.586-8 8 3.586 8 8 8 8-3.586 8-8z" clip-rule="evenodd"/><path fill="#000" fill-rule="evenodd" d="M16 8c4.414 0 8 3.586 8 8s-3.586 8-8 8-8-3.586-8-8 3.586-8 8-8zm0 .59A7.414 7.414 0 0123.41 16 7.414 7.414 0 0116 23.41 7.414 7.414 0 018.59 16 7.414 7.414 0 0116 8.59z" clip-rule="evenodd"/><path stroke="#fff" stroke-opacity=".65" stroke-width=".5" d="M22.422 16A6.426 6.426 0 0016 9.578 6.426 6.426 0 009.578 16 6.426 6.426 0 0016 22.422 6.426 6.426 0 0022.422 16z" clip-rule="evenodd"/><path stroke="#fff" stroke-opacity=".4" stroke-width=".5" d="M21.162 16A5.165 5.165 0 0016 10.838 5.165 5.165 0 0010.838 16 5.165 5.165 0 0016 21.162 5.165 5.165 0 0021.162 16z" clip-rule="evenodd"/><path stroke="#fff" stroke-opacity=".25" stroke-width=".5" d="M20.023 16A4.025 4.025 0 0016 11.977 4.025 4.025 0 0011.977 16 4.025 4.025 0 0016 20.023 4.025 4.025 0 0020.023 16z" clip-rule="evenodd"/><path fill="#fff" fill-rule="evenodd" d="M19.39 14.905c.153-1.024-.626-1.573-1.69-1.941l.345-1.386-.844-.21-.337 1.35c-.221-.056-.449-.108-.675-.16l.338-1.357-.843-.21-.346 1.385-.086-.02c-.154-.036-.305-.07-.453-.107l.002-.005-1.164-.29-.224.901c.031.007.626.144.612.153.341.085.404.311.394.49l-.947 3.797c-.042.104-.148.26-.387.2.009.013-.582-.144-.614-.152l-.418.965 1.098.274c.115.028.228.058.34.087l.26.068-.348 1.402.843.21.345-1.387c.23.063.454.12.673.174l-.344 1.38.843.21.35-1.398c1.437.273 2.52.163 2.976-1.14.366-1.047-.02-1.651-.776-2.045.551-.127.965-.49 1.077-1.238zm-1.927 2.702c-.24.962-1.743.565-2.432.383a12.074 12.074 0 00-.165-.043l.463-1.857c.058.015.128.03.209.048.712.16 2.169.487 1.925 1.469zm-1.784-2.332c.574.153 1.826.488 2.044-.385.223-.894-.994-1.164-1.588-1.296a3.218 3.218 0 01-.174-.04l-.42 1.685.138.036z" clip-rule="evenodd"/><defs><linearGradient id="paint0_linear" x1="2.043" x2="15.222" y1="13.297" y2="29.576" gradientUnits="userSpaceOnUse"><stop stop-color="#004CFF"/><stop offset=".252" stop-color="#00E0FB"/><stop offset=".506" stop-color="#87FF70"/><stop offset=".755" stop-color="#F8F500"/><stop offset="1" stop-color="#FF1A00"/></linearGradient></defs></svg>