<svg fill="none" viewBox="0 0 32 32"><circle cx="16" cy="16" r="16" fill="#fff"/><path fill="#3CEAAA" fill-rule="evenodd" d="M8.613 14.934l5.083-5.083 2.346 2.346-5.083 5.083-2.346-2.346zm4.692 4.692l3.837 3.837-2.346 2.346-9.694-9.695-.008-.007a1.66 1.66 0 010-2.346l.005-.004 7.424-7.424c.338-.338.785-.5 1.228-.485.406.013.808.175 1.118.485l4.686 4.685.006.006a1.66 1.66 0 010 2.346m-6.256 6.256l6.254-6.254z" clip-rule="evenodd"/><path fill="#1A5D73" fill-rule="evenodd" d="M17.134 6.343l.01-.01a1.658 1.658 0 012.346 0l.008.008 7.404 7.404.017.016a1.659 1.659 0 010 2.346l-9.644 9.644a1.659 1.659 0 11-2.42-2.263l-.004-.004 3.857-3.858-6.255-6.256a1.659 1.659 0 010-2.346l.006-.006 4.675-4.675zm6.266 8.591l-2.346 2.346-5.083-5.083 2.346-2.346 5.083 5.083z" clip-rule="evenodd"/><path fill="#3CEAAA" d="M13.44 9.66l2.547-2.21 3.576 3.647-2.343 2.343-3.78-3.78z"/></svg>