<svg viewBox="0 0 32 32"><defs><linearGradient id="a" x1="28.124%" x2="77.719%" y1="15.015%" y2="76.329%"><stop offset="0%" stop-color="#004CFF"/><stop offset="25.213%" stop-color="#00E0FB"/><stop offset="50.571%" stop-color="#87FF70"/><stop offset="75.505%" stop-color="#F8F500"/><stop offset="100%" stop-color="#FF1A00"/></linearGradient></defs><g fill="none" fill-rule="evenodd"><path fill="#FFF" d="M32 16c0-2.094-.417-4.188-1.218-6.123a16.057 16.057 0 00-3.468-5.19 16.052 16.052 0 00-5.191-3.47A16.055 16.055 0 0016 0c-2.094 0-4.188.417-6.123 1.218a16.055 16.055 0 00-5.19 3.468 16.05 16.05 0 00-3.47 5.191A16.049 16.049 0 000 16c0 2.094.416 4.188 1.218 6.123a16.056 16.056 0 003.468 5.19 16.054 16.054 0 005.19 3.469A16.056 16.056 0 0016 32c2.094 0 4.188-.417 6.123-1.218a16.05 16.05 0 005.19-3.468 16.062 16.062 0 003.47-5.191A16.055 16.055 0 0032 16z"/><path fill="url(#a)" d="M11.855 3.384a13.266 13.266 0 0113.213 2.914 13.155 13.155 0 013.417 5.189c.71 1.99.946 4.19.672 6.284a13.194 13.194 0 01-2.243 5.795 13.207 13.207 0 01-4.64 4.134 13.622 13.622 0 01-6.12 1.576 13.207 13.207 0 01-6.059-1.381 13.19 13.19 0 01-4.763-3.991 13.662 13.662 0 01-2.444-5.83 13.13 13.13 0 01.487-6.193 13.391 13.391 0 012.23-4.145H4.12V5.282h5.817v5.432H7.483V9.229a10.961 10.961 0 00-1.827 3.397 10.786 10.786 0 00-.4 5.07 11.107 11.107 0 002.81 5.75 10.952 10.952 0 006.8 3.375 11.023 11.023 0 007.351-1.892 10.999 10.999 0 004.325-6.24c.637-2.5.342-5.237-.807-7.547a10.919 10.919 0 00-5.546-5.183c-2.394-.99-5.181-1.085-7.585-.295l-.75-2.28z"/><path fill="#FFF" stroke="#000" stroke-width=".525" d="M15.797 6.975a4.551 4.551 0 013.207 1.329 4.55 4.55 0 011.329 3.207 4.551 4.551 0 01-.937 2.76 4.534 4.534 0 013.2 7.743 4.55 4.55 0 01-3.208 1.328 4.551 4.551 0 01-3.207-1.328 4.521 4.521 0 01-.385-.438 4.55 4.55 0 01-3.59 1.766 4.551 4.551 0 01-3.207-1.328 4.55 4.55 0 01-1.329-3.208A4.551 4.551 0 018.999 15.6a4.55 4.55 0 013.207-1.329 4.266 4.266 0 01-.6-1.023 4.551 4.551 0 010-3.472 4.55 4.55 0 012.455-2.455 4.551 4.551 0 011.736-.345z"/><g fill="#000"><path d="M18.557 21.948c0 .111-.077.148-.189.148-1.4-.448-2.382-1.721-2.382-3.218 0-1.497.982-2.77 2.382-3.218.113-.036.19.037.19.15v.261c0 .076-.04.15-.115.187-1.097.411-1.853 1.423-1.853 2.62 0 1.2.794 2.245 1.853 2.62a.209.209 0 01.114.187v.263z"/><path d="M19.691 21.013c0 .074-.077.147-.151.147h-.304c-.074 0-.151-.073-.151-.147v-.45c-.605-.075-.906-.412-1.02-.9 0-.074.037-.147.114-.147h.339c.077 0 .114.037.151.11.077.264.227.488.719.488.378 0 .642-.187.642-.488 0-.297-.15-.41-.68-.485-.793-.11-1.17-.337-1.17-.975 0-.485.377-.859.905-.935v-.448c0-.074.077-.15.151-.15h.304c.074 0 .151.076.151.15v.448c.453.076.756.337.831.748 0 .077-.037.15-.114.15h-.301c-.077 0-.115-.036-.152-.11-.075-.264-.264-.375-.604-.375-.378 0-.567.188-.567.449 0 .26.112.41.679.487.796.107 1.173.335 1.173.973 0 .485-.378.898-.945 1.01v.45z"/><path d="M20.408 22.096c-.112.04-.19-.037-.19-.148v-.263c0-.074.04-.15.115-.187 1.097-.411 1.853-1.42 1.853-2.62a2.813 2.813 0 00-1.853-2.62.206.206 0 01-.114-.187v-.26c0-.114.077-.151.189-.151 1.362.448 2.382 1.72 2.382 3.218 0 1.497-.982 2.77-2.382 3.218z"/></g><path fill="#000" d="M14.412 16.538v1.012h-1.537v.57c.633.029 1.184.104 1.585.212.2.053.363.114.483.187.06.036.11.076.148.123a.267.267 0 01.063.165.267.267 0 01-.063.166.555.555 0 01-.148.122c-.12.073-.283.134-.483.188-.4.107-.952.183-1.58.212h-.005v2.033h-1.112v-2.033c-.633-.03-1.183-.105-1.584-.212a1.907 1.907 0 01-.483-.188.555.555 0 01-.148-.122.267.267 0 01-.064-.166c0-.061.026-.118.064-.165a.555.555 0 01.148-.123c.12-.073.283-.134.483-.187.4-.108.951-.183 1.58-.212h.005v-.57h-1.537v-1.012h4.185zm-1.536 1.805v.57h-.011a7.91 7.91 0 01-.429.016h-.233a11.054 11.054 0 01-.274-.006 3.433 3.433 0 01-.155-.01h-.01v-.57a7.674 7.674 0 00-1.363.164c-.169.04-.303.087-.39.133a.36.36 0 00-.094.068c-.019.02-.024.035-.024.047 0 .013.005.028.024.048a.36.36 0 00.094.067c.087.047.221.093.39.133.338.08.817.14 1.365.165l.553.012.554-.012a7.67 7.67 0 001.364-.165c.17-.04.303-.086.39-.133a.36.36 0 00.095-.067c.018-.02.023-.035.023-.048 0-.012-.005-.027-.023-.047a.36.36 0 00-.094-.068 1.725 1.725 0 00-.39-.133 7.674 7.674 0 00-1.362-.164zm2.944-9.295c.154 0 .307.023.459.05.313.058.613.169.887.326.183.105.35.235.5.382a2.404 2.404 0 01.524.803c.007.04.045.066.085.059h.507c.065 0 .065 0 .068.062a5.04 5.04 0 010 .46c-.002.045-.017.056-.062.056h-.392c-.04 0-.05 0-.048.05.01.172.016.343 0 .514 0 .048 0 .054.054.054h.448c.02.025 0 .05 0 .076a.553.553 0 010 .098v.34c0 .047-.014.061-.057.061h-.536a.07.07 0 00-.082.054 2.245 2.245 0 01-.595.859 3.33 3.33 0 01-.304.241c-.113.065-.224.132-.34.185a2.942 2.942 0 01-.67.21c-.217.043-.44.057-.663.054a71.834 71.834 0 00-1.967 0v-1.556c0-.036 0-.042-.044-.042h-.616c-.034 0-.048 0-.048-.045v-.533h.658c.036 0 .05 0 .05-.048v-.527c0-.034 0-.042-.044-.042h-.616c-.034 0-.048 0-.048-.045v-.494c0-.031 0-.04.045-.04h.61c.042 0 .054 0 .054-.053V9.104c0-.044 0-.056.057-.056h2.126zm1.587 3.4h-3.144c-.042 0-.056 0-.056.055v.974c0 .045 0 .057.056.057h1.452a.74.74 0 00.206-.014 2.17 2.17 0 00.616-.135c.071-.027.141-.057.207-.096h.02c.34-.175.616-.45.79-.788.002-.002.02-.042-.002-.054a.663.663 0 00-.145 0zm.284-1.202h-3.43c-.043 0-.054.014-.054.053v.5c0 .051 0 .062.034.064h3.447c.037 0 .054 0 .057-.048.01-.174.014-.348 0-.522 0-.033-.017-.047-.054-.047zM15.777 9.58c-.508.004-1.015.004-1.523 0-.042 0-.048.017-.048.054v.996c0 .042 0 .053.054.053h3.272c.001 0 .028-.005.034-.022h-.014a.053.053 0 000-.04 1.109 1.109 0 00-.102-.176 1.436 1.436 0 00-.21-.261.692.692 0 00-.13-.127 2.046 2.046 0 00-.851-.426 2.036 2.036 0 00-.482-.05z"/></g></svg>