<svg fill="none" viewBox="0 0 32 32"><path fill="url(#paint0_linear)" fill-rule="evenodd" d="M32 16c0-8.828-7.172-16-16-16S0 7.172 0 16s7.172 16 16 16 16-7.172 16-16z" clip-rule="evenodd"/><path fill="#fff" fill-rule="evenodd" d="M25.985 20.096l-2.13-3.559a.278.278 0 00-.384-.091c-.468.286-.929.582-1.384.888a.277.277 0 00-.088.373l1.217 2.03a.14.14 0 01-.044.188 981.477 981.477 0 01-7.096 4.549.135.135 0 01-.146 0 228.577 228.577 0 00-7.1-4.55.138.138 0 01-.043-.186c.383-.69.788-1.367 1.216-2.031a.272.272 0 00-.088-.373c-.46-.298-.921-.594-1.384-.888a.273.273 0 00-.384.091 717.462 717.462 0 01-2.13 3.559.545.545 0 00.175.742 959.086 959.086 0 019.511 6.095c.18.116.413.117.592 0a651.496 651.496 0 019.511-6.095.547.547 0 00.18-.742z" clip-rule="evenodd"/><path fill="#2AE7A8" fill-rule="evenodd" d="M9.641 14.557l1.385.888a.272.272 0 00.384-.092c1.484-2.497 2.975-4.99 4.472-7.48a.136.136 0 01.234 0 401.346 401.346 0 004.476 7.48c.08.132.252.172.384.092.468-.286.93-.582 1.385-.888a.277.277 0 00.087-.373 4270.27 4270.27 0 01-5.345-8.937.547.547 0 00-.472-.267h-1.26a.55.55 0 00-.472.267 3436.463 3436.463 0 00-5.345 8.937.276.276 0 00.087.373z" clip-rule="evenodd"/><defs><linearGradient id="paint0_linear" x1="-4.702" x2="-4.702" y1="-9.404" y2="32" gradientUnits="userSpaceOnUse"><stop stop-color="#0E0E21"/><stop offset="1" stop-color="#1A1A4D"/></linearGradient></defs></svg>