<svg xmlns="http://www.w3.org/2000/svg" width="32" height="32"><defs><radialGradient id="a" cx="140.77%" cy="140.095%" r="167.681%" fx="140.77%" fy="140.095%"><stop offset="0%" stop-color="#FF64A5"/><stop offset="100%" stop-color="#F7F8FA"/></radialGradient></defs><g fill="none" fill-rule="evenodd"><path fill="url(#a)" d="M32 16c0-2.094-.417-4.188-1.218-6.123a16.047 16.047 0 00-3.468-5.19 16.047 16.047 0 00-5.191-3.47A16.055 16.055 0 0016 0c-2.094 0-4.188.417-6.123 1.218a16.047 16.047 0 00-5.19 3.468 16.047 16.047 0 00-3.47 5.191A16.055 16.055 0 000 16c0 2.094.417 4.188 1.218 6.123a16.047 16.047 0 003.468 5.19 16.047 16.047 0 005.191 3.47A16.055 16.055 0 0016 32c2.094 0 4.188-.417 6.123-1.218a16.047 16.047 0 005.19-3.468 16.047 16.047 0 003.47-5.191A16.055 16.055 0 0032 16z"/><g fill="#FF007A"><path d="M14.041 14.752c-.19.06-.358.193-.482.35-.124.157-.206.34-.236.546-.03.208-.01.442.11.58.122.14.342.184.55.192.207.008.402-.02.598-.068.196-.047.393-.113.55-.24.158-.127.276-.314.276-.504 0-.191-.117-.386-.26-.534a1.165 1.165 0 00-.507-.311 1.038 1.038 0 00-.599-.011zm10.645.422c-.447-.773-.987-1.037-1.61-1.154-.624-.117-1.331-.086-2.15-.174-.818-.088-1.747-.294-2.51-.834-.762-.54-1.358-1.414-2.104-2.37-.746-.957-1.642-1.995-3.6-2.292 1.672-.187 2.89.673 4.153 2.114 1.103-.176 2.276-.2 3.365.082a6.39 6.39 0 012.903 1.679c.808.809 1.42 1.84 1.553 2.949zm-6.293-1.527c-.144 1.417.478 2.214 1.379 2.823.9.61 2.08 1.03 2.941 1.381.86.35 1.401.63 1.881 1.02.48.392.9.896.839 1.802a3.872 3.872 0 00.382-3.292c-.33-.95-1.023-1.612-1.824-2.018-.801-.404-1.711-.551-2.747-.708-1.036-.157-2.198-.323-2.851-1.008zm-5.714-4.745c.981.188 1.309.551 1.515.909.207.357.292.708.362 1.04.07.333.126.647.215.911a2.9 2.9 0 00.318.647c.107.168.2.29.238.377.038.086.02.138-.03.169-.048.03-.128.042-.25.035-.122-.007-.286-.033-.577-.184-.291-.152-.709-.429-1.12-1.064a4.296 4.296 0 01-.67-2.84z"/><path d="M20.993 17.713c-.28.813-.128 1.568.151 2.217.28.649.684 1.192 1.044 1.701.36.51.676.983.94 1.587.263.603.475 1.336-.111 2.508 1.304-.628 1.782-1.51 2.023-2.247.24-.737.244-1.328.16-1.848a3.101 3.101 0 00-.569-1.404c-.318-.434-.785-.855-1.379-1.224-.593-.37-1.311-.69-2.259-1.29zm-6.42 3.899c.308-.224.506-.328.718-.424.212-.095.436-.182.718-.262.28-.08.618-.152.968-.214.349-.062.71-.113 1.026-.18.317-.067.589-.15.83-.266a2.18 2.18 0 00.633-.448 2.076 2.076 0 00.59-1.349c.017-.261-.002-.552-.24-1.33.394.432.54.783.608 1.143.069.36.06.728-.016 1.037-.076.309-.22.558-.423.809-.204.25-.468.502-.808.675-.34.172-.757.265-1.157.32-.4.055-.785.07-1.282.097-.497.026-1.106.063-2.165.392zm.282-6.223c.066-.121.022-.3-.084-.405-.106-.104-.273-.132-.442-.115-.17.017-.343.08-.408.2-.064.12-.02.295.084.4.105.104.27.137.44.121.17-.015.345-.08.41-.2zm-6.308 9.024a7.035 7.035 0 001.564-.417 4.477 4.477 0 001.037-.555c.287-.21.53-.456.658-.736.127-.28.139-.595.093-.846-.046-.252-.15-.44-.37-.647-.221-.207-.559-.434-.863-.68-.304-.245-.575-.51-.717-.814-.143-.304-.159-.647-.061-1.015.098-.367.309-.759.48-1.133a4.52 4.52 0 00.375-1.134c.07-.405.078-.855.147-1.157.069-.3.2-.452.388-.547.19-.095.437-.134.717-.186.28-.053.593-.12.86-.268.266-.148.485-.378.61-.623s.155-.505.159-.664c.004-.16-.02-.218-.106-.33-.088-.111-.24-.277-.606-.678-.366-.4-.947-1.036-1.7-1.848-.754-.813-1.68-1.802-2.443-2.62-.762-.817-1.361-1.463-1.697-1.81-.335-.347-.407-.395-.422-.381-.016.013.025.087.316.472.29.386.83 1.083 1.53 1.98.7.895 1.561 1.99 2.256 2.87.694.878 1.222 1.542 1.532 1.932.31.39.403.508.426.616a.302.302 0 01-.096.282.756.756 0 01-.31.159c-.129.04-.281.075-.425.064a.684.684 0 01-.4-.166c-.118-.1-.22-.246-.485-.634s-.694-1.017-1.11-1.607a59.085 59.085 0 00-1.058-1.455c-.24-.316-.316-.399-.334-.39-.018.01.022.111.21.464.189.352.526.956.874 1.599.349.643.71 1.326.901 1.697.192.372.215.431.196.513a.771.771 0 01-.171.298c-.094.112-.223.23-.335.423-.112.192-.206.457-.274.802-.067.345-.108.77-.196 1.151-.088.382-.224.72-.44 1.094a10.26 10.26 0 01-.823 1.17c-.308.388-.628.756-.846 1.158a2.617 2.617 0 00-.329 1.302c.007.465.137.96.316 1.375.18.415.407.75.598 1.056.19.306.345.584.374.864z"/><path d="M8.913 21.53a.682.682 0 00-.062-.666c-.108-.153-.287-.266-.468-.213-.134.039-.268.167-.257.28.012.111.167.208.183.33.016.125-.116.276-.09.38.028.108.226.167.377.145a.415.415 0 00.317-.257zm2.462 2.572c1.714-1.496 3.045-1.797 4.09-1.798 1.044-.001 1.803.299 2.292.732.49.433.71 1 .84 1.627.13.626.171 1.313.365 1.765.193.452.54.67.95.732.41.063.883-.028 1.536-.289-.479.383-.798.535-1.14.61a1.747 1.747 0 01-1.045-.069c-.34-.14-.656-.417-.914-.808-.259-.39-.46-.894-.678-1.35-.219-.455-.454-.863-.842-1.138-.388-.275-.929-.417-1.355-.32-.427.099-.74.437-.815.791-.075.355.087.726.348.945.262.218.622.284.884.225a.757.757 0 00.51-.421c.086-.175.093-.34.12-.446.026-.106.072-.15.114-.152.041-.001.078.042.104.138a1.092 1.092 0 01-.664 1.273 1.45 1.45 0 01-.818.048c-.285-.067-.553-.228-.812-.46-.258-.234-.508-.54-.794-.793a2.848 2.848 0 00-1.006-.587c-.398-.133-.87-.196-1.27-.255z"/></g></g></svg>