<svg width="32" height="32" fill="none" xmlns="http://www.w3.org/2000/svg"><path fill-rule="evenodd" clip-rule="evenodd" d="M32 16c0-8.828-7.172-16-16-16S0 7.172 0 16s7.172 16 16 16 16-7.172 16-16z" fill="#1A61F0"/><path fill-rule="evenodd" clip-rule="evenodd" d="M19.254 19.177v6.163h2.614L21.87 18a2.88 2.88 0 00-2.88-2.881h-4.979c-.698 0-1.266-.672-1.266-1.5V7.454h-2.614l-.003 7.342a2.88 2.88 0 002.88 2.88h4.979c.698 0 1.266.673 1.266 1.5zM19.98 7.454l1.888.017v5.54c-1.913 0-2.614-1.583-2.614-3.312V7.454h.726zM12.02 25.34l-1.888-.017v-5.54c1.913 0 2.614 1.583 2.614 3.312v2.245h-.726z" fill="#fff"/></svg>