<svg width="32" height="32" fill="none" xmlns="http://www.w3.org/2000/svg"><path fill-rule="evenodd" clip-rule="evenodd" d="M32 16c0-2.094-.417-4.188-1.218-6.123a16.058 16.058 0 00-3.468-5.19 16.051 16.051 0 00-5.191-3.47A16.054 16.054 0 0016 0c-2.094 0-4.188.417-6.123 1.218a16.055 16.055 0 00-5.19 3.468 16.05 16.05 0 00-3.47 5.191A16.049 16.049 0 000 16c0 2.094.416 4.188 1.218 6.123a16.056 16.056 0 003.468 5.19 16.055 16.055 0 005.19 3.469A16.056 16.056 0 0016 32c2.094 0 4.188-.417 6.123-1.218a16.051 16.051 0 005.19-3.468 16.063 16.063 0 003.47-5.191A16.054 16.054 0 0032 16z" fill="#fff"/><path fill-rule="evenodd" clip-rule="evenodd" d="M11.855 3.384a13.267 13.267 0 0113.213 2.914 13.155 13.155 0 013.417 5.189c.71 1.99.946 4.19.672 6.284a13.194 13.194 0 01-2.243 5.795 13.207 13.207 0 01-4.64 4.134 13.622 13.622 0 01-6.12 1.576 13.207 13.207 0 01-6.059-1.381 13.19 13.19 0 01-4.763-3.991 13.662 13.662 0 01-2.444-5.83 13.13 13.13 0 01.487-6.193 13.392 13.392 0 012.23-4.145H4.12V5.282h5.817v5.431H7.483V9.23a10.961 10.961 0 00-1.827 3.397 10.787 10.787 0 00-.4 5.07 11.107 11.107 0 002.81 5.75 10.952 10.952 0 006.8 3.375 11.023 11.023 0 007.351-1.892 10.999 10.999 0 004.325-6.24c.637-2.5.342-5.237-.807-7.547a10.919 10.919 0 00-5.546-5.183c-2.394-.99-5.181-1.085-7.585-.295l-.75-2.28z" fill="url(#paint0_linear)"/><path fill-rule="evenodd" clip-rule="evenodd" d="M22.81 19a4.487 4.487 0 00-4.484-4.485A4.487 4.487 0 0013.842 19a4.487 4.487 0 004.484 4.484A4.487 4.487 0 0022.811 19z" fill="#000"/><path fill-rule="evenodd" clip-rule="evenodd" d="M20.304 18.361c.089-.597-.365-.918-.987-1.132l.202-.808-.492-.123-.197.787c-.129-.032-.262-.063-.394-.093l.197-.791-.49-.123-.203.808-.051-.012c-.09-.02-.177-.04-.263-.062v-.003l-.678-.17-.13.527c.018.004.364.084.356.088.2.05.236.182.23.287l-.552 2.214c-.025.06-.087.152-.226.117.005.007-.281-.069-.346-.086l-.012-.003-.244.563.64.16.202.052.149.038-.204.818.492.122.202-.808c.134.036.264.07.392.101l-.2.805.491.123.204-.816c.838.159 1.47.095 1.736-.665.214-.61-.012-.963-.453-1.193.322-.074.563-.285.629-.722zm-1.125 1.576c-.14.56-1.015.33-1.417.224l-.097-.025.27-1.084.122.029c.416.093 1.265.284 1.122.856zm-1.04-1.36c.335.09 1.065.285 1.192-.225.13-.521-.58-.679-.927-.755a3.777 3.777 0 01-.1-.024l-.245.983.08.021z" fill="#fff"/><path fill-rule="evenodd" clip-rule="evenodd" d="M13.781 10.24c-.356.775-.944 1.68-1.655 2.612-.71.933-1.545 1.895-2.04 2.914a6.3 6.3 0 00-.612 2.986c.04.892.273 1.6.752 2.312.478.712 1.201 1.428 2.032 1.845.83.417 1.768.533 2.253.574.486.04.52.004.538-.043.018-.046.02-.102-.115-.23-.134-.127-.403-.325-.73-.653a4.29 4.29 0 01-.99-1.484 5.97 5.97 0 01-.387-2.436c.054-.807.328-1.49.547-2.03.22-.54.385-.936.523-1.372.138-.436.25-.913.38-1.659s.28-1.762.348-2.614c.069-.853.056-1.542.043-1.967a7.679 7.679 0 00-.044-.707.736.736 0 00-.056-.245c-.026-.046-.063-.055-.096-.027-.032.028-.059.095-.134.45-.076.356-.2 1-.557 1.775z" fill="url(#paint1_linear)"/><path fill-rule="evenodd" clip-rule="evenodd" d="M16.307 11.881c.198.289.448.578.687.822.238.244.466.444.596.574.131.13.165.19.149.224-.017.033-.083.041-.234.061a4.6 4.6 0 00-.695.143 5.971 5.971 0 00-.996.39 4.896 4.896 0 00-.688.434c-.146.108-.203.152-.243.165-.04.014-.063-.004-.071-.048-.008-.045-.001-.117.042-.301.043-.184.122-.48.192-.891.07-.41.13-.936.168-1.388.038-.453.054-.834.079-1.065.024-.231.058-.313.106-.363.049-.05.112-.068.167-.05.055.019.103.074.143.15.04.078.075.177.165.371.09.194.235.483.433.772z" fill="url(#paint2_linear)"/><path fill-rule="evenodd" clip-rule="evenodd" d="M12.361 22.96c.804.375 1.685.484 2.15.523.486.04.52.004.538-.043.018-.046.02-.102-.115-.23-.134-.127-.403-.325-.73-.653a4.289 4.289 0 01-.99-1.484 5.97 5.97 0 01-.387-2.436c.054-.807.328-1.49.547-2.03.22-.54.385-.936.523-1.372.138-.436.25-.913.38-1.659s.28-1.762.348-2.614a17.224 17.224 0 00.012-2.553c.041 1.29-.273 2.384-.64 3.35a17.085 17.085 0 01-1.255 2.605c-.468.797-.982 1.554-1.388 2.306-.405.752-.702 1.5-.791 2.261-.09.762.029 1.536.296 2.244.268.707.686 1.346 1.502 1.784z" fill="url(#paint3_linear)"/><path fill-rule="evenodd" clip-rule="evenodd" d="M15.324 10.802c-.044.883.156 2.385 1.068 3.041a5.6 5.6 0 00-.578.251 4.896 4.896 0 00-.688.435c-.146.108-.203.152-.243.165-.04.014-.063-.004-.071-.048-.008-.045-.001-.117.042-.301.043-.184.122-.48.192-.891.07-.41.13-.936.168-1.388.038-.453.054-.834.079-1.065.009-.084.019-.15.03-.2z" fill="url(#paint4_linear)"/><defs><linearGradient id="paint0_linear" x1="2.043" y1="13.297" x2="15.222" y2="29.576" gradientUnits="userSpaceOnUse"><stop stop-color="#004CFF"/><stop offset=".252" stop-color="#00E0FB"/><stop offset=".506" stop-color="#87FF70"/><stop offset=".755" stop-color="#F8F500"/><stop offset="1" stop-color="#FF1A00"/></linearGradient><linearGradient id="paint1_linear" x1="9.469" y1="8" x2="9.469" y2="23.5" gradientUnits="userSpaceOnUse"><stop offset="0" stop-color="#D1D1D1"/><stop offset="1" stop-color="#585858"/></linearGradient><linearGradient id="paint2_linear" x1="14.809" y1="10.581" x2="14.809" y2="14.699" gradientUnits="userSpaceOnUse"><stop offset="0" stop-color="#D1D1D1"/><stop offset="1" stop-color="#585858"/></linearGradient><linearGradient id="paint3_linear" x1="10.533" y1="8.409" x2="10.533" y2="23.5" gradientUnits="userSpaceOnUse"><stop offset="0" stop-color="#9B9B9B"/><stop offset="1"/></linearGradient><linearGradient id="paint4_linear" x1="14.809" y1="10.802" x2="14.809" y2="14.699" gradientUnits="userSpaceOnUse"><stop offset="0" stop-color="#9B9B9B"/><stop offset="1"/></linearGradient></defs></svg>