<svg xmlns="http://www.w3.org/2000/svg" width="32" height="32"><defs><linearGradient id="a" x1="50%" x2="50%" y1="0%" y2="100%"><stop offset="0%" stop-color="#FF1A00"/><stop offset="24.495%" stop-color="#F8F500"/><stop offset="49.429%" stop-color="#87FF70"/><stop offset="74.787%" stop-color="#00E0FB"/><stop offset="100%" stop-color="#004CFF"/></linearGradient></defs><g fill="none" fill-rule="evenodd"><path fill="url(#a)" d="M7.187 28.145l-.888-.283-.872-.51-.883-.752-.727-.868-.665-1.032-.581-1.172-.548-1.46-.655-2.03-.608-2.256-.198-.826-.298-1.777-.116-.927-.129-1.729.034-1.723.211-1.7.356-1.582.235-.995.513-1.41.621-1.151 1.357-1.841.775-.668.85-.602.752-.379L6.798.155l1.93-.134 1.648.172 1.944.391 2.163.634 2.283.815 2.279.971.218.074 2.203 1.096 1.944 1.192 1.508 1.225.404.29 1.416 1.608.316.511.742 1.716.213.659.145.718.06.734v.801l-.058.701-.286 1.434-.193.636-.238.557-.332.562-.369.464-.383.316-1.085.591-1.269.43-1.829.479-1.767.433-2.122.507-1.55.424-.586.14-2.007.638-.946.361-.411.152-.118.574-.243.706-.217.6-.236.513-.567 1.071-.692.889-.75.659-1.036.543-.878.171z"/><g fill-rule="nonzero"><path fill="#FBF100" d="M11.898 8.149l-.244.338.207 1.709.193-.398z"/><path fill="#A40000" d="M8.729 0L7.424.08l.644.23L9.212.23z"/><path fill="#FFAE00" d="M11.669 6.548l-.321.28.305 1.658.245-.338z"/><path fill="#A80000" d="M9.212.23L8.068.31l.645.509.983-.091z"/><path fill="#FF7300" d="M11.373 5.04l-.421.228.396 1.561.321-.281z"/><path fill="#B60000" d="M9.695.728l-.982.091.628.774.825-.111z"/><path fill="#FF3F00" d="M11.016 3.668l-.54.181.475 1.419.422-.228z"/><path fill="#D60000" d="M10.166 1.482l-.825.112.593 1.019.677-.142z"/><path fill="#FF1300" d="M10.61 2.471l-.676.142.542 1.236.54-.181z"/></g><g fill-rule="nonzero"><path fill="#16FFE1" d="M14.527 13.508l-1.132.238-.055 1.275 1.175-.307z"/><path fill="#4DFFAA" d="M14.537 12.201l-1.111.159-.031 1.386 1.132-.238z"/><path fill="#80FF77" d="M14.545 10.826l-1.114.073-.005 1.461 1.111-.159z"/><path fill="#B7FF40" d="M14.55 9.42l-1.141-.017.021 1.496 1.115-.073z"/><path fill="#EBFF0C" d="M14.553 8.021l-1.192-.11.048 1.492 1.141.017z"/><path fill="#ED0400" d="M14.484 1.19L12.32.567l.162.205 2.017.599z"/><path fill="#FC0" d="M14.553 6.666l-1.264-.201.072 1.446 1.192.11z"/><path fill="#F10800" d="M14.499 1.372l-2.018-.6.161.447 1.871.562z"/><path fill="#FF9800" d="M14.55 5.394l-1.356-.29.095 1.361 1.264.201z"/><path fill="#FF1300" d="M14.513 1.781l-1.87-.562.156.678 1.727.51z"/><path fill="#FF6C00" d="M14.545 4.239l-1.467-.373.116 1.237 1.356.291z"/><path fill="#FF2900" d="M14.525 2.407l-1.727-.511.147.891 1.591.447z"/><path fill="#FF4700" d="M14.536 3.235l-1.591-.447.133 1.079 1.467.372z"/></g><g fill-rule="nonzero"><path fill="#13FCE4" d="M13.396 13.746l-.834.363-.103 1.341.881-.428z"/><path fill="#49FFAD" d="M13.426 12.36l-.811.289-.054 1.459.834-.362z"/><path fill="#80FF77" d="M13.43 10.899l-.869.21.054 1.54.811-.289z"/><path fill="#BAFF3C" d="M13.409 9.403l-.842.127.05 1.579.813-.21z"/><path fill="#F1FC06" d="M13.361 7.911l-.895.043.101 1.576.841-.127z"/><path fill="#D10000" d="M12.32.567L10.376.165l.32.221 1.785.386z"/><path fill="#FFC100" d="M13.289 6.464l-.973-.04.15 1.53.895-.043z"/><path fill="#D60000" d="M12.482.772L10.696.386l.32.477 1.627.356z"/><path fill="#FF8900" d="M13.194 5.103l-1.072-.119.194 1.44.973.04z"/><path fill="#E40000" d="M12.643 1.219L11.016.863l.311.721 1.472.312z"/><path fill="#FF5D00" d="M13.078 3.866l-1.191-.192.235 1.31 1.072.12z"/><path fill="#FF1300" d="M12.799 1.897l-1.472-.312.293.945 1.325.257z"/><path fill="#FF3400" d="M12.945 2.787L11.62 2.53l.267 1.144 1.191.192z"/></g><g fill-rule="nonzero"><path fill="#1CFFDB" d="M15.893 13.398l-1.367.11-.012 1.207 1.405-.183z"/><path fill="#50FFA7" d="M15.886 12.172l-1.35.028-.01 1.308 1.367-.111z"/><path fill="#80FF77" d="M15.897 10.888l-1.353-.062-.007 1.375 1.349-.028z"/><path fill="#B4FF43" d="M15.926 9.577l-1.377-.157-.005 1.406 1.353.061z"/><path fill="#E4FF13" d="M15.974 8.276l-1.422-.255-.002 1.399 1.377.158z"/><path fill="gold" d="M16.038 7.02l-1.486-.354V8.02l1.422.256z"/><path fill="#FF1E00" d="M16.765 2.007l-2.282-.817.015.182 2.153.789z"/><path fill="#FFA700" d="M16.117 5.843l-1.568-.449.003 1.272 1.486.354z"/><path fill="#FF1E00" d="M16.651 2.161l-2.152-.79.014.41 2.023.746z"/><path fill="#FF7E00" d="M16.209 4.778l-1.666-.539.006 1.155 1.568.449z"/><path fill="#FF2900" d="M16.536 2.527l-2.023-.746.012.626 1.896.69z"/><path fill="#FF5900" d="M16.311 3.854l-1.776-.62.008 1.005 1.665.538z"/><path fill="#FF3B00" d="M16.421 3.096l-1.896-.689.011.827 1.775.619z"/></g><g fill-rule="nonzero"><path fill="#0CF" d="M12.611 22.471l1.837-.694-.366.194-1.864.709z"/><path fill="#00DCFE" d="M12.97 22.154l1.813-.672-.335.295-1.837.694z"/><path fill="#09F0EE" d="M13.286 21.735l1.792-.642-.295.389-1.813.672z"/><path fill="#1CFFDB" d="M13.55 21.227l1.776-.605-.248.472-1.792.642z"/><path fill="#33FFC4" d="M13.757 20.641l1.763-.563-.194.544-1.775.605z"/><path fill="#4DFFAA" d="M13.898 19.991l1.756-.516-.134.602-1.764.563z"/><path fill="#63FF94" d="M13.972 19.295l1.753-.465-.071.645-1.756.516z"/><path fill="#7DFF7A" d="M13.975 18.57l1.756-.412-.006.672-1.753.465z"/><path fill="#97FF60" d="M13.907 17.836l1.763-.358.06.68-1.755.412z"/><path fill="#B1FF46" d="M13.77 17.111l1.776-.304.124.671-1.763.357z"/><path fill="#C7FF30" d="M13.567 16.415l1.793-.253.186.645-1.776.304z"/><path fill="#DEFF19" d="M13.303 15.767l1.813-.204.243.6-1.792.252z"/><path fill="#FC0" d="M10.917 13.708l1.992-.05.409.066-1.96.056z"/><path fill="#F1FC06" d="M12.985 15.184l1.839-.161.293.54-1.814.204z"/><path fill="#FC0" d="M11.358 13.78l1.96-.056.407.176-1.928.07z"/><path fill="#FFEA00" d="M12.621 14.681l1.867-.123.336.465-1.839.16z"/><path fill="#FFD000" d="M11.797 13.97l1.928-.07.393.28-1.896.093z"/><path fill="#FFDB00" d="M12.221 14.273l1.897-.093.369.378-1.866.123z"/></g><g fill-rule="nonzero"><path fill="#BEFF39" d="M12.566 9.53l-.513.267.078 1.653.485-.341z"/><path fill="#F8F500" d="M12.465 7.954l-.567.194.155 1.65.513-.268z"/><path fill="#B00" d="M10.375.165L8.728 0l.483.23 1.484.156z"/><path fill="#FFB900" d="M12.315 6.424l-.646.124.229 1.6.567-.194z"/><path fill="#BF0000" d="M10.695.386L9.211.23l.484.498 1.32.135z"/><path fill="#FF7E00" d="M12.121 4.984l-.749.056.296 1.507.647-.123z"/><path fill="#CD0000" d="M11.015.863L9.695.729l.471.753 1.16.102z"/><path fill="#FF4E00" d="M11.887 3.674l-.871-.005.356 1.371.749-.056z"/><path fill="#E80000" d="M11.326 1.584l-1.16-.102.444.989 1.009.059z"/><path fill="#F20" d="M11.619 2.53l-1.009-.059.406 1.198.87.005z"/></g><g fill-rule="nonzero"><path fill="#00D0FF" d="M11.476 22.866l1.494-.713-.359.317-1.524.741z"/><path fill="#00E4F8" d="M11.818 22.411l1.467-.677-.316.419-1.493.713z"/><path fill="#16FFE1" d="M12.104 21.857l1.446-.631-.264.508-1.468.677z"/><path fill="#2CFFCA" d="M12.326 21.219l1.43-.579-.206.586-1.446.632z"/><path fill="#46FFB1" d="M12.478 20.511l1.42-.521-.142.65-1.43.579z"/><path fill="#63FF94" d="M12.556 19.751l1.416-.457-.074.696-1.42.52z"/><path fill="#7DFF7A" d="M12.556 18.96l1.419-.392-.004.725-1.416.458z"/><path fill="#9AFF5D" d="M12.48 18.159l1.427-.325.067.735-1.418.392z"/><path fill="#B7FF40" d="M12.328 17.368l1.442-.258.137.724-1.427.325z"/><path fill="#D1FF26" d="M12.104 16.608l1.463-.194.203.695-1.442.259z"/><path fill="#E7FF0F" d="M11.815 15.9l1.488-.135.264.649-1.462.194z"/><path fill="#FBF100" d="M11.466 15.263l1.519-.081.318.583-1.488.135z"/><path fill="#FFDB00" d="M11.068 14.714l1.553-.034.364.502-1.519.081z"/></g><g fill-rule="nonzero"><path fill="#00B4FF" d="M1.211 19.543l.254.825-.427-1.622-.262-.859z"/><path fill="#16FFE1" d="M.548 16.957l.234.96.257.829-.28-1.68-.396-1.404z"/><path fill="#56FFA0" d="M.49 16.17l.269.895-.123-1.698-.273-.932z"/><path fill="#97FF60" d="M.363 14.435l.272.932.037-1.673-.273-.97z"/><path fill="#D4FF23" d="M.4 12.724l.273.97.198-1.605-.27-1.006z"/><path fill="gold" d="M.6 11.083l.27 1.006.356-1.496-.264-1.04z"/><path fill="#FF9400" d="M.963 9.553l.264 1.04.507-1.344-.255-1.072z"/><path fill="#FF5900" d="M1.479 8.177l.255 1.072.647-1.157-.243-1.1z"/><path fill="#FF2500" d="M2.137 6.993l.243 1.099.771-.936-.228-1.123z"/><path fill="#C1FF36" d="M13.088 14.801l.026.949.163 1.744-.022-.911z"/><path fill="#DF0000" d="M2.923 6.034l.228 1.122.875-.687-.211-1.14z"/><path fill="#FFEA00" d="M12.754 13.036l.032.988.328 1.726-.026-.949z"/><path fill="#B00" d="M3.815 5.328l.211 1.141.957-.417-.192-1.153z"/><path fill="#FFA700" d="M12.258 11.337l.043 1.025.486 1.662-.033-.988z"/><path fill="#9F0000" d="M4.79 4.899l.193 1.152 1.012-.133-.172-1.158z"/><path fill="#FF6C00" d="M11.614 9.752l.056 1.058.631 1.552-.042-1.025z"/><path fill="#920000" d="M5.823 4.76l.172 1.158 1.041.156-.151-1.157z"/><path fill="#FF3400" d="M10.838 8.324l.072 1.089.76 1.397-.056-1.058z"/><path fill="#960000" d="M6.885 4.918l.151 1.157 1.041.443-.13-1.149z"/><path fill="#F10800" d="M9.952 7.096l.089 1.115.869 1.202-.072-1.089z"/><path fill="#A40000" d="M7.947 5.369l.13 1.149 1.01.719-.108-1.135z"/><path fill="#C40000" d="M8.979 6.102l.108 1.135.954.974-.09-1.115z"/></g><g fill-rule="nonzero"><path fill="#53FFA4" d="M.258 15.218l.233.951-.127-1.735-.235-.973z"/><path fill="#97FF60" d="M.129 13.461l.235.973.036-1.71-.235-.996z"/><path fill="#D7FF1F" d="M.164 11.728l.236.996.201-1.641-.235-1.018z"/><path fill="#FFD300" d="M.366 10.064L.6 11.082l.363-1.529-.232-1.039z"/><path fill="#FF9100" d="M.731 8.514l.232 1.039.516-1.376-.227-1.059z"/><path fill="#FF5200" d="M1.253 7.118l.226 1.059.659-1.185-.22-1.076z"/><path fill="#FF1E00" d="M1.918 5.916l.22 1.076.786-.959-.213-1.091z"/><path fill="#D60000" d="M2.71 4.942l.213 1.091.892-.705-.204-1.102z"/><path fill="#AD0000" d="M3.612 4.226l.203 1.102.976-.43-.193-1.11z"/><path fill="#FFA300" d="M12.148 10.297l.111 1.04.495 1.698-.105-1.018z"/><path fill="#920000" d="M4.597 3.788l.194 1.11 1.033-.139-.183-1.114z"/><path fill="#FF6400" d="M11.496 8.692l.119 1.06.644 1.585-.111-1.04z"/><path fill="#840000" d="M5.641 3.645l.183 1.115 1.062.157-.171-1.115z"/><path fill="#FF2D00" d="M10.711 7.247l.127 1.077.776 1.427-.118-1.06z"/><path fill="#890000" d="M6.714 3.802l.172 1.115 1.061.451-.159-1.111z"/><path fill="#E40000" d="M9.815 6.003l.137 1.092.887 1.229-.127-1.078z"/><path fill="#9B0000" d="M7.788 4.257l.159 1.111 1.032.733-.148-1.103z"/><path fill="#B00" d="M8.831 4.998l.148 1.103.973.995-.137-1.092z"/><path fill="#13FCE4" d="M.421 15.997l.127.959-.289-1.738-.128-.966z"/></g><g fill-rule="nonzero"><path fill="#19FFDE" d="M1.039 18.745l.244.753-.27-1.631-.253-.803z"/><path fill="#56FFA0" d="M.76 17.064l.253.803-.12-1.647-.257-.854z"/><path fill="#94FF63" d="M.636 15.366l.257.854.037-1.622-.257-.905z"/><path fill="#D1FF26" d="M.673 13.693l.257.905.193-1.556-.252-.954z"/><path fill="#FFDB00" d="M.871 12.087l.253.955.347-1.448-.244-1.002z"/><path fill="#FF9C00" d="M1.227 10.592l.243 1.002.494-1.302-.23-1.045z"/><path fill="#FF6000" d="M1.734 9.248l.23 1.044.629-1.119-.212-1.082z"/><path fill="#FF3000" d="M2.381 8.091l.212 1.082.749-.905-.19-1.113z"/><path fill="#C1FF36" d="M13.115 15.75l-.1.864.158 1.69.104-.811z"/><path fill="#F10800" d="M3.151 7.155l.19 1.113.85-.663-.165-1.137z"/><path fill="#FBF100" d="M12.787 14.023l-.091.917.319 1.674.1-.865z"/><path fill="#C80000" d="M4.026 6.468l.165 1.137.929-.402-.137-1.152z"/><path fill="#FFAE00" d="M12.302 12.361l-.077.968.472 1.611.09-.917z"/><path fill="#AD0000" d="M4.983 6.051l.138 1.152.983-.127-.108-1.159z"/><path fill="#FF7300" d="M11.67 10.81l-.058 1.016.613 1.504.076-.969z"/><path fill="#A40000" d="M5.996 5.917l.108 1.159 1.01.154-.077-1.157z"/><path fill="#FF3F00" d="M10.91 9.413l-.036 1.058.738 1.355.058-1.017z"/><path fill="#A40000" d="M7.037 6.074l.078 1.156 1.01.431-.048-1.144z"/><path fill="#FF1300" d="M10.041 8.21l-.01 1.095.843 1.166.036-1.059z"/><path fill="#B60000" d="M8.077 6.517l.048 1.145.981.698-.018-1.124z"/><path fill="#D10000" d="M9.088 7.235l.018 1.124.925.946.01-1.095z"/><path fill="#00BCFF" d="M1.465 20.367l.232.705-.414-1.574-.244-.753z"/></g><g fill-rule="nonzero"><path fill="#00C4FF" d="M1.697 21.072l.18.557-.398-1.514-.196-.618z"/><path fill="#1CFFDB" d="M1.284 19.498l.195.618-.26-1.568-.206-.681z"/><path fill="#56FFA0" d="M1.012 17.867l.207.681-.115-1.583-.211-.745z"/><path fill="#94FF63" d="M.893 16.22l.211.745.037-1.559-.211-.808z"/><path fill="#CEFF29" d="M.93 14.598l.211.809.187-1.494-.205-.87z"/><path fill="#00B0FF" d="M12.684 23.027l-.232.494-.446 1.273.214-.443z"/><path fill="#FFE200" d="M1.123 13.042l.205.871.335-1.39-.193-.929z"/><path fill="#0CF4EB" d="M13.004 21.552l-.245.552-.306 1.417.232-.494z"/><path fill="#FFA300" d="M1.47 11.594l.192.929.476-1.249-.174-.982z"/><path fill="#46FFB1" d="M13.169 19.964l-.252.615-.158 1.525.245-.552z"/><path fill="#FF6C00" d="M1.964 10.292l.174.982.606-1.073-.151-1.028z"/><path fill="#80FF77" d="M13.173 18.304l-.253.68-.003 1.595.252-.615z"/><path fill="#FF3B00" d="M2.593 9.173l.15 1.028.721-.866-.123-1.067z"/><path fill="#BEFF39" d="M13.015 16.614l-.248.747.153 1.623.254-.681z"/><path fill="#FF1300" d="M3.341 8.268l.123 1.066.818-.634-.09-1.096z"/><path fill="#F8F500" d="M12.696 14.94l-.236.815.307 1.606.248-.747z"/><path fill="#DA0000" d="M4.192 7.604l.09 1.096.894-.383-.055-1.114z"/><path fill="#FFB600" d="M12.225 13.329l-.219.879.454 1.547.236-.815z"/><path fill="#C40000" d="M5.121 7.203l.054 1.114.946-.12-.017-1.121z"/><path fill="#FF7E00" d="M11.612 11.826l-.196.938.59 1.444.219-.879z"/><path fill="#B60000" d="M6.104 7.076l.017 1.121.972.15.022-1.117z"/><path fill="#FF4A00" d="M10.874 10.472l-.167.992.709 1.3.196-.938z"/><path fill="#B00" d="M7.115 7.23l-.023 1.117.971.416.062-1.102z"/><path fill="#FF1E00" d="M10.031 9.305l-.135 1.038.811 1.121.167-.992z"/><path fill="#C80000" d="M8.125 7.661l-.062 1.102.943.671.1-1.075z"/><path fill="#E40000" d="M9.106 8.36l-.099 1.075.889.908.135-1.038z"/></g><g fill-rule="nonzero"><path fill="#00C4FF" d="M10.516 22.377l1.983-.684-.375-.324-2.012.659z"/><path fill="#00D0FF" d="M10.112 22.029l2.012-.66-.347-.412-2.041.626z"/><path fill="#00E0FB" d="M9.737 21.583l2.04-.627-.311-.491-2.066.588z"/><path fill="#0FF8E7" d="M9.4 21.053l2.066-.588-.266-.558-2.089.545z"/><path fill="#00B4FF" d="M8.81 23.107l1.706-.729-.404-.35-1.743.698z"/><path fill="#00C0FF" d="M8.369 22.726l1.743-.697-.375-.446-1.777.658z"/><path fill="#00A8FF" d="M9.271 23.374l1.669-.751-.423-.245-1.707.729z"/><path fill="#23FFD4" d="M9.111 20.451l2.088-.544-.215-.611-2.108.497z"/><path fill="#00D4FF" d="M7.96 22.241l1.777-.658-.337-.53-1.808.611z"/><path fill="#00A8FF" d="M9.742 23.521l1.63-.765-.432-.133-1.668.751z"/><path fill="#06ECF1" d="M7.592 21.663l1.808-.61-.289-.601-1.836.556z"/><path fill="#39FFBE" d="M8.876 19.793l2.107-.496-.158-.648-2.124.446z"/><path fill="#00A8FF" d="M10.208 23.542l1.594-.766-.43-.02-1.631.765z"/><path fill="#1CFFDB" d="M7.274 21.007l1.836-.556-.234-.658-1.86.497z"/><path fill="#53FFA4" d="M8.702 19.095l2.123-.446-.098-.669-2.134.393z"/><path fill="#36FFC1" d="M7.016 20.291l1.86-.497-.175-.699-1.878.434z"/><path fill="#6DFF8A" d="M8.593 18.374l2.134-.393-.035-.673-2.14.34z"/><path fill="#50FFA7" d="M6.824 19.529l1.878-.434-.109-.721-1.891.369z"/><path fill="#87FF70" d="M8.552 17.648l2.14-.34.03-.659-2.141.288z"/><path fill="#6AFF8D" d="M6.702 18.743l1.891-.369-.041-.726-1.898.304z"/><path fill="#A0FF56" d="M8.581 16.937l2.142-.288.094-.63-2.137.239z"/><path fill="#87FF70" d="M6.654 17.952l1.898-.304.029-.711-1.899.239z"/><path fill="#B7FF40" d="M8.68 16.258l2.138-.239.157-.582-2.129.192z"/><path fill="#A4FF53" d="M6.683 17.176l1.898-.239.099-.679-1.894.178z"/><path fill="#D1FF26" d="M8.846 15.629l2.129-.192.215-.52-2.116.151z"/><path fill="#BEFF39" d="M6.786 16.436l1.894-.178.165-.629-1.882.121z"/><path fill="#E4FF13" d="M9.074 15.067l2.116-.151.268-.444-2.097.115z"/><path fill="#D7FF1F" d="M6.963 15.75l1.882-.121.229-.561-1.864.069z"/><path fill="#EEFF09" d="M7.209 15.137l1.865-.07.286-.48-1.841.026z"/><path fill="#FFEA00" d="M7.519 14.613l1.841-.025.337-.386-1.814-.01z"/><path fill="gold" d="M7.883 14.192l1.814.011.379-.28-1.782-.036z"/></g><g fill-rule="nonzero"><path fill="#00F" d="M5.427 27.352l-.091-.069-.79-.683.046.03z"/><path fill="#0010FF" d="M4.592 26.63l-.046-.03-.736-.868.004-.02z"/><path fill="#0000F1" d="M6.299 27.862l-.138-.098-.825-.481.091.069z"/><path fill="#0038FF" d="M3.814 25.712l-.004.02-.664-1.032-.035-.08z"/><path fill="#0000E8" d="M7.187 28.145l-.188-.113-.839-.268.139.098z"/><path fill="#0064FF" d="M3.112 24.62l.035.079-.576-1.171-.068-.148z"/><path fill="#0000ED" d="M8.069 28.195l-.236-.116L7 28.032l.187.113z"/><path fill="#0098FF" d="M2.502 23.381l.069.147-.473-1.283-.096-.222z"/><path fill="#00F" d="M8.924 28.009l-.284-.106-.807.176.236.116z"/><path fill="#00D4FF" d="M2.002 22.023l.095.222-.358-1.363-.117-.302z"/><path fill="#0008FF" d="M9.731 27.589l-.329-.083-.761.397.283.105z"/><path fill="#26FFD1" d="M1.623 20.58l.117.302-.234-1.411-.131-.385z"/><path fill="#002CFF" d="M10.468 26.945l-.37-.048-.696.609.328.083z"/><path fill="#5AFF9D" d="M1.375 19.086l.131.385-.102-1.423-.137-.47z"/><path fill="#0054FF" d="M11.117 26.09h-.407l-.612.807.37.048z"/><path fill="#90FF66" d="M1.267 17.578l.137.47.034-1.4-.136-.553z"/><path fill="#08F" d="M11.661 25.045l-.439.057-.512.988.407.001z"/><path fill="#C7FF30" d="M1.302 16.095l.135.553.17-1.341-.126-.634z"/><path fill="#00C4FF" d="M12.085 23.833l-.464.125-.398 1.144.438-.057z"/><path fill="#FBF100" d="M1.481 14.673l.126.634.302-1.246-.108-.71z"/><path fill="#16FFE1" d="M12.376 22.484l-.482.201-.273 1.273.464-.125z"/><path fill="#FFB900" d="M1.801 13.351l.108.71.429-1.118-.084-.779z"/><path fill="#4DFFAA" d="M12.524 21.032l-.491.283-.139 1.37.481-.201z"/><path fill="#FF8600" d="M2.254 12.164l.084.78.545-.96-.052-.839z"/><path fill="#80FF77" d="M12.527 19.514l-.494.369v1.432l.492-.283z"/><path fill="#FF5D00" d="M2.832 11.145l.051.839.649-.773-.014-.888z"/><path fill="#B7FF40" d="M12.379 17.97l-.486.458.14 1.455.494-.369z"/><path fill="#FF3800" d="M3.518 10.323l.014.888.735-.565.031-.924z"/><path fill="#EBFF0C" d="M12.086 16.442l-.472.545.279 1.441.486-.458z"/><path fill="#FF1A00" d="M4.297 9.722l-.03.924.802-.339.079-.947z"/><path fill="#FFC800" d="M11.652 14.97l-.448.63.41 1.387.472-.546z"/><path fill="#F10800" d="M5.149 9.359l-.08.948.849-.103.131-.956z"/><path fill="#FF9400" d="M11.09 13.597l-.417.709.531 1.295.448-.63z"/><path fill="#E80000" d="M6.048 9.248l-.13.956.872.137.183-.949z"/><path fill="#FF6800" d="M10.414 12.36l-.379.781.638 1.165.417-.709z"/><path fill="#ED0400" d="M6.973 9.392l-.183.949.872.376.236-.927z"/><path fill="#FF4300" d="M9.642 11.294l-.335.841.728 1.005.379-.78z"/><path fill="#FA0F00" d="M7.897 9.789l-.235.927.846.604.287-.891z"/><path fill="#F20" d="M8.796 10.429l-.288.891.799.816.335-.842z"/></g><g fill-rule="nonzero"><path fill="#0CF" d="M1.876 21.63l.125.393-.379-1.443-.144-.464z"/><path fill="#1FFFD7" d="M1.478 20.116l.145.464-.248-1.494-.156-.538z"/><path fill="#0018FF" d="M10.752 26.788l-.285.157-.737.644.248-.125z"/><path fill="#5AFF9D" d="M1.218 18.548l.157.538-.109-1.508-.162-.613z"/><path fill="#04F" d="M11.434 25.891l-.317.199-.65.855.285-.157z"/><path fill="#94FF63" d="M1.104 16.964l.163.614.035-1.484-.162-.688z"/><path fill="#007CFF" d="M12.006 24.794l-.345.251-.544 1.046.317-.2z"/><path fill="#CAFF2C" d="M1.14 15.406l.162.688.178-1.421-.153-.761z"/><path fill="#00B8FF" d="M12.452 23.521l-.368.311-.423 1.213.345-.252z"/><path fill="#FFEA00" d="M1.327 13.912l.153.761.32-1.322-.138-.829z"/><path fill="#0FF8E7" d="M12.758 22.104l-.383.38-.291 1.348.368-.311z"/><path fill="#FFAE00" d="M1.662 12.523l.138.828.453-1.187-.116-.89z"/><path fill="#49FFAD" d="M12.917 20.579l-.393.453-.149 1.452.384-.38z"/><path fill="#FF7A00" d="M2.137 11.273l.117.891.577-1.019-.088-.945z"/><path fill="#80FF77" d="M12.92 18.984l-.394.53-.001 1.518.392-.453z"/><path fill="#FF4A00" d="M2.743 10.201l.088.944.687-.822-.054-.989z"/><path fill="#BAFF3C" d="M12.767 17.361l-.388.609.147 1.544.394-.53z"/><path fill="#FF2500" d="M3.463 9.334l.054.989.78-.602L4.281 8.7z"/><path fill="#F1FC06" d="M12.459 15.754l-.374.687.294 1.529.387-.609z"/><path fill="#F10800" d="M4.281 8.7l.015 1.022.851-.363.028-1.042z"/><path fill="#FFC100" d="M12.005 14.208l-.353.762.433 1.472.374-.687z"/><path fill="#DA0000" d="M5.175 8.316l-.027 1.043.9-.111.073-1.051z"/><path fill="#FF8900" d="M11.416 12.764l-.326.833.562 1.373.354-.762z"/><path fill="#CD0000" d="M6.12 8.197l-.072 1.051.925.144.119-1.045z"/><path fill="#FF5900" d="M10.706 11.464l-.292.896.676 1.237.326-.833z"/><path fill="#D10000" d="M7.092 8.347l-.119 1.045.924.397.166-1.026z"/><path fill="#FF3000" d="M9.895 10.343l-.254.951.772 1.066.293-.896z"/><path fill="#DF0000" d="M8.063 8.763L7.897 9.79l.898.639.211-.994z"/><path fill="#FA0F00" d="M9.006 9.434l-.211.995.846.865.254-.951z"/></g><g fill-rule="nonzero"><path fill="#9F0000" d="M6.798.133l-1.094.34.772-.071.947-.322z"/><path fill="#960000" d="M7.423.08l-.947.322.795.22.796-.312z"/><path fill="#FFAB00" d="M11.347 6.829l-.033.425.377 1.699-.038-.466z"/><path fill="#960000" d="M8.067.31L7.27.622l.796.508.646-.311z"/><path fill="#FF6C00" d="M10.951 5.268l-.124.389.487 1.596.033-.424z"/><path fill="#A80000" d="M8.713.819l-.647.311.775.782.5-.318z"/><path fill="#FF3400" d="M10.475 3.85l-.234.358.586 1.449.124-.388z"/><path fill="#C80000" d="M9.34 1.594l-.499.318.731 1.036.362-.334z"/><path fill="#F10800" d="M9.934 2.614l-.361.334.668 1.26.235-.358z"/></g><g fill-rule="nonzero"><path fill="#53FFA4" d="M.13 14.252l.128.966-.13-1.758L0 12.487z"/><path fill="#97FF60" d="M0 12.487l.129.973.035-1.732-.129-.981z"/><path fill="#D7FF1F" d="M.035 10.747l.129.981.202-1.664-.129-.988z"/><path fill="#FFD000" d="M.237 9.076l.129.988.365-1.55-.128-.996z"/><path fill="#FF8D00" d="M.602 7.518l.129.996.521-1.396-.128-1.003z"/><path fill="#FF4E00" d="M1.124 6.115l.128 1.003.665-1.202-.127-1.01z"/><path fill="#FF1A00" d="M1.79 4.907l.127 1.009.793-.974-.126-1.015z"/><path fill="#D10000" d="M2.584 3.927l.127 1.015.901-.717-.125-1.02z"/><path fill="#FFE600" d="M12.542 11.012l.212 2.049.335 1.776-.207-2.031z"/><path fill="#A80000" d="M3.486 3.205l.125 1.021.986-.438-.123-1.024z"/><path fill="#FF9F00" d="M12.039 9.285l.109 1.012.501 1.72-.107-1.005z"/><path fill="#8D0000" d="M4.474 2.764l.123 1.024 1.044-.143-.122-1.027z"/><path fill="#FF6000" d="M11.386 7.674l.11 1.017.652 1.606-.108-1.012z"/><path fill="maroon" d="M5.519 2.618l.122 1.027 1.073.157-.119-1.028z"/><path fill="#FF2900" d="M10.599 6.224l.112 1.023.785 1.444-.11-1.017z"/><path fill="maroon" d="M6.595 2.773l.12 1.029 1.073.455-.118-1.029z"/><path fill="#DF0000" d="M9.701 4.978l.114 1.025.896 1.244-.111-1.023z"/><path fill="#920000" d="M7.67 3.228l.118 1.029 1.043.74-.115-1.028z"/><path fill="#B20000" d="M8.715 3.969l.116 1.028.983 1.006-.113-1.025z"/><path fill="#FFE600" d="M12.314 10.18l.228.832.339 1.795-.24-.834z"/></g><g fill-rule="nonzero"><path fill="#B20000" d="M4.976.83l-.855.606.849-.389.734-.575z"/><path fill="#960000" d="M5.704.473l-.734.575.9-.096.606-.55z"/><path fill="#890000" d="M6.476.402l-.605.55.926.201.474-.53z"/><path fill="#890000" d="M7.271.622l-.474.53.928.495.341-.517z"/><path fill="#FF2D00" d="M10.241 4.208l.016.518.681 1.461-.111-.53z"/><path fill="#9B0000" d="M8.067 1.13l-.342.517.902.776.214-.511z"/><path fill="#E80000" d="M9.573 2.948l-.094.511.778 1.266-.016-.517z"/><path fill="#B00" d="M8.841 1.913l-.214.51.852 1.036.093-.511z"/><path fill="#FF6400" d="M10.826 5.657l.112.531.567 1.615-.191-.549z"/></g><g fill-rule="nonzero"><path fill="#D10000" d="M3.346 2.102l-.596.859.865-.704.506-.821z"/><path fill="#A80000" d="M4.121 1.436l-.506.821.947-.423.409-.787z"/><path fill="#8D0000" d="M4.971 1.048l-.409.786 1.003-.128.306-.755z"/><path fill="maroon" d="M5.871.951l-.306.755 1.033.172.199-.726z"/><path fill="#840000" d="M6.797 1.152l-.199.726 1.032.469.095-.7z"/><path fill="#FF2900" d="M10.257 4.725l.188.654.757 1.456-.263-.648z"/><path fill="#920000" d="M7.725 1.647l-.095.701 1.004.755-.007-.68z"/><path fill="#DF0000" d="M9.48 3.458l.101.665.864 1.256-.188-.654z"/><path fill="#B20000" d="M8.627 2.422l.007.68.947 1.02-.102-.664z"/><path fill="#FF1A00" d="M2.665 3.026l-.676.896.761-.962.596-.858z"/></g><g fill-rule="nonzero"><path fill="#FF8D00" d="M.851 6.5L.602 7.518l.521-1.403.227-1.001z"/><path fill="#FF4E00" d="M1.35 5.114l-.226 1.002.665-1.209.199-.984z"/><path fill="#FF1600" d="M1.988 3.923l-.199.984.794-.98.166-.966z"/><path fill="#D10000" d="M2.749 2.961l-.166.966.903-.722.129-.948z"/><path fill="#A40000" d="M3.615 2.257l-.129.948.987-.441.089-.93z"/><path fill="#890000" d="M4.562 1.835l-.088.93 1.045-.146.046-.912z"/><path fill="#FF6000" d="M11.201 6.836l.185.838.653 1.611-.209-.834z"/><path fill="maroon" d="M5.565 1.706l-.046.912 1.076.155.002-.895z"/><path fill="#FF2900" d="M10.445 5.379l.154.846.787 1.449-.185-.838z"/><path fill="maroon" d="M6.598 1.878l-.003.895 1.075.455-.04-.88z"/><path fill="#DF0000" d="M9.581 4.123l.12.855.898 1.247-.154-.846z"/><path fill="#920000" d="M7.63 2.348l.04.88 1.045.741-.081-.866z"/><path fill="#B20000" d="M8.634 3.103l.081.867.986 1.008-.12-.855z"/></g><g fill-rule="nonzero"><path fill="#23FFD4" d="M17.401 13.409l-1.508-.012.026 1.134 1.539-.061z"/><path fill="#53FFA4" d="M17.38 12.269l-1.494-.097.008 1.225 1.508.013z"/><path fill="#80FF77" d="M17.394 11.076l-1.497-.189-.011 1.285 1.494.096z"/><path fill="#ADFF49" d="M17.445 9.864l-1.518-.288-.03 1.311 1.498.189z"/><path fill="#DBFF1C" d="M17.53 8.665l-1.556-.389-.047 1.301 1.518.287z"/><path fill="#FFE200" d="M17.648 7.51l-1.61-.491-.064 1.257 1.556.389z"/><path fill="#FF3800" d="M19.045 2.984l-2.279-.978-.115.154 2.171.947z"/><path fill="#FFB600" d="M17.796 6.431l-1.679-.589-.079 1.177 1.61.491z"/><path fill="#FF3800" d="M18.821 3.107l-2.17-.947-.116.367 2.061.9z"/><path fill="#FF9100" d="M17.97 5.459l-1.761-.682-.092 1.065 1.679.589z"/><path fill="#FF4300" d="M18.597 3.427l-2.061-.901-.115.57 1.955.84z"/><path fill="#FF6F00" d="M18.165 4.619l-1.854-.766-.102.923 1.76.682z"/><path fill="#F50" d="M18.376 3.936l-1.955-.84-.109.757 1.853.766z"/></g><g fill-rule="nonzero"><path fill="#2CFFCA" d="M18.936 13.536l-1.534-.126.056 1.061 1.559.052z"/><path fill="#56FFA0" d="M18.903 12.479l-1.523-.21.022 1.141 1.534.126z"/><path fill="#80FF77" d="M18.92 11.38l-1.526-.303-.014 1.192 1.523.21z"/><path fill="#AAFF4D" d="M18.987 10.266l-1.542-.401-.05 1.212 1.526.302z"/><path fill="#D4FF23" d="M19.103 9.168l-1.572-.503-.086 1.2 1.542.401z"/><path fill="#FBF100" d="M19.263 8.115l-1.614-.605-.118 1.155 1.572.503z"/><path fill="#F50" d="M21.489 4.174L19.261 3.06l-.215-.076 2.144 1.099z"/><path fill="#FFC400" d="M19.465 7.136l-1.669-.704-.148 1.078 1.615.605z"/><path fill="#FF4E00" d="M21.19 4.083l-2.144-1.099-.224.124 2.058 1.066z"/><path fill="#FFA300" d="M19.704 6.257l-1.734-.798-.174.973 1.669.704z"/><path fill="#FF5200" d="M20.88 4.175l-2.058-1.067-.225.32 1.971 1.019z"/><path fill="#FF8200" d="M19.972 5.503l-1.807-.883-.195.839 1.734.798z"/><path fill="#FF5900" d="M20.568 4.447l-1.971-1.019-.221.509 1.887.957z"/><path fill="#FF6C00" d="M20.262 4.894l-1.886-.957-.211.683 1.807.883z"/></g><g fill-rule="nonzero"><path fill="#33FFC4" d="M20.367 13.76l-1.431-.225.081.987 1.449.152z"/><path fill="#5AFF9D" d="M20.326 12.786l-1.423-.307.033 1.057 1.431.224z"/><path fill="#80FF77" d="M20.345 11.777l-1.425-.398-.017 1.1 1.423.307z"/><path fill="#A7FF50" d="M20.424 10.759l-1.437-.494-.067 1.114 1.425.397z"/><path fill="#CEFF29" d="M20.561 9.761l-1.458-.593-.116 1.098 1.437.493z"/><path fill="#F1FC06" d="M20.753 8.807l-1.49-.693-.161 1.053 1.459.593z"/><path fill="gold" d="M20.994 7.924l-1.529-.789-.202.979 1.49.693z"/><path fill="#FF6F00" d="M23.428 5.365l-1.939-1.192-.299-.091 1.877 1.176z"/><path fill="#FFB600" d="M21.28 7.137l-1.576-.881-.238.879 1.529.79z"/><path fill="#FF6800" d="M23.066 5.259l-1.877-1.177-.309.092 1.813 1.145z"/><path fill="#FF9800" d="M21.602 6.466l-1.63-.964-.268.754 1.576.881z"/><path fill="#FF6C00" d="M22.693 5.319L20.88 4.174l-.311.273 1.749 1.098z"/><path fill="#FF8200" d="M21.95 5.931l-1.687-1.037-.291.608 1.629.965z"/><path fill="#FF7300" d="M22.318 5.545l-1.75-1.098-.305.447 1.688 1.037z"/></g><g fill-rule="nonzero"><path fill="#39FFBE" d="M21.565 14.066l-1.199-.305.1.914 1.211.236z"/><path fill="#5AFF9D" d="M21.518 13.17l-1.193-.384.041.975 1.199.305z"/><path fill="#80FF77" d="M21.538 12.248l-1.194-.471-.019 1.009 1.193.384z"/><path fill="#A4FF53" d="M21.625 11.322l-1.202-.561-.079 1.017 1.194.47z"/><path fill="#C7FF30" d="M21.775 10.418l-1.215-.656-.137.999 1.201.561z"/><path fill="#E7FF0F" d="M21.987 9.559l-1.235-.751-.192.954 1.216.656z"/><path fill="#FFE600" d="M22.254 8.768l-1.26-.842-.242.882 1.235.751z"/><path fill="#FFC400" d="M22.57 8.068l-1.291-.93-.286.788 1.261.842z"/><path fill="#FF8600" d="M24.955 6.592l-1.528-1.225-.361-.107 1.487 1.21z"/><path fill="#FFAB00" d="M22.926 7.476l-1.325-1.009-.322.671 1.291.929z"/><path fill="#FF8200" d="M24.552 6.47l-1.487-1.21-.373.06 1.445 1.18z"/><path fill="#FF9800" d="M23.313 7.01L21.95 5.932l-.349.536 1.325 1.008z"/><path fill="#FF8200" d="M24.137 6.499L22.692 5.32l-.375.226 1.403 1.135z"/><path fill="#FF8900" d="M23.72 6.681l-1.403-1.135-.368.386 1.364 1.078z"/></g><g fill-rule="nonzero"><path fill="#3CFFBA" d="M22.415 14.431l-.849-.366.112.846.855.301z"/><path fill="#5DFF9A" d="M22.365 13.609l-.845-.439.047.896.848.366z"/><path fill="#80FF77" d="M22.385 12.767l-.845-.519-.02.922.845.44z"/><path fill="#A0FF56" d="M22.474 11.925l-.848-.604-.086.926.845.519z"/><path fill="#C1FF36" d="M22.632 11.108l-.855-.691-.151.904.848.604z"/><path fill="#DEFF19" d="M22.853 10.336l-.865-.777-.212.859.856.69z"/><path fill="#FBF100" d="M23.133 9.63l-.878-.862-.267.79.865.778z"/><path fill="gold" d="M23.464 9.01l-.893-.943-.316.701.878.862z"/><path fill="#FFA700" d="M26.374 8.074l-1.04-1.212-.379-.271 1.019 1.213z"/><path fill="#FFC100" d="M23.839 8.491l-.912-1.015-.356.591.894.942z"/><path fill="#FF9C00" d="M25.975 7.804l-1.019-1.213-.402-.122.996 1.199z"/><path fill="#FFAE00" d="M24.245 8.088l-.931-1.079-.387.466.912 1.015z"/><path fill="#FF9800" d="M25.55 7.668l-.996-1.199-.415.03.974 1.172z"/><path fill="#FF9F00" d="M24.674 7.812l-.952-1.131-.407.328.93 1.079z"/><path fill="#FF9800" d="M25.113 7.671l-.974-1.172-.417.182.952 1.131z"/></g><g fill-rule="nonzero"><path fill="#43FFB4" d="M22.819 14.839l-.404-.407.118.781.407.349z"/><path fill="#60FF97" d="M22.767 14.082l-.403-.473.05.822.405.407z"/><path fill="#7DFF7A" d="M22.786 13.311l-.402-.544-.02.842.403.473z"/><path fill="#9DFF5A" d="M22.875 12.545l-.402-.619-.089.841.401.544z"/><path fill="#BAFF3C" d="M23.034 11.806l-.403-.698-.157.818.401.619z"/><path fill="#D4FF23" d="M23.257 11.111l-.405-.775-.221.772.402.698z"/><path fill="#EEFF09" d="M23.539 10.481l-.406-.851-.28.706.404.775z"/><path fill="#FFDE00" d="M27.522 10.107l-.463-1.123-.321-.513.458 1.148z"/><path fill="#FFE600" d="M23.874 9.931l-.41-.922-.331.621.406.851z"/><path fill="#FC0" d="M27.196 9.619l-.457-1.148-.365-.397.45 1.161z"/><path fill="#FFD000" d="M24.252 9.477l-.414-.986-.374.518.41.922z"/><path fill="#FFB900" d="M26.824 9.235l-.45-1.161-.4-.27.443 1.161z"/><path fill="#FFC100" d="M24.664 9.13l-.419-1.042-.407.403.414.985z"/><path fill="#FFB200" d="M26.417 8.966l-.443-1.162-.425-.136.437 1.15zM25.097 8.901l-.424-1.089-.429.276.419 1.042z"/><path fill="#FFAB00" d="M25.986 8.818l-.436-1.15-.438.003.43 1.125z"/><path fill="#FFAE00" d="M25.542 8.796l-.43-1.125-.439.141.424 1.089z"/><path fill="#CEFF29" d="M23.144 11.856l.113-.745-.223.694-.109.679z"/></g><g fill-rule="nonzero"><path fill="#50FFA7" d="M27.885 15.773l.16-.691.133-.747-.164.755z"/><path fill="#6AFF8D" d="M28.014 15.09l.164-.754.063-.768-.167.816z"/><path fill="#87FF70" d="M28.075 14.384l.167-.816-.007-.769-.169.875z"/><path fill="#A0FF56" d="M28.065 13.674l.169-.875-.078-.749-.17.928z"/><path fill="#BEFF39" d="M27.986 12.977l.171-.928-.148-.711-.17.975z"/><path fill="#D4FF23" d="M27.839 12.313l.17-.975-.213-.653-.17 1.014z"/><path fill="#E4FF13" d="M23.421 11.289l.118-.809-.282.631-.113.745z"/><path fill="#EBFF0C" d="M27.626 11.699l.17-1.014-.273-.579-.169 1.045z"/><path fill="#F8F500" d="M23.75 10.8l.124-.87-.335.55-.118.809z"/><path fill="#FEED00" d="M27.354 11.152l.169-1.045-.327-.488-.166 1.066z"/><path fill="#FFDE00" d="M24.122 10.401l.13-.925-.378.454-.124.87z"/><path fill="#FFDB00" d="M27.03 10.685l.166-1.066-.372-.384-.163 1.077z"/><path fill="#FFD000" d="M24.527 10.104l.136-.974-.411.346-.13.925z"/><path fill="#FC0" d="M26.661 10.311l.163-1.077-.407-.269-.159 1.077z"/><path fill="#FFC400" d="M24.955 9.915l.143-1.014-.434.229-.136.974zM26.258 10.042l.159-1.077-.431-.148-.154 1.067z"/><path fill="#FFC100" d="M25.394 9.842l.149-1.046-.445.105-.143 1.015z"/><path fill="#FFBD00" d="M25.832 9.884l.154-1.066-.444-.022-.148 1.046z"/></g><g fill-rule="nonzero"><path fill="#00D4FF" d="M25.67 18.707l.728-.42.385-.337-.74.462z"/><path fill="#00E4F8" d="M26.043 18.412l.74-.462.35-.431-.751.508z"/><path fill="#0FF8E7" d="M26.382 18.027l.752-.508.305-.516-.762.558z"/><path fill="#26FFD1" d="M26.677 17.561l.762-.558.253-.586-.771.609z"/><path fill="#3CFFBA" d="M26.921 17.026l.77-.609.194-.643-.779.661z"/><path fill="#53FFA4" d="M27.107 16.435l.778-.661.129-.683-.784.713z"/><path fill="#6DFF8A" d="M27.23 15.804l.784-.713.061-.706-.788.763z"/><path fill="#87FF70" d="M27.286 15.148l.788-.763-.009-.71-.79.81z"/><path fill="#A0FF56" d="M27.276 14.485l.789-.811-.079-.696-.79.853z"/><path fill="#B7FF40" d="M27.196 13.831l.79-.853-.148-.664-.787.891z"/><path fill="#CEFF29" d="M27.051 13.204l.787-.89-.213-.614-.782.921z"/><path fill="#E4FF13" d="M26.843 12.621l.783-.921-.272-.548-.777.945z"/><path fill="#FEED00" d="M23.443 11.241l.679-.839-.372.399-.666.793z"/><path fill="#F4F802" d="M26.577 12.097l.777-.945-.325-.466-.768.961z"/><path fill="#FFDE00" d="M23.835 10.984l.692-.879-.405.297-.679.839z"/><path fill="#FFE600" d="M26.262 11.647l.768-.961-.369-.373-.758.968z"/><path fill="#FFD300" d="M24.249 10.829l.706-.913-.428.189-.692.879z"/><path fill="#FFDB00" d="M25.903 11.281l.758-.969-.402-.269-.747.967z"/><path fill="#FFD000" d="M24.673 10.781l.721-.939-.439.074-.707.913zM25.512 11.01l.747-.967-.427-.158-.734.957z"/><path fill="#FC0" d="M25.098 10.843l.734-.958-.438-.043-.721.94z"/></g><g fill-rule="nonzero"><path fill="#00D0FF" d="M24.026 19.318l1.245-.415.399-.197-1.262.444z"/><path fill="#00DCFE" d="M24.408 19.15l1.262-.444.373-.295-1.278.477z"/><path fill="#06ECF1" d="M24.765 18.888l1.278-.477.339-.385-1.294.513z"/><path fill="#19FFDE" d="M25.089 18.539l1.293-.513.295-.466-1.307.551z"/><path fill="#29FFCE" d="M25.37 18.111l1.307-.551.244-.535-1.319.591z"/><path fill="#40FFB7" d="M25.603 17.615l1.318-.591.186-.59-1.328.63z"/><path fill="#56FFA0" d="M25.779 17.065l1.328-.631.123-.631-1.335.669z"/><path fill="#6DFF8A" d="M25.895 16.471l1.335-.668.057-.656-1.34.705z"/><path fill="#87FF70" d="M25.947 15.852l1.34-.705-.011-.663-1.342.739z"/><path fill="#9DFF5A" d="M25.934 15.223l1.341-.739-.079-.654-1.34.77z"/><path fill="#B4FF43" d="M25.856 14.6l1.34-.77-.145-.627-1.336.796z"/><path fill="#CAFF2C" d="M25.715 13.999l1.336-.796-.208-.583-1.329.817z"/><path fill="#DEFF19" d="M25.513 13.437l1.33-.817-.266-.524-1.32.833z"/><path fill="#EEFF09" d="M25.257 12.928l1.32-.832-.316-.451-1.308.842z"/><path fill="#FFDE00" d="M23.023 11.62l1.225-.792-.413.154-1.208.766z"/><path fill="#FBF100" d="M24.952 12.487l1.309-.842-.358-.365-1.295.844z"/><path fill="#FFDB00" d="M23.429 11.595l1.245-.815-.425.048-1.226.792z"/><path fill="#FFE600" d="M24.608 12.124l1.295-.845-.391-.27-1.279.841z"/><path fill="gold" d="M23.836 11.672l1.262-.831-.425-.061-1.244.815z"/><path fill="#FFDB00" d="M24.233 11.85l1.279-.841-.414-.168-1.262.831z"/></g><g fill-rule="nonzero"><path fill="#00D8FF" d="M22.34 19.771l1.686-.452.382-.168-1.705.474z"/><path fill="#00E4F8" d="M22.703 19.626l1.705-.475.357-.262-1.722.499z"/><path fill="#0CF4EB" d="M23.042 19.388l1.723-.499.323-.349-1.739.525z"/><path fill="#1CFFDB" d="M23.349 19.065l1.74-.525.281-.428-1.754.551z"/><path fill="#2CFFCA" d="M23.616 18.664l1.754-.551.232-.496-1.767.578z"/><path fill="#43FFB4" d="M23.835 18.194l1.767-.578.177-.551-1.777.604z"/><path fill="#56FFA0" d="M24.001 17.669l1.777-.603.116-.593-1.785.628z"/><path fill="#6DFF8A" d="M24.11 17.101l1.785-.628.052-.619-1.789.65z"/><path fill="#83FF73" d="M24.158 16.503l1.789-.65-.013-.629-1.791.67z"/><path fill="#9AFF5D" d="M24.143 15.894l1.791-.67-.078-.623-1.789.687z"/><path fill="#B1FF46" d="M24.066 15.288l1.79-.687-.142-.601-1.785.701z"/><path fill="#C4FF33" d="M23.929 14.701L25.714 14l-.201-.562-1.777.71z"/><path fill="#D7FF1F" d="M23.736 14.148l1.777-.71-.256-.509-1.767.716z"/><path fill="#FFE600" d="M21.36 12.284l1.662-.662-.396.127-1.642.64z"/><path fill="#E7FF0F" d="M23.491 13.645l1.766-.715-.304-.442-1.754.717z"/><path fill="#FFE200" d="M21.747 12.276l1.682-.68-.407.025-1.662.662z"/><path fill="#F4F802" d="M23.199 13.205l1.753-.717-.344-.362-1.738.713z"/><path fill="#FFE200" d="M22.134 12.369l1.702-.696-.407-.077-1.683.68z"/><path fill="#FEED00" d="M22.87 12.839l1.738-.714-.376-.274-1.72.707z"/><path fill="#FFE200" d="M22.512 12.558l1.721-.707-.397-.178-1.702.695z"/></g><g fill-rule="nonzero"><path fill="#00DCFE" d="M20.331 20.267l2.01-.496.363-.146-2.03.513z"/><path fill="#02E8F4" d="M20.674 20.138l2.03-.512.339-.238-2.048.53z"/><path fill="#0FF8E7" d="M20.994 19.918l2.049-.53.307-.323-2.066.546z"/><path fill="#1FFFD7" d="M21.284 19.611l2.066-.546.266-.401-2.081.56z"/><path fill="#30FFC7" d="M21.536 19.224l2.081-.561.219-.469-2.094.574z"/><path fill="#43FFB4" d="M21.741 18.768l2.094-.574.167-.526-2.105.586z"/><path fill="#5AFF9D" d="M21.897 18.255l2.105-.586.109-.569-2.113.596z"/><path fill="#6DFF8A" d="M21.998 17.696l2.113-.596.047-.597-2.117.603z"/><path fill="#83FF73" d="M22.041 17.107l2.117-.603-.014-.61-2.119.608z"/><path fill="#9AFF5D" d="M22.026 16.502l2.118-.608-.077-.606-2.116.61z"/><path fill="#B1FF46" d="M21.951 15.898l2.116-.61-.137-.588-2.111.61z"/><path fill="#C4FF33" d="M21.819 15.311l2.112-.61-.194-.553-2.104.607z"/><path fill="#D7FF1F" d="M21.633 14.755l2.104-.607-.246-.503-2.093.601z"/><path fill="#FFE600" d="M19.742 12.819l2.006-.543-.387.007-1.985.527z"/><path fill="#E4FF13" d="M21.399 14.246l2.092-.601-.291-.44-2.079.593z"/><path fill="#FFE600" d="M20.109 12.926l2.025-.558-.387-.092-2.006.543z"/><path fill="#F1FC06" d="M21.121 13.798l2.078-.593-.329-.366-2.063.583z"/><path fill="#FFE600" d="M20.467 13.129l2.045-.571-.378-.189-2.026.557z"/><path fill="#FEED00" d="M20.808 13.422l2.063-.583-.359-.281-2.045.571z"/></g><g fill-rule="nonzero"><path fill="#00E4F8" d="M18.684 20.561l2.153-.521-.333.175-2.156.524z"/><path fill="#0CF4EB" d="M18.993 20.293l2.151-.518-.306.264-2.153.522z"/><path fill="#19FFDE" d="M19.265 19.94l2.15-.513-.272.348-2.15.518z"/><path fill="#29FFCE" d="M19.496 19.512l2.149-.507-.23.422-2.149.513z"/><path fill="#3CFFBA" d="M19.677 19.018l2.149-.5-.181.487-2.149.507z"/><path fill="#53FFA4" d="M19.804 18.472l2.151-.492-.129.538-2.149.5z"/><path fill="#66FF90" d="M19.875 17.888l2.152-.484-.072.576-2.151.492z"/><path fill="#7DFF7A" d="M19.886 17.28l2.155-.475-.014.599-2.152.484z"/><path fill="#94FF63" d="M19.837 16.664l2.158-.465.045.606-2.154.475z"/><path fill="#AAFF4D" d="M19.729 16.057l2.162-.456.104.598-2.158.465z"/><path fill="#BEFF39" d="M19.565 15.475l2.167-.447.159.573-2.162.456z"/><path fill="#D1FF26" d="M19.349 14.933l2.172-.439.211.534-2.167.447z"/><path fill="#FFE200" d="M17.354 13.213l2.204-.411.368.058-2.2.413z"/><path fill="#E1FF16" d="M19.086 14.445l2.178-.431.257.48-2.172.438z"/><path fill="#FFE600" d="M17.726 13.273l2.199-.412.364.155-2.194.415z"/><path fill="#EEFF09" d="M18.785 14.025l2.183-.425.297.414-2.178.431z"/><path fill="#FFEA00" d="M18.095 13.431l2.195-.415.35.249-2.189.419z"/><path fill="#FBF100" d="M18.451 13.684l2.189-.419.328.336-2.184.424z"/></g><g fill-rule="nonzero"><path fill="#00E0FB" d="M16.51 21.139l2.175-.578-.336.177-2.186.585z"/><path fill="#09F0EE" d="M16.828 20.86l2.164-.568-.308.269-2.174.578z"/><path fill="#16FFE1" d="M17.109 20.494l2.157-.555-.273.353-2.164.568z"/><path fill="#29FFCE" d="M17.345 20.049l2.15-.538-.23.429-2.156.554z"/><path fill="#3CFFBA" d="M17.531 19.536l2.146-.518-.182.493-2.15.538z"/><path fill="#50FFA7" d="M17.66 18.969l2.144-.497-.127.546-2.146.518z"/><path fill="#66FF90" d="M17.73 18.361l2.145-.473-.07.584-2.145.497z"/><path fill="#7DFF7A" d="M17.738 17.729l2.148-.449-.011.608-2.145.473z"/><path fill="#94FF63" d="M17.685 17.088l2.152-.424.049.616-2.148.449z"/><path fill="#AAFF4D" d="M17.569 16.456l2.16-.399.107.607-2.152.424z"/><path fill="#C1FF36" d="M17.397 15.85l2.168-.376.164.583-2.159.399z"/><path fill="#D4FF23" d="M17.17 15.286l2.179-.354.216.543-2.168.376z"/><path fill="#FFDE00" d="M15.093 13.496l2.261-.283.372.059-2.247.286z"/><path fill="#E4FF13" d="M16.895 14.779l2.191-.334.263.487-2.179.354z"/><path fill="#FFDE00" d="M15.479 13.558l2.247-.286.369.159-2.232.292z"/><path fill="#F1FC06" d="M16.581 14.341l2.204-.316.302.42-2.191.333z"/><path fill="#FFE600" d="M15.863 13.723l2.233-.292.356.253-2.219.303z"/><path fill="#FEED00" d="M16.233 13.986l2.218-.302.334.341-2.205.316z"/></g><g fill-rule="nonzero"><path fill="#0CF" d="M14.082 21.972l2.082-.649-.368.085-2.102.653z"/><path fill="#00D8FF" d="M14.448 21.777l2.062-.638-.347.184-2.081.648z"/><path fill="#02E8F4" d="M14.783 21.482l2.046-.622-.319.279-2.062.638z"/><path fill="#13FCE4" d="M15.078 21.094l2.031-.6-.281.367-2.045.621z"/><path fill="#23FFD4" d="M15.326 20.622l2.02-.572-.237.445-2.031.599z"/><path fill="#39FFBE" d="M15.52 20.077l2.011-.541-.186.513-2.019.572z"/><path fill="#50FFA7" d="M15.654 19.475l2.006-.506-.129.568-2.011.54z"/><path fill="#66FF90" d="M15.725 18.83l2.005-.469-.07.608-2.006.506z"/><path fill="#7DFF7A" d="M15.731 18.158l2.008-.429-.009.632-2.005.469z"/><path fill="#97FF60" d="M15.67 17.478l2.014-.389.054.64-2.008.429z"/><path fill="#ADFF49" d="M15.546 16.806l2.023-.349.115.631-2.014.389z"/><path fill="#C4FF33" d="M15.359 16.162l2.038-.311.172.606-2.023.35z"/><path fill="#D7FF1F" d="M15.117 15.562l2.053-.276.227.565-2.037.311z"/><path fill="gold" d="M12.909 13.658l2.184-.162.387.062-2.162.167z"/><path fill="#EBFF0C" d="M14.824 15.023l2.072-.244.274.508-2.053.276z"/><path fill="gold" d="M13.318 13.725l2.161-.167.384.165-2.138.177z"/><path fill="#F8F500" d="M14.488 14.558l2.092-.216.316.437-2.072.244z"/><path fill="#FFDB00" d="M13.725 13.9l2.138-.177.37.264-2.115.193z"/><path fill="#FFE600" d="M14.119 14.18l2.114-.194.348.355-2.093.217z"/></g><g fill-rule="nonzero"><path fill="#00A0FF" d="M7.437 23.864l1.372-.757-.441-.381-1.415.72z"/><path fill="#00B0FF" d="M6.954 23.446l1.415-.72-.41-.485-1.455.673z"/><path fill="#0094FF" d="M7.942 24.157l1.328-.783-.461-.267-1.372.757z"/><path fill="#00C4FF" d="M6.504 22.914l1.455-.674-.368-.577-1.491.618z"/><path fill="#0094FF" d="M8.456 24.318l1.284-.797-.47-.147-1.328.783z"/><path fill="#00E0FB" d="M6.099 22.281l1.491-.618-.317-.655-1.523.555z"/><path fill="#0094FF" d="M8.967 24.343l1.241-.8-.468-.022-1.284.798z"/><path fill="#13FCE4" d="M5.75 21.563l1.524-.556-.259-.717-1.55.487z"/><path fill="#009CFF" d="M9.462 24.231l1.198-.792-.452.104-1.24.8z"/><path fill="#30FFC7" d="M5.465 20.777l1.551-.487-.193-.761-1.571.414z"/><path fill="#00ACFF" d="M9.928 23.983l1.158-.771-.426.227-1.198.792z"/><path fill="#49FFAD" d="M5.251 19.942l1.572-.413-.122-.786-1.586.338z"/><path fill="#6AFF8D" d="M5.115 19.081l1.586-.338-.048-.791-1.593.262z"/><path fill="#87FF70" d="M5.06 18.214l1.593-.262.029-.776-1.594.187z"/><path fill="#A7FF50" d="M5.088 17.363l1.594-.187.104-.741-1.587.115z"/><path fill="#C4FF33" d="M5.198 16.551l1.587-.115.177-.686-1.573.048z"/><path fill="#DEFF19" d="M5.39 15.797l1.573-.048.246-.613-1.552-.012z"/><path fill="#F8F500" d="M5.656 15.124l1.553.013.309-.524-1.525-.064z"/><path fill="#FFDB00" d="M5.993 14.549l1.525.063.364-.42-1.492-.105z"/><path fill="#FFC800" d="M6.39 14.087l1.492.105.411-.305-1.454-.136z"/><path fill="#FFB900" d="M6.839 13.751l1.454.135.445-.181-1.412-.154z"/><path fill="#FFAE00" d="M7.326 13.551l1.413.154.469-.053-1.368-.159z"/></g><g fill-rule="nonzero"><path fill="#008CFF" d="M6.421 24.625l1.017-.76-.484-.418-1.064.719z"/><path fill="#009CFF" d="M5.89 24.166l1.064-.719-.45-.532-1.108.667z"/><path fill="#0080FF" d="M6.975 24.946l.968-.789-.506-.293-1.016.76z"/><path fill="#00B4FF" d="M5.396 23.582l1.108-.667-.404-.633-1.149.605z"/><path fill="#007CFF" d="M7.539 25.124l.918-.805-.514-.162-.968.789z"/><path fill="#00D0FF" d="M4.951 22.887l1.149-.605-.349-.719-1.185.536z"/><path fill="#007CFF" d="M8.099 25.152l.869-.809-.511-.024-.918.805z"/><path fill="#09F0EE" d="M4.567 22.099l1.184-.536-.285-.786-1.214.459z"/><path fill="#08F" d="M8.641 25.03l.821-.799-.494.112-.869.809z"/><path fill="#26FFD1" d="M4.252 21.236l1.214-.459-.214-.834-1.237.378z"/><path fill="#0098FF" d="M9.151 24.759l.777-.776-.465.248-.822.799z"/><path fill="#46FFB1" d="M4.015 20.32l1.237-.377-.136-.862-1.253.294z"/><path fill="#00ACFF" d="M9.617 24.346l.736-.74-.425.377-.776.776z"/><path fill="#66FF90" d="M3.863 19.375l1.253-.293-.055-.868-1.261.209z"/><path fill="#8AFF6D" d="M3.8 18.423l1.261-.209.028-.85-1.261.124z"/><path fill="#AAFF4D" d="M3.828 17.488l1.261-.125.11-.812-1.252.044z"/><path fill="#CAFF2C" d="M3.947 16.595l1.252-.044.191-.753-1.236-.031z"/><path fill="#E7FF0F" d="M4.154 15.767l1.236.031.267-.673-1.213-.098z"/><path fill="#FFE600" d="M4.444 15.027l1.213.098.336-.576-1.182-.155z"/><path fill="#FC0" d="M4.811 14.393l1.182.156.398-.462-1.145-.203z"/><path fill="#FFB600" d="M5.247 13.885l1.144.202.449-.335-1.102-.237z"/><path fill="#FFA300" d="M5.737 13.515l1.102.237.488-.2-1.055-.257z"/><path fill="#FF9800" d="M6.272 13.294l1.055.257.514-.058-1.004-.263z"/><path fill="#FF9400" d="M6.837 13.23l1.004.263.526.086-.952-.255z"/><path fill="#FF9400" d="M7.415 13.324l.952.255.525.228-.899-.232z"/></g><g fill-rule="nonzero"><path fill="#0074FF" d="M5.747 25.356l.674-.732-.531-.458-.724.687z"/><path fill="#0084FF" d="M5.166 24.853l.725-.688-.494-.583-.773.632z"/><path fill="#0068FF" d="M6.354 25.71l.621-.763-.554-.323-.674.732z"/><path fill="#00A0FF" d="M4.624 24.214l.772-.633-.444-.694-.816.566z"/><path fill="#0064FF" d="M6.972 25.905l.567-.781-.564-.178-.621.764z"/><path fill="#00C0FF" d="M4.136 23.453l.816-.566-.385-.788-.853.49z"/><path fill="#0064FF" d="M7.585 25.937l.514-.785-.56-.028-.567.781z"/><path fill="#00E4F8" d="M3.714 22.59l.853-.491-.315-.863-.884.409z"/><path fill="#0070FF" d="M8.179 25.804l.463-.774-.542.122-.515.785z"/><path fill="#1FFFD7" d="M3.368 21.645l.885-.409-.237-.916-.909.322z"/><path fill="#0080FF" d="M8.737 25.509l.414-.75-.51.271-.463.774z"/><path fill="#40FFB7" d="M3.107 20.642l.909-.321-.152-.946-.926.23z"/><path fill="#0098FF" d="M9.246 25.057l.371-.711-.465.413-.415.749z"/><path fill="#66FF90" d="M2.938 19.605l.926-.231-.064-.952-.934.139z"/><path fill="#00B4FF" d="M9.693 24.461l.332-.66-.408.545-.371.711z"/><path fill="#8AFF6D" d="M2.866 18.561l.934-.139.028-.935-.934.049z"/><path fill="#ADFF49" d="M2.895 17.536l.933-.048.119-.893-.925-.038z"/><path fill="#D1FF26" d="M3.022 16.557l.925.038.207-.827-.907-.119z"/><path fill="#F4F802" d="M3.247 15.649l.907.118.291-.74-.881-.192z"/><path fill="gold" d="M3.564 14.835l.881.192.367-.633-.847-.255z"/><path fill="#FFB900" d="M3.965 14.139l.847.255.435-.509-.806-.305z"/><path fill="#FF9F00" d="M4.441 13.58l.806.305.491-.37-.759-.342z"/><path fill="#FF8D00" d="M4.978 13.173l.76.342.535-.221-.708-.364z"/><path fill="#FF8200" d="M5.565 12.931l.708.364.564-.065-.653-.371z"/><path fill="#FF7A00" d="M6.183 12.859l.654.371.578.094-.597-.362z"/><path fill="#FF7E00" d="M6.818 12.962l.597.362.578.251-.54-.338z"/><path fill="#00C8FF" d="M10.025 23.8l.702-.692-.374.498-.736.74z"/></g><g fill-rule="nonzero"><path fill="#0028FF" d="M5.247 27.021l-.015-.43-.688-.595-.037.385z"/><path fill="#0040FF" d="M4.506 26.381l.038-.385-.641-.756-.086.327z"/><path fill="#0018FF" d="M6.019 27.472l-.069-.462-.718-.419.015.43z"/><path fill="#0060FF" d="M3.818 25.568l.086-.328-.578-.899-.131.259z"/><path fill="#0010FF" d="M6.806 27.723l-.125-.481-.731-.232.07.462z"/><path fill="#08F" d="M3.195 24.6l.131-.259-.501-1.02-.169.182z"/><path fill="#0014FF" d="M7.586 27.767l-.181-.484-.725-.04.125.48z"/><path fill="#00B4FF" d="M2.656 23.502l.168-.181-.411-1.117-.2.096z"/><path fill="#0020FF" d="M8.342 27.601l-.234-.474-.702.155.18.484z"/><path fill="#02E8F4" d="M2.213 22.3l.2-.096-.311-1.187-.224.006z"/><path fill="#0038FF" d="M9.054 27.228l-.285-.448-.662.347.235.473z"/><path fill="#30FFC7" d="M1.877 21.023l.225-.006L1.9 19.79l-.241-.088z"/><path fill="#0054FF" d="M9.705 26.658l-.333-.409-.603.532.286.448z"/><path fill="#60FF97" d="M1.659 19.702l.241.088-.087-1.236-.249-.184z"/><path fill="#007CFF" d="M10.277 25.9l-.375-.355-.53.704.333.408z"/><path fill="#8DFF6A" d="M1.564 18.37l.248.184.031-1.215-.247-.278z"/><path fill="#00A8FF" d="M10.755 24.976l-.41-.29-.443.86.375.355z"/><path fill="#BEFF39" d="M1.596 17.061l.247.278.148-1.163-.236-.369z"/><path fill="#00D8FF" d="M11.127 23.904l-.439-.214-.343.995.41.29z"/><path fill="#EBFF0C" d="M1.755 15.808l.236.369.263-1.079-.216-.454z"/><path fill="#23FFD4" d="M11.381 22.713l-.458-.129-.234 1.106.438.214z"/><path fill="#FFD300" d="M2.038 14.644l.217.454.373-.967-.188-.531z"/><path fill="#50FFA7" d="M11.509 21.431l-.469-.036-.117 1.189.458.128z"/><path fill="#FFA700" d="M2.44 13.6l.188.531.473-.829-.151-.597z"/><path fill="#80FF77" d="M11.508 20.093l-.47.061.003 1.241.468.036z"/><path fill="#FF8200" d="M2.95 12.705l.152.597.562-.667-.107-.651z"/><path fill="#B1FF46" d="M11.375 18.733l-.462.16.125 1.261.47-.061z"/><path fill="#FF6000" d="M3.557 11.984l.107.651.638-.486-.058-.691z"/><path fill="#DEFF19" d="M11.113 17.386l-.443.259.243 1.248.462-.161z"/><path fill="#FF4A00" d="M4.243 11.457l.058.692.696-.291-.003-.716z"/><path fill="#FFE200" d="M10.729 16.091l-.417.354.357 1.2.444-.259z"/><path fill="#FF3800" d="M4.994 11.142l.003.716.735-.086.055-.725z"/><path fill="#FFB200" d="M10.232 14.882l-.381.444.462 1.119.416-.354z"/><path fill="#FF3000" d="M5.788 11.047l-.055.724.755.121.114-.715z"/><path fill="#FF8D00" d="M9.635 13.793l-.337.524.554 1.009.38-.444z"/><path fill="#FF3400" d="M6.602 11.177l-.115.716.755.326.174-.69z"/><path fill="#FF6800" d="M8.954 12.855l-.288.593.631.87.338-.524z"/><path fill="#FF3B00" d="M7.416 11.529l-.174.69.733.524.232-.65z"/><path fill="#FF4E00" d="M8.207 12.093l-.232.649.691.706.288-.593z"/></g><g fill-rule="nonzero"><path fill="#0040FF" d="M5.232 26.592l.14-.567-.634-.549-.194.521z"/><path fill="#0058FF" d="M4.544 25.997l.193-.521-.591-.698-.243.462z"/><path fill="#0034FF" d="M5.949 27.01l.085-.6-.662-.386-.14.567z"/><path fill="#0074FF" d="M3.903 25.241l.244-.463-.533-.829-.289.392z"/><path fill="#002CFF" d="M6.68 27.243l.028-.619-.674-.213-.085.6z"/><path fill="#009CFF" d="M3.325 24.342l.289-.393-.462-.942-.328.314z"/><path fill="#0030FF" d="M7.405 27.282l-.029-.622-.668-.036-.028.619z"/><path fill="#00C4FF" d="M2.824 23.321l.328-.314-.378-1.03-.361.227z"/><path fill="#003CFF" d="M8.107 27.128l-.083-.612-.648.144.029.623z"/><path fill="#0CF4EB" d="M2.413 22.204l.36-.227-.286-1.095-.385.136z"/><path fill="#0050FF" d="M8.768 26.781l-.135-.586-.61.321.084.612z"/><path fill="#36FFC1" d="M2.102 21.018l.386-.136-.186-1.131-.402.04z"/><path fill="#006CFF" d="M9.372 26.25l-.183-.546-.556.491.135.586z"/><path fill="#60FF97" d="M1.9 19.79l.402-.039-.08-1.14-.41-.057z"/><path fill="#0090FF" d="M9.902 25.546l-.225-.492-.488.65.183.545z"/><path fill="#8DFF6A" d="M1.812 18.554l.41.057.029-1.119-.408-.153z"/><path fill="#00B8FF" d="M10.345 24.686l-.261-.426-.407.794.225.492z"/><path fill="#B7FF40" d="M1.842 17.339l.409.153.138-1.07-.398-.245z"/><path fill="#02E8F4" d="M10.688 23.691l-.288-.348-.316.918.261.425z"/><path fill="#E1FF16" d="M1.991 16.177l.398.245.244-.993-.379-.331z"/><path fill="#29FFCE" d="M10.922 22.585l-.308-.262-.214 1.02.288.348z"/><path fill="#FFDE00" d="M2.254 15.098l.379.331.344-.889-.35-.409z"/><path fill="#53FFA4" d="M11.04 21.395l-.318-.167-.107 1.095.307.261z"/><path fill="#FFB600" d="M2.627 14.131l.35.409.437-.761-.313-.476z"/><path fill="#80FF77" d="M11.037 20.154l-.318-.069.003 1.143.318.168z"/><path fill="#FF9400" d="M3.101 13.302l.313.476.519-.612-.269-.531z"/><path fill="#ADFF49" d="M10.912 18.893l-.309.032.115 1.161.319.069z"/><path fill="#F70" d="M3.664 12.635l.269.531.587-.446-.219-.571z"/><path fill="#D7FF1F" d="M10.669 17.646l-.29.131.224 1.147.31-.031z"/><path fill="#FF6000" d="M4.301 12.149l.219.571.64-.267-.163-.594z"/><path fill="#FEED00" d="M10.312 16.445l-.262.228.329 1.104.29-.132z"/><path fill="#FF5200" d="M4.997 11.859l.163.594.677-.078-.105-.603z"/><path fill="#FFC400" d="M9.851 15.326l-.226.318.425 1.03.262-.228z"/><path fill="#FF4A00" d="M5.732 11.772l.105.603.694.112-.044-.594z"/><path fill="#FF9F00" d="M9.297 14.318l-.181.399.509.927.226-.318z"/><path fill="#FF4A00" d="M6.487 11.893l.044.594.694.3.016-.568z"/><path fill="#FF7E00" d="M8.666 13.449l-.13.469.58.799.181-.399z"/><path fill="#F50" d="M7.241 12.22l-.016.568.674.481.075-.526z"/><path fill="#FF6800" d="M7.975 12.743l-.076.526.636.649.131-.469z"/></g><g fill-rule="nonzero"><path fill="#005CFF" d="M5.372 26.025l.375-.669-.582-.502-.427.622z"/><path fill="#0070FF" d="M4.738 25.476l.427-.623-.542-.639-.476.564z"/><path fill="#004CFF" d="M6.034 26.411l.319-.701-.607-.354-.374.669z"/><path fill="#008CFF" d="M4.147 24.779l.477-.565-.489-.761-.521.496z"/><path fill="#0048FF" d="M6.708 26.625l.263-.72-.618-.195-.319.701z"/><path fill="#00ACFF" d="M3.613 23.949l.522-.495-.423-.864-.56.418z"/><path fill="#004CFF" d="M7.376 26.66l.208-.723-.613-.032-.263.72z"/><path fill="#00D4FF" d="M3.152 23.008l.561-.418-.347-.945-.593.332z"/><path fill="#0054FF" d="M8.024 26.517l.154-.713-.594.134-.207.723z"/><path fill="#16FFE1" d="M2.773 21.977l.593-.332-.261-1.003-.618.241z"/><path fill="#0068FF" d="M8.633 26.195l.103-.686-.559.295-.153.712z"/><path fill="#3CFFBA" d="M2.488 20.883l.618-.241-.169-1.036-.635.146z"/><path fill="#0080FF" d="M9.189 25.705l.056-.647-.509.451-.103.687z"/><path fill="#63FF94" d="M2.302 19.752l.635-.146-.072-1.044-.643.05z"/><path fill="#00A0FF" d="M9.677 25.055l.015-.594-.447.597-.056.647z"/><path fill="#8DFF6A" d="M2.223 18.612l.643-.051.028-1.025-.642-.043z"/><path fill="#00C8FF" d="M10.084 24.261l-.018-.528-.373.728-.016.593z"/><path fill="#B4FF43" d="M2.251 17.493l.643.043.127-.979-.632-.134z"/><path fill="#0CF4EB" d="M10.4 23.343l-.046-.452-.289.842.019.528z"/><path fill="#DBFF1C" d="M2.389 16.422l.632.135.225-.909-.613-.219z"/><path fill="#30FFC7" d="M10.615 22.324l-.064-.366-.197.934.046.451z"/><path fill="#FEED00" d="M2.633 15.429l.613.219.317-.813-.586-.295z"/><path fill="#56FFA0" d="M10.722 21.229l-.073-.274-.098 1.003.064.366z"/><path fill="#FFC800" d="M2.978 14.541l.585.295.401-.696-.549-.361z"/><path fill="#80FF77" d="M10.741 20.086l-.095-.177.004 1.046.096.274z"/><path fill="#FFA700" d="M3.414 13.779l.55.36.476-.559-.507-.414z"/><path fill="#A7FF50" d="M10.604 18.925l-.064-.078.106 1.062.073.177z"/><path fill="#FF8D00" d="M3.933 13.166l.507.414.538-.407-.458-.453z"/><path fill="#CEFF29" d="M10.379 17.778l-.045.02.206 1.049.064.078z"/><path fill="#F70" d="M4.52 12.72l.458.453.586-.242-.403-.477z"/><path fill="#F4F802" d="M10.05 16.674l-.017.115.301 1.009.045-.02z"/><path fill="#FF6C00" d="M5.16 12.454l.404.476.619-.071-.346-.484z"/><path fill="#FFD300" d="M9.625 15.644l.02.204.389.94.016-.115z"/><path fill="#FF6400" d="M5.837 12.375l.346.485.635.103-.286-.475z"/><path fill="#FFB200" d="M9.116 14.717l.064.284.466.847-.02-.204z"/><path fill="#FF6400" d="M6.531 12.487l.287.476.634.275-.227-.45z"/><path fill="#FF9400" d="M8.536 13.918l.114.353.53.73-.064-.284z"/><path fill="#FF6C00" d="M7.225 12.788l.227.449.616.44-.169-.408z"/><path fill="#FF7E00" d="M7.899 13.269l.169.408.581.593-.114-.352z"/></g><g fill-rule="nonzero"><path fill="#000CFF" d="M5.336 27.283l-.089-.261-.74-.64.039.218z"/><path fill="#0028FF" d="M4.546 26.6l-.039-.218-.69-.813-.007.163z"/><path fill="#00F" d="M6.16 27.765l-.14-.292-.773-.451.089.261z"/><path fill="#004CFF" d="M3.81 25.732l.007-.163-.622-.968-.049.099z"/><path fill="#00F" d="M6.999 28.033l-.194-.309-.786-.251.141.292z"/><path fill="#0074FF" d="M3.146 24.7l.049-.099-.539-1.098-.085.025z"/><path fill="#00F" d="M7.833 28.079l-.247-.312-.781-.044.194.309z"/><path fill="#00A8FF" d="M2.571 23.529l.085-.026-.443-1.202-.115-.055z"/><path fill="#0008FF" d="M8.64 27.903l-.298-.302-.756.166.247.312z"/><path fill="#00E0FB" d="M2.098 22.246l.115.055-.335-1.277-.138-.142z"/><path fill="#0020FF" d="M9.402 27.506l-.347-.277-.713.372.299.302z"/><path fill="#2CFFCA" d="M1.739 20.882l.138.142-.218-1.321-.153-.232z"/><path fill="#0040FF" d="M10.098 26.898l-.393-.24-.65.571.347.278z"/><path fill="#5DFF9A" d="M1.506 19.471l.153.232-.095-1.332-.16-.323z"/><path fill="#0068FF" d="M10.71 26.09l-.433-.189-.572.757.393.24z"/><path fill="#90FF66" d="M1.404 18.048l.16.323.032-1.309-.159-.414z"/><path fill="#0098FF" d="M11.222 25.103l-.467-.127-.478.925.433.189z"/><path fill="#C1FF36" d="M1.437 16.648l.159.414.159-1.253-.148-.501z"/><path fill="#0CF" d="M11.621 23.958l-.494-.053-.371 1.071.466.126z"/><path fill="#F4F802" d="M1.607 15.307l.148.501.283-1.164-.129-.583z"/><path fill="#1CFFDB" d="M11.894 22.685l-.513.028-.254 1.192.494.053z"/><path fill="#FFC400" d="M1.909 14.061l.129.583.402-1.044-.102-.657z"/><path fill="#4DFFAA" d="M12.033 21.315l-.524.117-.128 1.281.513-.028z"/><path fill="#FF9800" d="M2.338 12.944l.102.656.51-.895-.067-.721z"/><path fill="#80FF77" d="M12.033 19.883l-.525.21.001 1.339.524-.117z"/><path fill="#FF6F00" d="M2.883 11.984l.067.721.606-.721-.025-.773z"/><path fill="#B4FF43" d="M11.893 18.427l-.518.306.133 1.36.525-.21z"/><path fill="#FF4A00" d="M3.531 11.211l.026.773.687-.526.023-.812z"/><path fill="#E4FF13" d="M11.614 16.987l-.501.4.262 1.346.517-.305z"/><path fill="#FF3000" d="M4.267 10.646l-.023.812.75-.316.075-.835z"/><path fill="#FFD300" d="M11.205 15.601l-.476.491.384 1.295.501-.4z"/><path fill="#F20" d="M5.069 10.307l-.075.836.793-.095.131-.844z"/><path fill="#FFA300" d="M10.674 14.306l-.442.577.497 1.208.476-.491z"/><path fill="#FF1A00" d="M5.918 10.204l-.131.844.815.13.188-.837z"/><path fill="#FF7A00" d="M10.035 13.141l-.4.653.597 1.089.441-.577z"/><path fill="#FF1A00" d="M6.79 10.342l-.188.836.815.352.245-.813z"/><path fill="#F50" d="M9.307 12.136l-.353.719.681.939.4-.654z"/><path fill="#FF2500" d="M7.662 10.717l-.245.812.791.565.3-.773z"/><path fill="#FF3800" d="M8.508 11.32l-.3.774.746.762.353-.72z"/></g><g transform="translate(9 9)"><circle cx="15.75" cy="16" r="6.5" fill="#FFF" stroke="#FFF"/><circle cx="6.25" cy="16" r="6.5" fill="#FFF" stroke="#FFF"/><circle cx="11" cy="6.35" r="6.5" fill="#FFF" stroke="#FFF"/><path fill="#2775CA" d="M21.75 16a6.02 6.02 0 00-.457-2.296 6.017 6.017 0 00-1.3-1.947 6.017 6.017 0 00-1.947-1.3A6.02 6.02 0 0015.75 10a6.02 6.02 0 00-2.296.457c-.726.3-1.391.745-1.947 1.3A6.02 6.02 0 009.75 16a6.017 6.017 0 001.757 4.243A6.02 6.02 0 0015.75 22a6.02 6.02 0 002.296-.457 6.017 6.017 0 001.947-1.3A6.02 6.02 0 0021.75 16z"/><path fill="#FFF" d="M14.651 20.156c0 .147-.102.196-.25.196-1.852-.593-3.151-2.277-3.151-4.257 0-1.98 1.3-3.664 3.151-4.257.149-.047.25.05.25.2v.344a.272.272 0 01-.151.248c-1.45.544-2.45 1.882-2.45 3.465 0 1.586 1.049 2.97 2.45 3.466.099.048.151.15.151.247v.348z"/><path fill="#FFF" d="M16.151 18.919c0 .098-.102.195-.2.195h-.402c-.098 0-.2-.097-.2-.195v-.596c-.8-.098-1.198-.544-1.349-1.189 0-.098.05-.195.151-.195h.448c.102 0 .151.049.2.146.102.349.3.645.951.645.5 0 .849-.247.849-.645 0-.394-.198-.544-.898-.641-1.05-.147-1.55-.447-1.55-1.29 0-.642.5-1.137 1.198-1.238v-.592c0-.098.102-.2.2-.2h.402c.098 0 .2.102.2.2v.592c.599.101 1 .447 1.099.99 0 .101-.05.2-.151.2H16.7c-.102 0-.152-.05-.201-.148-.099-.348-.349-.494-.8-.494-.5 0-.75.247-.75.592s.149.544.899.645c1.053.142 1.552.443 1.552 1.287 0 .641-.5 1.188-1.25 1.335v.596z"/><path fill="#FFF" d="M17.099 20.352c-.148.052-.25-.049-.25-.196v-.348c0-.098.052-.199.151-.247 1.45-.544 2.45-1.88 2.45-3.466 0-1.583-1.049-2.97-2.45-3.465a.272.272 0 01-.151-.248v-.345c0-.15.102-.199.25-.199 1.802.593 3.151 2.277 3.151 4.257 0 1.98-1.3 3.664-3.151 4.257z"/><g><path fill="#54AE94" d="M12.25 16a6.02 6.02 0 00-.457-2.296 6.017 6.017 0 00-1.3-1.947 6.017 6.017 0 00-1.947-1.3A6.02 6.02 0 006.25 10a6.02 6.02 0 00-2.296.457c-.726.3-1.391.745-1.947 1.3A6.02 6.02 0 00.25 16a6.017 6.017 0 001.757 4.243A6.02 6.02 0 006.25 22a6.02 6.02 0 002.296-.457 6.017 6.017 0 001.947-1.3A6.02 6.02 0 0012.25 16z"/><path fill="#FFF" d="M9.168 13v1.338H7.135v.754c.838.038 1.566.138 2.096.28.265.072.48.152.64.249.079.048.145.1.195.162.05.062.084.138.084.219a.353.353 0 01-.084.219.734.734 0 01-.196.162 2.523 2.523 0 01-.639.248c-.53.142-1.258.242-2.09.28h-.006V19.6h-1.47v-2.689c-.838-.038-1.566-.138-2.096-.28a2.523 2.523 0 01-.64-.248.734.734 0 01-.195-.162.353.353 0 01-.084-.22c0-.08.034-.156.084-.218a.734.734 0 01.196-.162c.158-.097.374-.177.639-.249.53-.142 1.258-.242 2.09-.28h.006v-.754H3.632V13h5.536zm-2.032 2.388v.753l-.015.001a10.462 10.462 0 01-.567.021h-.308a14.622 14.622 0 01-.362-.008 4.54 4.54 0 01-.205-.013l-.015-.001v-.753c-.723.032-1.355.11-1.801.217-.224.053-.4.114-.516.176a.477.477 0 00-.125.089c-.024.027-.031.046-.031.063s.007.036.031.063a.476.476 0 00.125.09c.115.06.292.122.516.175.447.107 1.08.186 1.805.217l.732.017.732-.017c.725-.031 1.358-.11 1.805-.217.224-.053.4-.114.516-.176.058-.03.1-.062.125-.089.024-.027.031-.046.031-.063s-.007-.036-.031-.063a.477.477 0 00-.125-.09 2.282 2.282 0 00-.516-.175c-.446-.107-1.078-.185-1.801-.217z"/></g><g><path fill="#F4B731" d="M17 6.35a6.02 6.02 0 00-.457-2.296 6.017 6.017 0 00-1.3-1.947 6.017 6.017 0 00-1.947-1.3A6.02 6.02 0 0011 .35a6.02 6.02 0 00-2.296.457c-.726.3-1.391.745-1.947 1.3A6.02 6.02 0 005 6.35a6.017 6.017 0 001.757 4.243A6.02 6.02 0 0011 12.35a6.02 6.02 0 002.296-.457 6.017 6.017 0 001.947-1.3A6.02 6.02 0 0017 6.35z"/><path fill="#FFF" d="M11.03 3.092c.204 0 .407.03.607.067.414.076.811.222 1.174.43.242.14.463.31.66.506.151.15.283.318.401.494.12.177.216.369.293.568.01.052.06.087.112.078h.672c.086 0 .086 0 .09.082.009.202.009.405 0 .609-.003.059-.023.074-.083.074h-.518c-.052 0-.067 0-.063.067.012.226.02.453 0 .68 0 .062 0 .07.071.07h.592c.026.033 0 .066 0 .1a.732.732 0 010 .13v.45c0 .062-.018.081-.075.081h-.709a.094.094 0 00-.108.07 2.97 2.97 0 01-.788 1.137c-.127.114-.261.22-.401.319-.15.085-.296.174-.45.245-.282.13-.58.22-.885.278a4.305 4.305 0 01-.878.07 95.019 95.019 0 00-2.603 0v-.003h.002V7.64c0-.048 0-.055-.06-.055h-.814c-.045 0-.064 0-.064-.06V6.82h.87c.049 0 .068 0 .068-.063v-.698c0-.045 0-.056-.06-.056h-.814c-.045 0-.064 0-.064-.06V5.29c0-.04 0-.051.06-.051h.806c.056 0 .072 0 .072-.071V3.167c0-.06 0-.075.075-.075h2.812zm2.1 4.496H8.97c-.056 0-.075 0-.075.074v1.289c0 .06 0 .074.075.074h1.92c.092.007.184 0 .274-.018.278-.02.552-.08.814-.178.094-.036.187-.076.273-.127h.026c.45-.231.816-.596 1.047-1.042.001-.003.026-.057-.003-.071a.877.877 0 00-.192 0zM13.505 6H8.967c-.056 0-.07.019-.07.07v.662c0 .085 0 .085.089.085h4.515c.049 0 .072 0 .075-.063.013-.23.019-.461 0-.69 0-.045-.022-.064-.071-.064zm-2.532-2.202c-.67.006-1.342.006-2.013 0-.057 0-.064.023-.064.07v1.319c0 .055 0 .07.071.07h4.328c.001 0 .037-.007.045-.03h-.019a.07.07 0 000-.051 1.467 1.467 0 00-.135-.234 1.9 1.9 0 00-.278-.345.915.915 0 00-.172-.167 2.706 2.706 0 00-1.125-.565 2.693 2.693 0 00-.638-.067z"/></g></g></g></svg>