<svg width="32" height="32" fill="none" xmlns="http://www.w3.org/2000/svg"><path fill-rule="evenodd" clip-rule="evenodd" d="M32 16c0-2.094-.417-4.188-1.218-6.123a16.046 16.046 0 00-3.468-5.19 16.046 16.046 0 00-5.191-3.47A16.055 16.055 0 0016 0c-2.094 0-4.188.417-6.123 1.218a16.047 16.047 0 00-5.19 3.468 16.047 16.047 0 00-3.47 5.191A16.054 16.054 0 000 16c0 2.094.417 4.188 1.218 6.123a16.046 16.046 0 003.468 5.19 16.046 16.046 0 005.191 3.47A16.054 16.054 0 0016 32c2.094 0 4.188-.417 6.123-1.218a16.046 16.046 0 005.19-3.468 16.046 16.046 0 003.47-5.191A16.054 16.054 0 0032 16z" fill="#EEE"/><path fill-rule="evenodd" clip-rule="evenodd" d="M10.179 26.23a.879.879 0 01-.085-.107c-.058-.084-.037-.135.065-.15a.921.921 0 01.136-.013h3.503c.083 0 .17-.008.261-.024a.364.364 0 00.323-.322 1.52 1.52 0 00.024-.262v-.064c0-.082-.008-.17-.024-.261a.365.365 0 00-.322-.323 1.518 1.518 0 00-.262-.024H9.223c-.052 0-.106-.001-.161-.005a.355.355 0 01-.268-.14 2.544 2.544 0 01-.096-.129 18.153 18.153 0 01-1.503-2.603 1.304 1.304 0 01-.054-.137c-.036-.103.001-.161.11-.174.053-.006.103-.01.146-.01h4.807c.083 0 .17-.007.262-.023a.364.364 0 00.322-.323c.016-.091.024-.179.024-.261v-.064c0-.083-.008-.17-.024-.262a.365.365 0 00-.322-.322 1.518 1.518 0 00-.262-.024H6.85c-.05 0-.104-.002-.16-.006a.26.26 0 01-.232-.164c-.023-.05-.043-.1-.06-.147a23.584 23.584 0 01-.601-1.916 25.001 25.001 0 01-.167-.649 1.283 1.283 0 01-.025-.139c-.014-.102.03-.158.133-.169.05-.005.098-.008.141-.008h9.513c.083 0 .17-.008.261-.024a.365.365 0 00.323-.323c.016-.091.024-.178.024-.261v-.064c0-.083-.008-.17-.024-.262a.365.365 0 00-.323-.322 1.52 1.52 0 00-.261-.024H5.559c-.039 0-.08-.002-.124-.005a.17.17 0 01-.164-.139 1.593 1.593 0 01-.027-.121 32.546 32.546 0 01-.339-2.583 1.59 1.59 0 01-.005-.157c0-.112.057-.174.168-.185.056-.005.108-.008.156-.008h6.98c.083 0 .17-.008.262-.024a.365.365 0 00.322-.322c.016-.092.024-.18.024-.262v-.064c0-.082-.008-.17-.024-.261a.365.365 0 00-.322-.323 1.516 1.516 0 00-.262-.024H5.102c-.044 0-.09-.002-.14-.006-.1-.01-.155-.063-.168-.162a1.643 1.643 0 01-.012-.14 39.201 39.201 0 01-.016-2.4c.006-.267.015-.533.026-.8.003-.079.01-.162.021-.25.023-.176.122-.277.297-.304.088-.013.171-.022.25-.027a26.803 26.803 0 009.944-2.618c.11-.053.224-.105.342-.156.236-.1.472-.1.708 0 .118.05.232.103.342.156a26.802 26.802 0 009.944 2.618c.079.005.162.014.25.027.175.027.274.128.297.304.01.088.018.171.021.25.15 3.603-.13 7.283-1.16 10.779-.825 2.795-2.128 5.471-4.114 7.592-1.487 1.589-3.358 2.865-5.39 3.6a5.156 5.156 0 01-.27.088.942.942 0 01-.549 0 5.156 5.156 0 01-.269-.089 13.495 13.495 0 01-4.119-2.384c-.407-.345-.793-.71-1.158-1.095z" fill="#272727"/></svg>