<svg fill="none" viewBox="0 0 32 32"><path fill="url(#paint0_linear)" fill-rule="evenodd" d="M16 0c8.826 0 16 7.175 16 16.004C32 24.668 25.091 31.74 16.491 32h-.982C6.909 31.74 0 24.668 0 16.004 0 10.024 3.284 4.8 8.15 2.056A15.933 15.933 0 0116 0zm.095 16.861A6.655 6.655 0 009.43 23.53a6.655 6.655 0 006.666 6.669 6.655 6.655 0 006.667-6.669 6.655 6.655 0 00-6.667-6.668zm-8.38-12.49c-3.63 2.59-6 6.826-6 11.633 0 5.574 3.185 10.384 7.831 12.74a8.333 8.333 0 01-1.824-5.072h-.008V4.371zM16 1.714c-2.374 0-4.604.584-6.571 1.606v15.152c1.532-2.016 3.947-3.326 6.666-3.326 4.619 0 8.381 3.763 8.381 8.383a8.33 8.33 0 01-1.724 5.071 14.271 14.271 0 007.534-12.597C30.286 8.102 23.9 1.714 16 1.714z" clip-rule="evenodd"/><defs><linearGradient id="paint0_linear" x1=".854" x2=".854" y1=".857" y2="31.15" gradientUnits="userSpaceOnUse"><stop stop-color="#EDA7EC"/><stop offset="1" stop-color="#0216AF"/></linearGradient></defs></svg>