<svg xmlns="http://www.w3.org/2000/svg" width="32" height="32"><g fill="none" fill-rule="evenodd"><path fill="#FFF" d="M32 16c0-2.094-.417-4.188-1.218-6.123a16.047 16.047 0 00-3.468-5.19 16.047 16.047 0 00-5.191-3.47A16.055 16.055 0 0016 0c-2.094 0-4.188.417-6.123 1.218a16.047 16.047 0 00-5.19 3.468 16.047 16.047 0 00-3.47 5.191A16.055 16.055 0 000 16c0 2.094.417 4.188 1.218 6.123a16.047 16.047 0 003.468 5.19 16.047 16.047 0 005.191 3.47A16.055 16.055 0 0016 32c2.094 0 4.188-.417 6.123-1.218a16.047 16.047 0 005.19-3.468 16.047 16.047 0 003.47-5.191A16.055 16.055 0 0032 16z"/><path fill="#2A5ADA" d="M16 5.333l1.975 1.126 5.383 3.078 1.975 1.126V21.32l-1.975 1.126-5.334 3.081-1.975 1.123-1.975-1.123-5.432-3.081-1.975-1.126V10.663l1.975-1.126 5.383-3.078L16 5.333zm0 4.497l-5.383 3.081v6.16L16 22.152l5.383-3.081v-6.16L16 9.83z"/></g></svg>