<svg fill="none" viewBox="0 0 32 32"><path fill="#fff" fill-rule="evenodd" d="M32 16c0-2.094-.417-4.188-1.218-6.123a16.058 16.058 0 00-3.468-5.19 16.051 16.051 0 00-5.191-3.47A16.054 16.054 0 0016 0c-2.094 0-4.188.417-6.123 1.218a16.055 16.055 0 00-5.19 3.468 16.05 16.05 0 00-3.47 5.191A16.049 16.049 0 000 16c0 2.094.416 4.188 1.218 6.123a16.056 16.056 0 003.468 5.19 16.055 16.055 0 005.19 3.469A16.056 16.056 0 0016 32c2.094 0 4.188-.417 6.123-1.218a16.051 16.051 0 005.19-3.468 16.063 16.063 0 003.47-5.191A16.054 16.054 0 0032 16z" clip-rule="evenodd"/><path fill="url(#paint0_linear)" fill-rule="evenodd" d="M11.855 3.384a13.267 13.267 0 0113.213 2.914 13.155 13.155 0 013.417 5.189c.71 1.99.946 4.19.672 6.284a13.194 13.194 0 01-2.243 5.795 13.207 13.207 0 01-4.64 4.134 13.622 13.622 0 01-6.12 1.576 13.207 13.207 0 01-6.059-1.381 13.19 13.19 0 01-4.763-3.991 13.662 13.662 0 01-2.444-5.83 13.13 13.13 0 01.487-6.193 13.392 13.392 0 012.23-4.145H4.12V5.282h5.817v5.431H7.483V9.23a10.961 10.961 0 00-1.827 3.397 10.787 10.787 0 00-.4 5.07 11.107 11.107 0 002.81 5.75 10.952 10.952 0 006.8 3.375 11.023 11.023 0 007.351-1.892 10.999 10.999 0 004.325-6.24c.637-2.5.342-5.237-.807-7.547a10.919 10.919 0 00-5.546-5.183c-2.394-.99-5.181-1.085-7.585-.295l-.75-2.28z" clip-rule="evenodd"/><circle cx="16" cy="16" r="8" fill="#000"/><circle cx="16" cy="16" r="8" fill="url(#paint1_linear)"/><circle cx="16" cy="16" r="6.933" fill="#fff"/><circle cx="15.983" cy="15.983" r="6.317" fill="#000"/><path fill="#fff" d="M16.407 19.3a3.2 3.2 0 01-1.015-.155 2.717 2.717 0 01-.832-.465 2.756 2.756 0 01-.603-.72 3.19 3.19 0 01-.339-.95h-.868v-.665h.795a.967.967 0 01-.009-.137v-.346c.006-.067.01-.122.01-.165h-.796v-.665h.86c.066-.36.182-.681.347-.967a2.646 2.646 0 011.471-1.177 3.282 3.282 0 011.024-.155c.42 0 .771.055 1.052.165.28.109.518.246.713.41l-.457.876a1.927 1.927 0 00-.622-.329 2.335 2.335 0 00-.677-.091c-.444 0-.816.11-1.115.328-.298.22-.49.532-.576.94h2.66l-.32.665h-2.413c0 .055-.003.11-.009.165v.319c.006.055.01.11.01.164h2.23l-.32.666H14.77c.086.401.274.711.567.93.299.219.667.328 1.106.328.274 0 .512-.033.713-.1.207-.073.384-.164.53-.274l.53.83a2.247 2.247 0 01-.776.43 3.28 3.28 0 01-1.033.145z"/><defs><linearGradient id="paint0_linear" x1="2.043" x2="15.222" y1="13.297" y2="29.576" gradientUnits="userSpaceOnUse"><stop stop-color="#004CFF"/><stop offset=".252" stop-color="#00E0FB"/><stop offset=".506" stop-color="#87FF70"/><stop offset=".755" stop-color="#F8F500"/><stop offset="1" stop-color="#FF1A00"/></linearGradient><linearGradient id="paint1_linear" x1="8" x2="24" y1="8" y2="24" gradientUnits="userSpaceOnUse"><stop stop-color="#fff"/><stop offset="1" stop-color="#fff" stop-opacity="0"/></linearGradient></defs></svg>