<svg viewBox="0 0 32 32"><g fill="none" fill-rule="evenodd"><path fill="#F4B731" d="M32 16c0-2.094-.417-4.188-1.218-6.123a16.047 16.047 0 00-3.468-5.19 16.047 16.047 0 00-5.191-3.47A16.055 16.055 0 0016 0c-2.094 0-4.188.417-6.123 1.218a16.047 16.047 0 00-5.19 3.468 16.047 16.047 0 00-3.47 5.191A16.055 16.055 0 000 16c0 2.094.417 4.188 1.218 6.123a16.047 16.047 0 003.468 5.19 16.047 16.047 0 005.191 3.47A16.055 16.055 0 0016 32c2.094 0 4.188-.417 6.123-1.218a16.047 16.047 0 005.19-3.468 16.047 16.047 0 003.47-5.191A16.055 16.055 0 0032 16z"/><path fill="#FFF" d="M16.08 7.313c.545 0 1.085.08 1.62.178a9.84 9.84 0 013.13 1.149c.645.37 1.233.826 1.76 1.346.403.4.753.848 1.07 1.317.319.473.576.984.78 1.515a.26.26 0 00.3.208h1.79c.23 0 .23 0 .24.218.025.541.025 1.082 0 1.624-.008.158-.06.199-.221.199h-1.38c-.14 0-.18 0-.17.178.032.604.054 1.208 0 1.811 0 .168 0 .188.19.188h1.58c.07.09 0 .178 0 .268.01.115.01.231 0 .346v1.198c0 .169-.05.219-.2.219h-1.89a.25.25 0 00-.29.188 7.918 7.918 0 01-2.101 3.03c-.34.304-.697.588-1.07.85-.4.229-.79.466-1.2.654a10.36 10.36 0 01-2.36.742 11.48 11.48 0 01-2.34.189 253.384 253.384 0 00-6.94 0v-.01l.002-.002V19.44c0-.13 0-.149-.16-.149H6.05c-.12 0-.17 0-.17-.158v-1.881H8.2c.13 0 .18 0 .18-.169v-1.86c0-.12 0-.149-.16-.149H6.05c-.12 0-.17 0-.17-.158v-1.743c0-.109 0-.138.16-.138h2.15c.15 0 .19 0 .19-.188V7.511c0-.158 0-.198.2-.198h7.5zm5.6 11.989H10.59c-.15 0-.2 0-.2.198v3.436c0 .158 0 .198.2.198h5.12c.245.018.49.001.729-.05a7.673 7.673 0 002.171-.475c.25-.094.498-.2.73-.336h.07a6.463 6.463 0 002.79-2.78c.003-.009.07-.15-.01-.19v-.001a2.338 2.338 0 00-.51 0zm1-4.238h-12.1c-.15 0-.19.05-.19.189v1.762c0 .227 0 .227.24.227h12.04c.13 0 .19 0 .2-.168a13.48 13.48 0 000-1.842c0-.119-.06-.168-.19-.168zm-6.751-5.871c-1.79.015-3.58.015-5.37 0-.15-.001-.17.06-.17.188v3.515c0 .148 0 .188.19.188h11.54c.005-.001.1-.02.12-.08h-.048a.19.19 0 000-.138 3.911 3.911 0 00-.362-.623 5.065 5.065 0 00-.74-.921 2.44 2.44 0 00-.46-.446 7.217 7.217 0 00-3-1.505 7.18 7.18 0 00-1.7-.178z"/></g></svg>