<svg xmlns="http://www.w3.org/2000/svg" width="30" height="32"><g fill="none" fill-rule="evenodd"><path fill="#161D39" d="M2.347 7.107c.85-2.23 1.956-4.133 2.859-5.265C6.108.709 6.806.347 7.57.214c.763-.132 1.59-.035 2.47.42.878.457 1.808 1.271 2.997 2.508 1.189 1.237 2.637 2.896 3.895 4.264 1.257 1.367 2.325 2.443 3.546 3.458 1.22 1.014 2.595 1.969 3.948 3.145 1.352 1.177 2.682 2.577 3.607 3.85.925 1.275 1.445 2.423 1.572 3.816.128 1.394-.136 3.032-.902 4.512-.767 1.48-2.035 2.801-3.637 3.768-1.601.968-3.536 1.58-5.84 1.797-2.305.217-4.98.038-7.537-.507-2.559-.544-5-1.453-6.724-2.437-1.723-.983-2.727-2.04-3.43-3.44C.832 23.967.43 22.223.277 20.346.124 18.47.22 16.462.562 14.178c.344-2.283.936-4.841 1.785-7.071z"/><path fill="#45FFF4" d="M14.598 20.627h-3.916v5.312l-1.253 1.252H5.687V12.572l1.252-1.253h3.743v6.682h3.916v-5.429l1.253-1.253h3.742v14.62l-1.253 1.252h-3.742z"/></g></svg>