<svg width="32" height="32" fill="none" xmlns="http://www.w3.org/2000/svg"><path fill-rule="evenodd" clip-rule="evenodd" d="M32 16c0-8.828-7.172-16-16-16S0 7.172 0 16s7.172 16 16 16 16-7.172 16-16z" fill="#fff"/><path d="M9.004 14.791l-.191.293C6.66 18.386 7.14 22.71 9.968 25.48a8.585 8.585 0 006.024 2.445L9.004 14.791z" fill="#00A3FF"/><path opacity=".6" d="M16 9.867L9.976 13.31 16 16.751V9.867z" fill="#00A3FF"/><path d="M16 4.075l-6.024 9.237L16 9.857V4.075z" fill="#00A3FF"/><path opacity=".6" d="M16 18.783L9.004 14.79 16 27.925v-9.142zM22.997 14.791l.19.293c2.152 3.302 1.672 7.626-1.155 10.396a8.585 8.585 0 01-6.024 2.445l6.989-13.134z" fill="#00A3FF"/><path opacity=".2" d="M16 9.867l6.024 3.444L16 16.751V9.867z" fill="#00A3FF"/><path opacity=".6" d="M16 4.075l6.024 9.237L16 9.857V4.075z" fill="#00A3FF"/><path opacity=".2" d="M16 18.783l6.996-3.992L16 27.925v-9.142z" fill="#00A3FF"/></svg>