<svg viewBox="0 0 32 32"><defs><linearGradient id="a" x1="90.7%" x2="16.3%" y1="22.7%" y2="85.3%"><stop offset="0%" stop-color="#B6509E"/><stop offset="100%" stop-color="#2EBAC6"/></linearGradient></defs><g fill="none"><circle cx="16" cy="16" r="16" fill="url(#a)"/><path fill="#FFF" d="M23.001 22.374L17.59 9.296c-.306-.676-.758-1.007-1.356-1.007h-.48c-.597 0-1.05.33-1.355 1.007l-2.354 5.698h-1.782a.974.974 0 00-.97.967v.013a.974.974 0 00.97.968h.958l-2.247 5.432c-.043.12-.065.245-.067.372 0 .304.093.543.266.728.173.186.412.279.718.279a.972.972 0 00.558-.186 1.18 1.18 0 00.386-.49l2.473-6.135h1.716a.974.974 0 00.97-.968v-.026a.974.974 0 00-.97-.968h-.918l1.888-4.704 5.146 12.8c.093.2.213.372.386.491a.972.972 0 00.558.186c.306 0 .545-.093.718-.279.173-.185.266-.424.266-.728a.876.876 0 00-.067-.372z"/></g></svg>