<svg width="32" height="32" fill="none" xmlns="http://www.w3.org/2000/svg"><path fill-rule="evenodd" clip-rule="evenodd" d="M32 16c0-8.828-7.172-16-16-16S0 7.172 0 16s7.172 16 16 16 16-7.172 16-16z" fill="#8150E6"/><path fill-rule="evenodd" clip-rule="evenodd" d="M31.657 19.294a16 16 0 01-13.74 12.59l-8.902-8.902h6.276c2.681 0 4.335-.922 5.6-2.308 1.265-1.386 2.14-3.236 2.14-6.068 0-1.992-.434-3.498-1.131-4.7.62.34 1.153.768 1.63 1.26l8.127 8.128z" fill="#3C176B"/><path fill-rule="evenodd" clip-rule="evenodd" d="M18.101 25.793c2.682 0 4.336-.923 5.6-2.308 1.265-1.386 2.14-3.236 2.14-6.068 0-2.832-.875-4.682-2.14-6.068-1.264-1.385-2.918-2.308-5.6-2.308h-6.276v16.752h6.276z" fill="#9B74EC"/><path fill-rule="evenodd" clip-rule="evenodd" d="M19.834 12.098c.205.625.322 1.423.322 2.508 0 2.287-.52 3.296-1.285 4.116-.766.82-1.777 1.45-3.58 1.45h-.655v-8.32h3.466c.68 0 1.248.09 1.732.246z" fill="#3C176B"/><path fill-rule="evenodd" clip-rule="evenodd" d="M19.834 12.098c-.484-.157-1.052-.246-1.733-.246h-3.465v8.32h-2.81V9.042h3.465c1.803 0 2.814.63 3.58 1.45.402.43.736.913.963 1.606z" fill="#6B42BD"/><path fill-rule="evenodd" clip-rule="evenodd" d="M20.89 20.674c-1.264 1.386-2.918 2.308-5.599 2.308H9.015V6.231h6.276c2.681 0 4.335.922 5.6 2.308 1.265 1.386 2.14 3.236 2.14 6.067 0 2.832-.875 4.682-2.14 6.068zM11.826 9.04v11.13h3.466c1.803 0 2.814-.63 3.58-1.45.766-.819 1.285-1.828 1.285-4.115 0-2.286-.52-3.295-1.285-4.114-.766-.82-1.777-1.45-3.58-1.45h-3.466z" fill="#fff"/></svg>