<svg width="32" height="32" fill="none" xmlns="http://www.w3.org/2000/svg"><circle cx="16" cy="16" r="16" fill="#0E052F"/><circle cx="16" cy="16" r="16" fill="url(#paint0_linear)" fill-opacity=".75"/><circle cx="16" cy="16" r="13.867" fill="#fff"/><circle cx="15.967" cy="15.967" r="12.633" fill="#F7931A"/><path fill-rule="evenodd" clip-rule="evenodd" d="M21.569 14.311c.24-1.598-.987-2.455-2.666-3.03l.545-2.163-1.33-.328-.531 2.106a50.16 50.16 0 00-1.066-.248l.533-2.12-1.328-.328-.546 2.163-.182-.042a62.54 62.54 0 01-.667-.155l.002-.008-1.835-.454-.353 1.407.01.003c.115.026.976.222.955.235.538.133.637.487.621.766l-1.494 5.928c-.065.162-.233.405-.61.313.015.019-.917-.226-.966-.24L10 19.624l1.732.429c.185.045.369.093.55.14l.397.102-.55 2.188 1.33.328.544-2.165c.363.098.715.188 1.06.272l-.542 2.155 1.33.328.55-2.184c2.267.425 3.974.254 4.692-1.778.579-1.636-.03-2.579-1.223-3.195.87-.197 1.523-.763 1.699-1.932zm-3.04 4.218c-.377 1.501-2.745.883-3.831.599a20.249 20.249 0 00-.262-.067l.73-2.9c.091.023.203.048.33.076 1.123.25 3.419.76 3.034 2.293zm-2.81-3.64c.903.24 2.878.762 3.222-.601.35-1.396-1.567-1.817-2.505-2.023a11.912 11.912 0 01-.274-.062l-.661 2.63.217.056z" fill="#fff"/><defs><linearGradient id="paint0_linear" x1="0" y1="0" x2="32" y2="32" gradientUnits="userSpaceOnUse"><stop stop-color="#31D8A4"/><stop offset="1" stop-color="#31D8A4" stop-opacity="0"/></linearGradient></defs></svg>