<svg xmlns="http://www.w3.org/2000/svg" width="32" height="32"><defs><linearGradient id="a" x1="50%" x2="50%" y1="0%" y2="100%"><stop offset="0%" stop-color="#FF1A00"/><stop offset="24.495%" stop-color="#F8F500"/><stop offset="49.429%" stop-color="#87FF70"/><stop offset="74.787%" stop-color="#00E0FB"/><stop offset="100%" stop-color="#004CFF"/></linearGradient></defs><g fill="none" fill-rule="evenodd"><path fill="url(#a)" d="M8.132 31.847l-1.004-.32-.987-.577-.999-.851-.823-.982-.752-1.168-.658-1.326-.62-1.652-.742-2.297-.687-2.553-.225-.934-.336-2.011-.131-1.049-.146-1.957.037-1.949.24-1.923.403-1.791.265-1.125.58-1.596.703-1.303L3.786 2.4l.878-.755.96-.682.852-.428 1.216-.36L9.877.024l1.863.194 2.2.443 2.449.718 2.582.922L21.55 3.4l.246.083 2.494 1.241 2.199 1.348 1.707 1.386.457.328 1.603 1.82.356.578.84 1.941.241.746.164.812.069.831v.907l-.066.793-.324 1.622-.218.721-.27.63-.375.636-.417.524-.434.358-1.228.669-1.436.486-2.07.543-1.999.489-2.401.574-1.754.479-.663.159-2.271.722-1.07.409-.466.171-.133.65-.275.799-.245.679-.268.581-.641 1.211-.784 1.006-.847.746-1.174.615-.993.193z"/><g fill-rule="nonzero"><path fill="#FBF100" d="M13.463 9.22l-.277.383.235 1.934.218-.45z"/><path fill="#A40000" d="M9.876 0L8.4.09l.729.261L10.423.26z"/><path fill="#FFAE00" d="M13.204 7.409l-.364.318.346 1.876.277-.383z"/><path fill="#A80000" d="M10.423.26L9.129.351l.73.576L10.97.824z"/><path fill="#FF7300" d="M12.868 5.703l-.476.258.448 1.766.364-.318z"/><path fill="#B60000" d="M10.97.824L9.858.926l.711.877.934-.126z"/><path fill="#FF3F00" d="M12.465 4.151l-.612.205.538 1.605.477-.258z"/><path fill="#D60000" d="M11.503 1.677l-.934.126.671 1.154.766-.161z"/><path fill="#FF1300" d="M12.005 2.796l-.765.161.613 1.399.612-.205z"/></g><g fill-rule="nonzero"><path fill="#16FFE1" d="M16.437 15.284l-1.281.269-.062 1.444 1.33-.348z"/><path fill="#4DFFAA" d="M16.449 13.805l-1.258.18-.034 1.568 1.28-.269z"/><path fill="#80FF77" d="M16.458 12.249l-1.261.083-.005 1.653 1.257-.18z"/><path fill="#B7FF40" d="M16.463 10.658l-1.291-.019.024 1.693 1.261-.083z"/><path fill="#EBFF0C" d="M16.466 9.075l-1.348-.124.054 1.688 1.291.02z"/><path fill="#ED0400" d="M16.389 1.345L13.94.641l.183.232 2.283.678z"/><path fill="#FC0" d="M16.466 7.542l-1.43-.228.082 1.637 1.349.124z"/><path fill="#F10800" d="M16.406 1.552L14.123.873l.182.506 2.117.636z"/><path fill="#FF9800" d="M16.463 6.103l-1.534-.329.107 1.54 1.431.228z"/><path fill="#FF1300" d="M16.422 2.014l-2.117-.636.176.767 1.955.578z"/><path fill="#FF6C00" d="M16.457 4.796l-1.659-.422.131 1.4 1.535.328z"/><path fill="#FF2900" d="M16.436 2.723l-1.955-.578.166 1.008 1.8.506z"/><path fill="#FF4700" d="M16.448 3.66l-1.8-.506.15 1.221 1.659.421z"/></g><g fill-rule="nonzero"><path fill="#13FCE4" d="M15.157 15.554l-.944.41-.116 1.518.997-.485z"/><path fill="#49FFAD" d="M15.191 13.985l-.918.327-.06 1.651.943-.41z"/><path fill="#80FF77" d="M15.196 12.332l-.983.238.06 1.742.918-.327z"/><path fill="#BAFF3C" d="M15.171 10.639l-.952.144.056 1.787.921-.238z"/><path fill="#F1FC06" d="M15.118 8.951L14.104 9l.115 1.783.952-.144z"/><path fill="#D10000" d="M13.939.641L11.74.186l.362.25 2.02.437z"/><path fill="#FFC100" d="M15.036 7.314l-1.101-.045.169 1.73 1.014-.049z"/><path fill="#D60000" d="M14.123.873L12.102.436l.362.54 1.841.402z"/><path fill="#FF8900" d="M14.929 5.774l-1.213-.135.22 1.63 1.1.045z"/><path fill="#E40000" d="M14.305 1.378L12.464.976l.352.816 1.665.353z"/><path fill="#FF5D00" d="M14.798 4.374l-1.348-.218.265 1.483 1.213.135z"/><path fill="#FF1300" d="M14.481 2.146l-1.665-.354.332 1.07 1.499.291z"/><path fill="#FF3400" d="M14.647 3.153l-1.499-.291.302 1.294 1.347.218z"/></g><g fill-rule="nonzero"><path fill="#1CFFDB" d="M17.985 15.16l-1.547.125-.013 1.365 1.588-.207z"/><path fill="#50FFA7" d="M17.976 13.773l-1.527.032-.011 1.479 1.546-.125z"/><path fill="#80FF77" d="M17.989 12.319l-1.53-.07-.009 1.556 1.526-.032z"/><path fill="#B4FF43" d="M18.022 10.836l-1.558-.178-.006 1.591 1.531.07z"/><path fill="#E4FF13" d="M18.076 9.365l-1.609-.29-.002 1.584 1.558.178z"/><path fill="gold" d="M18.149 7.943l-1.682-.401v1.533l1.609.289z"/><path fill="#FF1E00" d="M18.972 2.27l-2.583-.924.017.206 2.436.893z"/><path fill="#FFA700" d="M18.238 6.611l-1.774-.509.003 1.44 1.682.401z"/><path fill="#FF1E00" d="M18.843 2.444l-2.436-.893.016.464 2.289.844z"/><path fill="#FF7E00" d="M18.342 5.405l-1.885-.609.007 1.307 1.774.508z"/><path fill="#FF2900" d="M18.712 2.859l-2.289-.844.014.709 2.145.779z"/><path fill="#FF5900" d="M18.457 4.36l-2.009-.701.009 1.137 1.884.609z"/><path fill="#FF3B00" d="M18.582 3.503l-2.145-.78.012.936 2.009.7z"/></g><g fill-rule="nonzero"><path fill="#0CF" d="M14.27 25.426l2.078-.785-.414.22-2.109.802z"/><path fill="#00DCFE" d="M14.676 25.067l2.051-.76-.379.334-2.078.786z"/><path fill="#09F0EE" d="M15.033 24.594l2.028-.727-.334.44-2.051.76z"/><path fill="#1CFFDB" d="M15.332 24.019l2.01-.685-.281.534-2.028.726z"/><path fill="#33FFC4" d="M15.566 23.355l1.995-.637-.219.616-2.009.685z"/><path fill="#4DFFAA" d="M15.726 22.62l1.987-.584-.152.682-1.995.637z"/><path fill="#63FF94" d="M15.81 21.832l1.983-.526-.08.73-1.987.584z"/><path fill="#7DFF7A" d="M15.814 21.012l1.986-.466-.007.76-1.983.526z"/><path fill="#97FF60" d="M15.737 20.181l1.994-.405.068.77-1.986.466z"/><path fill="#B1FF46" d="M15.582 19.361l2.009-.344.141.759-1.995.405z"/><path fill="#C7FF30" d="M15.352 18.573l2.028-.285.211.729-2.009.344z"/><path fill="#DEFF19" d="M15.053 17.84l2.052-.231.275.679-2.029.286z"/><path fill="#FC0" d="M12.353 15.511l2.253-.057.464.075-2.218.063z"/><path fill="#F1FC06" d="M14.693 17.18l2.081-.181.332.61-2.053.231z"/><path fill="#FC0" d="M12.852 15.592l2.218-.063.46.198-2.182.08z"/><path fill="#FFEA00" d="M14.281 16.611l2.113-.139.38.526-2.081.182z"/><path fill="#FFD000" d="M13.348 15.807l2.182-.08.445.318-2.146.104z"/><path fill="#FFDB00" d="M13.829 16.149l2.146-.104.418.427-2.112.139z"/></g><g fill-rule="nonzero"><path fill="#BEFF39" d="M14.22 10.783l-.581.303.089 1.87.549-.386z"/><path fill="#F8F500" d="M14.106 9l-.642.22.176 1.866.58-.303z"/><path fill="#B00" d="M11.741.186L9.877 0l.547.26 1.679.177z"/><path fill="#FFB900" d="M13.936 7.269l-.731.14.259 1.811.642-.22z"/><path fill="#BF0000" d="M12.103.437l-1.68-.176.548.563 1.494.153z"/><path fill="#FF7E00" d="M13.716 5.639l-.847.064.335 1.706.732-.14z"/><path fill="#CD0000" d="M12.465.977L10.971.824l.533.853 1.313.116z"/><path fill="#FF4E00" d="M13.451 4.157l-.985-.006.403 1.552.847-.063z"/><path fill="#E80000" d="M12.817 1.793l-1.313-.116.503 1.119 1.142.066z"/><path fill="#F20" d="M13.148 2.862l-1.141-.065.459 1.354.985.006z"/></g><g fill-rule="nonzero"><path fill="#00D0FF" d="M12.986 25.875l1.69-.808-.406.36-1.725.838z"/><path fill="#00E4F8" d="M13.372 25.36l1.661-.766-.358.474-1.69.807z"/><path fill="#16FFE1" d="M13.696 24.733l1.637-.714-.3.575-1.66.766z"/><path fill="#2CFFCA" d="M13.947 24.011l1.619-.656-.233.664-1.637.715z"/><path fill="#46FFB1" d="M14.119 23.21l1.607-.59-.16.736-1.619.655z"/><path fill="#63FF94" d="M14.207 22.35l1.603-.518-.084.788-1.607.589z"/><path fill="#7DFF7A" d="M14.208 21.455l1.605-.443-.004.82-1.602.518z"/><path fill="#9AFF5D" d="M14.122 20.549l1.614-.368.077.831-1.605.444z"/><path fill="#B7FF40" d="M13.95 19.654l1.631-.293.155.82-1.614.368z"/><path fill="#D1FF26" d="M13.697 18.794l1.654-.22.23.787-1.631.292z"/><path fill="#E7FF0F" d="M13.369 17.993l1.684-.153.299.734-1.655.22z"/><path fill="#FBF100" d="M12.974 17.272l1.719-.092.36.66-1.684.153z"/><path fill="#FFDB00" d="M12.524 16.651l1.757-.039.412.569-1.719.091z"/></g><g fill-rule="nonzero"><path fill="#00B4FF" d="M1.371 22.113l.287.933-.483-1.835-.297-.972z"/><path fill="#16FFE1" d="M.62 19.187l.266 1.086.289.938-.316-1.902-.448-1.588z"/><path fill="#56FFA0" d="M.555 18.296l.305 1.013-.14-1.922-.309-1.055z"/><path fill="#97FF60" d="M.411 16.332l.308 1.055.042-1.893-.309-1.097z"/><path fill="#D4FF23" d="M.453 14.397l.308 1.097.224-1.816L.68 12.54z"/><path fill="gold" d="M.679 12.54l.306 1.138.403-1.692-.299-1.177z"/><path fill="#FF9400" d="M1.09 10.809l.298 1.177.574-1.522-.288-1.212z"/><path fill="#FF5900" d="M1.674 9.252l.289 1.212.731-1.309-.275-1.244z"/><path fill="#FF2500" d="M2.419 7.911l.275 1.244.872-1.059-.258-1.27z"/><path fill="#C1FF36" d="M14.81 16.747l.029 1.074.185 1.973-.026-1.03z"/><path fill="#DF0000" d="M3.308 6.826l.258 1.27.99-.777-.239-1.291z"/><path fill="#FFEA00" d="M14.432 14.75l.037 1.117.371 1.954-.03-1.074z"/><path fill="#B00" d="M4.317 6.028l.239 1.291 1.083-.472-.218-1.304z"/><path fill="#FFA700" d="M13.871 12.827l.048 1.16.55 1.88-.037-1.117z"/><path fill="#9F0000" d="M5.421 5.542l.217 1.304 1.146-.15-.194-1.311z"/><path fill="#FF6C00" d="M13.142 11.033l.063 1.198.715 1.756-.049-1.159z"/><path fill="#920000" d="M6.59 5.385l.194 1.31 1.178.177-.171-1.309z"/><path fill="#FF3400" d="M12.264 9.418l.081 1.232.86 1.581-.063-1.198z"/><path fill="#960000" d="M7.791 5.564l.171 1.309 1.177.501-.147-1.3z"/><path fill="#F10800" d="M11.261 8.028l.101 1.262.983 1.36-.081-1.232z"/><path fill="#A40000" d="M8.992 6.074l.147 1.3 1.144.813-.123-1.284z"/><path fill="#C40000" d="M10.16 6.903l.123 1.285 1.079 1.102-.101-1.261z"/></g><g fill-rule="nonzero"><path fill="#53FFA4" d="M.293 17.22l.263 1.076-.144-1.963-.266-1.102z"/><path fill="#97FF60" d="M.146 15.231l.266 1.101.041-1.935-.267-1.127z"/><path fill="#D7FF1F" d="M.186 13.27l.267 1.127.227-1.857-.265-1.152z"/><path fill="#FFD300" d="M.414 11.388l.265 1.152.41-1.731-.261-1.176z"/><path fill="#FF9100" d="M.828 9.634l.261 1.175.585-1.557-.257-1.198z"/><path fill="#FF5200" d="M1.418 8.054l.256 1.198.745-1.341-.249-1.217z"/><path fill="#FF1E00" d="M2.17 6.694l.25 1.217.888-1.085-.241-1.234z"/><path fill="#D60000" d="M3.067 5.592l.241 1.234 1.009-.798-.23-1.247z"/><path fill="#AD0000" d="M4.087 4.781l.23 1.247 1.104-.486-.219-1.256z"/><path fill="#FFA300" d="M13.746 11.651l.125 1.176.561 1.923-.119-1.153z"/><path fill="#920000" d="M5.202 4.286l.219 1.256 1.169-.157-.207-1.261z"/><path fill="#FF6400" d="M13.008 9.834l.134 1.2.729 1.794-.125-1.177z"/><path fill="#840000" d="M6.383 4.124l.207 1.261 1.202.178-.194-1.261z"/><path fill="#FF2D00" d="M12.12 8.199l.144 1.219.878 1.616-.134-1.2z"/><path fill="#890000" d="M7.598 4.302l.193 1.261 1.202.511-.181-1.258z"/><path fill="#E40000" d="M11.106 6.793l.155 1.235 1.004 1.39-.144-1.219z"/><path fill="#9B0000" d="M8.812 4.817l.181 1.257 1.167.829-.167-1.248z"/><path fill="#B00" d="M9.993 5.655l.167 1.248 1.101 1.126-.155-1.236z"/><path fill="#13FCE4" d="M.477 18.101l.143 1.086-.327-1.967-.145-1.094z"/></g><g fill-rule="nonzero"><path fill="#19FFDE" d="M1.176 21.211l.277.852-.307-1.845-.286-.908z"/><path fill="#56FFA0" d="M.86 19.31l.286.908-.135-1.864-.291-.966z"/><path fill="#94FF63" d="M.72 17.388l.291.966.041-1.835-.291-1.024z"/><path fill="#D1FF26" d="M.762 15.495l.29 1.024.219-1.76-.285-1.081z"/><path fill="#FFDB00" d="M.986 13.678l.286 1.08.392-1.639-.275-1.133z"/><path fill="#FF9C00" d="M1.389 11.986l.275 1.134.558-1.474-.259-1.181z"/><path fill="#FF6000" d="M1.963 10.465l.26 1.182.711-1.267-.239-1.224z"/><path fill="#FF3000" d="M2.695 9.156l.239 1.224.848-1.023-.215-1.26z"/><path fill="#C1FF36" d="M14.84 17.822l-.113.978.179 1.912.118-.917z"/><path fill="#F10800" d="M3.566 8.097l.215 1.259.962-.75-.187-1.287z"/><path fill="#FBF100" d="M14.469 15.868l-.102 1.038.36 1.894.113-.978z"/><path fill="#C80000" d="M4.556 7.319l.187 1.287 1.051-.455-.155-1.304z"/><path fill="#FFAE00" d="M13.92 13.987l-.086 1.096.533 1.823.103-1.038z"/><path fill="#AD0000" d="M5.639 6.847l.156 1.304 1.112-.143-.122-1.312z"/><path fill="#FF7300" d="M13.205 12.232l-.065 1.15.693 1.702.087-1.096z"/><path fill="#A40000" d="M6.785 6.696l.122 1.311 1.144.174-.089-1.308z"/><path fill="#FF3F00" d="M12.346 10.651l-.041 1.198.835 1.533.066-1.15z"/><path fill="#A40000" d="M7.963 6.873l.088 1.309 1.143.488-.054-1.295z"/><path fill="#FF1300" d="M11.363 9.29l-.012 1.24.954 1.319.04-1.198z"/><path fill="#B60000" d="M9.14 7.375l.054 1.295 1.11.79-.02-1.272z"/><path fill="#D10000" d="M10.284 8.188l.02 1.271 1.046 1.07.012-1.239z"/><path fill="#00BCFF" d="M1.658 23.047l.262.797-.468-1.781-.276-.852z"/></g><g fill-rule="nonzero"><path fill="#00C4FF" d="M1.92 23.844l.203.631-.45-1.714-.221-.699z"/><path fill="#1CFFDB" d="M1.452 22.063l.221.699-.294-1.774-.233-.77z"/><path fill="#56FFA0" d="M1.145 20.217l.233.771-.129-1.792-.239-.842z"/><path fill="#94FF63" d="M1.01 18.354l.239.843.041-1.764-.239-.915z"/><path fill="#CEFF29" d="M1.052 16.519l.238.914.212-1.69-.231-.985z"/><path fill="#00B0FF" d="M14.352 26.056l-.262.559-.505 1.44.242-.5z"/><path fill="#FFE200" d="M1.271 14.758l.231.985.379-1.573-.218-1.05z"/><path fill="#0CF4EB" d="M14.715 24.387l-.278.625-.347 1.603.263-.559z"/><path fill="#FFA300" d="M1.663 13.119l.217 1.051.539-1.413-.197-1.111z"/><path fill="#46FFB1" d="M14.901 22.59l-.285.696-.179 1.726.277-.625z"/><path fill="#FF6C00" d="M2.222 11.646l.197 1.111.685-1.214-.17-1.163z"/><path fill="#80FF77" d="M14.906 20.712l-.287.77-.004 1.804.286-.695z"/><path fill="#FF3B00" d="M2.933 10.38l.171 1.163.815-.98-.138-1.207z"/><path fill="#BEFF39" d="M14.727 18.799l-.281.846.173 1.836.287-.77z"/><path fill="#FF1300" d="M3.781 9.356l.138 1.206.926-.718-.103-1.239z"/><path fill="#F8F500" d="M14.366 16.906l-.268.921.348 1.818.281-.846z"/><path fill="#DA0000" d="M4.743 8.605l.102 1.239 1.011-.433-.062-1.261z"/><path fill="#FFB600" d="M13.832 15.083l-.248.994.514 1.75.268-.921z"/><path fill="#C40000" d="M5.794 8.151l.062 1.26 1.07-.135-.02-1.269z"/><path fill="#FF7E00" d="M13.139 13.381l-.221 1.062.667 1.634.248-.994z"/><path fill="#B60000" d="M6.907 8.007l.019 1.269 1.099.169.025-1.264z"/><path fill="#FF4A00" d="M12.304 11.849l-.19 1.123.804 1.472.221-1.062z"/><path fill="#B00" d="M8.05 8.181l-.025 1.264 1.099.471.069-1.247z"/><path fill="#FF1E00" d="M11.35 10.53l-.153 1.174.918 1.268.189-1.123z"/><path fill="#C80000" d="M9.193 8.669l-.07 1.247 1.068.759.112-1.216z"/><path fill="#E40000" d="M10.303 9.46l-.112 1.216 1.006 1.028.153-1.175z"/></g><g fill-rule="nonzero"><path fill="#00C4FF" d="M11.9 25.321l2.243-.774-.424-.367-2.277.746z"/><path fill="#00D0FF" d="M11.441 24.927l2.278-.746-.393-.467-2.309.709z"/><path fill="#00E0FB" d="M11.017 24.422l2.309-.709-.352-.556-2.337.666z"/><path fill="#0FF8E7" d="M10.636 23.823l2.338-.665-.302-.632-2.363.616z"/><path fill="#00B4FF" d="M9.969 26.147l1.931-.825-.458-.396-1.972.79z"/><path fill="#00C0FF" d="M9.47 25.716l1.972-.789-.425-.504-2.011.744z"/><path fill="#00A8FF" d="M10.491 26.449l1.888-.85-.479-.277-1.931.825z"/><path fill="#23FFD4" d="M10.309 23.142l2.363-.616-.244-.691-2.385.562z"/><path fill="#00D4FF" d="M9.006 25.167l2.011-.744-.381-.6-2.046.69z"/><path fill="#00A8FF" d="M11.023 26.615l1.845-.865-.489-.151-1.888.85z"/><path fill="#06ECF1" d="M8.59 24.513l2.047-.69-.328-.681-2.078.629z"/><path fill="#39FFBE" d="M10.043 22.397l2.385-.562-.18-.733-2.402.505z"/><path fill="#00A8FF" d="M11.551 26.64l1.803-.868-.486-.022-1.846.865z"/><path fill="#1CFFDB" d="M8.231 23.771l2.078-.629-.266-.745-2.104.562z"/><path fill="#53FFA4" d="M9.846 21.607l2.403-.505-.111-.756-2.415.445z"/><path fill="#36FFC1" d="M7.938 22.96l2.105-.563-.197-.79-2.125.492z"/><path fill="#6DFF8A" d="M9.723 20.791l2.415-.445-.039-.761-2.422.385z"/><path fill="#50FFA7" d="M7.721 22.098l2.125-.491-.123-.816-2.14.418z"/><path fill="#87FF70" d="M9.676 19.97l2.422-.385.035-.746-2.424.326z"/><path fill="#6AFF8D" d="M7.583 21.209l2.14-.418-.046-.821-2.148.344z"/><path fill="#A0FF56" d="M9.71 19.165l2.423-.326.107-.712-2.419.27z"/><path fill="#87FF70" d="M7.529 20.314l2.148-.344.033-.805-2.149.271z"/><path fill="#B7FF40" d="M9.821 18.397l2.419-.27.178-.659-2.409.217z"/><path fill="#A4FF53" d="M7.561 19.436l2.149-.271.111-.768-2.142.201z"/><path fill="#D1FF26" d="M10.009 17.686l2.409-.218.243-.589-2.393.171z"/><path fill="#BEFF39" d="M7.679 18.598l2.142-.201.188-.711-2.13.136z"/><path fill="#E4FF13" d="M10.268 17.049l2.394-.17.303-.503-2.373.13z"/><path fill="#D7FF1F" d="M7.879 17.822l2.13-.136.259-.636-2.11.079z"/><path fill="#EEFF09" d="M8.157 17.128l2.11-.078.324-.544-2.084.029z"/><path fill="#FFEA00" d="M8.508 16.535l2.084-.028.38-.436-2.052-.011z"/><path fill="gold" d="M8.92 16.06l2.053.011.428-.316-2.017-.041z"/></g><g fill-rule="nonzero"><path fill="#00F" d="M6.14 30.95l-.103-.078-.893-.773.051.034z"/><path fill="#0010FF" d="M5.195 30.133l-.052-.034-.832-.982.004-.023z"/><path fill="#0000F1" d="M7.127 31.527l-.157-.11-.933-.545.104.079z"/><path fill="#0038FF" d="M4.315 29.094l-.004.023-.752-1.168-.039-.09z"/><path fill="#0000E8" d="M8.131 31.848l-.212-.128-.949-.303.157.11z"/><path fill="#0064FF" d="M3.52 27.859l.04.09-.652-1.326-.077-.167z"/><path fill="#0000ED" d="M9.13 31.904l-.267-.131-.943-.053.212.128z"/><path fill="#0098FF" d="M2.831 26.457l.077.167-.535-1.452-.109-.252z"/><path fill="#00F" d="M10.097 31.693l-.321-.119-.914.199.268.131z"/><path fill="#00D4FF" d="M2.264 24.921l.109.251-.406-1.543-.132-.341z"/><path fill="#0008FF" d="M11.01 31.218l-.372-.093-.861.448.32.12z"/><path fill="#26FFD1" d="M1.836 23.287l.132.342-.264-1.597-.148-.435z"/><path fill="#002CFF" d="M11.844 30.49l-.419-.054-.787.689.372.094z"/><path fill="#5AFF9D" d="M1.556 21.597l.148.436-.116-1.611-.155-.531z"/><path fill="#0054FF" d="M12.579 29.523l-.461-.001-.693.914.419.054z"/><path fill="#90FF66" d="M1.433 19.891l.155.531.038-1.584-.153-.626z"/><path fill="#08F" d="M13.194 28.34l-.496.065-.58 1.118h.461z"/><path fill="#C7FF30" d="M1.472 18.212l.154.626.191-1.517-.142-.717z"/><path fill="#00C4FF" d="M13.674 26.968l-.525.142-.451 1.295.497-.065z"/><path fill="#FBF100" d="M1.675 16.604l.143.717.342-1.409-.123-.804z"/><path fill="#16FFE1" d="M14.003 25.442l-.545.227-.309 1.441.525-.142z"/><path fill="#FFB900" d="M2.037 15.108l.123.803.485-1.265-.095-.881z"/><path fill="#4DFFAA" d="M14.171 23.799l-.556.32-.157 1.55.545-.227z"/><path fill="#FF8600" d="M2.55 13.765l.094.882.617-1.086-.058-.949z"/><path fill="#80FF77" d="M14.174 22.081l-.559.418v1.62l.557-.32z"/><path fill="#FF5D00" d="M3.203 12.612l.059.949.734-.875-.015-1.005z"/><path fill="#B7FF40" d="M14.007 20.335l-.551.517.159 1.647.559-.417z"/><path fill="#FF3800" d="M3.981 11.682l.015 1.004.831-.639.035-1.046z"/><path fill="#EBFF0C" d="M13.675 18.605l-.534.617.315 1.63.551-.518z"/><path fill="#FF1A00" d="M4.862 11.001l-.035 1.046.908-.384.09-1.072z"/><path fill="#FFC800" d="M13.184 16.94l-.507.713.464 1.569.534-.617z"/><path fill="#F10800" d="M5.825 10.591l-.089 1.072.96-.117.148-1.081z"/><path fill="#FF9400" d="M12.548 15.386l-.471.803.6 1.464.507-.713z"/><path fill="#E80000" d="M6.843 10.465l-.148 1.081.987.156.207-1.074z"/><path fill="#FF6800" d="M11.783 13.987l-.428.883.722 1.319.471-.803z"/><path fill="#ED0400" d="M7.89 10.628l-.207 1.074.986.425.267-1.049z"/><path fill="#FF4300" d="M10.91 12.78l-.38.952.824 1.137.429-.883z"/><path fill="#FA0F00" d="M8.936 11.078l-.267 1.049.958.683.325-1.009z"/><path fill="#F20" d="M9.952 11.802l-.325 1.008.904.923.379-.953z"/></g><g fill-rule="nonzero"><path fill="#0CF" d="M2.123 24.475l.142.445-.429-1.634-.163-.525z"/><path fill="#1FFFD7" d="M1.674 22.762l.163.525-.28-1.691-.177-.608z"/><path fill="#0018FF" d="M12.167 30.312l-.322.177-.834.729.28-.142z"/><path fill="#5AFF9D" d="M1.379 20.987l.177.609-.122-1.706-.184-.694z"/><path fill="#04F" d="M12.939 29.297l-.359.225-.735.967.322-.178z"/><path fill="#94FF63" d="M1.25 19.196l.184.694.04-1.679-.183-.779z"/><path fill="#007CFF" d="M13.586 28.055l-.391.284-.615 1.183.359-.225z"/><path fill="#CAFF2C" d="M1.291 17.432l.183.779.202-1.609-.173-.86z"/><path fill="#00B8FF" d="M14.09 26.615l-.415.352-.48 1.372.391-.284z"/><path fill="#FFEA00" d="M1.503 15.742l.173.861.361-1.496-.156-.938z"/><path fill="#0FF8E7" d="M14.437 25.012l-.433.429-.329 1.526.415-.352z"/><path fill="#FFAE00" d="M1.881 14.17l.156.937.514-1.343-.132-1.007z"/><path fill="#49FFAD" d="M14.616 23.286l-.443.512-.169 1.643.434-.429z"/><path fill="#FF7A00" d="M2.419 12.756l.132 1.008.653-1.153-.099-1.069z"/><path fill="#80FF77" d="M14.62 21.481l-.445.599-.002 1.718.444-.512z"/><path fill="#FF4A00" d="M3.105 11.542l.099 1.069.778-.93-.062-1.119z"/><path fill="#BAFF3C" d="M14.447 19.645l-.439.688.167 1.747.445-.599z"/><path fill="#FF2500" d="M3.92 10.562l.061 1.118.882-.68-.018-1.156z"/><path fill="#F1FC06" d="M14.099 17.826l-.423.778.332 1.729.438-.689z"/><path fill="#F10800" d="M4.845 9.844L4.862 11l.963-.41.031-1.18z"/><path fill="#FFC100" d="M13.585 16.077l-.4.862.491 1.665.423-.777z"/><path fill="#DA0000" d="M5.857 9.41l-.031 1.18 1.018-.126.083-1.189z"/><path fill="#FF8900" d="M12.918 14.442l-.368.943.636 1.554.4-.863z"/><path fill="#CD0000" d="M6.926 9.275l-.082 1.189 1.047.163.135-1.183z"/><path fill="#FF5900" d="M12.115 12.971l-.331 1.015.765 1.399.369-.942z"/><path fill="#D10000" d="M8.026 9.445l-.135 1.182 1.046.45.187-1.162z"/><path fill="#FF3000" d="M11.197 11.704l-.287 1.076.874 1.206.331-1.015z"/><path fill="#DF0000" d="M9.124 9.916l-.188 1.161 1.016.724.239-1.125z"/><path fill="#FA0F00" d="M10.191 10.675L9.952 11.8l.958.979.287-1.076z"/></g><g fill-rule="nonzero"><path fill="#9F0000" d="M7.693.15L6.455.534l.873-.08L8.4.09z"/><path fill="#960000" d="M8.4.09L7.328.454l.9.249.901-.353z"/><path fill="#FFAB00" d="M12.84 7.726l-.037.481.426 1.923-.043-.527z"/><path fill="#960000" d="M9.129.35l-.902.353.901.575.731-.352z"/><path fill="#FF6C00" d="M12.392 5.961l-.14.439.551 1.807.037-.481z"/><path fill="#A80000" d="M9.859.926l-.731.352.877.885.565-.36z"/><path fill="#FF3400" d="M11.854 4.356l-.266.405.663 1.64.141-.44z"/><path fill="#C80000" d="M10.57 1.803l-.566.36.828 1.172.409-.378z"/><path fill="#F10800" d="M11.241 2.957l-.408.378.756 1.426.265-.405z"/></g><g fill-rule="nonzero"><path fill="#53FFA4" d="M.147 16.126l.145 1.093-.147-1.989L0 14.129z"/><path fill="#97FF60" d="M0 14.129l.145 1.102.041-1.961-.146-1.109z"/><path fill="#D7FF1F" d="M.04 12.161l.146 1.109.229-1.882-.146-1.118z"/><path fill="#FFD000" d="M.268 10.27l.146 1.118.414-1.755-.146-1.126z"/><path fill="#FF8D00" d="M.682 8.507l.146 1.126.589-1.579-.145-1.135z"/><path fill="#FF4E00" d="M1.272 6.919l.145 1.135.752-1.361-.144-1.142z"/><path fill="#FF1A00" d="M2.025 5.552l.144 1.142.898-1.102-.143-1.149z"/><path fill="#D10000" d="M2.924 4.443l.143 1.149 1.02-.811-.142-1.155z"/><path fill="#FFE600" d="M14.192 12.46l.24 2.319.378 2.009-.234-2.297z"/><path fill="#A80000" d="M3.945 3.627l.142 1.154 1.115-.495-.14-1.159z"/><path fill="#FF9F00" d="M13.623 10.506l.122 1.145.568 1.947-.121-1.138z"/><path fill="#8D0000" d="M5.062 3.127l.14 1.159 1.181-.162-.138-1.162z"/><path fill="#FF6000" d="M12.884 8.683l.124 1.151.738 1.817-.123-1.146z"/><path fill="maroon" d="M6.245 2.962l.138 1.162 1.215.178-.136-1.164z"/><path fill="#FF2900" d="M11.993 7.043l.127 1.156.888 1.635-.125-1.151z"/><path fill="maroon" d="M7.463 3.138l.135 1.164 1.215.514-.134-1.164z"/><path fill="#DF0000" d="M10.977 5.632l.129 1.161 1.014 1.406-.126-1.156z"/><path fill="#920000" d="M8.679 3.652l.134 1.164 1.18.838-.131-1.163z"/><path fill="#B20000" d="M9.861 4.491l.131 1.163 1.113 1.139-.128-1.161z"/><path fill="#FFE600" d="M13.934 11.518l.257.942.385 2.031-.272-.943z"/></g><g fill-rule="nonzero"><path fill="#B20000" d="M5.631.938l-.968.685.961-.439.83-.65z"/><path fill="#960000" d="M6.454.534l-.83.651 1.018-.109.685-.622z"/><path fill="#890000" d="M7.328.454l-.685.622 1.048.228.536-.6z"/><path fill="#890000" d="M8.227.703l-.536.6 1.05.56.386-.586z"/><path fill="#FF2D00" d="M11.588 4.761l.018.585L12.377 7l-.126-.6z"/><path fill="#9B0000" d="M9.128 1.278l-.387.585 1.021.878.242-.578z"/><path fill="#E80000" d="M10.832 3.335l-.106.578.88 1.433-.018-.585z"/><path fill="#B00" d="M10.004 2.163l-.242.578.964 1.172.106-.578z"/><path fill="#FF6400" d="M12.251 6.4l.125.601.642 1.827-.216-.621z"/></g><g fill-rule="nonzero"><path fill="#D10000" d="M3.786 2.379l-.675.971.979-.796.573-.93z"/><path fill="#A80000" d="M4.663 1.624l-.573.93 1.072-.478.462-.891z"/><path fill="#8D0000" d="M5.624 1.185l-.462.891 1.135-.146.346-.854z"/><path fill="maroon" d="M6.643 1.076l-.346.854 1.168.195.226-.821z"/><path fill="#840000" d="M7.691 1.304l-.226.821 1.169.531.107-.793z"/><path fill="#FF2900" d="M11.606 5.347l.213.739.856 1.648-.298-.733z"/><path fill="#920000" d="M8.741 1.863l-.107.793 1.136.855-.008-.77z"/><path fill="#DF0000" d="M10.726 3.913l.116.752.977 1.421-.213-.739z"/><path fill="#B20000" d="M9.762 2.741l.007.769 1.072 1.154-.115-.751z"/><path fill="#FF1A00" d="M3.015 3.424L2.25 4.438l.862-1.088.674-.971z"/></g><g fill-rule="nonzero"><path fill="#FF8D00" d="M.964 7.355L.682 8.507l.59-1.588.257-1.133z"/><path fill="#FF4E00" d="M1.529 5.786L1.272 6.92l.754-1.368.225-1.114z"/><path fill="#FF1600" d="M2.251 4.438l-.226 1.114.899-1.109.188-1.093z"/><path fill="#D10000" d="M3.112 3.35l-.188 1.093 1.021-.817.146-1.072z"/><path fill="#A40000" d="M4.091 2.554l-.146 1.072 1.118-.499.1-1.052z"/><path fill="#890000" d="M5.163 2.076l-.1 1.052 1.183-.165.052-1.032z"/><path fill="#FF6000" d="M12.676 7.734l.208.949.74 1.823-.237-.944z"/><path fill="maroon" d="M6.298 1.93l-.052 1.032 1.217.176.003-1.013z"/><path fill="#FF2900" d="M11.82 6.086l.175.957.89 1.64-.209-.949z"/><path fill="maroon" d="M7.466 2.125l-.003 1.013 1.217.514-.045-.996z"/><path fill="#DF0000" d="M10.842 4.665l.136.967 1.016 1.411-.175-.957z"/><path fill="#920000" d="M8.634 2.656l.046.996 1.182.839-.092-.98z"/><path fill="#B20000" d="M9.77 3.511l.092.98 1.115 1.141-.135-.967z"/></g><g fill-rule="nonzero"><path fill="#23FFD4" d="M19.691 15.173l-1.707-.014.029 1.283 1.742-.069z"/><path fill="#53FFA4" d="M19.667 13.883l-1.691-.11.009 1.387 1.706.014z"/><path fill="#80FF77" d="M19.683 12.533l-1.694-.214-.013 1.454 1.691.109z"/><path fill="#ADFF49" d="M19.74 11.162l-1.718-.326-.033 1.483 1.694.214z"/><path fill="#DBFF1C" d="M19.836 9.804l-1.76-.44-.054 1.473 1.718.325z"/><path fill="#FFE200" d="M19.97 8.498l-1.822-.555-.072 1.421 1.76.44z"/><path fill="#FF3800" d="M21.55 3.376L18.971 2.27l-.129.174 2.456 1.072z"/><path fill="#FFB600" d="M20.137 7.277l-1.899-.666-.09 1.332 1.822.555z"/><path fill="#FF3800" d="M21.298 3.516l-2.456-1.072-.131.415 2.332 1.019z"/><path fill="#FF9100" d="M20.334 6.177l-1.992-.772-.104 1.206 1.899.666z"/><path fill="#FF4300" d="M21.043 3.878l-2.332-1.019-.129.644 2.211.95z"/><path fill="#FF6F00" d="M20.554 5.227l-2.097-.868-.116 1.046 1.993.772z"/><path fill="#F50" d="M20.793 4.454l-2.211-.951-.125.857 2.098.867z"/></g><g fill-rule="nonzero"><path fill="#2CFFCA" d="M21.426 15.317l-1.735-.142.064 1.2 1.763.059z"/><path fill="#56FFA0" d="M21.389 14.121l-1.723-.238.025 1.291 1.735.143z"/><path fill="#80FF77" d="M21.409 12.877l-1.727-.343-.016 1.349 1.723.238z"/><path fill="#AAFF4D" d="M21.485 11.617l-1.745-.454-.057 1.371 1.726.343z"/><path fill="#D4FF23" d="M21.615 10.374l-1.779-.569-.096 1.358 1.745.454z"/><path fill="#FBF100" d="M21.797 9.183l-1.827-.685-.134 1.307 1.779.569z"/><path fill="#F50" d="M24.316 4.723l-2.522-1.26-.243-.086 2.426 1.243z"/><path fill="#FFC400" d="M22.025 8.075l-1.888-.797-.168 1.22 1.828.685z"/><path fill="#FF4E00" d="M23.977 4.62l-2.426-1.243-.253.14 2.329 1.207z"/><path fill="#FFA300" d="M22.295 7.08l-1.961-.902-.197 1.1 1.889.797z"/><path fill="#FF5200" d="M23.626 4.724l-2.328-1.207-.255.362 2.23 1.154z"/><path fill="#FF8200" d="M22.599 6.227l-2.044-.999-.221.95 1.962.902z"/><path fill="#FF5900" d="M23.274 5.033l-2.231-1.154-.25.576 2.135 1.083z"/><path fill="#FF6C00" d="M22.928 5.538l-2.135-1.083-.239.773 2.045.999z"/></g><g fill-rule="nonzero"><path fill="#33FFC4" d="M23.046 15.571l-1.619-.254.092 1.116 1.64.173z"/><path fill="#5AFF9D" d="M23 14.469l-1.61-.348.037 1.196 1.619.254z"/><path fill="#80FF77" d="M23.022 13.327l-1.612-.45-.02 1.244 1.61.348z"/><path fill="#A7FF50" d="M23.111 12.175l-1.626-.558-.075 1.26 1.612.449z"/><path fill="#CEFF29" d="M23.266 11.046l-1.65-.671-.131 1.242 1.626.559z"/><path fill="#F1FC06" d="M23.483 9.967l-1.686-.784-.181 1.191 1.65.671z"/><path fill="gold" d="M23.757 8.968l-1.731-.894-.228 1.108 1.685.784z"/><path fill="#FF6F00" d="M26.51 6.072l-2.194-1.349-.338-.103 2.123 1.331z"/><path fill="#FFB600" d="M24.08 8.077l-1.784-.997-.27.995 1.731.893z"/><path fill="#FF6800" d="M26.101 5.952L23.977 4.62l-.35.104 2.051 1.296z"/><path fill="#FF9800" d="M24.444 7.318L22.6 6.227l-.304.853 1.784.997z"/><path fill="#FF6C00" d="M25.679 6.02l-2.052-1.296-.352.309 1.979 1.242z"/><path fill="#FF8200" d="M24.838 6.712l-1.909-1.174-.329.689 1.843 1.091z"/><path fill="#FF7300" d="M25.254 6.275l-1.98-1.242-.345.505 1.91 1.174z"/></g><g fill-rule="nonzero"><path fill="#39FFBE" d="M24.403 15.914l-1.356-.345.112 1.035 1.371.267z"/><path fill="#5AFF9D" d="M24.35 14.901L23 14.467l.046 1.102 1.357.345z"/><path fill="#80FF77" d="M24.373 13.857l-1.352-.532L23 14.466l1.35.435z"/><path fill="#A4FF53" d="M24.471 12.81l-1.36-.636-.089 1.151 1.351.532z"/><path fill="#C7FF30" d="M24.641 11.786l-1.375-.742-.155 1.13 1.359.636z"/><path fill="#E7FF0F" d="M24.881 10.814l-1.398-.849-.217 1.079 1.375.742z"/><path fill="#FFE600" d="M25.183 9.92l-1.426-.954-.274.999 1.398.849z"/><path fill="#FFC400" d="M25.54 9.127l-1.461-1.051-.323.89 1.427.954z"/><path fill="#FF8600" d="M28.239 7.457L26.51 6.071l-.409-.121 1.683 1.369z"/><path fill="#FFAB00" d="M25.943 8.457l-1.499-1.141-.364.759 1.46 1.052z"/><path fill="#FF8200" d="M27.783 7.319L26.101 5.95l-.423.068 1.635 1.335z"/><path fill="#FF9800" d="M26.381 7.93l-1.542-1.22-.395.606 1.5 1.141z"/><path fill="#FF8200" d="M27.314 7.352l-1.636-1.334-.424.255 1.588 1.285z"/><path fill="#FF8900" d="M26.842 7.558l-1.588-1.284-.416.437 1.543 1.219z"/></g><g fill-rule="nonzero"><path fill="#3CFFBA" d="M25.363 16.33l-.961-.414.126.956.969.341z"/><path fill="#5DFF9A" d="M25.306 15.4l-.956-.497.053 1.013.96.414z"/><path fill="#80FF77" d="M25.329 14.446l-.957-.587-.022 1.044.956.497z"/><path fill="#A0FF56" d="M25.43 13.494l-.96-.683-.098 1.047.956.588z"/><path fill="#C1FF36" d="M25.608 12.569l-.968-.782-.17 1.024.96.683z"/><path fill="#DEFF19" d="M25.859 11.696l-.979-.88-.24.972.968.782z"/><path fill="#FBF100" d="M26.175 10.897l-.993-.976-.302.895.979.88z"/><path fill="gold" d="M26.55 10.195l-1.011-1.067-.357.793.993.976z"/><path fill="#FFA700" d="M29.843 9.136l-1.177-1.372-.429-.306 1.153 1.373z"/><path fill="#FFC100" d="M26.973 9.607l-1.031-1.148-.403.669 1.011 1.067z"/><path fill="#FF9C00" d="M29.391 8.831l-1.153-1.373-.455-.138 1.128 1.357z"/><path fill="#FFAE00" d="M27.434 9.151l-1.054-1.22-.437.528 1.031 1.148z"/><path fill="#FF9800" d="M28.91 8.677L27.783 7.32l-.47.034 1.102 1.326z"/><path fill="#FF9F00" d="M27.919 8.84l-1.077-1.28-.461.371 1.053 1.221z"/><path fill="#FF9800" d="M28.415 8.68l-1.102-1.326-.472.206 1.078 1.28z"/></g><g fill-rule="nonzero"><path fill="#43FFB4" d="M25.821 16.79l-.458-.46.134.883.461.395z"/><path fill="#60FF97" d="M25.762 15.933l-.456-.535.057.931.457.461z"/><path fill="#7DFF7A" d="M25.783 15.061l-.454-.616-.023.954.456.535z"/><path fill="#9DFF5A" d="M25.884 14.195l-.454-.701-.102.951.455.616z"/><path fill="#BAFF3C" d="M26.064 13.358l-.456-.789-.178.925.455.701z"/><path fill="#D4FF23" d="M26.316 12.572l-.457-.877-.251.874.455.789z"/><path fill="#EEFF09" d="M26.636 11.859l-.46-.962-.317.798.457.877z"/><path fill="#FFDE00" d="M31.143 11.436l-.525-1.271-.362-.58.517 1.299z"/><path fill="#FFE600" d="M27.015 11.236l-.464-1.042-.375.702.46.963z"/><path fill="#FC0" d="M30.774 10.884l-.518-1.3-.413-.449.51 1.314z"/><path fill="#FFD000" d="M27.442 10.722l-.468-1.115-.423.587.464 1.042z"/><path fill="#FFB900" d="M30.353 10.449l-.51-1.314-.453-.305.502 1.314z"/><path fill="#FFC100" d="M27.908 10.331l-.474-1.18-.46.456.469 1.115z"/><path fill="#FFB200" d="M29.892 10.144L29.39 8.83l-.48-.154.494 1.301zM28.399 10.072l-.481-1.233-.484.312.474 1.18z"/><path fill="#FFAB00" d="M29.405 9.977l-.494-1.301-.495.003.487 1.274z"/><path fill="#FFAE00" d="M28.902 9.953l-.487-1.274-.497.16.481 1.232z"/><path fill="#CEFF29" d="M26.189 13.415l.127-.843-.252.786-.123.767z"/></g><g fill-rule="nonzero"><path fill="#50FFA7" d="M31.552 17.848l.182-.782.15-.845-.186.854z"/><path fill="#6AFF8D" d="M31.698 17.075l.186-.854.072-.868-.189.923z"/><path fill="#87FF70" d="M31.768 16.276l.188-.924-.008-.869-.191.989z"/><path fill="#A0FF56" d="M31.757 15.473l.191-.99-.088-.848-.193 1.05z"/><path fill="#BEFF39" d="M31.667 14.685l.193-1.051-.167-.804-.193 1.103z"/><path fill="#D4FF23" d="M31.5 13.933l.193-1.103-.241-.74-.192 1.148z"/><path fill="#E4FF13" d="M26.502 12.774l.133-.915-.319.713-.128.843z"/><path fill="#EBFF0C" d="M31.259 13.238l.193-1.148-.309-.654-.191 1.182z"/><path fill="#F8F500" d="M26.874 12.221l.14-.985-.379.623-.134.915z"/><path fill="#FEED00" d="M30.952 12.619l.191-1.183-.37-.552-.188 1.206z"/><path fill="#FFDE00" d="M27.295 11.769l.146-1.047-.427.514-.14.985z"/><path fill="#FFDB00" d="M30.585 12.09l.188-1.206-.421-.435-.184 1.219z"/><path fill="#FFD000" d="M27.753 11.433l.154-1.103-.465.392-.147 1.047z"/><path fill="#FC0" d="M30.168 11.668l.184-1.219-.46-.305-.18 1.219z"/><path fill="#FFC400" d="M28.238 11.22l.161-1.148-.491.259-.154 1.102zM29.712 11.363l.18-1.219-.488-.167-.174 1.207z"/><path fill="#FFC100" d="M28.734 11.136l.168-1.183-.503.119-.161 1.148z"/><path fill="#FFBD00" d="M29.23 11.184l.174-1.207-.502-.024-.168 1.183z"/></g><g fill-rule="nonzero"><path fill="#00D4FF" d="M29.046 21.167l.824-.475.436-.381-.837.522z"/><path fill="#00E4F8" d="M29.469 20.834l.837-.523.396-.488-.85.575z"/><path fill="#0FF8E7" d="M29.852 20.397l.85-.575.346-.583-.862.631z"/><path fill="#26FFD1" d="M30.186 19.87l.862-.631.286-.663-.872.689z"/><path fill="#3CFFBA" d="M30.461 19.265l.872-.69.219-.727-.88.749z"/><path fill="#53FFA4" d="M30.672 18.597l.88-.749.146-.773-.887.807z"/><path fill="#6DFF8A" d="M30.811 17.883l.887-.808.069-.798-.891.863z"/><path fill="#87FF70" d="M30.875 17.14l.892-.864-.011-.803-.893.917z"/><path fill="#A0FF56" d="M30.863 16.389l.894-.916-.09-.788-.894.965z"/><path fill="#B7FF40" d="M30.773 15.65l.894-.965-.167-.751-.891 1.007z"/><path fill="#CEFF29" d="M30.608 14.941l.891-1.008-.24-.695-.886 1.043z"/><path fill="#E4FF13" d="M30.373 14.281l.886-1.043-.308-.62-.878 1.07z"/><path fill="#FEED00" d="M26.526 12.719l.769-.949-.421.451-.754.898z"/><path fill="#F4F802" d="M30.073 13.688l.878-1.069-.367-.528-.869 1.087z"/><path fill="#FFDE00" d="M26.97 12.428l.783-.995-.458.337-.768.949z"/><path fill="#FFE600" d="M29.716 13.178l.869-1.087-.417-.423-.858 1.096z"/><path fill="#FFD300" d="M27.438 12.253l.799-1.033-.484.213-.783.995z"/><path fill="#FFDB00" d="M29.31 12.764l.858-1.096-.456-.305-.845 1.095z"/><path fill="#FFD000" d="M27.918 12.199l.815-1.063-.496.084-.8 1.033zM28.867 12.458l.845-1.095-.482-.179-.831 1.084z"/><path fill="#FC0" d="M28.399 12.268l.831-1.083-.496-.048-.816 1.062z"/></g><g fill-rule="nonzero"><path fill="#00D0FF" d="M27.187 21.86l1.409-.469.451-.224-1.428.503z"/><path fill="#00DCFE" d="M27.619 21.67l1.428-.503.423-.334-1.447.541z"/><path fill="#06ECF1" d="M28.023 21.374l1.447-.541.383-.435-1.464.581z"/><path fill="#19FFDE" d="M28.39 20.979l1.463-.581.334-.527-1.479.624z"/><path fill="#29FFCE" d="M28.708 20.495l1.479-.624.275-.606-1.491.669z"/><path fill="#40FFB7" d="M28.971 19.933l1.492-.668.21-.668-1.502.713z"/><path fill="#56FFA0" d="M29.171 19.31l1.502-.713.14-.714-1.511.756z"/><path fill="#6DFF8A" d="M29.302 18.639l1.51-.757.065-.742-1.516.798z"/><path fill="#87FF70" d="M29.361 17.939l1.516-.799-.013-.75-1.517.836z"/><path fill="#9DFF5A" d="M29.346 17.227l1.518-.837-.09-.74-1.516.872z"/><path fill="#B4FF43" d="M29.258 16.521l1.516-.871-.164-.709-1.512.9z"/><path fill="#CAFF2C" d="M29.098 15.841l1.512-.9-.235-.66-1.505.924z"/><path fill="#DEFF19" d="M28.87 15.206l1.504-.924-.3-.593-1.494.941z"/><path fill="#EEFF09" d="M28.58 14.63l1.494-.942-.358-.51-1.48.952z"/><path fill="#FFDE00" d="M26.052 13.15l1.387-.897-.468.175-1.367.866z"/><path fill="#FBF100" d="M28.235 14.131l1.481-.953-.406-.413-1.465.955z"/><path fill="#FFDB00" d="M26.512 13.121l1.408-.922-.481.054-1.387.897z"/><path fill="#FFE600" d="M27.846 13.72l1.465-.956-.443-.306-1.447.952z"/><path fill="gold" d="M26.972 13.209l1.428-.941-.48-.069-1.408.922z"/><path fill="#FFDB00" d="M27.421 13.41l1.447-.952-.468-.19-1.428.94z"/></g><g fill-rule="nonzero"><path fill="#00D8FF" d="M25.28 22.371l1.907-.511.432-.19-1.929.536z"/><path fill="#00E4F8" d="M25.691 22.207l1.929-.537.404-.296-1.95.564z"/><path fill="#0CF4EB" d="M26.074 21.938l1.949-.565.366-.395-1.968.594z"/><path fill="#1CFFDB" d="M26.422 21.572l1.968-.594.318-.484-1.985.624z"/><path fill="#2CFFCA" d="M26.723 21.119l1.985-.624.263-.561-2 .653z"/><path fill="#43FFB4" d="M26.971 20.587l2-.654.2-.624-2.012.683z"/><path fill="#56FFA0" d="M27.159 19.993l2.011-.683.131-.671-2.019.711z"/><path fill="#6DFF8A" d="M27.282 19.35l2.02-.711.059-.7-2.025.736z"/><path fill="#83FF73" d="M27.336 18.674l2.025-.736-.014-.712-2.027.758z"/><path fill="#9AFF5D" d="M27.32 17.984l2.027-.758-.089-.705-2.025.777z"/><path fill="#B1FF46" d="M27.233 17.298l2.025-.777-.16-.68-2.02.793z"/><path fill="#C4FF33" d="M27.078 16.634l2.02-.792-.228-.637-2.011.804z"/><path fill="#D7FF1F" d="M26.859 16.008l2.011-.803-.29-.575-1.999.809z"/><path fill="#FFE600" d="M24.17 13.899l1.881-.749-.448.145-1.858.724z"/><path fill="#E7FF0F" d="M26.581 15.44l1.999-.81-.344-.5-1.984.811z"/><path fill="#FFE200" d="M24.608 13.891l1.904-.77-.46.029-1.881.749z"/><path fill="#F4F802" d="M26.251 14.942l1.984-.811-.389-.411-1.967.808z"/><path fill="#FFE200" d="M25.046 13.995l1.926-.786-.461-.088-1.903.77z"/><path fill="#FEED00" d="M25.879 14.528l1.967-.808-.425-.31-1.948.8z"/><path fill="#FFE200" d="M25.474 14.209l1.947-.799-.449-.202-1.926.787z"/></g><g fill-rule="nonzero"><path fill="#00DCFE" d="M23.004 22.932l2.275-.561.411-.165-2.297.58z"/><path fill="#02E8F4" d="M23.393 22.787l2.297-.581.384-.268-2.318.599z"/><path fill="#0FF8E7" d="M23.755 22.537l2.318-.599.348-.366-2.338.617z"/><path fill="#1FFFD7" d="M24.083 22.189l2.338-.617.301-.454-2.355.634z"/><path fill="#30FFC7" d="M24.368 21.752l2.354-.635.249-.531-2.37.65z"/><path fill="#43FFB4" d="M24.6 21.236l2.37-.649.188-.595-2.381.663z"/><path fill="#5AFF9D" d="M24.777 20.655l2.382-.663.122-.643-2.39.674z"/><path fill="#6DFF8A" d="M24.891 20.023l2.39-.674.054-.676-2.395.683z"/><path fill="#83FF73" d="M24.94 19.356l2.395-.682-.016-.69-2.397.688z"/><path fill="#9AFF5D" d="M24.922 18.672l2.397-.688-.087-.686-2.395.69z"/><path fill="#B1FF46" d="M24.837 17.988l2.395-.69-.155-.665-2.389.69z"/><path fill="#C4FF33" d="M24.688 17.324l2.39-.69-.219-.626-2.381.687z"/><path fill="#D7FF1F" d="M24.478 16.695l2.38-.687-.278-.569-2.368.681z"/><path fill="#FFE600" d="M22.338 14.504l2.27-.614-.438.008-2.246.596z"/><path fill="#E4FF13" d="M24.213 16.119l2.367-.68-.329-.498-2.352.671z"/><path fill="#FFE600" d="M22.753 14.626l2.292-.632-.438-.104-2.269.614z"/><path fill="#F1FC06" d="M23.898 15.612l2.352-.671-.372-.414-2.334.66z"/><path fill="#FFE600" d="M23.159 14.855l2.314-.646-.428-.214-2.292.631z"/><path fill="#FEED00" d="M23.544 15.187l2.334-.66-.405-.318-2.314.646z"/></g><g fill-rule="nonzero"><path fill="#00E4F8" d="M21.141 23.265l2.436-.59-.376.198-2.44.592z"/><path fill="#0CF4EB" d="M21.49 22.961l2.434-.586-.346.299-2.436.59z"/><path fill="#19FFDE" d="M21.799 22.562l2.432-.58-.307.393-2.434.586z"/><path fill="#29FFCE" d="M22.06 22.077l2.431-.573-.26.477-2.432.581z"/><path fill="#3CFFBA" d="M22.265 21.519l2.431-.566-.205.551-2.431.573z"/><path fill="#53FFA4" d="M22.409 20.901l2.433-.557-.146.609-2.432.566z"/><path fill="#66FF90" d="M22.488 20.24l2.436-.547-.082.651-2.433.557z"/><path fill="#7DFF7A" d="M22.501 19.552l2.438-.537-.016.678-2.435.547z"/><path fill="#94FF63" d="M22.445 18.855l2.442-.526.052.686-2.439.537z"/><path fill="#AAFF4D" d="M22.323 18.169l2.447-.516.118.676-2.443.526z"/><path fill="#BEFF39" d="M22.137 17.509l2.453-.505.18.648-2.447.516z"/><path fill="#D1FF26" d="M21.893 16.896l2.458-.496.239.604-2.453.506z"/><path fill="#FFE200" d="M19.636 14.95l2.494-.465.416.066-2.489.467z"/><path fill="#E1FF16" d="M21.596 16.344l2.464-.488.291.543-2.458.497z"/><path fill="#FFE600" d="M20.057 15.018l2.489-.466.411.176-2.482.469z"/><path fill="#EEFF09" d="M21.255 15.869l2.471-.48.335.467-2.464.488z"/><path fill="#FFEA00" d="M20.475 15.197l2.483-.47.396.282-2.476.474z"/><path fill="#FBF100" d="M20.877 15.483l2.477-.474.371.38-2.47.48z"/></g><g fill-rule="nonzero"><path fill="#00E0FB" d="M18.682 23.92l2.46-.655-.38.201-2.473.662z"/><path fill="#09F0EE" d="M19.041 23.604l2.449-.642-.348.303-2.461.655z"/><path fill="#16FFE1" d="M19.36 23.19l2.44-.628-.309.399-2.449.643z"/><path fill="#29FFCE" d="M19.626 22.686l2.434-.608-.261.485-2.44.627z"/><path fill="#3CFFBA" d="M19.836 22.106l2.429-.587-.205.559-2.434.608z"/><path fill="#50FFA7" d="M19.983 21.464l2.426-.562-.144.617-2.429.587z"/><path fill="#66FF90" d="M20.062 20.776l2.427-.535-.08.661-2.426.562z"/><path fill="#7DFF7A" d="M20.071 20.061l2.43-.508-.012.688-2.427.535z"/><path fill="#94FF63" d="M20.01 19.336l2.436-.48.055.696-2.43.509z"/><path fill="#AAFF4D" d="M19.88 18.621l2.443-.452.122.687-2.435.48z"/><path fill="#C1FF36" d="M19.685 17.935l2.453-.425.186.659-2.443.452z"/><path fill="#D4FF23" d="M19.428 17.297l2.466-.401.244.614-2.453.425z"/><path fill="#FFDE00" d="M17.078 15.271l2.558-.32.422.067-2.543.323z"/><path fill="#E4FF13" d="M19.118 16.723l2.479-.378.297.552-2.466.4z"/><path fill="#FFDE00" d="M17.515 15.341l2.543-.323.417.179-2.526.331z"/><path fill="#F1FC06" d="M18.761 16.228l2.495-.359.341.476-2.479.377z"/><path fill="#FFE600" d="M17.949 15.528l2.527-.33.402.286-2.51.342z"/><path fill="#FEED00" d="M18.368 15.826l2.51-.342.377.386-2.494.358z"/></g><g fill-rule="nonzero"><path fill="#0CF" d="M15.934 24.862l2.356-.734-.416.096-2.379.739z"/><path fill="#00D8FF" d="M16.348 24.641l2.334-.722-.393.208-2.355.734z"/><path fill="#02E8F4" d="M16.727 24.307l2.315-.703-.36.315-2.334.722z"/><path fill="#13FCE4" d="M17.061 23.868l2.299-.678-.318.414-2.315.703z"/><path fill="#23FFD4" d="M17.342 23.334l2.285-.647-.267.503-2.298.678z"/><path fill="#39FFBE" d="M17.561 22.718l2.276-.612-.21.58-2.285.647z"/><path fill="#50FFA7" d="M17.713 22.037l2.27-.573-.146.642-2.276.612z"/><path fill="#66FF90" d="M17.793 21.306l2.269-.53-.079.688-2.27.573z"/><path fill="#7DFF7A" d="M17.8 20.547l2.272-.486-.009.715-2.269.53z"/><path fill="#97FF60" d="M17.731 19.777l2.279-.441.061.725-2.272.485z"/><path fill="#ADFF49" d="M17.59 19.017l2.29-.396.13.715-2.279.44z"/><path fill="#C4FF33" d="M17.38 18.288l2.305-.353.196.686-2.291.396z"/><path fill="#D7FF1F" d="M17.105 17.609l2.324-.312.256.638-2.305.353z"/><path fill="gold" d="M14.607 15.455l2.472-.184.437.07-2.446.189z"/><path fill="#EBFF0C" d="M16.774 16.999l2.344-.276.311.574-2.323.313z"/><path fill="gold" d="M15.07 15.53l2.445-.189.434.187-2.419.2z"/><path fill="#F8F500" d="M16.394 16.473l2.367-.245.357.495-2.344.276z"/><path fill="#FFDB00" d="M15.53 15.728l2.419-.2.419.298-2.393.219z"/><path fill="#FFE600" d="M15.976 16.045l2.393-.219.393.402-2.368.244z"/></g><g fill-rule="nonzero"><path fill="#00A0FF" d="M8.416 27.003l1.552-.856-.499-.431-1.6.815z"/><path fill="#00B0FF" d="M7.869 26.531l1.601-.815-.464-.549-1.646.762z"/><path fill="#0094FF" d="M8.987 27.335l1.503-.886-.522-.302-1.553.856z"/><path fill="#00C4FF" d="M7.36 25.928l1.646-.762-.416-.654-1.688.7z"/><path fill="#0094FF" d="M9.569 27.517l1.453-.902-.532-.166-1.503.886z"/><path fill="#00E0FB" d="M6.902 25.213l1.687-.7-.359-.742-1.723.629z"/><path fill="#0094FF" d="M10.147 27.546l1.404-.906-.529-.025-1.453.903z"/><path fill="#13FCE4" d="M6.507 24.399l1.724-.628-.292-.812-1.754.551z"/><path fill="#009CFF" d="M10.707 27.418l1.356-.896-.512.118-1.403.906z"/><path fill="#30FFC7" d="M6.185 23.51l1.754-.55-.218-.862-1.778.468z"/><path fill="#00ACFF" d="M11.234 27.138l1.311-.873-.482.257-1.356.896z"/><path fill="#49FFAD" d="M5.943 22.565l1.777-.468-.137-.889-1.795.382z"/><path fill="#6AFF8D" d="M5.788 21.591l1.795-.383-.054-.895-1.803.297z"/><path fill="#87FF70" d="M5.726 20.61l1.803-.297.032-.877-1.804.211z"/><path fill="#A7FF50" d="M5.758 19.647l1.803-.212.117-.838-1.795.13z"/><path fill="#C4FF33" d="M5.883 18.728l1.795-.13.201-.776-1.78.054z"/><path fill="#DEFF19" d="M6.099 17.875l1.78-.054.279-.694-1.757-.013z"/><path fill="#F8F500" d="M6.401 17.114l1.756.014.35-.593-1.726-.072z"/><path fill="#FFDB00" d="M6.782 16.463l1.725.072.413-.476-1.689-.119z"/><path fill="#FFC800" d="M7.231 15.94l1.689.119.464-.345-1.645-.154z"/><path fill="#FFB900" d="M7.739 15.56l1.645.153.504-.205-1.598-.174z"/><path fill="#FFAE00" d="M8.291 15.334l1.598.174.531-.06-1.548-.18z"/></g><g fill-rule="nonzero"><path fill="#008CFF" d="M7.266 27.863l1.15-.859-.547-.473-1.204.813z"/><path fill="#009CFF" d="M6.665 27.344l1.204-.813-.509-.602-1.254.754z"/><path fill="#0080FF" d="M7.892 28.228l1.095-.893-.571-.332-1.151.86z"/><path fill="#00B4FF" d="M6.106 26.683l1.254-.754-.458-.717-1.299.685z"/><path fill="#007CFF" d="M8.531 28.429l1.039-.912-.583-.182-1.094.893z"/><path fill="#00D0FF" d="M5.602 25.898l1.3-.686-.395-.812-1.34.606z"/><path fill="#007CFF" d="M9.165 28.461l.983-.916-.578-.028-1.039.912z"/><path fill="#09F0EE" d="M5.167 25.006l1.34-.606-.322-.89-1.374.519z"/><path fill="#08F" d="M9.778 28.322l.929-.904-.559.127-.983.915z"/><path fill="#26FFD1" d="M4.811 24.03l1.374-.52-.242-.944-1.399.427z"/><path fill="#0098FF" d="M10.355 28.015l.88-.878-.527.281-.93.904z"/><path fill="#46FFB1" d="M4.544 22.993l1.399-.427-.154-.975-1.417.332z"/><path fill="#00ACFF" d="M10.882 27.548l.833-.838-.48.427-.88.878z"/><path fill="#66FF90" d="M4.372 21.923l1.417-.332-.062-.981-1.427.236z"/><path fill="#8AFF6D" d="M4.3 20.846l1.427-.236.031-.963-1.427.141z"/><path fill="#AAFF4D" d="M4.332 19.788l1.426-.141.125-.919-1.417.05z"/><path fill="#CAFF2C" d="M4.466 18.777l1.417-.049.216-.852-1.399-.035z"/><path fill="#E7FF0F" d="M4.7 17.841l1.4.035.302-.762-1.373-.111z"/><path fill="#FFE600" d="M5.029 17.003l1.372.111.381-.651-1.338-.176z"/><path fill="#FC0" d="M5.444 16.286l1.338.176.45-.522-1.296-.23z"/><path fill="#FFB600" d="M5.937 15.711l1.295.229.508-.38-1.247-.268z"/><path fill="#FFA300" d="M6.492 15.293l1.247.267.552-.226-1.194-.291z"/><path fill="#FF9800" d="M7.097 15.043l1.194.291.581-.066-1.136-.298z"/><path fill="#FF9400" d="M7.736 14.97l1.136.298.596.097-1.077-.288z"/><path fill="#FF9400" d="M8.391 15.076l1.077.289.594.257-1.018-.262z"/></g><g fill-rule="nonzero"><path fill="#0074FF" d="M6.502 28.691l.763-.828-.601-.519-.82.778z"/><path fill="#0084FF" d="M5.844 28.122l.821-.778-.559-.661-.874.715z"/><path fill="#0068FF" d="M7.189 29.091l.703-.863-.627-.365-.763.828z"/><path fill="#00A0FF" d="M5.231 27.398l.874-.715-.503-.786-.923.64z"/><path fill="#0064FF" d="M7.888 29.312l.642-.884-.638-.201-.703.864z"/><path fill="#00C0FF" d="M4.679 26.537l.923-.64-.435-.892-.966.555z"/><path fill="#0064FF" d="M8.582 29.348l.582-.888-.634-.032-.642.884z"/><path fill="#00E4F8" d="M4.201 25.561l.966-.556-.356-.976-1.002.462z"/><path fill="#0070FF" d="M9.253 29.197l.524-.875-.613.138-.582.888z"/><path fill="#1FFFD7" d="M3.81 24.491l1.001-.462-.268-1.036-1.029.363z"/><path fill="#0080FF" d="M9.885 28.864l.469-.848-.577.306-.524.876z"/><path fill="#40FFB7" d="M3.514 23.356l1.029-.363-.172-1.07-1.048.261z"/><path fill="#0098FF" d="M10.462 28.353l.419-.805-.526.467-.47.848z"/><path fill="#66FF90" d="M3.323 22.183l1.048-.26-.072-1.078-1.057.157z"/><path fill="#00B4FF" d="M10.967 27.678l.376-.747-.462.617-.419.805z"/><path fill="#8AFF6D" d="M3.242 21.002l1.057-.157.031-1.058-1.056.055z"/><path fill="#ADFF49" d="M3.274 19.843l1.057-.055.134-1.011-1.046-.043z"/><path fill="#D1FF26" d="M3.419 18.734l1.046.044.234-.937-1.026-.134z"/><path fill="#F4F802" d="M3.673 17.706l1.026.135.329-.838-.996-.217z"/><path fill="gold" d="M4.032 16.786l.996.217.416-.717-.958-.287z"/><path fill="#FFB900" d="M4.486 15.999l.958.287.492-.575-.912-.345z"/><path fill="#FF9F00" d="M5.024 15.366l.912.344.556-.418-.859-.387z"/><path fill="#FF8D00" d="M5.632 14.905l.86.387.605-.25-.801-.412z"/><path fill="#FF8200" d="M6.295 14.631l.802.412.638-.073-.739-.42z"/><path fill="#FF7A00" d="M6.996 14.55l.739.42.655.106-.676-.409z"/><path fill="#FF7E00" d="M7.714 14.667l.676.41.653.283-.611-.382z"/><path fill="#00C8FF" d="M11.343 26.931l.794-.784-.423.563-.833.838z"/></g><g fill-rule="nonzero"><path fill="#0028FF" d="M5.937 30.575l-.017-.486-.778-.673-.042.435z"/><path fill="#0040FF" d="M5.1 29.851l.042-.435-.725-.856-.098.371z"/><path fill="#0018FF" d="M6.811 31.086l-.078-.523-.812-.474.016.487z"/><path fill="#0060FF" d="M4.32 28.931l.098-.371-.654-1.017-.148.293z"/><path fill="#0010FF" d="M7.701 31.369l-.141-.543-.827-.263.079.523z"/><path fill="#08F" d="M3.616 27.836l.148-.293-.567-1.155-.191.206z"/><path fill="#0014FF" d="M8.584 31.419l-.204-.548-.821-.045.142.544z"/><path fill="#00B4FF" d="M3.005 26.594l.191-.206-.465-1.264-.227.11z"/><path fill="#0020FF" d="M9.44 31.231l-.266-.535-.794.175.205.548z"/><path fill="#02E8F4" d="M2.504 25.234l.227-.11-.352-1.342-.254.006z"/><path fill="#0038FF" d="M10.246 30.809l-.324-.506-.748.392.266.536z"/><path fill="#30FFC7" d="M2.125 23.789l.254-.007-.229-1.388-.272-.1z"/><path fill="#0054FF" d="M10.982 30.164l-.377-.462-.683.601.324.507z"/><path fill="#60FF97" d="M1.878 22.294l.273.1-.1-1.4-.281-.207z"/><path fill="#007CFF" d="M11.629 29.307l-.424-.402-.6.797.377.462z"/><path fill="#8DFF6A" d="M1.77 20.786l.281.208.034-1.375-.279-.314z"/><path fill="#00A8FF" d="M12.17 28.261l-.464-.328-.501.973.424.402z"/><path fill="#BEFF39" d="M1.806 19.305l.279.314.168-1.315-.267-.417z"/><path fill="#00D8FF" d="M12.591 27.048l-.496-.242-.389 1.127.464.327z"/><path fill="#EBFF0C" d="M1.986 17.887l.267.418.298-1.221-.245-.514z"/><path fill="#23FFD4" d="M12.878 25.7l-.518-.145-.265 1.252.496.241z"/><path fill="#FFD300" d="M2.307 16.57l.245.514.422-1.095-.213-.6z"/><path fill="#50FFA7" d="M13.023 24.25l-.53-.041-.133 1.346.518.145z"/><path fill="#FFA700" d="M2.761 15.388l.213.601.536-.937-.172-.676z"/><path fill="#80FF77" d="M13.022 22.735l-.532.07.003 1.405.531.04z"/><path fill="#FF8200" d="M3.338 14.376l.172.676.637-.755-.122-.737z"/><path fill="#B1FF46" d="M12.871 21.197l-.522.181.141 1.427.532-.069z"/><path fill="#FF6000" d="M4.025 13.56l.122.737.721-.55-.066-.782z"/><path fill="#DEFF19" d="M12.575 19.673l-.502.293.276 1.412.522-.182z"/><path fill="#FF4A00" d="M4.802 12.964l.065.783.788-.329-.004-.811z"/><path fill="#FFE200" d="M12.14 18.207l-.471.401.404 1.358.502-.293z"/><path fill="#FF3800" d="M5.651 12.608l.003.81.832-.098.063-.82z"/><path fill="#FFB200" d="M11.578 16.839l-.43.503.522 1.266.471-.401z"/><path fill="#FF3000" d="M6.549 12.5l-.062.82.854.137.13-.81z"/><path fill="#FF8D00" d="M10.903 15.608l-.382.593.627 1.141.43-.502z"/><path fill="#FF3400" d="M7.471 12.647l-.13.81.853.37.198-.782z"/><path fill="#FF6800" d="M10.132 14.546l-.326.671.715.984.381-.593z"/><path fill="#FF3B00" d="M8.392 13.045l-.197.782.829.592.263-.735z"/><path fill="#FF4E00" d="M9.287 13.684l-.263.735.782.798.326-.671z"/></g><g fill-rule="nonzero"><path fill="#0040FF" d="M5.92 30.089l.158-.642-.717-.62-.22.589z"/><path fill="#0058FF" d="M5.141 29.416l.219-.59-.669-.789-.275.523z"/><path fill="#0034FF" d="M6.732 30.563l.095-.679-.749-.437-.159.642z"/><path fill="#0074FF" d="M4.416 28.56l.276-.523-.603-.939-.327.445z"/><path fill="#002CFF" d="M7.558 30.826l.032-.7-.763-.242-.095.679z"/><path fill="#009CFF" d="M3.762 27.543l.327-.445-.523-1.065-.371.355z"/><path fill="#0030FF" d="M8.379 30.871l-.033-.705-.756-.04-.032.7z"/><path fill="#00C4FF" d="M3.195 26.388l.372-.355-.429-1.166-.408.257z"/><path fill="#003CFF" d="M9.173 30.696l-.094-.692-.733.162.033.705z"/><path fill="#0CF4EB" d="M2.73 25.124l.408-.257-.324-1.238-.436.153z"/><path fill="#0050FF" d="M9.921 30.303l-.153-.663-.689.363.094.693z"/><path fill="#36FFC1" d="M2.378 23.782l.436-.153-.209-1.28-.456.045z"/><path fill="#006CFF" d="M10.604 29.702l-.207-.617-.629.555.153.663z"/><path fill="#60FF97" d="M2.149 22.393l.455-.045-.09-1.289-.464-.065z"/><path fill="#0090FF" d="M11.204 28.905l-.254-.556-.553.736.207.617z"/><path fill="#8DFF6A" d="M2.05 20.994l.464.065.033-1.266-.462-.174z"/><path fill="#00B8FF" d="M11.705 27.933l-.294-.482-.461.898.254.556z"/><path fill="#B7FF40" d="M2.084 19.619l.463.174.156-1.211-.451-.278z"/><path fill="#02E8F4" d="M12.094 26.807l-.326-.394-.357 1.039.294.481z"/><path fill="#E1FF16" d="M2.252 18.304l.451.278.276-1.124-.428-.375z"/><path fill="#29FFCE" d="M12.358 25.555l-.348-.296-.243 1.154.326.394z"/><path fill="#FFDE00" d="M2.55 17.083l.428.375.39-1.006-.396-.463z"/><path fill="#53FFA4" d="M12.492 24.209l-.36-.189-.122 1.239.348.296z"/><path fill="#FFB600" d="M2.973 15.989l.396.463.494-.862-.354-.538z"/><path fill="#80FF77" d="M12.489 22.805l-.361-.078.004 1.293.36.19z"/><path fill="#FF9400" d="M3.508 15.052l.355.538.587-.693-.305-.6z"/><path fill="#ADFF49" d="M12.347 21.378l-.349.036.13 1.313.36.078z"/><path fill="#F70" d="M4.145 14.297l.305.6.664-.505-.247-.645z"/><path fill="#D7FF1F" d="M12.072 19.966l-.328.149.254 1.298.35-.035z"/><path fill="#FF6000" d="M4.866 13.747l.248.646.725-.302-.186-.673z"/><path fill="#FEED00" d="M11.668 18.608l-.297.258.372 1.248.329-.148z"/><path fill="#FF5200" d="M5.654 13.418l.185.673.765-.089-.118-.682z"/><path fill="#FFC400" d="M11.146 17.342l-.255.36.48 1.164.297-.257z"/><path fill="#FF4A00" d="M6.486 13.32l.118.682.786.127-.05-.672z"/><path fill="#FF9F00" d="M10.52 16.201l-.205.452.576 1.049.255-.36z"/><path fill="#FF4A00" d="M7.34 13.457l.05.672.785.34.019-.643z"/><path fill="#FF7E00" d="M9.806 15.217l-.148.531.657.904.205-.451z"/><path fill="#F50" d="M8.194 13.827l-.019.642.763.545.085-.595z"/><path fill="#FF6800" d="M9.023 14.418l-.085.596.72.734.148-.531z"/></g><g fill-rule="nonzero"><path fill="#005CFF" d="M6.08 29.447l.423-.756-.658-.569-.483.704z"/><path fill="#0070FF" d="M5.362 28.826l.483-.704-.613-.724-.539.639z"/><path fill="#004CFF" d="M6.828 29.884l.362-.793-.687-.4-.424.756z"/><path fill="#008CFF" d="M4.693 28.037l.539-.638-.552-.861-.59.561z"/><path fill="#0048FF" d="M7.591 30.126l.298-.814-.699-.221-.361.793z"/><path fill="#00ACFF" d="M4.089 27.099l.59-.561-.478-.977-.634.472z"/><path fill="#004CFF" d="M8.347 30.167l.235-.819-.693-.036-.298.814z"/><path fill="#00D4FF" d="M3.567 26.033l.635-.472-.392-1.069-.671.375z"/><path fill="#0054FF" d="M9.08 30.004l.174-.806-.671.151-.235.818z"/><path fill="#16FFE1" d="M3.139 24.867l.671-.375-.295-1.136-.7.273z"/><path fill="#0068FF" d="M9.769 29.64l.117-.777-.632.335-.174.806z"/><path fill="#3CFFBA" d="M2.816 23.629l.699-.272-.191-1.173-.718.165z"/><path fill="#0080FF" d="M10.398 29.085l.064-.732-.576.511-.117.777z"/><path fill="#63FF94" d="M2.605 22.349l.719-.165-.081-1.182-.728.058z"/><path fill="#00A0FF" d="M10.951 28.35l.017-.672-.506.675-.064.732z"/><path fill="#8DFF6A" d="M2.516 21.059l.727-.057.032-1.16-.727-.049z"/><path fill="#00C8FF" d="M11.412 27.452l-.022-.598-.422.824-.017.671z"/><path fill="#B4FF43" d="M2.548 19.793l.727.049.144-1.108-.715-.152z"/><path fill="#0CF4EB" d="M11.769 26.413l-.052-.511-.327.952.022.597z"/><path fill="#DBFF1C" d="M2.704 18.582l.715.152.255-1.028-.694-.248z"/><path fill="#30FFC7" d="M12.012 25.26l-.073-.415-.222 1.057.052.511z"/><path fill="#FEED00" d="M2.98 17.458l.694.248.358-.92-.662-.334z"/><path fill="#56FFA0" d="M12.133 24.02l-.083-.31-.111 1.135.073.415z"/><path fill="#FFC800" d="M3.37 16.452l.663.334.454-.787-.622-.408z"/><path fill="#80FF77" d="M12.142 22.727l-.095-.2.004 1.183.096.311z"/><path fill="#FFA700" d="M3.864 15.59l.622.409.538-.633-.573-.469z"/><path fill="#A7FF50" d="M11.999 21.414l-.072-.089.12 1.202.083.2z"/><path fill="#FF8D00" d="M4.451 14.898l.573.468.609-.46-.518-.513z"/><path fill="#CEFF29" d="M11.745 20.115l-.05.023.232 1.187.072.089z"/><path fill="#F70" d="M5.116 14.393l.517.512.664-.274-.457-.54z"/><path fill="#F4F802" d="M11.372 18.867l-.018.129.34 1.142.05-.023z"/><path fill="#FF6C00" d="M5.84 14.091l.456.54.701-.081-.392-.548z"/><path fill="#FFD300" d="M10.892 17.701l.023.23.439 1.065.019-.13z"/><path fill="#FF6400" d="M6.606 14.002l.391.548.718.117-.324-.538z"/><path fill="#FFB200" d="M10.316 16.653l.072.32.527.959-.023-.23z"/><path fill="#FF6400" d="M7.391 14.129l.324.538.718.311-.257-.509z"/><path fill="#FF9400" d="M9.659 15.748l.129.399.6.826-.072-.321z"/><path fill="#FF6C00" d="M8.176 14.469l.257.509.697.498-.191-.462z"/><path fill="#FF7E00" d="M8.939 15.014l.191.462.658.671-.13-.399z"/></g><g fill-rule="nonzero"><path fill="#000CFF" d="M6.037 30.872l-.101-.296-.837-.724.045.247z"/><path fill="#0028FF" d="M5.143 30.099l-.044-.247-.78-.92-.008.185z"/><path fill="#00F" d="M6.97 31.417l-.159-.331-.874-.51.1.296z"/><path fill="#004CFF" d="M4.311 29.117l.007-.185-.704-1.095-.055.112z"/><path fill="#00F" d="M7.919 31.72l-.219-.35-.89-.283.16.33z"/><path fill="#0074FF" d="M3.56 27.948l.055-.112-.611-1.242-.096.029z"/><path fill="#00F" d="M8.862 31.772l-.279-.353-.883-.049.219.349z"/><path fill="#00A8FF" d="M2.908 26.623l.096-.028-.501-1.36-.13-.063z"/><path fill="#0008FF" d="M9.776 31.573l-.337-.341-.856.187.279.354z"/><path fill="#00E0FB" d="M2.373 25.172l.13.063-.379-1.446-.156-.16z"/><path fill="#0020FF" d="M10.638 31.124l-.393-.314-.806.421.338.342z"/><path fill="#2CFFCA" d="M1.967 23.629l.156.161-.247-1.495-.173-.263z"/><path fill="#0040FF" d="M11.425 30.436l-.444-.271-.736.646.393.314z"/><path fill="#5DFF9A" d="M1.704 22.032l.173.262-.108-1.507-.181-.366z"/><path fill="#0068FF" d="M12.118 29.522l-.49-.214-.647.856.444.271z"/><path fill="#90FF66" d="M1.588 20.422l.181.366.036-1.482-.179-.468z"/><path fill="#0098FF" d="M12.698 28.404l-.528-.142-.542 1.046.49.214z"/><path fill="#C1FF36" d="M1.626 18.838l.179.468.18-1.418-.168-.567z"/><path fill="#0CF" d="M13.149 27.109l-.559-.06-.42 1.212.528.143z"/><path fill="#F4F802" d="M1.818 17.321l.167.566.321-1.317-.146-.659z"/><path fill="#1CFFDB" d="M13.458 25.669l-.581.032-.287 1.348.559.06z"/><path fill="#FFC400" d="M2.159 15.911l.147.659.454-1.181-.116-.743z"/><path fill="#4DFFAA" d="M13.615 24.118l-.592.133-.146 1.45.581-.032z"/><path fill="#FF9800" d="M2.644 14.646l.116.743.577-1.013-.076-.815z"/><path fill="#80FF77" d="M13.615 22.499l-.594.237.002 1.515.592-.133z"/><path fill="#FF6F00" d="M3.261 13.561l.076.815.686-.816-.028-.874z"/><path fill="#B4FF43" d="M13.457 20.851l-.586.345.15 1.54.594-.238z"/><path fill="#FF4A00" d="M3.995 12.685l.029.875.778-.595.025-.919z"/><path fill="#E4FF13" d="M13.141 19.221l-.567.453.296 1.523.586-.345z"/><path fill="#FF3000" d="M4.827 12.046l-.025.919.849-.357.085-.946z"/><path fill="#FFD300" d="M12.678 17.653l-.538.555.435 1.466.566-.452z"/><path fill="#F20" d="M5.735 11.663l-.085.946.898-.108.147-.955z"/><path fill="#FFA300" d="M12.077 16.188l-.499.652.562 1.368.538-.556z"/><path fill="#FF1A00" d="M6.696 11.546l-.148.955.922.147.212-.946z"/><path fill="#FF7A00" d="M11.355 14.869l-.453.739.675 1.232.5-.652z"/><path fill="#FF1A00" d="M7.683 11.702l-.213.946.921.398.278-.919z"/><path fill="#F50" d="M10.53 13.732l-.399.814.771 1.062.452-.739z"/><path fill="#FF2500" d="M8.669 12.126l-.277.92.895.638.34-.874z"/><path fill="#FF3800" d="M9.627 12.809l-.341.875.845.862.399-.814z"/></g></g></svg>