<svg fill="none" viewBox="0 0 32 32"><path fill="#000" fill-rule="evenodd" d="M32 16c0-8.828-7.172-16-16-16S0 7.172 0 16s7.172 16 16 16 16-7.172 16-16z" clip-rule="evenodd"/><path fill="url(#paint0_linear)" fill-rule="evenodd" d="M16 2c7.725 0 14 6.275 14 14s-6.275 14-14 14S2 23.725 2 16 8.275 2 16 2zm0 1.005c7.17 0 12.995 5.825 12.995 12.995 0 7.17-5.825 12.995-12.995 12.995C8.83 28.995 3.005 23.17 3.005 16 3.005 8.83 8.83 3.005 16 3.005z" clip-rule="evenodd"/><path fill="url(#paint1_linear)" fill-rule="evenodd" d="M16 5.032c6.052 0 10.968 4.916 10.968 10.968S22.052 26.968 16 26.968 5.032 22.052 5.032 16 9.948 5.032 16 5.032zm0 1.005c5.497 0 9.963 4.466 9.963 9.963 0 5.497-4.466 9.963-9.963 9.963-5.497 0-9.963-4.466-9.963-9.963 0-5.497 4.466-9.963 9.963-9.963z" clip-rule="evenodd"/><path fill="url(#paint2_linear)" fill-rule="evenodd" d="M16 7.714c4.572 0 8.286 3.714 8.286 8.286 0 4.572-3.714 8.286-8.286 8.286-4.572 0-8.286-3.714-8.286-8.286 0-4.572 3.714-8.286 8.286-8.286zm0 1.005A7.286 7.286 0 0123.28 16 7.286 7.286 0 0116 23.28 7.286 7.286 0 018.72 16 7.286 7.286 0 0116 8.72z" clip-rule="evenodd"/><defs><linearGradient id="paint0_linear" x1="2" x2="30" y1="16" y2="16" gradientUnits="userSpaceOnUse"><stop stop-color="#E6E6E6"/><stop offset="1" stop-color="#E5E5E5" stop-opacity="0"/></linearGradient><linearGradient id="paint1_linear" x1="27.375" x2="4.625" y1="16" y2="16" gradientUnits="userSpaceOnUse"><stop stop-color="#E6E6E6"/><stop offset="1" stop-color="#E5E5E5" stop-opacity="0"/></linearGradient><linearGradient id="paint2_linear" x1="7.714" x2="24.286" y1="16" y2="16" gradientUnits="userSpaceOnUse"><stop stop-color="#E6E6E6"/><stop offset="1" stop-color="#E5E5E5" stop-opacity="0"/></linearGradient></defs></svg>