<svg xmlns="http://www.w3.org/2000/svg" width="32" height="32"><g fill="none" fill-rule="evenodd"><path fill="#FFF" d="M32 16c0-2.094-.417-4.188-1.218-6.123a16.057 16.057 0 00-3.468-5.19 16.052 16.052 0 00-5.191-3.47A16.055 16.055 0 0016 0c-2.094 0-4.188.417-6.123 1.218a16.055 16.055 0 00-5.19 3.468 16.05 16.05 0 00-3.47 5.191A16.049 16.049 0 000 16c0 2.094.416 4.188 1.218 6.123a16.056 16.056 0 003.468 5.19 16.054 16.054 0 005.19 3.469A16.056 16.056 0 0016 32c2.094 0 4.188-.417 6.123-1.218a16.05 16.05 0 005.19-3.468 16.062 16.062 0 003.47-5.191A16.055 16.055 0 0032 16z"/><path fill="#0657F9" d="M11.855 3.384a13.266 13.266 0 0113.213 2.914 13.155 13.155 0 013.417 5.189c.71 1.99.946 4.19.672 6.284a13.194 13.194 0 01-2.243 5.795 13.207 13.207 0 01-4.64 4.134 13.622 13.622 0 01-6.12 1.576 13.207 13.207 0 01-6.059-1.381 13.19 13.19 0 01-4.763-3.991 13.662 13.662 0 01-2.444-5.83 13.13 13.13 0 01.487-6.193 13.391 13.391 0 012.23-4.145H4.12V5.282h5.817v5.432H7.483V9.229a10.961 10.961 0 00-1.827 3.397 10.786 10.786 0 00-.4 5.07 11.107 11.107 0 002.81 5.75 10.952 10.952 0 006.8 3.375 11.023 11.023 0 007.351-1.892 10.999 10.999 0 004.325-6.24c.637-2.5.342-5.237-.807-7.547a10.919 10.919 0 00-5.546-5.183c-2.394-.99-5.181-1.085-7.585-.295l-.75-2.28z"/><path fill="#000" d="M20.83 11.06v2.335h-3.547v1.317h.01c1.452.066 2.724.24 3.649.489.462.124.838.265 1.116.433.138.083.254.174.341.282.087.109.146.241.146.383a.616.616 0 01-.146.382 1.28 1.28 0 01-.341.283c-.278.168-.654.309-1.116.433-.925.248-2.197.423-3.648.489h-.01v4.694h-2.568v-4.694h-.01c-1.451-.066-2.723-.24-3.648-.489-.462-.124-.838-.265-1.116-.433a1.28 1.28 0 01-.341-.283.616.616 0 01-.146-.382c0-.142.059-.274.146-.383a1.28 1.28 0 01.341-.282c.278-.168.654-.31 1.116-.433.925-.249 2.197-.423 3.648-.489h.011v-1.317H11.17V11.06h9.662zm-3.546 4.167v1.315l-.025.002a7.925 7.925 0 01-.359.022 18.262 18.262 0 01-.77.016h-.26a27.26 27.26 0 01-.77-.016 7.925 7.925 0 01-.359-.022l-.025-.002v-1.315c-1.263.056-2.366.194-3.145.38-.39.092-.699.198-.9.306a.832.832 0 00-.217.156c-.043.047-.055.08-.055.11 0 .029.012.063.055.11a.83.83 0 00.217.156c.201.107.51.213.9.307.78.186 1.885.323 3.15.379l1.279.028 1.279-.028c1.265-.056 2.37-.193 3.15-.38.39-.093.699-.199.9-.306a.83.83 0 00.217-.156c.043-.047.055-.081.055-.11 0-.03-.012-.063-.055-.11a.832.832 0 00-.216-.156c-.202-.108-.511-.214-.901-.307-.78-.185-1.882-.323-3.145-.379z"/></g></svg>