<svg width="32" height="32" fill="none" xmlns="http://www.w3.org/2000/svg"><path fill-rule="evenodd" clip-rule="evenodd" d="M32 16c0-2.094-.417-4.188-1.218-6.123a16.046 16.046 0 00-3.468-5.19 16.046 16.046 0 00-5.191-3.47A16.055 16.055 0 0016 0c-2.094 0-4.188.417-6.123 1.218a16.047 16.047 0 00-5.19 3.468 16.047 16.047 0 00-3.47 5.191A16.054 16.054 0 000 16c0 2.094.417 4.188 1.218 6.123a16.046 16.046 0 003.468 5.19 16.046 16.046 0 005.191 3.47A16.054 16.054 0 0016 32c2.094 0 4.188-.417 6.123-1.218a16.046 16.046 0 005.19-3.468 16.046 16.046 0 003.47-5.191A16.054 16.054 0 0032 16z" fill="#fff"/><path fill-rule="evenodd" clip-rule="evenodd" d="M11.145 16.94c-3.326.595-5.589 1.766-5.589 3.114 0 1.948 4.732 3.528 10.569 3.528 5.837 0 10.569-1.58 10.569-3.528 0-1.348-2.263-2.519-5.59-3.113-1.445.363-3.151.572-4.979.572-1.828 0-3.534-.21-4.98-.572zM12.43 11.163c-2.818.458-4.76 1.423-4.76 2.54 0 1.559 3.786 2.822 8.455 2.822 4.67 0 8.455-1.263 8.455-2.822 0-1.117-1.942-2.082-4.759-2.54-1.083.268-2.346.422-3.696.422s-2.613-.154-3.696-.422z" fill="#000"/><ellipse cx="16.125" cy="8.551" rx="6.341" ry="2.117" fill="#000"/><path fill-rule="evenodd" clip-rule="evenodd" d="M30.782 9.877A16.054 16.054 0 0132 16c0 2.094-.417 4.188-1.218 6.123a16.046 16.046 0 01-3.468 5.19 16.046 16.046 0 01-5.191 3.47A16.054 16.054 0 0116 32c-2.094 0-4.188-.417-6.123-1.218a16.046 16.046 0 01-5.19-3.468 16.046 16.046 0 01-3.47-5.191A16.055 16.055 0 010 16c0-2.094.417-4.188 1.218-6.123a16.047 16.047 0 013.468-5.19 16.047 16.047 0 015.191-3.47A16.054 16.054 0 0116 0c2.094 0 4.188.417 6.123 1.218a16.046 16.046 0 015.19 3.468 16.046 16.046 0 013.47 5.191zm-1.478.612A14.452 14.452 0 0130.4 16c0 1.885-.375 3.77-1.096 5.51a14.454 14.454 0 01-3.122 4.672 14.454 14.454 0 01-4.671 3.122A14.452 14.452 0 0116 30.4c-1.885 0-3.77-.375-5.51-1.096a14.454 14.454 0 01-4.672-3.122 14.454 14.454 0 01-3.122-4.671A14.453 14.453 0 011.6 16c0-1.885.375-3.77 1.096-5.51a14.454 14.454 0 013.122-4.672 14.454 14.454 0 014.671-3.122A14.453 14.453 0 0116 1.6c1.885 0 3.77.375 5.51 1.096a14.454 14.454 0 014.672 3.122 14.454 14.454 0 013.122 4.671z" fill="#000"/></svg>