<svg width="32" height="32" fill="none" xmlns="http://www.w3.org/2000/svg"><circle cx="16" cy="16" r="16" fill="#0E052F"/><circle cx="16" cy="16" r="16" fill="url(#paint0_linear)" fill-opacity=".75"/><circle cx="16" cy="16" r="13.867" fill="#fff"/><circle cx="15.967" cy="15.967" r="12.633" fill="#0E052F"/><path d="M15.287 21.674a5.795 5.795 0 01-1.672-.373 4.684 4.684 0 01-1.352-.83 3.994 3.994 0 01-.907-1.167A3.28 3.28 0 0111 17.865h2.188c.024.553.226 1.016.605 1.388.392.361.89.57 1.495.626v-3.351l-.837-.119c-.96-.124-1.725-.468-2.295-1.032-.557-.564-.836-1.28-.836-2.15 0-.451.107-.874.32-1.27.214-.406.505-.761.872-1.066.368-.316.789-.57 1.263-.761.482-.191.992-.311 1.512-.356V8.2h1.3v1.608a5.147 5.147 0 011.476.406c.45.192.842.44 1.174.745.332.305.593.655.783 1.05.201.394.314.818.338 1.269h-2.189a1.56 1.56 0 00-.48-1.05 2.2 2.2 0 00-1.103-.626V14.7l.605.084c.45.068.878.187 1.28.356.404.17.754.39 1.05.66.309.27.546.598.712.982.178.372.267.795.267 1.27 0 .507-.1.97-.302 1.387-.19.406-.463.767-.819 1.084a4.437 4.437 0 01-1.245.761 5.62 5.62 0 01-1.548.373V23.4h-1.298v-1.726zm1.3-1.812c.557-.09.99-.282 1.298-.575.308-.305.462-.688.462-1.151 0-.429-.148-.745-.444-.948a2.436 2.436 0 00-1.014-.423l-.303-.051v3.148zm-1.3-8.31a2.577 2.577 0 00-1.28.524c-.344.271-.516.638-.516 1.1 0 .395.112.694.338.897.237.192.545.316.925.373l.534.085v-2.98z" fill="#fff"/><defs><linearGradient id="paint0_linear" x1="0" y1="0" x2="32" y2="32" gradientUnits="userSpaceOnUse"><stop stop-color="#31D8A4"/><stop offset="1" stop-color="#31D8A4" stop-opacity="0"/></linearGradient></defs></svg>