<svg viewBox="0 0 32 32"><defs><linearGradient id="a" x1="50%" x2="50%" y1="-29.386%" y2="100%"><stop offset="0%" stop-color="#08021E"/><stop offset="100%" stop-color="#071E40"/></linearGradient></defs><g fill="none" fill-rule="evenodd"><path fill="url(#a)" fill-rule="nonzero" d="M32 16c0-2.094-.417-4.188-1.218-6.123a16.062 16.062 0 00-3.468-5.19 16.05 16.05 0 00-5.191-3.47A16.049 16.049 0 0016 0a16.05 16.05 0 00-6.123 1.218 16.058 16.058 0 00-5.19 3.468 16.056 16.056 0 00-3.47 5.191A16.049 16.049 0 000 16c0 2.094.416 4.188 1.218 6.123a16.05 16.05 0 003.468 5.19 16.064 16.064 0 005.19 3.47A16.056 16.056 0 0016 32c2.094 0 4.188-.417 6.123-1.218a16.057 16.057 0 005.19-3.468 16.057 16.057 0 003.47-5.191A16.055 16.055 0 0032 16z"/><path fill="#010F1D" d="M23.68 8.047a3.07 3.07 0 00-.025-.37 1.984 1.984 0 00-.082-.36 1.706 1.706 0 00-.377-.632 1.923 1.923 0 00-.281-.24c-.101-.071-.208-.135-.302-.214-.093-.08-.173-.175-.257-.266-.111-.122-.23-.236-.347-.35-.148-.143-.296-.286-.446-.428-.18-.17-.361-.337-.547-.5a6.769 6.769 0 00-.58-.462 5.256 5.256 0 00-4.25-.76 5.454 5.454 0 00-2.55 1.439 5.432 5.432 0 00-1.44 2.55 5.37 5.37 0 00-.146 1.47c.012.247.042.494.084.737.034.203.076.404.112.607.03.162.054.325.059.49a2.08 2.08 0 01-.049.49c-.034.161-.086.318-.124.478a3.05 3.05 0 00-.075.859 2.67 2.67 0 00.143.725 3.632 3.632 0 00.304.675c.049.09.098.178.151.268.042.072.087.145.102.225a.655.655 0 01-.012.246 2.63 2.63 0 01-.205.644 2.11 2.11 0 00-.549.232 1.9 1.9 0 00-.78.871 3.065 3.065 0 00-.192.567c-.216.249-.453.48-.703.695-.25.215-.513.412-.78.606s-.537.385-.782.604c-.245.22-.466.467-.664.732a5.373 5.373 0 00-1.064 2.729 5.412 5.412 0 00.167 1.959 5.369 5.369 0 00.861 1.768c.195.266.413.514.65.744a6.236 6.236 0 001.613 1.13 5.528 5.528 0 001.892.537c.328.032.658.035.987.011.33-.024.659-.075.973-.169.315-.094.617-.232.912-.38a13.21 13.21 0 001.145-.65c.464-.294.91-.618 1.34-.96a22.806 22.806 0 004.088-4.276c.39-.53.762-1.075 1.102-1.64.34-.564.65-1.149.905-1.756a2.016 2.016 0 00.902-1.68 1.903 1.903 0 00-.106-.652 10.65 10.65 0 00.382-2.167 8.582 8.582 0 00-.026-1.761 9.695 9.695 0 00-.273-1.293c.16-.258.28-.547.33-.848a2.147 2.147 0 00-.056-.908 2.15 2.15 0 00-.415-.81 2.198 2.198 0 00-.72-.556z"/><path fill="#1878E0" d="M14.059 27.09c1.71-.753 3.264-2.06 4.438-3.237a21.517 21.517 0 002.566-3.093c.592-.862.981-1.536 1.213-2.012.232-.476.306-.753.42-.912.115-.16.269-.201.385-.29a.676.676 0 00.233-.374.799.799 0 00-.006-.447c-.046-.13-.138-.222-.133-.354.004-.133.105-.308.227-.871.121-.564.264-1.516.255-2.294a6.829 6.829 0 00-.275-1.768c-.103-.387-.15-.558-.068-.746.08-.188.287-.395.346-.662a.95.95 0 00-.212-.798c-.183-.201-.461-.276-.643-.338s-.267-.111-.31-.256c-.043-.144-.043-.384-.043-.617 0-.233 0-.458-.107-.6-.109-.142-.324-.2-.51-.366-.183-.166-.335-.44-1.714-1.673a4.06 4.06 0 00-2.331-.994 4.182 4.182 0 00-2.47.577 4.236 4.236 0 00-1.694 1.887 4.148 4.148 0 00-.284 2.52c.278 1.318.173 1.71.074 2.08-.099.37-.193.72-.136 1.074.057.355.264.714.432 1.003.167.29.294.51.294.856s-.126.818-.268 1.19c-.142.372-.3.644-.504.78-.205.136-.457.136-.641.236-.185.101-.3.302-.359.478-.058.177-.058.328-.159.505-.101.176-.303.378-.575.65-.272.272-.614.614-1.602 1.295a4.218 4.218 0 00-1.429 1.816 4.218 4.218 0 00-.247 2.297 4.237 4.237 0 001.045 2.116 4.987 4.987 0 002.105 1.376 4.353 4.353 0 002.233.113c.153-.034.295-.077.454-.147z"/><path fill="#0957A8" d="M15.38 4.93a4.227 4.227 0 011.184-.454 3.974 3.974 0 012.487.231c.403.172.76.397 1.07.675 1.379 1.233 1.531 1.507 1.715 1.673.185.167.4.224.509.366.107.142.107.367.107.6 0 .233 0 .473.043.617.043.145.128.194.31.256s.46.137.643.338a.95.95 0 01.212.798c-.06.267-.266.474-.346.662-.081.188-.035.359.068.746.104.386.266.99.275 1.768.01.778-.134 1.73-.255 2.294-.122.563-.223.738-.227.87-.005.133.087.225.133.355a.787.787 0 01.006.447.676.676 0 01-.233.375c-.116.088-.27.13-.384.289-.115.159-.189.436-.42.912-.233.476-.622 1.15-1.214 2.012a21.517 21.517 0 01-2.566 3.093c-1.174 1.177-2.728 2.484-4.438 3.237-.159.07-.301.113-.454.147a4.353 4.353 0 01-2.233-.113 4.987 4.987 0 01-2.105-1.376 4.237 4.237 0 01-1.045-2.116 4.08 4.08 0 01-.051-.423c.72 1.654 1.68 1.897 2.588 1.904.908.007 1.763-.222 2.653-.736.89-.514 1.814-1.312 2.716-2.152.902-.839 1.782-1.719 2.433-2.524.651-.806 1.073-1.537 1.466-1.952.393-.414.758-.511.978-.705a.852.852 0 00.266-.753c-.034-.27-.178-.52-.25-.85a1.671 1.671 0 01.176-1.196c.248-.454.743-.95 1.033-1.61.289-.66.372-1.483.354-2.117-.019-.634-.138-1.078-.391-1.494-.253-.416-.64-.803-1.027-.997-.387-.194-.773-.194-1.228-.264-.454-.07-.978-.21-1.288-.46-.31-.251-.407-.611-.413-.958-.005-.347.08-.68-.02-.93-.1-.249-.388-.415-.78-.585-.394-.17-.893-.345-2.056.1z"/><path fill="#2CA7EE" d="M11.957 18.952c-.149 0-.297.034-.445.102a1.013 1.013 0 00-.577.677 1.02 1.02 0 00-.03.456.312.312 0 00.558.132.318.318 0 00.053-.232.436.436 0 01.013-.19.422.422 0 01.24-.282.44.44 0 01.186-.042.312.312 0 00.221-.529.32.32 0 00-.219-.092z"/><path fill="#010F1D" d="M17.262 11.474a1.5 1.5 0 00-.433-1.046 1.5 1.5 0 00-1.046-.433 1.5 1.5 0 00-1.046.433 1.5 1.5 0 00-.433 1.046c0 .386.16.773.433 1.046a1.5 1.5 0 001.046.433 1.5 1.5 0 001.046-.433 1.5 1.5 0 00.433-1.046z"/><path fill="#178CCF" d="M19.956 20.281c.144-.038.279-.109.405-.213.25-.209.378-.477.382-.803a1.046 1.046 0 00-.09-.449.313.313 0 00-.41-.156.314.314 0 00-.162.174.318.318 0 00.007.237.444.444 0 01.037.187.423.423 0 01-.159.335.441.441 0 01-.169.089.311.311 0 00-.076.568c.07.04.159.052.235.031z"/><path fill="#2CA7EE" d="M15.4 19.989c-.15 0-.298.034-.446.102a1.013 1.013 0 00-.577.676 1.02 1.02 0 00-.03.456.31.31 0 00.612-.1.436.436 0 01.012-.19.422.422 0 01.24-.281.44.44 0 01.187-.043.312.312 0 00.22-.529.319.319 0 00-.219-.091z"/><path fill="#178CCF" d="M17.572 22.594a.314.314 0 00-.09-.22.314.314 0 00-.22-.09.315.315 0 00-.22.09.314.314 0 00-.09.22c0 .081.033.162.09.22a.314.314 0 00.439 0 .315.315 0 00.091-.22z"/><path fill="#2CA7EE" d="M14.875 8.239a.315.315 0 00-.09-.22.314.314 0 00-.22-.09.314.314 0 00-.219.09.315.315 0 00-.09.22c0 .08.033.162.09.219a.314.314 0 00.438 0 .314.314 0 00.091-.22z"/><path fill="#010F1D" d="M21.876 10.291c0-.462-.191-.925-.519-1.252a1.795 1.795 0 00-1.252-.52c-.463 0-.926.192-1.253.52-.327.327-.519.79-.519 1.252 0 .463.192.926.52 1.253.326.327.79.519 1.252.519.463 0 .925-.192 1.252-.519.328-.327.52-.79.52-1.253z"/><path fill="#FFF" d="M21.256 10.291c0-.3-.125-.601-.337-.814a1.169 1.169 0 00-.814-.337c-.3 0-.602.125-.814.337a1.169 1.169 0 00-.337.814c0 .301.124.602.337.814.212.213.513.338.814.338.3 0 .601-.125.814-.338.212-.212.337-.513.337-.814zm-4.514 1.183a.973.973 0 00-.281-.678.973.973 0 00-.678-.281c-.25 0-.5.104-.678.28a.973.973 0 00-.281.679c0 .25.104.5.28.678a.973.973 0 00.679.281c.25 0 .501-.104.678-.28a.972.972 0 00.281-.679z"/><path fill="#000" d="M20.955 10.016a.471.471 0 00-.136-.328.47.47 0 00-.329-.137.47.47 0 00-.328.137.471.471 0 00-.136.328c0 .121.05.243.136.328a.47.47 0 00.328.136.47.47 0 00.329-.136.472.472 0 00.136-.328zm-5.049 1.355a.446.446 0 00-.128-.31.444.444 0 00-.31-.13.446.446 0 00-.312.13.447.447 0 00-.128.31c0 .115.047.23.128.311a.446.446 0 00.311.13.44.44 0 00.31-.13.446.446 0 00.13-.31z"/><path fill="#2CA7EE" d="M9.691 21.852c-.074.13-.12.275-.134.437-.03.326.069.605.297.838.114.117.24.202.38.255a.32.32 0 00.238-.007.312.312 0 00-.018-.573.436.436 0 01-.158-.107.423.423 0 01-.125-.349.439.439 0 01.057-.182.312.312 0 00-.348-.456.318.318 0 00-.189.144z"/><path fill="#178CCF" d="M12.347 26.059c.105.106.234.187.387.243.307.113.602.09.887-.07.142-.08.257-.18.344-.301a.313.313 0 00-.301-.488.318.318 0 00-.203.125.44.44 0 01-.143.126.422.422 0 01-.37.029.437.437 0 01-.161-.101.32.32 0 00-.22-.092.312.312 0 00-.221.529zM20.44 6.846a1.043 1.043 0 00-.214-.405 1.013 1.013 0 00-.802-.382 1.05 1.05 0 00-.449.089.312.312 0 00.017.573.32.32 0 00.238-.007.434.434 0 01.187-.037.423.423 0 01.335.159.437.437 0 01.089.169.312.312 0 00.379.22.313.313 0 00.22-.38zm1.866 8.106a.315.315 0 00-.09-.22.314.314 0 00-.22-.09.314.314 0 00-.22.09.315.315 0 00-.09.22c0 .08.034.162.09.219a.314.314 0 00.438 0 .314.314 0 00.092-.22z"/><path fill="#2CA7EE" d="M16.944 16.576a1.05 1.05 0 00-.388-.243 1.015 1.015 0 00-.886.07 1.05 1.05 0 00-.344.301.32.32 0 00-.055.231.313.313 0 00.558.132.436.436 0 01.144-.126.423.423 0 01.369-.03.442.442 0 01.162.102.312.312 0 00.53-.218.32.32 0 00-.09-.219z"/></g></svg>