<svg fill="none" viewBox="0 0 32 32"><path fill="#F0B90B" fill-rule="evenodd" d="M32 16c0-8.828-7.172-16-16-16S0 7.172 0 16s7.172 16 16 16 16-7.172 16-16z" clip-rule="evenodd"/><path fill="#fff" fill-rule="evenodd" d="M16 2.79c7.289 0 13.21 5.921 13.21 13.21 0 7.289-5.921 13.21-13.21 13.21-7.289 0-13.21-5.921-13.21-13.21C2.79 8.711 8.711 2.79 16 2.79zm0 1.247C22.6 4.037 27.963 9.4 27.963 16c0 6.6-5.362 11.963-11.963 11.963C9.4 27.963 4.037 22.6 4.037 16 4.037 9.4 9.4 4.037 16 4.037z" clip-rule="evenodd"/><path fill="#F7931A" fill-rule="evenodd" d="M27.962 16c0-6.6-5.361-11.963-11.962-11.963C9.4 4.037 4.037 9.4 4.037 16 4.037 22.6 9.4 27.963 16 27.963c6.6 0 11.962-5.362 11.962-11.963z" clip-rule="evenodd"/><path fill="#fff" fill-rule="evenodd" d="M21.275 14.296c.237-1.593-.974-2.448-2.631-3.02l.537-2.156-1.312-.327-.524 2.1a50.068 50.068 0 00-1.052-.248l.527-2.113-1.311-.327-.54 2.156-.154-.036-.683-.16.002-.009-1.811-.452-.349 1.403h.002c.065.015.972.224.95.237.532.133.63.485.614.763l-1.474 5.908c-.065.162-.23.404-.602.312.014.019-.847-.21-.947-.236l-.007-.002-.652 1.502.732.182.977.244c.18.045.359.092.535.138l.4.104-.543 2.18 1.312.328.538-2.158c.358.097.705.187 1.045.27l-.535 2.149 1.313.327.543-2.177c2.237.424 3.922.253 4.63-1.772.571-1.63-.029-2.57-1.207-3.184.859-.197 1.503-.762 1.677-1.926zm-3 4.204c-.372 1.496-2.71.88-3.781.597a13.686 13.686 0 00-.259-.067l.72-2.89c.09.023.2.047.325.075 1.108.248 3.376.757 2.996 2.285zm-2.774-3.628c.892.239 2.84.76 3.18-.6.346-1.39-1.546-1.81-2.471-2.015a11.152 11.152 0 01-.27-.062l-.654 2.621c.062.015.134.035.215.056z" clip-rule="evenodd"/></svg>