<svg fill="none" viewBox="0 0 32 32"><circle cx="16" cy="16" r="16" fill="#fff"/><path fill="#000" d="M8.93 9.355l1.705-.979.23.395 6.286-3.625-.46-.265-.462-.269L16 4.48 5.76 10.396v.264L8.7 8.959l.23.396zm0 3.724l4.927-2.846.23.4 6.285-3.627-.46-.268-.46-.264-.23-.13L5.76 14.116v.264l2.94-1.7.23.4zm0 1.862l6.537-3.774.232.396 6.283-3.631-.459-.26-.46-.27-.23-.132L5.76 15.972v.269l2.94-1.698.23.398zm0 1.859l8.194-4.73.233.396 6.237-3.6-.459-.27-.462-.264-.229-.132L5.76 17.836v.264l2.94-1.7.23.4zm0 1.857l9.806-5.66.23.401 6.239-3.605-.46-.263-.46-.268-.231-.132L5.76 19.692v.265L8.7 18.26l.23.397zm16.966-8.463l-.23-.134L5.76 21.556v.264l2.94-1.696.23.396 9.806-5.659.23.397 7.274-4.198v-.664l-.344-.202zM7.02 22.949l1.65-.951.229.397 9.789-5.652.23.402 7.321-4.228v-1.33L6.795 22.817l.226.132zm11.668-4.342l.23.402 7.321-4.229v-1.33L8.406 23.747l.231.132 1.674-.969.231.401m-.295 1.5l1.675-.971.23.4 6.537-3.776.23.401 7.321-4.227v-1.329l-16.226 9.365.233.137zm1.61.93l1.675-.967.232.396 4.925-2.843.23.397 7.321-4.227V17.17l-14.612 8.438.229.132zm1.382.796l.23.132 1.68-.968.225.4 3.315-1.916.23.4 7.321-4.227v-1.331l-13 7.51zm1.84 1.066l1.675-.973.23.402 1.705-.989.23.4 7.321-4.222v-1.33l-11.391 6.58.23.132zm3.684-21.529L18.3 5.81l-.459-.264-.23-.136L5.76 12.252v.264l2.94-1.694.23.394 3.315-1.913.237.401 6.28-3.63z"/></svg>