<svg width="32" height="32" fill="none" xmlns="http://www.w3.org/2000/svg"><path fill-rule="evenodd" clip-rule="evenodd" d="M29.544 22.71c0-5.11-4.149-9.259-9.257-9.259-5.109 0-9.259 4.15-9.259 9.258 0 5.109 4.15 9.258 9.259 9.258 5.108 0 9.257-4.15 9.257-9.258z" fill="#F7931A"/><path fill-rule="evenodd" clip-rule="evenodd" d="M24.369 21.39c.183-1.232-.754-1.894-2.036-2.337l.416-1.668-1.016-.253-.406 1.625a39.14 39.14 0 00-.813-.192l.407-1.635-1.014-.253-.418 1.668-.105-.024c-.184-.043-.366-.085-.543-.128l.002-.006-1.402-.35-.27 1.085c.038.009.753.174.737.184.411.103.487.375.475.59l-1.141 4.573c-.05.125-.178.312-.466.242.01.013-.58-.143-.714-.178l-.024-.007-.505 1.162 1.323.33.416.108.307.08-.42 1.687 1.015.253.416-1.67c.278.076.547.145.81.21l-.415 1.662 1.016.253.42-1.684c1.732.328 3.036.196 3.585-1.372.441-1.262-.023-1.989-.935-2.464.664-.152 1.163-.589 1.298-1.49zm-2.321 3.254c-.289 1.158-2.096.681-2.926.463l-.201-.053.557-2.236.253.058c.858.193 2.61.586 2.317 1.768zM19.9 21.837c.69.184 2.198.587 2.46-.464.269-1.078-1.198-1.402-1.913-1.56l-.209-.048-.505 2.028.167.044z" fill="#fff"/><path fill-rule="evenodd" clip-rule="evenodd" d="M10.903 4.626c-.735 1.599-1.95 3.465-3.417 5.391-1.468 1.927-3.19 3.912-4.211 6.016-1.022 2.103-1.343 4.323-1.263 6.165.08 1.84.563 3.302 1.55 4.772.989 1.471 2.482 2.95 4.196 3.81 1.715.86 3.65 1.1 4.653 1.184 1.003.083 1.074.009 1.11-.087.037-.095.04-.212-.237-.475-.277-.262-.834-.67-1.51-1.35-.675-.678-1.47-1.627-2.04-3.063-.569-1.436-.912-3.36-.8-5.028.11-1.667.676-3.079 1.13-4.193.453-1.115.793-1.932 1.078-2.832.285-.9.514-1.883.783-3.424.27-1.54.578-3.638.72-5.398a35.53 35.53 0 00.088-4.06c-.028-.877-.06-1.21-.09-1.459-.03-.249-.06-.414-.115-.507-.053-.093-.13-.114-.198-.055-.066.058-.122.196-.278.93-.157.734-.413 2.065-1.149 3.663z" fill="url(#paint0_linear)"/><path fill-rule="evenodd" clip-rule="evenodd" d="M16.118 8.012c.408.597.924 1.193 1.417 1.697s.963.917 1.232 1.186c.27.268.34.391.306.46-.033.07-.17.087-.481.128a9.52 9.52 0 00-1.435.294c-.637.183-1.422.48-2.057.805-.636.325-1.12.676-1.42.898-.302.221-.42.313-.502.34-.083.029-.13-.008-.147-.1-.017-.092-.003-.24.086-.62.089-.381.253-.992.397-1.84.145-.847.27-1.931.348-2.866.078-.935.11-1.72.161-2.198.051-.478.121-.647.22-.75.101-.104.231-.141.345-.103.114.039.212.152.295.311.084.16.155.364.34.765.186.4.486.997.895 1.593z" fill="url(#paint1_linear)"/><path fill-rule="evenodd" clip-rule="evenodd" d="M7.971 30.883c1.66.777 3.478 1.001 4.44 1.081 1.003.083 1.074.009 1.11-.087.037-.095.04-.212-.237-.475-.277-.262-.834-.67-1.51-1.35-.675-.678-1.47-1.627-2.04-3.063-.569-1.436-.912-3.36-.8-5.028.11-1.667.676-3.079 1.13-4.193.453-1.115.793-1.932 1.078-2.832.285-.9.514-1.883.783-3.424.27-1.54.578-3.638.72-5.398a35.53 35.53 0 00.088-4.06c-.02-.621-.042-.97-.063-1.209.085 2.662-.564 4.921-1.322 6.917a35.263 35.263 0 01-2.591 5.376c-.965 1.647-2.027 3.209-2.864 4.762-.837 1.553-1.45 3.097-1.635 4.668-.184 1.572.06 3.171.613 4.631.553 1.46 1.415 2.78 3.1 3.684z" fill="url(#paint2_linear)"/><path fill-rule="evenodd" clip-rule="evenodd" d="M14.087 5.784c-.09 1.824.323 4.926 2.206 6.28-.41.152-.826.33-1.193.518-.636.325-1.12.676-1.42.898-.302.221-.42.313-.502.34-.083.029-.13-.008-.147-.1-.017-.092-.003-.24.086-.621.089-.38.253-.991.397-1.84.145-.846.27-1.93.348-2.865.078-.935.11-1.72.161-2.198.02-.175.04-.308.064-.412z" fill="url(#paint3_linear)"/><defs><linearGradient id="paint0_linear" x1="2" y1="0" x2="2" y2="32" gradientUnits="userSpaceOnUse"><stop offset="0" stop-color="#6AA6FE"/><stop offset="1" stop-color="#236DFE"/></linearGradient><linearGradient id="paint1_linear" x1="10.279" y1="5.329" x2="10.279" y2="21.54" gradientUnits="userSpaceOnUse"><stop offset="0" stop-color="#6AA6FE"/><stop offset="1" stop-color="#236DFE"/></linearGradient><linearGradient id="paint2_linear" x1="4.197" y1=".845" x2="4.197" y2="32" gradientUnits="userSpaceOnUse"><stop stop-color="#6291F6"/><stop offset="1" stop-color="#072AE6"/></linearGradient><linearGradient id="paint3_linear" x1="11.672" y1="5.784" x2="11.672" y2="20.492" gradientUnits="userSpaceOnUse"><stop stop-color="#6291F6"/><stop offset="1" stop-color="#072AE6"/></linearGradient></defs></svg>