<svg viewBox="0 0 32 32"><g fill="none" fill-rule="evenodd"><path fill="#FFF" d="M31.5 16c0-2.029-.404-4.057-1.18-5.932a15.545 15.545 0 00-3.36-5.028 15.545 15.545 0 00-5.028-3.36A15.553 15.553 0 0016 .5c-2.029 0-4.057.404-5.932 1.18A15.545 15.545 0 005.04 5.04a15.545 15.545 0 00-3.36 5.028A15.553 15.553 0 00.5 16c0 2.029.404 4.057 1.18 5.932a15.545 15.545 0 003.36 5.028 15.545 15.545 0 005.028 3.36A15.553 15.553 0 0016 31.5c2.029 0 4.057-.404 5.932-1.18a15.545 15.545 0 005.028-3.36 15.545 15.545 0 003.36-5.028A15.553 15.553 0 0031.5 16z"/><path fill="#000" d="M30 16c0 7.732-6.268 14-14 14S2 23.732 2 16 8.268 2 16 2s14 6.268 14 14zm2 0c0 8.837-7.163 16-16 16S0 24.837 0 16 7.163 0 16 0s16 7.163 16 16zm-16.003-4.562a2.102 2.102 0 000-4.202c-1.167 0-2.101.95-2.101 2.1 0 1.168.934 2.102 2.1 2.102zm6.833 3.269H9.164a.246.246 0 00-.249.249v2.303c0 .14.11.25.25.25h5.182v7.019c0 .14.11.249.25.249h2.832c.14 0 .249-.11.249-.25v-7.019h5.183c.14 0 .249-.109.249-.249v-2.303c-.031-.14-.14-.25-.28-.25z"/></g></svg>