<svg viewBox="0 0 32 32"><g fill="none" fill-rule="evenodd"><path fill="#FFF" d="M32 16c0-2.094-.417-4.188-1.218-6.123a16.057 16.057 0 00-3.468-5.19 16.052 16.052 0 00-5.191-3.47A16.055 16.055 0 0016 0c-2.094 0-4.188.417-6.123 1.218a16.055 16.055 0 00-5.19 3.468 16.05 16.05 0 00-3.47 5.191A16.049 16.049 0 000 16c0 2.094.416 4.188 1.218 6.123a16.056 16.056 0 003.468 5.19 16.054 16.054 0 005.19 3.469A16.056 16.056 0 0016 32c2.094 0 4.188-.417 6.123-1.218a16.05 16.05 0 005.19-3.468 16.062 16.062 0 003.47-5.191A16.055 16.055 0 0032 16z"/><path fill="#000" d="M11.855 3.384a13.266 13.266 0 0113.213 2.914 13.155 13.155 0 013.417 5.189c.71 1.99.946 4.19.672 6.284a13.194 13.194 0 01-2.243 5.795 13.207 13.207 0 01-4.64 4.134 13.622 13.622 0 01-6.12 1.576 13.207 13.207 0 01-6.059-1.381 13.19 13.19 0 01-4.763-3.991 13.662 13.662 0 01-2.444-5.83 13.13 13.13 0 01.487-6.193 13.391 13.391 0 012.23-4.145H4.12V5.282h5.817v5.432H7.483V9.229a10.961 10.961 0 00-1.827 3.397 10.786 10.786 0 00-.4 5.07 11.107 11.107 0 002.81 5.75 10.952 10.952 0 006.8 3.375 11.023 11.023 0 007.351-1.892 10.999 10.999 0 004.325-6.24c.637-2.5.342-5.237-.807-7.547a10.919 10.919 0 00-5.546-5.183c-2.394-.99-5.181-1.085-7.585-.295l-.75-2.28z"/><path fill="#000" d="M11.193 22.32c-.04 0-.073-.037-.073-.078v-2.058c0-.04-.033-.077-.074-.077h-.734c-.041 0-.078-.032-.078-.073v-.397a.08.08 0 01.078-.077h2.259a.08.08 0 01.077.077v.397c0 .04-.037.073-.077.073h-.73a.08.08 0 00-.078.077v2.058c0 .04-.033.078-.074.078h-.496zm3.71-2.683c0-.04.033-.077.074-.077h.491a.08.08 0 01.078.077v1.404c0 .833-.475 1.315-1.23 1.315-.75 0-1.221-.482-1.221-1.315v-1.404c0-.04.033-.077.074-.077h.492a.08.08 0 01.077.077v1.424c0 .41.213.702.583.702.369 0 .582-.292.582-.702v-1.424zm2.902.824c-.065 0-.086-.025-.11-.073-.087-.2-.275-.325-.562-.325-.258 0-.476.09-.476.26 0 .187.202.264.644.316.672.08 1.058.28 1.058.808 0 .592-.526.905-1.197.905-.582 0-1.082-.28-1.16-.868-.008-.057.02-.077.078-.077h.45c.058 0 .091.024.107.069.071.191.271.345.574.345.267 0 .5-.098.5-.305 0-.247-.245-.292-.737-.353-.566-.07-.96-.235-.96-.751 0-.515.448-.885 1.149-.885.63 0 1.07.337 1.16.84.01.058-.005.094-.066.094h-.452zm2.226-.901c.828 0 1.471.564 1.471 1.388 0 .811-.635 1.372-1.471 1.372h-1.115c-.04 0-.074-.037-.074-.078v-2.605c0-.04.033-.077.074-.077h1.115zm-.004.547h-.463a.076.076 0 00-.074.077v1.514c0 .04.033.073.074.073h.467c.447 0 .795-.349.795-.832s-.349-.832-.8-.832zm-5.053-7.483H12.06a.195.195 0 01-.195-.194v-1.677c0-.106.088-.193.195-.193h7.687c.108 0 .196.087.196.193v1.677a.195.195 0 01-.196.194H17.06v5.224a.195.195 0 01-.196.194H15.17a.195.195 0 01-.195-.194v-5.224z"/></g></svg>