<svg viewBox="0 0 32 32"><g fill="none" fill-rule="evenodd"><path fill="#FFF" d="M32 16c0-2.094-.417-4.188-1.218-6.123a16.057 16.057 0 00-3.468-5.19 16.052 16.052 0 00-5.191-3.47A16.055 16.055 0 0016 0c-2.094 0-4.188.417-6.123 1.218a16.055 16.055 0 00-5.19 3.468 16.05 16.05 0 00-3.47 5.191A16.049 16.049 0 000 16c0 2.094.416 4.188 1.218 6.123a16.056 16.056 0 003.468 5.19 16.054 16.054 0 005.19 3.469A16.056 16.056 0 0016 32c2.094 0 4.188-.417 6.123-1.218a16.05 16.05 0 005.19-3.468 16.062 16.062 0 003.47-5.191A16.055 16.055 0 0032 16z"/><path fill="#0657F9" d="M11.855 3.384a13.266 13.266 0 0113.213 2.914 13.155 13.155 0 013.417 5.189c.71 1.99.946 4.19.672 6.284a13.194 13.194 0 01-2.243 5.795 13.207 13.207 0 01-4.64 4.134 13.622 13.622 0 01-6.12 1.576 13.207 13.207 0 01-6.059-1.381 13.19 13.19 0 01-4.763-3.991 13.662 13.662 0 01-2.444-5.83 13.13 13.13 0 01.487-6.193 13.391 13.391 0 012.23-4.145H4.12V5.282h5.817v5.432H7.483V9.229a10.961 10.961 0 00-1.827 3.397 10.786 10.786 0 00-.4 5.07 11.107 11.107 0 002.81 5.75 10.952 10.952 0 006.8 3.375 11.023 11.023 0 007.351-1.892 10.999 10.999 0 004.325-6.24c.637-2.5.342-5.237-.807-7.547a10.919 10.919 0 00-5.546-5.183c-2.394-.99-5.181-1.085-7.585-.295l-.75-2.28z"/><path fill="#000" d="M13.743 9.044c.4.207.82.576 1.36 1.138.54.561 1.197 1.314 1.768 1.935.57.62 1.055 1.108 1.609 1.569.554.46 1.178.893 1.791 1.427.614.534 1.218 1.17 1.638 1.748.42.578.655 1.099.713 1.731a3.79 3.79 0 01-.41 2.047c-.347.672-.923 1.272-1.65 1.71-.726.44-1.604.718-2.65.816-1.046.098-2.26.017-3.42-.23-1.161-.247-2.27-.66-3.051-1.106-.782-.446-1.238-.926-1.557-1.561-.32-.636-.501-1.427-.57-2.279-.07-.851-.027-1.763.129-2.799s.424-2.197.81-3.209c.385-1.012.887-1.875 1.297-2.39.41-.513.726-.678 1.072-.738.347-.06.722-.016 1.121.191zm.292 4.849h-1.699l-.568.568v6.634h1.698l.569-.568v-2.41h1.777v2.978h1.698l.568-.568v-6.634H16.38l-.568.568v2.464h-1.777v-3.032z"/></g></svg>