<svg xmlns="http://www.w3.org/2000/svg" width="32" height="32"><defs><linearGradient id="a" x1="50%" x2="50%" y1="-29.386%" y2="100%"><stop offset="0%" stop-color="#08021E"/><stop offset="100%" stop-color="#1F0777"/></linearGradient></defs><g fill="none"><circle cx="16" cy="16" r="16" fill="url(#a)"/><path fill="#00D1FF" d="M10.729 12.022a.673.673 0 00-.527-.245H5.928a.124.124 0 01-.092-.036.11.11 0 01-.036-.08v-2.88a.11.11 0 01.036-.078.123.123 0 01.092-.036h4.516c1.14 0 2.123.466 2.949 1.396l1.097 1.34-2.137 2.606-1.624-1.987zm7.892-1.973c.827-.922 1.814-1.382 2.963-1.382h4.502c.038 0 .066.01.086.028.018.02.028.048.028.087v2.88c0 .029-.01.055-.028.079-.02.024-.048.036-.086.036h-4.274a.673.673 0 00-.527.245l-3.148 3.83 3.162 3.86c.143.153.314.23.513.23h4.274c.038 0 .066.012.086.036a.148.148 0 01.028.093v2.88c0 .03-.01.056-.028.08-.02.024-.048.036-.086.036h-4.502c-1.149 0-2.132-.466-2.949-1.397l-2.62-3.197-2.622 3.197c-.826.931-1.814 1.397-2.963 1.397H5.928c-.038 0-.067-.012-.085-.036a.145.145 0 01-.029-.094v-2.88c0-.029.01-.055.029-.08.018-.023.047-.035.085-.035h4.274a.7.7 0 00.527-.245l3.091-3.773 4.801-5.875z"/></g></svg>