<svg fill="none" viewBox="0 0 32 32"><path fill="#F7931A" fill-rule="evenodd" d="M25.958 20.58c0-4.63-3.76-8.39-8.388-8.39-4.63 0-8.39 3.76-8.39 8.39 0 4.63 3.76 8.39 8.39 8.39 4.628 0 8.388-3.76 8.388-8.39z" clip-rule="evenodd"/><path fill="#fff" fill-rule="evenodd" d="M21.268 19.385c.167-1.117-.682-1.716-1.844-2.118l.377-1.512-.92-.23-.369 1.473a35.9 35.9 0 00-.737-.174l.37-1.481-.92-.23-.378 1.512-.096-.022a51.774 51.774 0 01-.492-.116l.002-.005-1.27-.317-.245.983c.035.008.683.157.668.167.373.093.442.34.43.535l-1.033 4.144c-.046.113-.162.283-.422.219.009.012-.526-.13-.647-.162l-.023-.005-.457 1.053 1.199.299.377.097.279.072-.381 1.53.92.23.377-1.514c.25.068.494.13.733.19l-.375 1.506.92.23.381-1.527c1.569.298 2.75.178 3.247-1.243.4-1.143-.02-1.803-.846-2.233.602-.138 1.053-.534 1.175-1.35zm-2.103 2.949c-.261 1.049-1.899.617-2.65.419h-.001c-.069-.018-.13-.035-.182-.047l.505-2.027.229.053c.778.174 2.365.53 2.1 1.602zM17.22 19.79c.626.167 1.992.532 2.23-.421.242-.976-1.086-1.27-1.734-1.414a7.298 7.298 0 01-.19-.043l-.457 1.838c.043.01.094.024.15.04z" clip-rule="evenodd"/><path fill="url(#paint0_linear)" fill-rule="evenodd" d="M9.067 4.193c-.666 1.448-1.766 3.14-3.096 4.885-1.33 1.746-2.89 3.545-3.816 5.452-.926 1.906-1.217 3.918-1.144 5.587.073 1.668.51 2.993 1.405 4.325.895 1.333 2.248 2.673 3.801 3.453 1.554.779 3.307.997 4.216 1.072.909.076.973.008 1.006-.078.034-.087.036-.193-.215-.43-.25-.239-.755-.609-1.367-1.224s-1.333-1.475-1.85-2.776c-.515-1.302-.826-3.045-.725-4.556.101-1.512.614-2.79 1.024-3.801.41-1.01.72-1.75.978-2.566.258-.816.466-1.707.71-3.103.243-1.396.523-3.297.651-4.892.129-1.595.106-2.884.08-3.679-.025-.795-.054-1.097-.081-1.323-.028-.225-.055-.375-.104-.46-.049-.084-.12-.102-.18-.05-.06.054-.11.178-.252.844-.142.665-.374 1.87-1.04 3.32z" clip-rule="evenodd"/><path fill="url(#paint1_linear)" fill-rule="evenodd" d="M13.793 7.261c.37.54.837 1.08 1.283 1.538.447.457.873.831 1.117 1.074.245.243.308.355.277.418-.03.063-.154.078-.436.116a8.61 8.61 0 00-1.3.266c-.577.166-1.289.436-1.864.73a9.171 9.171 0 00-1.287.813c-.273.201-.38.284-.455.31-.075.024-.118-.008-.133-.092-.015-.084-.002-.218.078-.563.08-.344.23-.899.36-1.667.13-.768.244-1.75.315-2.597.071-.847.1-1.559.146-1.992.046-.433.11-.586.2-.68.091-.094.209-.127.312-.093.103.035.192.138.268.282.075.145.14.33.308.693.168.363.44.904.81 1.444z" clip-rule="evenodd"/><path fill="url(#paint2_linear)" fill-rule="evenodd" d="M6.41 27.988c1.504.704 3.152.907 4.023.98.909.075.973.007 1.007-.08.033-.086.035-.192-.216-.43-.25-.237-.755-.608-1.367-1.223-.612-.615-1.333-1.475-1.85-2.776-.515-1.302-.826-3.045-.725-4.556.101-1.512.614-2.79 1.024-3.801.41-1.01.72-1.75.978-2.566.258-.816.466-1.707.71-3.103.243-1.396.523-3.297.651-4.892.129-1.595.106-2.884.08-3.679a18.88 18.88 0 00-.057-1.096c.077 2.412-.51 4.46-1.198 6.268a31.964 31.964 0 01-2.348 4.872c-.874 1.493-1.836 2.909-2.595 4.316-.758 1.407-1.314 2.806-1.48 4.23-.168 1.425.053 2.874.554 4.197s1.282 2.52 2.81 3.34z" clip-rule="evenodd"/><path fill="url(#paint3_linear)" fill-rule="evenodd" d="M11.952 5.241c-.081 1.653.293 4.465 2 5.692-.372.138-.75.3-1.082.47a9.162 9.162 0 00-1.287.813c-.273.2-.38.284-.455.31-.075.024-.118-.008-.133-.092-.015-.084-.002-.218.078-.563s.23-.899.36-1.667c.13-.768.244-1.75.315-2.597.071-.847.1-1.559.146-1.992a3.19 3.19 0 01.058-.374z" clip-rule="evenodd"/><path fill="#fff" fill-rule="evenodd" d="M25.224 29.277c.72-.27 1.47-.465 2.219-.643.6-.141 1.2-.271 1.797-.425.373-.097.745-.202 1.094-.368.278-.133.54-.303.757-.52.215-.217.385-.48.511-.758.159-.349.25-.722.314-1.101a4.78 4.78 0 00.057-1.37 4.259 4.259 0 00-.401-1.31 5.21 5.21 0 00-.75-1.153c-.4-.463-.883-.854-1.395-1.197a13.77 13.77 0 00-2.025-1.1 20.21 20.21 0 00-2.154-.826 11.287 11.287 0 00-1.795-.436 5.647 5.647 0 00-1.382-.047c-.46.047-.917.167-1.329.373a3.89 3.89 0 00-1.094.835c-.315.338-.575.72-.79 1.125-.218.406-.39.833-.522 1.273-.131.44-.221.89-.275 1.346a9.14 9.14 0 00-.028 1.83c.063.76.217 1.511.392 2.257.175.746.373 1.487.674 2.19.24.563.546 1.102.95 1.566.252.289.543.549.87.752.26.163.545.29.844.362a2.459 2.459 0 001.368-.064 2.57 2.57 0 00.793-.46 3.57 3.57 0 00.739-.879 5.64 5.64 0 00.56-1.252z" clip-rule="evenodd"/><path fill="url(#paint4_linear)" fill-rule="evenodd" d="M22.05 31.023l-.38-.122-.374-.218-.378-.322-.312-.372-.284-.442-.25-.501-.234-.625-.28-.87-.26-.965-.085-.354-.128-.76-.05-.398-.055-.74.015-.738.09-.727.153-.678.1-.426.22-.604.266-.492.58-.789.333-.285.363-.258.323-.163.46-.135.826-.058.706.074.832.167.926.272.977.349.976.416.093.031.944.47.832.51.646.524.173.124.606.689.135.219.318.734.091.283.062.307.026.314v.343l-.025.3-.122.614-.083.273-.102.238-.142.24-.158.2-.164.134-.465.254-.543.184-.783.205-.756.185-.91.217-.663.181-.25.06-.86.274-.405.154-.176.065-.05.246-.104.303-.093.257-.101.22-.243.458-.296.38-.321.282-.444.233-.376.073-.368-.014z" clip-rule="evenodd"/><path fill="#FBF100" d="M24.066 22.461l-.104.145.089.732.082-.17-.067-.707z"/><path fill="#A40000" d="M22.71 18.972l-.56.034.277.099.49-.034-.208-.099z"/><path fill="#FFAE00" d="M23.968 21.776l-.137.12.13.71.105-.145-.098-.685z"/><path fill="#A80000" d="M22.916 19.07l-.49.035.277.218.42-.039-.207-.213z"/><path fill="#FF7300" d="M23.841 21.13l-.18.098.17.668.137-.12-.127-.646z"/><path fill="#B60000" d="M23.123 19.284l-.42.039.268.331.354-.047-.202-.323z"/><path fill="#FF3F00" d="M23.689 20.543l-.232.077.204.608.18-.098-.152-.587z"/><path fill="#D60000" d="M23.325 19.607l-.354.047.255.437.29-.06-.191-.424z"/><path fill="#FF1300" d="M23.515 20.03l-.29.06.232.53.232-.077-.174-.513z"/><path fill="#16FFE1" d="M25.192 24.756l-.485.101-.024.547.504-.132.005-.516z"/><path fill="#4DFFAA" d="M25.196 24.196l-.476.068-.013.593.485-.101.004-.56z"/><path fill="#80FF77" d="M25.2 23.607l-.478.032-.002.625.476-.068.004-.589z"/><path fill="#B7FF40" d="M25.202 23.005l-.49-.007.01.64.477-.03.003-.603z"/><path fill="#EBFF0C" d="M25.203 22.406l-.51-.047.02.64.489.006v-.599z"/><path fill="#ED0400" d="M25.173 19.481l-.926-.266.07.087.863.257-.007-.078z"/><path fill="#FC0" d="M25.203 21.826l-.541-.086.03.62.51.046v-.58z"/><path fill="#F10800" d="M25.18 19.56l-.864-.257.069.191.8.24-.005-.175z"/><path fill="#FF9800" d="M25.202 21.282l-.581-.125.04.583.542.086-.001-.544z"/><path fill="#FF1300" d="M25.186 19.735l-.801-.241.067.29.74.219-.006-.268z"/><path fill="#FF6C00" d="M25.2 20.787l-.628-.16.049.53.58.124-.002-.494z"/><path fill="#FF2900" d="M25.191 20.003l-.74-.219.063.381.682.192-.005-.354z"/><path fill="#FF4700" d="M25.196 20.357l-.681-.191.056.462.628.16-.003-.431z"/><path fill="#13FCE4" d="M24.707 24.858l-.357.155-.044.574.378-.183.023-.546z"/><path fill="#49FFAD" d="M24.72 24.264l-.347.124-.023.625.357-.156.013-.593z"/><path fill="#80FF77" d="M24.722 23.639l-.372.09.023.659.347-.124.002-.625z"/><path fill="#BAFF3C" d="M24.713 22.998l-.36.054.02.677.35-.09-.01-.641z"/><path fill="#F1FC06" d="M24.692 22.36l-.383.018.043.675.36-.055-.02-.639z"/><path fill="#D10000" d="M24.247 19.215l-.832-.172.137.095.764.165-.07-.088z"/><path fill="#FFC100" d="M24.662 21.74l-.417-.017.064.655.383-.019-.03-.62z"/><path fill="#D60000" d="M24.316 19.302l-.764-.165.137.205.696.152-.069-.192z"/><path fill="#FF8900" d="M24.621 21.157l-.459-.05.083.616.417.017-.041-.583z"/><path fill="#E40000" d="M24.385 19.494l-.697-.152.134.308.63.134-.067-.29z"/><path fill="#FF5D00" d="M24.571 20.628l-.51-.083.1.561.46.051-.05-.53z"/><path fill="#FF1300" d="M24.452 19.784l-.63-.133.125.404.568.11-.063-.38z"/><path fill="#FF3400" d="M24.515 20.165l-.568-.11.115.49.51.082-.057-.462z"/><path fill="#1CFFDB" d="M25.777 24.708l-.585.048-.005.516.601-.078-.011-.486z"/><path fill="#50FFA7" d="M25.774 24.184l-.578.012-.004.56.585-.048-.003-.524z"/><path fill="#80FF77" d="M25.779 23.634l-.58-.027-.003.589.578-.012.005-.55z"/><path fill="#B4FF43" d="M25.791 23.073l-.59-.068-.002.602.58.027.012-.561z"/><path fill="#E4FF13" d="M25.812 22.516l-.609-.11-.001.6.59.067.02-.557z"/><path fill="gold" d="M25.84 21.978l-.637-.152v.58l.609.11.027-.538z"/><path fill="#FF1E00" d="M26.15 19.831l-.977-.35.007.078.922.338.049-.066z"/><path fill="#FFA700" d="M25.873 21.474l-.671-.193.001.545.636.152.034-.504z"/><path fill="#FF1E00" d="M26.102 19.897l-.922-.338.006.176.866.32.05-.158z"/><path fill="#FF7E00" d="M25.912 21.018l-.713-.23.002.493.672.193.04-.456z"/><path fill="#FF2900" d="M26.052 20.054l-.866-.32.005.269.812.295.05-.244z"/><path fill="#FF5900" d="M25.956 20.622l-.76-.265.003.43.713.23.044-.395z"/><path fill="#FF3B00" d="M26.003 20.298l-.812-.295.005.354.76.265.047-.324z"/><path fill="#0CF" d="M24.372 28.593l.786-.297-.157.083-.798.304.169-.09z"/><path fill="#00DCFE" d="M24.525 28.457l.776-.287-.143.126-.786.297.153-.136z"/><path fill="#09F0EE" d="M24.66 28.278l.768-.275-.127.166-.776.288.135-.179z"/><path fill="#1CFFDB" d="M24.774 28.06l.76-.259-.106.203-.768.274.114-.217z"/><path fill="#33FFC4" d="M24.862 27.81l.755-.242-.083.233-.76.26.088-.252z"/><path fill="#4DFFAA" d="M24.923 27.531l.751-.22-.057.257-.755.241.06-.278z"/><path fill="#63FF94" d="M24.954 27.233l.75-.199-.03.276-.751.221.031-.298z"/><path fill="#7DFF7A" d="M24.956 26.923l.751-.176-.002.287-.75.2v-.311z"/><path fill="#97FF60" d="M24.927 26.608l.754-.153.026.292-.752.176-.028-.314z"/><path fill="#B1FF46" d="M24.868 26.298l.76-.13.053.287-.755.153-.058-.31z"/><path fill="#C7FF30" d="M24.78 26l.768-.108.08.276-.76.13L24.78 26z"/><path fill="#DEFF19" d="M24.668 25.723l.776-.088.104.257-.767.108-.113-.277z"/><path fill="#FC0" d="M23.646 24.841l.853-.021.175.028-.839.024-.189-.03z"/><path fill="#F1FC06" d="M24.532 25.473l.787-.069.126.231-.777.088-.136-.25z"/><path fill="#FC0" d="M23.835 24.872l.84-.024.173.075-.825.03-.188-.081z"/><path fill="#FFEA00" d="M24.376 25.258l.8-.053.143.2-.787.068-.156-.215z"/><path fill="#FFD000" d="M24.023 24.953l.825-.03.169.12-.812.04-.182-.13z"/><path fill="#FFDB00" d="M24.205 25.083l.812-.04.158.162-.8.053-.17-.175z"/><path fill="#BEFF39" d="M24.353 23.052l-.22.115.033.707.208-.145-.021-.677z"/><path fill="#F8F500" d="M24.31 22.378l-.243.083.066.706.22-.115-.044-.674z"/><path fill="#B00" d="M23.415 19.043l-.706-.07.207.098.636.066-.137-.094z"/><path fill="#FFB900" d="M24.245 21.723l-.277.053.098.685.243-.083-.064-.655z"/><path fill="#BF0000" d="M23.551 19.137l-.635-.066.207.213.565.058-.137-.204z"/><path fill="#FF7E00" d="M24.162 21.106l-.32.024.126.646.277-.053-.083-.617z"/><path fill="#CD0000" d="M23.689 19.342l-.566-.058.202.323.497.044-.133-.31z"/><path fill="#FF4E00" d="M24.062 20.545l-.373-.002.152.587.321-.024-.1-.56z"/><path fill="#E80000" d="M23.822 19.65l-.497-.043.19.423.432.025-.125-.404z"/><path fill="#F20" d="M23.947 20.055l-.432-.025.174.513.373.002-.115-.49z"/><path fill="#00D0FF" d="M23.886 28.763l.64-.306-.154.136-.653.317.167-.147z"/><path fill="#00E4F8" d="M24.032 28.568l.628-.29-.135.18-.64.305.147-.195z"/><path fill="#16FFE1" d="M24.154 28.33l.62-.27-.114.218-.628.29.122-.237z"/><path fill="#2CFFCA" d="M24.25 28.057l.612-.248-.088.252-.62.27.096-.274z"/><path fill="#46FFB1" d="M24.315 27.754l.608-.223-.061.278-.612.248.065-.303z"/><path fill="#63FF94" d="M24.348 27.43l.606-.197-.031.298-.608.223.033-.325z"/><path fill="#7DFF7A" d="M24.348 27.09l.608-.167-.002.31-.606.196v-.338z"/><path fill="#9AFF5D" d="M24.316 26.747l.61-.139.03.315-.608.168-.032-.344z"/><path fill="#B7FF40" d="M24.25 26.409l.618-.11.059.31-.611.138-.066-.338z"/><path fill="#D1FF26" d="M24.155 26.083L24.78 26l.087.298-.617.11-.096-.325z"/><path fill="#E7FF0F" d="M24.03 25.78l.638-.057.113.277-.626.083-.124-.303z"/><path fill="#FBF100" d="M23.881 25.507l.65-.034.137.25-.637.057-.15-.273z"/><path fill="#FFDB00" d="M23.711 25.273l.665-.015.156.215-.65.035-.171-.235z"/><path fill="#00B4FF" d="M19.491 27.34l.108.352-.182-.694-.113-.368.187.71z"/><path fill="#16FFE1" d="M19.207 26.232l.1.411.11.355-.12-.72-.17-.6.08.554z"/><path fill="#56FFA0" d="M19.182 25.895l.116.383-.053-.727-.117-.399.054.743z"/><path fill="#97FF60" d="M19.128 25.152l.116.4.016-.717-.117-.415-.015.732z"/><path fill="#D4FF23" d="M19.143 24.42l.117.415.085-.688-.115-.43-.087.703z"/><path fill="gold" d="M19.23 23.717l.115.43.152-.64-.113-.445-.155.655z"/><path fill="#FF9400" d="M19.384 23.062l.114.445.217-.575-.11-.46-.22.59z"/><path fill="#FF5900" d="M19.606 22.473l.109.459.277-.496-.104-.47-.282.507z"/><path fill="#FF2500" d="M19.887 21.966l.104.47.33-.4-.097-.48-.337.41z"/><path fill="#C1FF36" d="M24.576 25.309l.011.406.07.747-.01-.39-.07-.763z"/><path fill="#DF0000" d="M20.224 21.555l.098.48.374-.294-.09-.488-.382.302z"/><path fill="#FFEA00" d="M24.433 24.553l.014.423.14.74-.01-.407-.144-.756z"/><path fill="#B00" d="M20.606 21.253l.09.488.41-.178-.083-.494-.417.184z"/><path fill="#FFA700" d="M24.22 23.826l.019.439.208.711-.014-.423-.212-.727z"/><path fill="#9F0000" d="M21.023 21.07l.083.493.433-.057-.073-.496-.443.06z"/><path fill="#FF6C00" d="M23.945 23.147l.024.453.27.665-.018-.439-.276-.679z"/><path fill="#920000" d="M21.466 21.01l.073.496.446.067-.065-.496-.454-.067z"/><path fill="#FF3400" d="M23.613 22.536l.03.466.326.598-.024-.453-.332-.611z"/><path fill="#960000" d="M21.92 21.077l.065.496.445.19-.055-.493-.455-.193z"/><path fill="#F10800" d="M23.233 22.01l.038.477.372.515-.03-.466-.38-.526z"/><path fill="#A40000" d="M22.375 21.27l.055.492.433.308-.046-.486-.442-.314z"/><path fill="#C40000" d="M22.817 21.584l.046.486.408.417-.038-.477-.416-.426z"/><path fill="#53FFA4" d="M19.083 25.488l.1.407-.055-.743-.1-.417.055.753z"/><path fill="#97FF60" d="M19.027 24.735l.1.417.017-.732-.101-.427-.016.742z"/><path fill="#D7FF1F" d="M19.043 23.994l.1.426.086-.703-.1-.436-.086.713z"/><path fill="#FFD300" d="M19.129 23.281l.1.436.155-.655-.099-.445-.156.664z"/><path fill="#FF9100" d="M19.285 22.617l.1.445.22-.59-.097-.452-.223.597z"/><path fill="#FF5200" d="M19.509 22.02l.097.453.282-.507-.095-.46-.284.514z"/><path fill="#FF1E00" d="M19.793 21.505l.095.46.336-.41-.091-.467-.34.417z"/><path fill="#D60000" d="M20.133 21.088l.09.467.383-.302-.088-.472-.385.307z"/><path fill="#AD0000" d="M20.519 20.781l.087.472.417-.184-.082-.475-.422.187z"/><path fill="#FFA300" d="M24.173 23.38l.048.446.212.727-.045-.436-.215-.736z"/><path fill="#920000" d="M20.94 20.594l.083.475.442-.06-.078-.476-.447.061z"/><path fill="#FF6400" d="M23.894 22.693l.05.454.277.679-.048-.445-.279-.688z"/><path fill="#840000" d="M21.387 20.533l.079.477.454.067-.073-.477-.46-.067z"/><path fill="#FF2D00" d="M23.558 22.075l.055.461.332.611-.05-.454-.337-.618z"/><path fill="#890000" d="M21.847 20.6l.073.477.455.193-.069-.475-.459-.195z"/><path fill="#E40000" d="M23.174 21.542l.06.468.379.526-.055-.461-.384-.533z"/><path fill="#9B0000" d="M22.306 20.795l.069.475.442.314-.064-.472-.447-.317z"/><path fill="#B00" d="M22.753 21.112l.064.472.416.426-.059-.468-.42-.43z"/><path fill="#13FCE4" d="M19.152 25.821l.055.411-.124-.744-.055-.414.125.747z"/><path fill="#19FFDE" d="M19.417 26.998l.105.322-.116-.698-.108-.344.12.72z"/><path fill="#56FFA0" d="M19.298 26.278l.108.344-.051-.705-.11-.366.053.727z"/><path fill="#94FF63" d="M19.244 25.551l.11.366.016-.695-.11-.387-.016.716z"/><path fill="#D1FF26" d="M19.26 24.835l.11.387.083-.666-.108-.408-.085.687z"/><path fill="#FFDB00" d="M19.345 24.148l.108.408.149-.62-.104-.429-.153.64z"/><path fill="#FF9C00" d="M19.497 23.507l.105.43.21-.558-.097-.447-.218.575z"/><path fill="#FF6000" d="M19.715 22.932l.098.447.27-.48-.091-.463-.277.496z"/><path fill="#FF3000" d="M19.992 22.436l.09.464.32-.388-.08-.476-.33.4z"/><path fill="#C1FF36" d="M24.587 25.715l-.043.37.068.724.045-.347-.07-.747z"/><path fill="#F10800" d="M20.321 22.036l.082.476.364-.284-.071-.487-.375.295z"/><path fill="#FBF100" d="M24.447 24.976l-.039.393.136.717.043-.37-.14-.74z"/><path fill="#C80000" d="M20.696 21.741l.07.487.399-.172-.06-.493-.409.178z"/><path fill="#FFAE00" d="M24.24 24.265l-.034.414.202.69.039-.393-.208-.711z"/><path fill="#AD0000" d="M21.106 21.563l.058.493.421-.054-.046-.496-.433.057z"/><path fill="#FF7300" d="M23.969 23.6l-.025.436.262.643.033-.414-.27-.665z"/><path fill="#A40000" d="M21.54 21.506l.046.496.432.066-.033-.495-.446-.067z"/><path fill="#FF3F00" d="M23.643 23.002l-.015.454.316.58.025-.436-.326-.598z"/><path fill="#A40000" d="M21.985 21.573l.033.495.433.185-.02-.49-.446-.19z"/><path fill="#FF1300" d="M23.271 22.487l-.004.47.36.499.016-.454-.372-.515z"/><path fill="#B60000" d="M22.43 21.763l.02.49.42.299-.007-.482-.433-.307z"/><path fill="#D10000" d="M22.863 22.07l.008.481.396.405.004-.469-.408-.417z"/><path fill="#00BCFF" d="M19.6 27.692l.098.302-.177-.674-.104-.322.182.694z"/><path fill="#00C4FF" d="M19.699 27.994l.077.239-.17-.648-.084-.265.177.674z"/><path fill="#1CFFDB" d="M19.522 27.32l.083.265-.11-.672-.09-.29.117.697z"/><path fill="#56FFA0" d="M19.405 26.622l.089.291-.049-.677-.09-.32.05.706z"/><path fill="#94FF63" d="M19.355 25.917l.09.319.015-.667-.09-.347-.015.695z"/><path fill="#CEFF29" d="M19.37 25.223l.09.346.08-.64-.087-.372-.083.666z"/><path fill="#00B0FF" d="M24.403 28.831l-.1.212-.19.545.091-.19.199-.567z"/><path fill="#FFE200" d="M19.453 24.556l.088.373.143-.595-.082-.398-.149.62z"/><path fill="#0CF4EB" d="M24.54 28.2l-.105.236-.131.607.1-.212.136-.631z"/><path fill="#FFA300" d="M19.602 23.936l.082.398.203-.535-.074-.42-.211.557z"/><path fill="#46FFB1" d="M24.61 27.52l-.107.263-.068.653.105-.236.07-.68z"/><path fill="#FF6C00" d="M19.813 23.379l.075.42.259-.46-.065-.44-.269.48z"/><path fill="#80FF77" d="M24.612 26.809l-.108.291-.002.683.108-.263.002-.711z"/><path fill="#FF3B00" d="M20.082 22.9l.065.44.308-.371-.052-.457-.32.388z"/><path fill="#BEFF39" d="M24.545 26.085l-.107.32.066.695.108-.291-.067-.724z"/><path fill="#FF1300" d="M20.403 22.512l.052.457.35-.272-.038-.469-.364.284z"/><path fill="#F8F500" d="M24.408 25.369l-.101.349.131.688.107-.32-.137-.717z"/><path fill="#DA0000" d="M20.767 22.228l.038.47.383-.165-.023-.477-.398.172z"/><path fill="#FFB600" d="M24.206 24.68l-.094.375.195.663.101-.349-.202-.69z"/><path fill="#C40000" d="M21.165 22.056l.023.477.405-.051-.008-.48-.42.054z"/><path fill="#FF7E00" d="M23.944 24.035l-.084.402.252.618.094-.376-.262-.644z"/><path fill="#B60000" d="M21.586 22.002l.007.48.416.064.01-.478-.433-.066z"/><path fill="#FF4A00" d="M23.628 23.456l-.072.425.304.556.084-.402-.316-.58z"/><path fill="#B00" d="M22.018 22.068l-.01.478.416.178.027-.471-.433-.185z"/><path fill="#FF1E00" d="M23.267 22.956l-.058.445.347.48.072-.425-.361-.5z"/><path fill="#C80000" d="M22.45 22.252l-.026.472.404.288.043-.46-.42-.3z"/><path fill="#E40000" d="M22.87 22.552l-.042.46.381.389.058-.445-.396-.404z"/><path fill="#00C4FF" d="M23.475 28.553l.849-.293-.16-.139-.863.283.174.15z"/><path fill="#00D0FF" d="M23.301 28.404l.862-.282-.149-.177-.873.268.16.19z"/><path fill="#00E0FB" d="M23.14 28.213l.875-.268-.134-.21-.884.251.144.227z"/><path fill="#0FF8E7" d="M22.997 27.986l.884-.252-.114-.238-.894.233.124.257z"/><path fill="#00B4FF" d="M22.744 28.866l.73-.313-.172-.15-.747.3.19.163z"/><path fill="#00C0FF" d="M22.555 28.703l.747-.3-.161-.19-.761.282.175.208z"/><path fill="#00A8FF" d="M22.942 28.98l.714-.322-.181-.105-.73.313.197.114z"/><path fill="#23FFD4" d="M22.873 27.729l.894-.233-.092-.262-.903.213.1.282z"/><path fill="#00D4FF" d="M22.38 28.495l.76-.282-.143-.227-.775.262.158.247z"/><path fill="#00A8FF" d="M23.143 29.043l.698-.328-.185-.057-.714.322.201.063z"/><path fill="#06ECF1" d="M22.223 28.247l.774-.26-.124-.258-.786.238.136.28z"/><path fill="#39FFBE" d="M22.772 27.447l.903-.213-.068-.277-.91.19.075.3z"/><path fill="#00A8FF" d="M23.343 29.052l.682-.328-.184-.009-.698.328.2.009z"/><path fill="#1CFFDB" d="M22.087 27.967l.786-.238-.1-.282-.797.213.11.307z"/><path fill="#53FFA4" d="M22.698 27.148l.909-.191-.042-.286-.914.168.047.309z"/><path fill="#36FFC1" d="M21.976 27.66l.796-.213-.074-.3-.805.187.083.326z"/><path fill="#6DFF8A" d="M22.651 26.84l.914-.17-.015-.287-.916.145.017.311z"/><path fill="#50FFA7" d="M21.894 27.334l.804-.186-.047-.309-.81.158.053.337z"/><path fill="#87FF70" d="M22.634 26.528l.916-.145.013-.283-.917.124-.012.304z"/><path fill="#6AFF8D" d="M21.841 26.997l.81-.158-.017-.31-.813.13.02.338z"/><path fill="#A0FF56" d="M22.646 26.224l.917-.124.04-.269-.915.102-.042.29z"/><path fill="#87FF70" d="M21.821 26.658l.813-.13.012-.304-.813.102-.012.332z"/><path fill="#B7FF40" d="M22.688 25.933l.916-.102.067-.25-.912.083-.07.27z"/><path fill="#A4FF53" d="M21.833 26.326l.813-.102.042-.29-.81.075-.045.317z"/><path fill="#D1FF26" d="M22.76 25.664l.91-.082.093-.223-.906.064-.098.241z"/><path fill="#BEFF39" d="M21.878 26.01l.81-.077.071-.269-.806.052-.075.293z"/><path fill="#E4FF13" d="M22.857 25.423l.906-.064.115-.19-.898.049-.123.205z"/><path fill="#D7FF1F" d="M21.953 25.716l.806-.052.098-.24-.798.03-.106.262z"/><path fill="#EEFF09" d="M22.059 25.453l.798-.03.123-.205-.789.01-.132.225z"/><path fill="#FFEA00" d="M22.191 25.229l.789-.011.144-.165-.777-.004-.156.18z"/><path fill="gold" d="M22.347 25.049l.777.004.162-.12-.763-.015-.176.13z"/><path fill="#00F" d="M21.296 30.683l-.04-.03-.337-.292.02.013.357.309z"/><path fill="#0010FF" d="M20.938 30.374l-.02-.013-.314-.372v-.008l.334.393z"/><path fill="#0000F1" d="M21.67 30.901l-.06-.041-.353-.206.039.03.373.217z"/><path fill="#0038FF" d="M20.605 29.98l-.002.01-.284-.442-.015-.035.3.468z"/><path fill="#0000E8" d="M22.05 31.023l-.081-.049-.36-.114.06.041.38.122z"/><path fill="#0064FF" d="M20.304 29.513l.015.034-.246-.501-.03-.063.261.53z"/><path fill="#0000ED" d="M22.427 31.044l-.101-.05-.357-.02.08.049.378.021z"/><path fill="#0098FF" d="M20.044 28.983l.029.063-.203-.55-.04-.095.214.582z"/><path fill="#00F" d="M22.793 30.964l-.121-.045-.346.075.1.05.367-.08z"/><path fill="#00D4FF" d="M19.83 28.402l.04.095-.153-.584-.05-.13.162.619z"/><path fill="#0008FF" d="M23.138 30.785l-.14-.036-.326.17.121.045.345-.18z"/><path fill="#26FFD1" d="M19.667 27.783l.05.13-.1-.604-.056-.165.106.64z"/><path fill="#002CFF" d="M23.454 30.509l-.159-.02-.297.26.14.036.316-.276z"/><path fill="#5AFF9D" d="M19.561 27.144l.056.165-.044-.61-.058-.2.046.645z"/><path fill="#0054FF" d="M23.732 30.143h-.174l-.262.345.158.02.278-.365z"/><path fill="#90FF66" d="M19.515 26.498l.058.201.015-.599-.058-.237-.015.635z"/><path fill="#08F" d="M23.965 29.695l-.188.025-.22.423h.175l.233-.448z"/><path fill="#C7FF30" d="M19.53 25.863l.058.237.072-.574-.054-.271-.077.608z"/><path fill="#00C4FF" d="M24.146 29.176l-.198.054-.17.49.187-.025.181-.519z"/><path fill="#FBF100" d="M19.606 25.255l.054.271.13-.533-.047-.304-.137.566z"/><path fill="#16FFE1" d="M24.27 28.599l-.205.086-.117.545.198-.054.125-.577z"/><path fill="#FFB900" d="M19.743 24.689l.047.304.183-.48-.036-.333-.194.509z"/><path fill="#4DFFAA" d="M24.334 27.977l-.21.121-.06.587.207-.086.063-.622z"/><path fill="#FF8600" d="M19.937 24.18l.036.334.233-.41-.022-.36-.247.436z"/><path fill="#80FF77" d="M24.335 27.327l-.21.158v.613l.21-.121v-.65z"/><path fill="#FF5D00" d="M20.184 23.744l.023.36.277-.332-.005-.38-.294.352z"/><path fill="#B7FF40" d="M24.272 26.666l-.208.196.06.623.211-.158-.063-.66z"/><path fill="#FF3800" d="M20.479 23.392l.005.38.315-.241.013-.396-.333.257z"/><path fill="#EBFF0C" d="M24.147 26.012l-.202.233.119.617.208-.196-.125-.654z"/><path fill="#FF1A00" d="M20.812 23.135l-.013.395.343-.145.034-.405-.364.155z"/><path fill="#FFC800" d="M23.961 25.382l-.192.27.176.593.202-.233-.186-.63z"/><path fill="#F10800" d="M21.177 22.98l-.034.405.363-.044.056-.41-.386.049z"/><path fill="#FF9400" d="M23.72 24.794l-.178.304.227.554.192-.27-.24-.588z"/><path fill="#E80000" d="M21.562 22.932l-.056.409.373.059.079-.406-.396-.062z"/><path fill="#FF6800" d="M23.43 24.264l-.161.334.273.5.178-.304-.29-.53z"/><path fill="#ED0400" d="M21.958 22.994l-.079.406.373.16.102-.396-.396-.17z"/><path fill="#FF4300" d="M23.1 23.808l-.143.36.312.43.162-.334-.33-.456z"/><path fill="#FA0F00" d="M22.354 23.164l-.102.396.363.259.123-.381-.384-.274z"/><path fill="#F20" d="M22.738 23.438l-.123.381.342.35.143-.361-.362-.37z"/><path fill="#0CF" d="M19.776 28.233l.053.168-.162-.617-.062-.2.17.65z"/><path fill="#1FFFD7" d="M19.605 27.585l.062.199-.106-.64-.067-.23.111.67z"/><path fill="#0018FF" d="M23.576 30.442l-.122.067-.316.276.106-.054.332-.29z"/><path fill="#5AFF9D" d="M19.494 26.914l.067.23-.046-.645-.07-.263.049.678z"/><path fill="#04F" d="M23.868 30.058l-.136.085-.278.366.122-.067.292-.384z"/><path fill="#94FF63" d="M19.445 26.236l.07.262.015-.635-.07-.294-.015.667z"/><path fill="#007CFF" d="M24.113 29.588l-.148.107-.233.448.136-.085.245-.47z"/><path fill="#CAFF2C" d="M19.46 25.568l.07.295.076-.609-.065-.325-.08.64z"/><path fill="#00B8FF" d="M24.304 29.043l-.158.133-.181.52.148-.108.19-.545z"/><path fill="#FFEA00" d="M19.54 24.929l.066.326.137-.566-.06-.355-.142.595z"/><path fill="#0FF8E7" d="M24.435 28.436l-.164.163-.125.577.158-.133.13-.607z"/><path fill="#FFAE00" d="M19.684 24.334l.059.355.194-.509-.05-.38-.203.534z"/><path fill="#49FFAD" d="M24.503 27.783l-.168.194-.064.622.164-.163.068-.653z"/><path fill="#FF7A00" d="M19.887 23.799l.05.381.247-.436-.037-.404-.26.459z"/><path fill="#80FF77" d="M24.504 27.1l-.169.227v.65l.168-.194.001-.683z"/><path fill="#FF4A00" d="M20.147 23.34l.038.404.294-.352-.023-.423-.31.37z"/><path fill="#BAFF3C" d="M24.438 26.406l-.166.26.064.661.168-.227-.066-.694z"/><path fill="#FF2500" d="M20.455 22.969l.023.423.334-.257-.007-.438-.35.272z"/><path fill="#F1FC06" d="M24.307 25.718l-.16.294.125.654.166-.26-.131-.688z"/><path fill="#F10800" d="M20.805 22.697l.007.438.364-.155.012-.447-.383.164z"/><path fill="#FFC100" d="M24.113 25.055l-.152.327.186.63.16-.294-.194-.663z"/><path fill="#DA0000" d="M21.188 22.533l-.011.447.385-.048.031-.45-.405.051z"/><path fill="#FF8900" d="M23.86 24.437l-.14.357.241.588.152-.327-.253-.618z"/><path fill="#CD0000" d="M21.593 22.482l-.031.45.396.062.05-.448-.415-.064z"/><path fill="#FF5900" d="M23.556 23.88l-.125.384.29.53.139-.357-.304-.556z"/><path fill="#D10000" d="M22.009 22.546l-.051.448.396.17.07-.44-.415-.178z"/><path fill="#FF3000" d="M23.209 23.4l-.109.408.33.456.126-.383-.347-.48z"/><path fill="#DF0000" d="M22.424 22.724l-.07.44.384.274.09-.426-.404-.288z"/><path fill="#FA0F00" d="M22.828 23.012l-.09.425.362.37.109-.406-.38-.39z"/><path fill="#9F0000" d="M21.883 19.03l-.468.144.33-.03.406-.137-.268.022z"/><path fill="#960000" d="M22.15 19.006l-.405.138.34.094.341-.133-.275-.099z"/><path fill="#FFAB00" d="M23.83 21.896l-.013.182.16.727-.015-.2-.131-.71z"/><path fill="#960000" d="M22.426 19.105l-.34.133.34.218.277-.133-.277-.218z"/><path fill="#FF6C00" d="M23.661 21.228l-.053.166.209.684.014-.182-.17-.668z"/><path fill="#A80000" d="M22.703 19.323l-.277.133.332.335.214-.137-.27-.331z"/><path fill="#FF3400" d="M23.457 20.62l-.1.154.25.62.054-.166-.204-.607z"/><path fill="#C80000" d="M22.971 19.654l-.213.137.313.443.154-.143-.254-.437z"/><path fill="#F10800" d="M23.226 20.091l-.155.143.286.54.1-.153-.232-.53z"/><path fill="#53FFA4" d="M19.028 25.074l.055.414-.056-.753-.055-.416.056.755z"/><path fill="#97FF60" d="M18.972 24.319l.055.416.015-.741-.055-.42-.015.745z"/><path fill="#D7FF1F" d="M18.987 23.574l.056.42.086-.713-.055-.423-.087.716z"/><path fill="#FFD000" d="M19.074 22.858l.055.423.156-.664-.055-.426-.156.667z"/><path fill="#FF8D00" d="M19.23 22.191l.055.426.223-.597-.055-.43-.223.601z"/><path fill="#FF4E00" d="M19.453 21.59l.055.43.285-.515-.055-.432-.285.517z"/><path fill="#FF1A00" d="M19.738 21.073l.055.432.34-.417-.055-.434-.34.42z"/><path fill="#D10000" d="M20.079 20.654l.054.434.386-.307-.054-.436-.386.309z"/><path fill="#FFE600" d="M24.342 23.687l.09.877.144.76-.088-.869-.146-.768z"/><path fill="#A80000" d="M20.465 20.345l.053.436.422-.187-.052-.438-.423.189z"/><path fill="#FF9F00" d="M24.127 22.947l.046.434.215.736-.046-.43-.215-.74z"/><path fill="#8D0000" d="M20.888 20.156l.052.438.447-.061-.052-.44-.447.063z"/><path fill="#FF6000" d="M23.847 22.258l.047.435.28.688-.047-.434-.28-.69z"/><path fill="maroon" d="M21.335 20.093l.052.44.46.067-.051-.44-.46-.067z"/><path fill="#FF2900" d="M23.51 21.637l.048.438.336.618-.047-.435-.337-.62z"/><path fill="maroon" d="M21.796 20.16l.051.44.46.195-.05-.44-.461-.195z"/><path fill="#DF0000" d="M23.126 21.104l.048.439.384.532-.048-.438-.384-.534z"/><path fill="#920000" d="M22.256 20.354l.05.44.447.318-.05-.44-.447-.318z"/><path fill="#B20000" d="M22.704 20.672l.05.44.42.43-.048-.439-.422-.431z"/><path fill="#FFE600" d="M24.244 23.33l.098.357.145.768-.102-.356-.14-.768z"/><path fill="#B20000" d="M21.103 19.327l-.366.26.363-.166.314-.247-.311.153z"/><path fill="#960000" d="M21.415 19.174l-.315.247.386-.041.259-.236-.33.03z"/><path fill="#890000" d="M21.745 19.144l-.26.236.398.086.202-.227-.34-.095z"/><path fill="#890000" d="M22.085 19.238l-.202.227.397.212.146-.221-.34-.218z"/><path fill="#FF2D00" d="M23.357 20.774l.007.221.292.626-.048-.227-.25-.62z"/><path fill="#9B0000" d="M22.426 19.456l-.146.221.386.332.092-.218-.332-.335z"/><path fill="#E80000" d="M23.07 20.234l-.04.219.334.542-.007-.221-.286-.54z"/><path fill="#B00" d="M22.758 19.79l-.092.22.365.443.04-.219-.314-.443z"/><path fill="#FF6400" d="M23.608 21.394l.047.227.243.692-.081-.235-.21-.684z"/><path fill="#D10000" d="M20.405 19.872l-.256.368.371-.301.217-.352-.332.285z"/><path fill="#A80000" d="M20.737 19.587l-.217.352.405-.181.175-.337-.363.166z"/><path fill="#8D0000" d="M21.1 19.42l-.175.338.43-.055.13-.323-.385.04z"/><path fill="maroon" d="M21.486 19.38l-.131.323.442.073.085-.31-.396-.087z"/><path fill="#840000" d="M21.883 19.465l-.086.311.442.201.04-.3-.396-.212z"/><path fill="#FF2900" d="M23.364 20.995l.08.28.324.624-.112-.278-.292-.626z"/><path fill="#920000" d="M22.28 19.677l-.04.3.429.324-.003-.291-.386-.333z"/><path fill="#DF0000" d="M23.031 20.453l.044.284.37.538-.081-.28-.333-.542z"/><path fill="#B20000" d="M22.666 20.01l.003.29.405.437-.043-.284-.365-.444z"/><path fill="#FF1A00" d="M20.113 20.268l-.29.383.327-.411.255-.368-.292.396z"/><path fill="#FF8D00" d="M19.337 21.755l-.107.436.223-.6.098-.43-.214.594z"/><path fill="#FF4E00" d="M19.55 21.162l-.097.428.285-.517.086-.422-.274.51z"/><path fill="#FF1600" d="M19.824 20.651l-.086.422.34-.42.072-.413-.326.412z"/><path fill="#D10000" d="M20.15 20.24l-.072.413.387-.309.055-.405-.37.3z"/><path fill="#A40000" d="M20.52 19.939l-.055.405.423-.189.037-.398-.405.182z"/><path fill="#890000" d="M20.926 19.758l-.038.398.447-.063.02-.39-.43.055z"/><path fill="#FF6000" d="M23.768 21.899l.08.359.279.69-.09-.358-.269-.691z"/><path fill="maroon" d="M21.355 19.703l-.02.39.46.067.002-.384-.442-.073z"/><path fill="#FF2900" d="M23.444 21.275l.067.362.336.62-.079-.358-.324-.624z"/><path fill="maroon" d="M21.797 19.776l-.001.384.46.194-.017-.377-.442-.2z"/><path fill="#DF0000" d="M23.074 20.737l.052.366.384.534-.066-.362-.37-.538z"/><path fill="#920000" d="M22.24 19.977l.016.377.448.318-.035-.371-.43-.324z"/><path fill="#B20000" d="M22.669 20.3l.035.372.422.431-.052-.366-.405-.436z"/><path fill="#23FFD4" d="M26.423 24.714l-.646-.006.01.486.66-.026-.024-.454z"/><path fill="#53FFA4" d="M26.414 24.225l-.64-.041.003.524.646.006-.01-.489z"/><path fill="#80FF77" d="M26.42 23.715l-.641-.081-.005.55.64.041.006-.51z"/><path fill="#ADFF49" d="M26.441 23.196l-.65-.123-.012.56.64.082.022-.52z"/><path fill="#DBFF1C" d="M26.478 22.682l-.666-.166-.02.557.65.123.036-.514z"/><path fill="#FFE200" d="M26.528 22.188l-.689-.21-.027.538.666.166.05-.494z"/><path fill="#FF3800" d="M27.126 20.25l-.976-.419-.048.066.929.406.095-.053z"/><path fill="#FFB600" d="M26.592 21.726l-.72-.252-.033.504.69.21.063-.462z"/><path fill="#FF3800" d="M27.03 20.303l-.928-.406-.05.157.882.386.097-.137z"/><path fill="#FF9100" d="M26.666 21.31l-.754-.293-.04.457.72.252.074-.416z"/><path fill="#FF4300" d="M26.934 20.44l-.882-.386-.049.244.837.36.094-.218z"/><path fill="#FF6F00" d="M26.75 20.95l-.794-.328-.044.395.754.292.083-.359z"/><path fill="#F50" d="M26.84 20.658l-.837-.36-.047.324.794.328.09-.292z"/><path fill="#2CFFCA" d="M27.08 24.768l-.657-.054.024.454.667.022-.035-.422z"/><path fill="#56FFA0" d="M27.065 24.315l-.652-.09.01.489.656.054-.014-.453z"/><path fill="#80FF77" d="M27.073 23.844l-.654-.13-.006.511.652.09.008-.47z"/><path fill="#AAFF4D" d="M27.102 23.368l-.66-.172-.022.519.653.13.029-.477z"/><path fill="#D4FF23" d="M27.15 22.897l-.672-.215-.037.514.66.172.05-.47z"/><path fill="#FBF100" d="M27.22 22.447l-.692-.26-.05.495.673.215.069-.45z"/><path fill="#F50" d="M28.173 20.76l-.954-.478-.093-.032.918.47.129.04z"/><path fill="#FFC400" d="M27.306 22.027l-.715-.301-.063.462.692.259.086-.42z"/><path fill="#FF4E00" d="M28.045 20.72l-.919-.47-.095.053.881.456.133-.039z"/><path fill="#FFA300" d="M27.408 21.651l-.742-.341-.075.416.715.301.102-.376z"/><path fill="#FF5200" d="M27.912 20.76l-.881-.457-.097.137.844.436.134-.116z"/><path fill="#FF8200" d="M27.523 21.328l-.773-.378-.084.36.742.341.115-.323z"/><path fill="#FF5900" d="M27.778 20.876l-.843-.436-.095.218.808.41.13-.192z"/><path fill="#FF6C00" d="M27.647 21.068l-.807-.41-.09.292.773.378.124-.26z"/><path fill="#33FFC4" d="M27.692 24.864l-.613-.097.035.423.62.065-.042-.391z"/><path fill="#5AFF9D" d="M27.675 24.447l-.61-.132.014.453.613.096-.017-.417z"/><path fill="#80FF77" d="M27.683 24.015l-.61-.17-.008.47.61.132.008-.432z"/><path fill="#A7FF50" d="M27.717 23.579l-.615-.212-.03.477.61.17.035-.435z"/><path fill="#CEFF29" d="M27.775 23.151l-.624-.253-.05.47.616.211.058-.428z"/><path fill="#F1FC06" d="M27.857 22.743l-.637-.296-.07.45.625.254.082-.408z"/><path fill="gold" d="M27.96 22.365l-.654-.338-.086.42.637.296.104-.378z"/><path fill="#FF6F00" d="M29.003 21.27l-.83-.51-.128-.04.803.504.155.046z"/><path fill="#FFB600" d="M28.083 22.028l-.675-.377-.102.376.655.338.122-.337z"/><path fill="#FF6800" d="M28.848 21.224l-.804-.504-.132.04.776.49.16-.026z"/><path fill="#FF9800" d="M28.22 21.74l-.697-.412-.115.323.675.377.138-.287z"/><path fill="#FF6C00" d="M28.688 21.25l-.776-.49-.133.116.748.47.161-.096z"/><path fill="#FF8200" d="M28.37 21.512l-.722-.444-.125.26.698.413.15-.23z"/><path fill="#FF7300" d="M28.527 21.346l-.749-.47-.13.192.722.444.157-.166z"/><path fill="#39FFBE" d="M28.206 24.994l-.514-.13.043.391.518.101-.047-.362z"/><path fill="#5AFF9D" d="M28.186 24.61l-.511-.164.017.417.513.131-.02-.383z"/><path fill="#80FF77" d="M28.194 24.216l-.511-.202-.008.432.51.165.009-.395z"/><path fill="#A4FF53" d="M28.231 23.82l-.514-.241-.034.436.511.2.037-.395z"/><path fill="#C7FF30" d="M28.296 23.432l-.52-.28-.06.427.515.24.064-.387z"/><path fill="#E7FF0F" d="M28.386 23.064l-.529-.321-.082.408.52.281.091-.368z"/><path fill="#FFE600" d="M28.5 22.726l-.54-.36-.103.377.53.322.114-.339z"/><path fill="#FFC400" d="M28.636 22.426l-.553-.398-.122.337.54.361.135-.3z"/><path fill="#FF8600" d="M29.657 21.794l-.654-.524-.155-.046.637.518.172.052z"/><path fill="#FFAB00" d="M28.788 22.173l-.567-.432-.138.287.553.398.152-.253z"/><path fill="#FF8200" d="M29.484 21.742l-.636-.518-.16.026.619.505.177-.013z"/><path fill="#FF9800" d="M28.954 21.973l-.584-.461-.15.229.568.432.166-.2z"/><path fill="#FF8200" d="M29.307 21.755l-.619-.505-.16.096.6.486.179-.078z"/><path fill="#FF8900" d="M29.128 21.832l-.6-.486-.158.166.584.461.174-.14z"/><path fill="#3CFFBA" d="M28.569 25.15l-.363-.156.047.362.366.13-.05-.335z"/><path fill="#5DFF9A" d="M28.548 24.799l-.362-.188.02.383.363.157-.021-.352z"/><path fill="#80FF77" d="M28.556 24.438l-.362-.222-.008.395.361.188.009-.36z"/><path fill="#A0FF56" d="M28.594 24.078l-.363-.259-.037.397.362.222.038-.36z"/><path fill="#C1FF36" d="M28.662 23.728l-.366-.296-.065.387.363.259.068-.35z"/><path fill="#DEFF19" d="M28.756 23.398l-.37-.333-.09.367.366.296.095-.33z"/><path fill="#FBF100" d="M28.876 23.095l-.376-.369-.114.338.37.334.12-.303z"/><path fill="gold" d="M29.018 22.83l-.382-.404-.136.3.376.37.142-.267z"/><path fill="#FFA700" d="M30.264 22.429l-.445-.52-.162-.115.436.52.171.115z"/><path fill="#FFC100" d="M29.178 22.607l-.39-.434-.152.253.382.404.16-.223z"/><path fill="#FF9C00" d="M30.093 22.313l-.436-.519-.172-.052.426.513.182.058z"/><path fill="#FFAE00" d="M29.352 22.435l-.398-.462-.166.2.39.434.174-.172z"/><path fill="#FF9800" d="M29.911 22.255l-.426-.513-.178.013.417.502.187-.002z"/><path fill="#FF9F00" d="M29.536 22.317l-.408-.485-.174.141.399.462.183-.118z"/><path fill="#FF9800" d="M29.724 22.256l-.417-.501-.179.077.408.485.188-.06z"/><path fill="#43FFB4" d="M28.742 25.325l-.173-.174.05.334.175.15-.052-.31z"/><path fill="#60FF97" d="M28.72 25.001l-.173-.202.022.352.173.174-.022-.324z"/><path fill="#7DFF7A" d="M28.728 24.671l-.172-.233-.009.36.173.203.008-.33z"/><path fill="#9DFF5A" d="M28.766 24.343l-.172-.265-.038.36.172.233.038-.328z"/><path fill="#BAFF3C" d="M28.834 24.027l-.172-.299-.068.35.172.265.068-.316z"/><path fill="#D4FF23" d="M28.93 23.73l-.174-.332-.094.33.172.299.096-.298z"/><path fill="#EEFF09" d="M29.05 23.46l-.174-.365-.12.303.174.332.12-.27z"/><path fill="#FFDE00" d="M30.756 23.3l-.199-.482-.137-.22.196.492.14.21z"/><path fill="#FFE600" d="M29.194 23.224l-.176-.395-.142.266.175.364.143-.235z"/><path fill="#FC0" d="M30.616 23.09l-.195-.491-.157-.17.193.497.16.164z"/><path fill="#FFD000" d="M29.356 23.03l-.178-.423-.16.223.176.394.162-.195z"/><path fill="#FFB900" d="M30.457 22.926l-.193-.497-.171-.116.19.498.174.115z"/><path fill="#FFC100" d="M29.532 22.881l-.18-.446-.174.172.178.422.176-.148z"/><path fill="#FFB200" d="M30.283 22.81l-.19-.497-.182-.058.187.492.185.064zm-.566-.027l-.181-.466-.184.118.18.446.186-.098z"/><path fill="#FFAB00" d="M30.098 22.747l-.187-.492-.187.001.184.482.19.01z"/><path fill="#FFAE00" d="M29.908 22.738l-.184-.482-.188.06.182.467.19-.045z"/><path fill="#CEFF29" d="M28.881 24.048l.049-.319-.096.298-.046.29.093-.269z"/><path fill="#50FFA7" d="M30.911 25.726l.069-.296.057-.32-.07.323-.056.293z"/><path fill="#6AFF8D" d="M30.966 25.433l.07-.323.028-.328-.072.349-.026.302z"/><path fill="#87FF70" d="M30.992 25.13l.072-.349-.003-.329-.072.375.003.304z"/><path fill="#A0FF56" d="M30.988 24.827l.073-.375-.034-.32-.073.397.034.298z"/><path fill="#BEFF39" d="M30.955 24.529l.072-.398-.063-.304-.073.417.064.285z"/><path fill="#D4FF23" d="M30.891 24.244l.073-.417-.09-.28-.074.434.091.263z"/><path fill="#E4FF13" d="M29 23.806l.05-.347-.12.27-.049.32.12-.243z"/><path fill="#EBFF0C" d="M30.8 23.981l.073-.434-.117-.248-.072.448.116.234z"/><path fill="#F8F500" d="M29.14 23.596l.054-.372-.144.235-.05.347.14-.21z"/><path fill="#FEED00" d="M30.684 23.747l.072-.448-.14-.208-.071.456.139.2z"/><path fill="#FFDE00" d="M29.3 23.426l.056-.397-.162.195-.053.372.159-.17z"/><path fill="#FFDB00" d="M30.545 23.547l.071-.456-.159-.165-.07.461.158.16z"/><path fill="#FFD000" d="M29.474 23.298l.058-.417-.176.148-.056.397.174-.128z"/><path fill="#FC0" d="M30.387 23.387l.07-.46-.174-.116-.068.46.172.116z"/><path fill="#FFC400" d="M29.657 23.218l.06-.435-.185.098-.058.417.183-.08zm.558.054l.068-.461-.185-.064-.066.457.183.068z"/><path fill="#FFC100" d="M29.845 23.186l.063-.448-.19.045-.061.435.188-.032z"/><path fill="#FFBD00" d="M30.032 23.204l.066-.456-.19-.01-.063.448.187.018z"/><path fill="#00D4FF" d="M29.963 26.982l.311-.18.166-.145-.317.198-.16.127z"/><path fill="#00E4F8" d="M30.123 26.855l.317-.198.15-.184-.322.217-.145.165z"/><path fill="#0FF8E7" d="M30.268 26.69l.322-.217.13-.221-.326.239-.126.2z"/><path fill="#26FFD1" d="M30.394 26.49l.326-.238.108-.251-.33.26-.104.23z"/><path fill="#3CFFBA" d="M30.498 26.262l.33-.261.083-.275-.333.283-.08.253z"/><path fill="#53FFA4" d="M30.578 26.009l.333-.283.055-.293-.335.305-.053.27z"/><path fill="#6DFF8A" d="M30.63 25.739l.336-.306.026-.302-.337.327-.024.28z"/><path fill="#87FF70" d="M30.655 25.458l.337-.327-.004-.304-.338.347.005.284z"/><path fill="#A0FF56" d="M30.65 25.174l.338-.347-.034-.298-.338.365.034.28z"/><path fill="#B7FF40" d="M30.616 24.894l.338-.365-.063-.285-.337.382.062.268z"/><path fill="#CEFF29" d="M30.554 24.625l.337-.38-.09-.264-.336.395.089.25z"/><path fill="#E4FF13" d="M30.465 24.376l.335-.395-.116-.234-.333.404.114.225z"/><path fill="#FEED00" d="M29.01 23.785l.29-.36-.16.171-.284.34.153-.151z"/><path fill="#F4F802" d="M30.351 24.152l.333-.405-.14-.2-.328.412.135.193z"/><path fill="#FFDE00" d="M29.177 23.675l.297-.377-.174.128-.29.359.167-.11z"/><path fill="#FFE600" d="M30.216 23.959l.329-.412-.158-.16-.324.415.153.157z"/><path fill="#FFD300" d="M29.354 23.609l.303-.391-.183.08-.297.377.177-.066z"/><path fill="#FFDB00" d="M30.063 23.802l.324-.415-.172-.115-.32.414.168.116z"/><path fill="#FFD000" d="M29.536 23.588l.308-.402-.187.032-.303.39.182-.02zm.36.098l.319-.414-.183-.068-.314.41.177.072z"/><path fill="#FC0" d="M29.718 23.614l.314-.41-.187-.018-.309.402.182.026z"/><path fill="#00D0FF" d="M29.26 27.244l.532-.178.17-.085-.54.19-.163.073z"/><path fill="#00DCFE" d="M29.422 27.172l.54-.19.16-.127-.547.204-.152.113z"/><path fill="#06ECF1" d="M29.575 27.06l.548-.205.145-.165-.554.22-.139.15z"/><path fill="#19FFDE" d="M29.714 26.91l.554-.22.126-.2-.56.237-.12.183z"/><path fill="#29FFCE" d="M29.834 26.727l.56-.236.104-.23-.564.254-.1.212z"/><path fill="#40FFB7" d="M29.934 26.515l.564-.253.08-.253-.568.27-.076.236z"/><path fill="#56FFA0" d="M30.01 26.279l.568-.27.053-.27-.572.286-.05.254z"/><path fill="#6DFF8A" d="M30.06 26.025l.57-.287.025-.28-.573.302-.023.265z"/><path fill="#87FF70" d="M30.082 25.76l.573-.302-.005-.284-.574.316.006.27z"/><path fill="#9DFF5A" d="M30.076 25.49l.574-.316-.034-.28-.573.33.033.266z"/><path fill="#B4FF43" d="M30.043 25.223l.573-.33-.062-.268-.572.341.06.257z"/><path fill="#CAFF2C" d="M29.982 24.966l.572-.34-.089-.25-.57.35.087.24z"/><path fill="#DEFF19" d="M29.896 24.726l.569-.35-.114-.224-.565.356.11.218z"/><path fill="#EEFF09" d="M29.786 24.508l.565-.357-.135-.192-.56.36.13.189z"/><path fill="#FFDE00" d="M28.83 23.948l.524-.34-.177.067-.517.327.17-.054z"/><path fill="#FBF100" d="M29.656 24.319l.56-.36-.154-.157-.554.362.148.155z"/><path fill="#FFDB00" d="M29.004 23.937l.532-.349-.182.02-.524.34.174-.011z"/><path fill="#FFE600" d="M29.508 24.163l.555-.361-.168-.116-.547.36.16.117z"/><path fill="gold" d="M29.178 23.97l.54-.356-.182-.026-.533.349.175.033z"/><path fill="#FFDB00" d="M29.348 24.046l.547-.36-.177-.072-.54.356.17.076z"/><path fill="#00D8FF" d="M28.537 27.437l.722-.193.164-.072-.73.203-.156.062z"/><path fill="#00E4F8" d="M28.693 27.375l.73-.203.153-.112-.738.213-.145.102z"/><path fill="#0CF4EB" d="M28.838 27.273l.738-.213.138-.15-.745.225-.131.138z"/><path fill="#1CFFDB" d="M28.97 27.135l.744-.225.12-.183-.75.236-.114.172z"/><path fill="#2CFFCA" d="M29.084 26.963l.75-.236.1-.212-.757.247-.093.201z"/><path fill="#43FFB4" d="M29.177 26.762l.757-.247.076-.236-.761.258-.072.225z"/><path fill="#56FFA0" d="M29.248 26.537l.761-.258.05-.254-.764.269-.047.243z"/><path fill="#6DFF8A" d="M29.295 26.294l.764-.27.023-.264-.767.278-.02.256z"/><path fill="#83FF73" d="M29.316 26.038l.766-.278-.006-.27-.767.287.006.261z"/><path fill="#9AFF5D" d="M29.31 25.777l.766-.287-.033-.267-.766.294.032.26z"/><path fill="#B1FF46" d="M29.276 25.518l.767-.295-.061-.257-.764.3.058.252z"/><path fill="#C4FF33" d="M29.218 25.266l.764-.3-.086-.24-.761.304.083.236z"/><path fill="#D7FF1F" d="M29.135 25.03l.76-.305-.109-.217-.756.306.105.215z"/><path fill="#FFE600" d="M28.117 24.231l.712-.283-.17.055-.702.274.16-.046z"/><path fill="#E7FF0F" d="M29.03 24.814l.756-.306-.13-.19-.75.308.124.188z"/><path fill="#FFE200" d="M28.283 24.228l.72-.291-.174.01-.711.284.165-.003z"/><path fill="#F4F802" d="M28.905 24.626l.75-.307-.147-.155-.744.305.141.157z"/><path fill="#FFE200" d="M28.449 24.268l.729-.298-.175-.033-.72.291.166.04z"/><path fill="#FEED00" d="M28.764 24.47l.744-.306-.16-.118-.737.303.153.12z"/><path fill="#FFE200" d="M28.61 24.349l.738-.303-.17-.076-.729.298.162.08z"/><path fill="#00DCFE" d="M27.677 27.65l.86-.213.156-.062-.87.22-.146.054z"/><path fill="#02E8F4" d="M27.824 27.594l.869-.22.145-.1-.877.226-.137.094z"/><path fill="#0FF8E7" d="M27.96 27.5l.878-.227.131-.138-.884.233-.124.132z"/><path fill="#1FFFD7" d="M28.085 27.368l.884-.233.114-.172-.89.24-.108.165z"/><path fill="#30FFC7" d="M28.192 27.203l.892-.24.093-.201-.896.246-.088.195z"/><path fill="#43FFB4" d="M28.28 27.008l.897-.246.071-.225-.9.25-.067.22z"/><path fill="#5AFF9D" d="M28.347 26.788l.902-.251.046-.243-.904.255-.044.239z"/><path fill="#6DFF8A" d="M28.39 26.549l.905-.255.02-.256-.906.258-.018.253z"/><path fill="#83FF73" d="M28.409 26.296l.906-.258-.006-.26-.907.26.007.258z"/><path fill="#9AFF5D" d="M28.402 26.037l.907-.26-.033-.26-.906.262.032.258z"/><path fill="#B1FF46" d="M28.37 25.779l.906-.262-.058-.25-.904.26.056.252z"/><path fill="#C4FF33" d="M28.314 25.527l.904-.26-.083-.237-.9.26.079.237z"/><path fill="#D7FF1F" d="M28.234 25.29l.9-.26-.104-.216-.896.258.1.218z"/><path fill="#FFE600" d="M27.425 24.46l.858-.232-.165.003-.85.226.157.003z"/><path fill="#E4FF13" d="M28.134 25.072l.896-.258-.125-.188-.89.254.119.192z"/><path fill="#FFE600" d="M27.582 24.506l.867-.238-.166-.04-.859.232.158.046z"/><path fill="#F1FC06" d="M28.015 24.88l.89-.254-.141-.157-.883.25.134.16z"/><path fill="#FFE600" d="M27.735 24.593l.876-.244-.162-.081-.868.239.154.086z"/><path fill="#FEED00" d="M27.88 24.719l.884-.25-.153-.12-.876.244.146.126z"/><path fill="#00E4F8" d="M26.972 27.775l.921-.223-.142.075-.923.224.144-.076z"/><path fill="#0CF4EB" d="M27.104 27.66l.92-.221-.13.113-.922.223.132-.115z"/><path fill="#19FFDE" d="M27.22 27.51l.92-.22-.115.149-.921.221.117-.15z"/><path fill="#29FFCE" d="M27.32 27.326l.92-.217-.099.18-.92.22.098-.183z"/><path fill="#3CFFBA" d="M27.397 27.115l.92-.214-.078.208-.92.217.078-.211z"/><path fill="#53FFA4" d="M27.451 26.881l.921-.21-.055.23-.92.214.054-.234z"/><path fill="#66FF90" d="M27.482 26.63l.92-.206-.03.246-.92.21.03-.25z"/><path fill="#7DFF7A" d="M27.486 26.37l.923-.203-.006.257-.922.207.005-.26z"/><path fill="#94FF63" d="M27.465 26.107l.924-.2.02.26-.923.203-.02-.263z"/><path fill="#AAFF4D" d="M27.419 25.847l.926-.195.044.256-.924.199-.046-.26z"/><path fill="#BEFF39" d="M27.349 25.598l.928-.192.068.246-.926.195-.07-.25z"/><path fill="#D1FF26" d="M27.256 25.366l.93-.188.09.228-.927.192-.093-.232z"/><path fill="#FFE200" d="M26.402 24.63l.944-.177.157.025-.941.177-.16-.026z"/><path fill="#E1FF16" d="M27.144 25.157l.932-.185.11.205-.93.188-.112-.208z"/><path fill="#FFE600" d="M26.562 24.655l.941-.177.156.067-.94.178-.157-.068z"/><path fill="#EEFF09" d="M27.015 24.977l.935-.182.127.177-.933.185-.13-.18z"/><path fill="#FFEA00" d="M26.72 24.723l.94-.178.15.106-.938.18-.152-.108z"/><path fill="#FBF100" d="M26.872 24.831l.937-.18.14.144-.934.182-.143-.146z"/><path fill="#00E0FB" d="M26.041 28.023l.931-.248-.144.076-.936.25.15-.078z"/><path fill="#09F0EE" d="M26.177 27.904l.927-.244-.132.115-.931.248.136-.12z"/><path fill="#16FFE1" d="M26.297 27.747l.924-.238-.117.151-.927.244.12-.157z"/><path fill="#29FFCE" d="M26.398 27.556l.921-.23-.098.183-.924.238.101-.19z"/><path fill="#3CFFBA" d="M26.478 27.337l.919-.222-.078.211-.92.23.079-.22z"/><path fill="#50FFA7" d="M26.533 27.094l.918-.213-.054.234-.92.222.056-.243z"/><path fill="#66FF90" d="M26.563 26.834l.919-.203-.03.25-.919.213.03-.26z"/><path fill="#7DFF7A" d="M26.567 26.563l.92-.192-.005.26-.919.203.004-.271z"/><path fill="#94FF63" d="M26.544 26.288l.921-.181.021.263-.92.193-.022-.274z"/><path fill="#AAFF4D" d="M26.494 26.018l.925-.171.046.26-.921.181-.05-.27z"/><path fill="#C1FF36" d="M26.42 25.759l.929-.161.07.249-.924.171-.074-.26z"/><path fill="#D4FF23" d="M26.323 25.517l.933-.151.093.232-.928.16-.098-.241z"/><path fill="#FFDE00" d="M25.434 24.75l.968-.12.16.025-.962.122-.166-.027z"/><path fill="#E4FF13" d="M26.206 25.3l.938-.143.112.209-.933.151-.117-.217z"/><path fill="#FFDE00" d="M25.6 24.777l.962-.122.158.068-.956.125-.164-.071z"/><path fill="#F1FC06" d="M26.071 25.112l.944-.135.13.18-.939.143-.135-.188z"/><path fill="#FFE600" d="M25.764 24.848l.956-.125.152.108-.95.13-.158-.113z"/><path fill="#FEED00" d="M25.922 24.96l.95-.13.143.147-.944.136-.149-.153z"/><path fill="#0CF" d="M25.001 28.38l.891-.278-.157.036-.9.28.166-.039z"/><path fill="#00D8FF" d="M25.158 28.296l.883-.273-.149.079-.89.277.156-.083z"/><path fill="#02E8F4" d="M25.301 28.17l.876-.267-.136.12-.883.273.143-.127z"/><path fill="#13FCE4" d="M25.428 28.003l.87-.256-.12.157-.877.266.127-.167z"/><path fill="#23FFD4" d="M25.534 27.801l.865-.245-.102.19-.87.258.107-.203z"/><path fill="#39FFBE" d="M25.617 27.568l.86-.231-.079.22-.864.244.083-.233z"/><path fill="#50FFA7" d="M25.674 27.31l.86-.216-.056.243-.861.231.057-.258z"/><path fill="#66FF90" d="M25.705 27.034l.858-.2-.03.26-.859.216.03-.276z"/><path fill="#7DFF7A" d="M25.707 26.747l.86-.184-.004.27-.858.201.002-.287z"/><path fill="#97FF60" d="M25.681 26.455l.863-.166.023.274-.86.184-.026-.292z"/><path fill="#ADFF49" d="M25.628 26.168l.866-.15.05.27-.863.167-.053-.287z"/><path fill="#C4FF33" d="M25.548 25.892l.872-.133.074.26-.866.149-.08-.276z"/><path fill="#D7FF1F" d="M25.444 25.635l.88-.118.096.242-.872.133-.104-.257z"/><path fill="gold" d="M24.5 24.82l.934-.07.166.027-.926.071-.175-.028z"/><path fill="#EBFF0C" d="M25.319 25.404l.887-.104.117.217-.878.118-.126-.23z"/><path fill="gold" d="M24.674 24.848l.926-.071.164.07-.916.076-.174-.075z"/><path fill="#F8F500" d="M25.175 25.205l.896-.092.135.187-.887.104-.144-.199z"/><path fill="#FFDB00" d="M24.848 24.923l.916-.075.158.113-.905.082-.169-.12z"/><path fill="#FFE600" d="M25.017 25.043l.905-.083.15.152-.897.093-.158-.162z"/><path fill="#00A0FF" d="M22.157 29.19l.587-.324-.189-.163-.605.308.207.179z"/><path fill="#00B0FF" d="M21.95 29.011l.605-.308-.175-.208-.623.288.193.228z"/><path fill="#0094FF" d="M22.373 29.315l.569-.335-.198-.114-.588.324.217.125z"/><path fill="#00C4FF" d="M21.757 28.783l.623-.288-.158-.248-.638.265.173.271z"/><path fill="#0094FF" d="M22.593 29.384l.55-.341-.201-.063-.57.335.221.07z"/><path fill="#00E0FB" d="M21.584 28.512l.638-.264-.136-.281-.652.238.15.307z"/><path fill="#0094FF" d="M22.812 29.395l.53-.343-.2-.01-.549.342.219.011z"/><path fill="#13FCE4" d="M21.434 28.204l.653-.237-.11-.307-.665.208.122.337z"/><path fill="#009CFF" d="M23.024 29.347l.513-.34-.194.045-.531.343.212-.048z"/><path fill="#30FFC7" d="M21.313 27.868l.663-.208-.082-.326-.673.177.091.357z"/><path fill="#00ACFF" d="M23.223 29.24l.496-.33-.183.098-.513.339.2-.106z"/><path fill="#49FFAD" d="M21.22 27.51l.674-.176-.053-.337-.678.145.058.369z"/><path fill="#6AFF8D" d="M21.163 27.142l.678-.145-.02-.338-.682.112.024.37z"/><path fill="#87FF70" d="M21.139 26.77l.682-.111.012-.333-.682.08-.012.365z"/><path fill="#A7FF50" d="M21.15 26.406l.683-.08.045-.317-.68.05-.047.347z"/><path fill="#C4FF33" d="M21.198 26.058l.68-.049.075-.293-.673.02-.082.322z"/><path fill="#DEFF19" d="M21.28 25.736l.674-.02.105-.263-.665-.005-.114.288z"/><path fill="#F8F500" d="M21.394 25.448l.665.005.132-.224-.653-.027-.144.246z"/><path fill="#FFDB00" d="M21.538 25.201l.653.028.156-.18-.639-.045-.17.197z"/><path fill="#FFC800" d="M21.708 25.004l.64.045.175-.131-.623-.058-.192.144z"/><path fill="#FFB900" d="M21.9 24.86l.623.058.19-.078-.604-.066-.209.086z"/><path fill="#FFAE00" d="M22.11 24.774l.604.066.2-.022-.585-.069-.22.025z"/><path fill="#008CFF" d="M21.721 29.515l.436-.325-.207-.179-.456.308.227.196z"/><path fill="#009CFF" d="M21.494 29.319l.456-.308-.193-.228-.475.286.212.25z"/><path fill="#0080FF" d="M21.958 29.653l.415-.338-.217-.125-.435.325.237.138z"/><path fill="#00B4FF" d="M21.282 29.069l.475-.286-.173-.27-.492.258.19.298z"/><path fill="#007CFF" d="M22.2 29.73l.393-.346-.22-.069-.415.338.242.076z"/><path fill="#00D0FF" d="M21.092 28.771l.492-.259-.15-.307-.507.229.165.337z"/><path fill="#007CFF" d="M22.44 29.741l.372-.346-.219-.01-.393.344.24.012z"/><path fill="#09F0EE" d="M20.927 28.434l.507-.23-.122-.336-.52.197.135.369z"/><path fill="#08F" d="M22.672 29.689l.351-.342-.211.048-.372.346.232-.052z"/><path fill="#26FFD1" d="M20.793 28.065l.52-.197-.092-.357-.53.162.102.392z"/><path fill="#0098FF" d="M22.89 29.573l.333-.332-.2.106-.351.342.218-.116z"/><path fill="#46FFB1" d="M20.691 27.672l.53-.161-.058-.37-.537.127.065.404z"/><path fill="#00ACFF" d="M23.09 29.396l.315-.317-.182.162-.333.332.2-.177z"/><path fill="#66FF90" d="M20.626 27.268l.537-.126-.024-.371-.54.089.027.408z"/><path fill="#8AFF6D" d="M20.6 26.86l.539-.09.012-.364-.54.054-.012.4z"/><path fill="#AAFF4D" d="M20.611 26.46l.54-.054.047-.348-.536.02-.05.382z"/><path fill="#CAFF2C" d="M20.662 26.077l.536-.019.082-.322-.53-.013-.088.354z"/><path fill="#E7FF0F" d="M20.75 25.723l.53.013.114-.288-.519-.042-.125.317z"/><path fill="#FFE600" d="M20.875 25.406l.52.042.143-.246-.506-.067-.157.271z"/><path fill="#FC0" d="M21.032 25.135l.506.066.17-.198-.49-.086-.186.218z"/><path fill="#FFB600" d="M21.218 24.917l.49.087.193-.144-.472-.101-.21.158z"/><path fill="#FFA300" d="M21.429 24.759l.471.101.21-.086-.452-.11-.23.095z"/><path fill="#FF9800" d="M21.658 24.664l.451.11.22-.025-.43-.112-.241.027z"/><path fill="#FF9400" d="M21.9 24.637l.43.113.225.036-.408-.109-.248-.04z"/><path fill="#FF9400" d="M22.147 24.677l.408.109.224.098-.385-.1-.247-.107z"/><path fill="#0074FF" d="M21.433 29.828l.288-.313-.227-.196-.31.294.249.215z"/><path fill="#0084FF" d="M21.184 29.613l.31-.294-.211-.25-.331.27.232.274z"/><path fill="#0068FF" d="M21.693 29.98l.265-.327-.237-.138-.288.314.26.15z"/><path fill="#00A0FF" d="M20.952 29.34l.33-.271-.19-.298-.35.242.21.326z"/><path fill="#0064FF" d="M21.957 30.063l.243-.334-.242-.076-.266.327.265.083z"/><path fill="#00C0FF" d="M20.743 29.014l.35-.243-.166-.337-.365.21.18.37z"/><path fill="#0064FF" d="M22.22 30.077l.22-.336-.24-.012-.243.334.262.014z"/><path fill="#00E4F8" d="M20.562 28.644l.365-.21-.134-.37-.38.175.149.405z"/><path fill="#0070FF" d="M22.474 30.02l.198-.331-.232.052-.22.336.254-.057z"/><path fill="#1FFFD7" d="M20.414 28.24l.379-.175-.101-.393-.39.138.112.43z"/><path fill="#0080FF" d="M22.713 29.894l.177-.321-.218.116-.198.331.239-.126z"/><path fill="#40FFB7" d="M20.302 27.81l.39-.137-.066-.405-.396.098.072.444z"/><path fill="#0098FF" d="M22.93 29.7l.16-.304-.2.177-.177.32.218-.192z"/><path fill="#66FF90" d="M20.23 27.366l.396-.099-.027-.407-.4.06.03.446z"/><path fill="#00B4FF" d="M23.122 29.445l.142-.282-.174.233-.16.305.192-.256z"/><path fill="#8AFF6D" d="M20.2 26.92l.4-.06.01-.4-.399.02-.012.44z"/><path fill="#ADFF49" d="M20.211 26.48l.4-.02.05-.383-.395-.016-.055.42z"/><path fill="#D1FF26" d="M20.266 26.061l.396.017.088-.355-.388-.05-.096.388z"/><path fill="#F4F802" d="M20.362 25.672l.389.051.124-.317-.377-.082-.136.348z"/><path fill="gold" d="M20.498 25.324l.377.082.157-.271-.362-.109-.172.298z"/><path fill="#FFB900" d="M20.67 25.026l.362.109.186-.218-.345-.13-.203.239z"/><path fill="#FF9F00" d="M20.873 24.787l.345.13.21-.158-.324-.147-.23.175z"/><path fill="#FF8D00" d="M21.104 24.612l.325.147.229-.095-.303-.156-.251.104z"/><path fill="#FF8200" d="M21.355 24.509l.303.155.241-.027-.28-.159-.264.03z"/><path fill="#FF7A00" d="M21.62 24.478l.28.159.247.04-.256-.155-.272-.044z"/><path fill="#FF7E00" d="M21.891 24.522l.256.155.247.107-.231-.144-.272-.118z"/><path fill="#00C8FF" d="M23.264 29.162l.3-.296-.16.213-.314.317.174-.234z"/><path fill="#0028FF" d="M21.218 30.541l-.006-.184-.294-.254-.016.164.316.274z"/><path fill="#0040FF" d="M20.902 30.267l.016-.164-.275-.324-.037.14.296.348z"/><path fill="#0018FF" d="M21.55 30.735l-.03-.198-.308-.18.007.185.33.193z"/><path fill="#0060FF" d="M20.607 29.92l.037-.14-.248-.386-.056.111.267.414z"/><path fill="#0010FF" d="M21.886 30.842l-.053-.206-.313-.1.03.199.336.107z"/><path fill="#08F" d="M20.34 29.505l.056-.11-.214-.438-.073.078.231.47z"/><path fill="#0014FF" d="M22.22 30.86l-.077-.206-.31-.017.053.205.334.019z"/><path fill="#00B4FF" d="M20.11 29.035l.072-.078-.177-.478-.085.041.19.515z"/><path fill="#0020FF" d="M22.544 30.79l-.1-.203-.301.066.077.208.324-.071z"/><path fill="#02E8F4" d="M19.92 28.52l.085-.041-.133-.508-.096.003.144.546z"/><path fill="#0038FF" d="M22.849 30.63l-.122-.192-.284.149.1.203.306-.16z"/><path fill="#30FFC7" d="M19.776 27.974l.096-.003-.086-.525-.103-.038.093.566z"/><path fill="#0054FF" d="M23.128 30.386l-.143-.175-.258.228.122.191.279-.244z"/><path fill="#60FF97" d="M19.683 27.408l.103.038-.038-.53-.106-.078.04.57z"/><path fill="#007CFF" d="M23.372 30.062l-.16-.152-.227.301.142.175.245-.324z"/><path fill="#8DFF6A" d="M19.642 26.838l.106.078.013-.52-.106-.119-.013.56z"/><path fill="#00A8FF" d="M23.577 29.666l-.176-.124-.19.368.161.152.205-.396z"/><path fill="#BEFF39" d="M19.655 26.277l.106.119.064-.498-.101-.158-.069.537z"/><path fill="#00D8FF" d="M23.736 29.207l-.188-.091-.147.426.176.124.16-.46z"/><path fill="#EBFF0C" d="M19.724 25.74l.1.159.113-.462-.092-.195-.121.499z"/><path fill="#23FFD4" d="M23.845 28.697l-.196-.055-.1.474.187.091.109-.51z"/><path fill="#FFD300" d="M19.845 25.242l.093.195.16-.414-.081-.228-.172.447z"/><path fill="#50FFA7" d="M23.9 28.148l-.2-.015-.051.509.196.055.055-.549z"/><path fill="#FFA700" d="M20.017 24.795l.08.227.203-.354-.065-.256-.218.383z"/><path fill="#80FF77" d="M23.9 27.575l-.202.026.001.532.2.015v-.573z"/><path fill="#FF8200" d="M20.235 24.412l.065.256.241-.286-.046-.279-.26.309z"/><path fill="#B1FF46" d="M23.842 26.993l-.197.069.053.54.201-.027-.057-.582z"/><path fill="#FF6000" d="M20.495 24.103l.046.28.273-.209-.025-.296-.294.225z"/><path fill="#DEFF19" d="M23.73 26.416l-.19.111.105.534.197-.068-.112-.577z"/><path fill="#FF4A00" d="M20.789 23.878l.025.296.298-.125-.002-.306-.321.135z"/><path fill="#FFE200" d="M23.566 25.862l-.178.152.152.513.19-.11-.164-.555z"/><path fill="#FF3800" d="M21.11 23.743l.002.307.314-.038.024-.31-.34.041z"/><path fill="#FFB200" d="M23.353 25.344l-.163.19.198.48.178-.152-.213-.518z"/><path fill="#FF3000" d="M21.45 23.702l-.023.31.323.052.05-.306-.35-.056z"/><path fill="#FF8D00" d="M23.097 24.878l-.144.224.237.432.163-.19-.256-.466z"/><path fill="#FF3400" d="M21.799 23.758l-.05.306.324.14.074-.296-.348-.15z"/><path fill="#FF6800" d="M22.806 24.476l-.123.254.27.373.144-.225-.291-.402z"/><path fill="#FF3B00" d="M22.148 23.909l-.075.295.314.224.1-.278-.34-.241z"/><path fill="#FF4E00" d="M22.486 24.15l-.1.278.297.302.123-.254-.32-.326z"/><path fill="#0040FF" d="M21.212 30.358l.06-.243-.271-.235-.083.223.294.255z"/><path fill="#0058FF" d="M20.918 30.103L21 29.88l-.253-.299-.105.198.275.324z"/><path fill="#0034FF" d="M21.52 30.537l.036-.257-.284-.165-.06.243.308.179z"/><path fill="#0074FF" d="M20.643 29.78l.105-.199-.228-.355-.124.168.247.385z"/><path fill="#002CFF" d="M21.832 30.637l.012-.265-.288-.092-.036.257.312.1z"/><path fill="#009CFF" d="M20.396 29.394l.124-.168-.198-.403-.14.134.214.437z"/><path fill="#0030FF" d="M22.143 30.653l-.012-.266-.287-.016-.012.265.31.017z"/><path fill="#00C4FF" d="M20.182 28.957l.14-.134-.162-.441-.154.097.176.478z"/><path fill="#003CFF" d="M22.443 30.587l-.035-.262-.277.062.012.266.3-.066z"/><path fill="#0CF4EB" d="M20.005 28.479l.155-.097-.123-.469-.165.058.133.508z"/><path fill="#0050FF" d="M22.726 30.439l-.057-.251-.261.137.035.262.283-.148z"/><path fill="#36FFC1" d="M19.872 27.971l.165-.058-.079-.484-.172.017.086.525z"/><path fill="#006CFF" d="M22.985 30.211l-.078-.233-.238.21.058.25.258-.227z"/><path fill="#60FF97" d="M19.786 27.446l.172-.017-.034-.488-.176-.025.038.53z"/><path fill="#0090FF" d="M23.212 29.91l-.096-.21-.21.277.079.234.227-.301z"/><path fill="#8DFF6A" d="M19.748 26.916l.176.025.012-.48-.175-.065-.013.52z"/><path fill="#00B8FF" d="M23.401 29.542l-.111-.183-.174.34.096.21.19-.367z"/><path fill="#B7FF40" d="M19.761 26.396l.175.066.06-.459-.171-.105-.064.498z"/><path fill="#02E8F4" d="M23.549 29.116l-.124-.15-.135.394.111.182.148-.426z"/><path fill="#E1FF16" d="M19.825 25.898l.17.105.105-.425-.162-.142-.113.462z"/><path fill="#29FFCE" d="M23.649 28.642l-.132-.112-.092.437.123.149.1-.474z"/><path fill="#FFDE00" d="M19.937 25.436l.162.142.148-.38-.15-.176-.16.414z"/><path fill="#53FFA4" d="M23.7 28.133l-.137-.072-.046.469.132.112.05-.51z"/><path fill="#FFB600" d="M20.097 25.023l.15.175.187-.326-.134-.204-.203.355z"/><path fill="#80FF77" d="M23.698 27.601l-.136-.03.001.49.136.072-.001-.532z"/><path fill="#FF9400" d="M20.3 24.668l.134.204.222-.263-.115-.227-.241.286z"/><path fill="#ADFF49" d="M23.645 27.062l-.133.013.05.497.136.03-.053-.54z"/><path fill="#F70" d="M20.541 24.382l.115.227.252-.19-.094-.245-.273.208z"/><path fill="#D7FF1F" d="M23.54 26.527l-.124.056.096.492.133-.014-.105-.534z"/><path fill="#FF6000" d="M20.814 24.174l.094.244.274-.114-.07-.254-.298.124z"/><path fill="#FEED00" d="M23.387 26.013l-.112.098.141.472.124-.056-.152-.514z"/><path fill="#FF5200" d="M21.112 24.05l.07.254.29-.033-.046-.259-.314.038z"/><path fill="#FFC400" d="M23.19 25.534l-.097.136.182.441.113-.097-.198-.48z"/><path fill="#FF4A00" d="M21.427 24.013l.044.258.298.048-.02-.255-.322-.051z"/><path fill="#FF9F00" d="M22.953 25.103l-.078.17.218.397.097-.136-.237-.431z"/><path fill="#FF4A00" d="M21.75 24.064l.019.255.297.128.007-.243-.323-.14z"/><path fill="#FF7E00" d="M22.683 24.73l-.056.201.248.342.078-.17-.27-.373z"/><path fill="#F50" d="M22.073 24.204l-.007.243.289.206.032-.225-.314-.224z"/><path fill="#FF6800" d="M22.387 24.428l-.032.225.272.278.056-.2-.296-.303z"/><path fill="#005CFF" d="M21.273 30.115l.16-.287-.25-.215-.182.267.271.235z"/><path fill="#0070FF" d="M21 29.88l.184-.267-.232-.274-.204.242.253.299z"/><path fill="#004CFF" d="M21.556 30.28l.136-.3-.26-.152-.16.287.284.165z"/><path fill="#008CFF" d="M20.748 29.581l.204-.241-.209-.326-.223.212.228.355z"/><path fill="#0048FF" d="M21.844 30.372l.113-.308-.264-.084-.137.3.288.091z"/><path fill="#00ACFF" d="M20.52 29.226l.223-.212-.181-.37-.24.179.198.403z"/><path fill="#004CFF" d="M22.13 30.387l.09-.31-.263-.014-.113.309.287.015z"/><path fill="#00D4FF" d="M20.322 28.823l.24-.179-.148-.404-.254.142.162.44z"/><path fill="#0054FF" d="M22.408 30.325l.066-.305-.254.057-.09.31.278-.062z"/><path fill="#16FFE1" d="M20.16 28.382l.254-.143-.112-.429-.265.103.123.469z"/><path fill="#0068FF" d="M22.669 30.188l.044-.294-.24.126-.065.305.26-.137z"/><path fill="#3CFFBA" d="M20.038 27.913l.264-.103-.072-.444-.272.063.08.484z"/><path fill="#0080FF" d="M22.907 29.978l.024-.277-.218.193-.044.294.238-.21z"/><path fill="#63FF94" d="M19.958 27.429l.272-.063-.03-.447-.276.022.034.488z"/><path fill="#00A0FF" d="M23.116 29.7l.006-.255-.191.256-.024.277.209-.279z"/><path fill="#8DFF6A" d="M19.924 26.94l.275-.02.012-.44-.275-.018-.012.479z"/><path fill="#00C8FF" d="M23.29 29.36l-.008-.227-.16.312-.006.254.174-.34z"/><path fill="#B4FF43" d="M19.936 26.462l.275.018.055-.419-.27-.058-.06.459z"/><path fill="#0CF4EB" d="M23.425 28.966l-.02-.193-.123.36.008.226.135-.393z"/><path fill="#DBFF1C" d="M19.995 26.003l.27.058.097-.39-.262-.093-.105.425z"/><path fill="#30FFC7" d="M23.517 28.53l-.027-.157-.084.4.02.194.091-.437z"/><path fill="#FEED00" d="M20.1 25.578l.262.094.136-.348-.25-.127-.148.381z"/><path fill="#56FFA0" d="M23.563 28.061l-.031-.117-.042.43.027.156.046-.469z"/><path fill="#FFC800" d="M20.247 25.198l.25.126.173-.298-.236-.154-.187.326z"/><path fill="#80FF77" d="M23.567 27.572l-.037-.076.002.448.037.117-.002-.49z"/><path fill="#FFA700" d="M20.434 24.871l.236.155.203-.24-.217-.177-.222.262z"/><path fill="#A7FF50" d="M23.512 27.075l-.027-.034.045.455.032.076-.05-.497z"/><path fill="#FF8D00" d="M20.656 24.61l.217.177.23-.175-.195-.194-.252.191z"/><path fill="#CEFF29" d="M23.416 26.584l-.019.008.088.45.027.033-.096-.491z"/><path fill="#F70" d="M20.908 24.418l.196.194.25-.104-.172-.204-.274.114z"/><path fill="#F4F802" d="M23.275 26.111l-.007.05.129.431.019-.008-.14-.473z"/><path fill="#FF6C00" d="M21.182 24.304l.172.204.265-.03-.148-.208-.29.034z"/><path fill="#FFD300" d="M23.093 25.67l.009.087.166.403.007-.05-.182-.44z"/><path fill="#FF6400" d="M21.471 24.27l.148.208.272.044-.122-.203-.297-.048z"/><path fill="#FFB200" d="M22.875 25.273l.028.122.2.362-.01-.087-.218-.397z"/><path fill="#FF6400" d="M21.769 24.319l.122.203.272.118-.097-.193-.297-.128z"/><path fill="#FF9400" d="M22.627 24.931l.049.151.227.313-.028-.122-.248-.342z"/><path fill="#FF6C00" d="M22.066 24.447l.097.193.264.188-.073-.175-.288-.206z"/><path fill="#FF7E00" d="M22.354 24.653l.073.175.248.254-.048-.15-.273-.279z"/><path fill="#000CFF" d="M21.257 30.654l-.038-.112-.317-.274.017.093.338.293z"/><path fill="#0028FF" d="M20.919 30.361l-.017-.093-.296-.349-.002.07.315.372z"/><path fill="#00F" d="M21.61 30.86l-.06-.125-.331-.193.038.111.353.207z"/><path fill="#004CFF" d="M20.604 29.99l.002-.07-.266-.415-.02.043.284.442z"/><path fill="#00F" d="M21.969 30.974l-.083-.132-.337-.107.06.125.36.114z"/><path fill="#0074FF" d="M20.32 29.547l.02-.042-.23-.47-.037.01.246.502z"/><path fill="#00F" d="M22.326 30.994l-.106-.134-.334-.018.083.132.357.02z"/><path fill="#00A8FF" d="M20.073 29.046l.036-.01-.19-.516-.049-.023.203.549z"/><path fill="#0008FF" d="M22.672 30.919l-.128-.13-.324.072.106.133.346-.075z"/><path fill="#00E0FB" d="M19.87 28.497l.05.023-.144-.546-.059-.061.153.584z"/><path fill="#0020FF" d="M22.998 30.749l-.149-.119-.305.16.128.129.326-.17z"/><path fill="#2CFFCA" d="M19.717 27.913l.059.06-.094-.565-.065-.1.1.605z"/><path fill="#0040FF" d="M23.296 30.488l-.168-.102-.28.244.15.12.298-.262z"/><path fill="#5DFF9A" d="M19.617 27.309l.066.099-.041-.57-.069-.139.044.61z"/><path fill="#0068FF" d="M23.558 30.143l-.186-.081-.245.324.168.102.263-.345z"/><path fill="#90FF66" d="M19.573 26.7l.069.138.013-.56-.067-.178-.015.6z"/><path fill="#0098FF" d="M23.777 29.72l-.2-.054-.205.396.186.08.219-.422z"/><path fill="#C1FF36" d="M19.588 26.1l.067.177.069-.536-.064-.215-.072.574z"/><path fill="#0CF" d="M23.948 29.23l-.212-.023-.159.459.2.054.17-.49z"/><path fill="#F4F802" d="M19.66 25.526l.064.214.12-.498-.054-.25-.13.534z"/><path fill="#1CFFDB" d="M24.065 28.685l-.22.012-.109.51.212.023.117-.545z"/><path fill="#FFC400" d="M19.79 24.992l.055.25.172-.447-.044-.281-.183.479z"/><path fill="#4DFFAA" d="M24.124 28.098l-.224.05-.055.549.22-.012.06-.587z"/><path fill="#FF9800" d="M19.973 24.514l.044.281.218-.383-.029-.309-.233.41z"/><path fill="#80FF77" d="M24.124 27.485l-.225.09v.573l.225-.05v-.613z"/><path fill="#FF6F00" d="M20.206 24.103l.03.309.259-.309-.011-.33-.278.33z"/><path fill="#B4FF43" d="M24.064 26.862l-.222.13.057.583.225-.09-.06-.623z"/><path fill="#FF4A00" d="M20.484 23.772l.01.331.295-.225.01-.348-.315.242z"/><path fill="#E4FF13" d="M23.945 26.245l-.215.171.112.577.222-.131-.12-.617z"/><path fill="#FF3000" d="M20.799 23.53l-.01.348.321-.135.033-.358-.344.145z"/><path fill="#FFD300" d="M23.77 25.652l-.204.21.164.554.215-.17-.176-.594z"/><path fill="#F20" d="M21.142 23.385l-.032.358.34-.04.056-.362-.364.044z"/><path fill="#FFA300" d="M23.542 25.097l-.189.247.213.518.204-.21-.228-.555z"/><path fill="#FF1A00" d="M21.506 23.341l-.056.361.349.056.08-.358-.373-.059z"/><path fill="#FF7A00" d="M23.269 24.598l-.172.28.256.466.189-.247-.273-.499z"/><path fill="#FF1A00" d="M21.88 23.4l-.081.358.349.15.104-.347-.373-.161z"/><path fill="#F50" d="M22.957 24.168l-.151.308.291.402.172-.28-.312-.43z"/><path fill="#FF2500" d="M22.253 23.56l-.105.349.338.241.129-.33-.362-.26z"/><path fill="#FF3800" d="M22.615 23.819l-.129.331.32.326.15-.308-.341-.349z"/><defs><linearGradient id="paint0_linear" x1="1" x2="1" y1="0" y2="29" gradientUnits="userSpaceOnUse"><stop offset="0" stop-color="#6AA6FE"/><stop offset="1" stop-color="#236DFE"/></linearGradient><linearGradient id="paint1_linear" x1="8.502" x2="8.502" y1="4.829" y2="19.52" gradientUnits="userSpaceOnUse"><stop offset="0" stop-color="#6AA6FE"/><stop offset="1" stop-color="#236DFE"/></linearGradient><linearGradient id="paint2_linear" x1="2.991" x2="2.991" y1=".766" y2="29" gradientUnits="userSpaceOnUse"><stop stop-color="#6291F6"/><stop offset="1" stop-color="#072AE6"/></linearGradient><linearGradient id="paint3_linear" x1="9.764" x2="9.764" y1="5.241" y2="18.571" gradientUnits="userSpaceOnUse"><stop stop-color="#6291F6"/><stop offset="1" stop-color="#072AE6"/></linearGradient><linearGradient id="paint4_linear" x1="18.98" x2="18.98" y1="18.981" y2="31.037" gradientUnits="userSpaceOnUse"><stop stop-color="#FF1A00"/><stop offset=".245" stop-color="#F8F500"/><stop offset=".494" stop-color="#87FF70"/><stop offset=".748" stop-color="#00E0FB"/><stop offset="1" stop-color="#004CFF"/></linearGradient></defs></svg>