<svg fill="none" viewBox="0 0 32 32"><path fill="#fff" fill-rule="evenodd" d="M32 16c0-2.094-.417-4.188-1.218-6.123a16.058 16.058 0 00-3.468-5.19 16.051 16.051 0 00-5.191-3.47A16.054 16.054 0 0016 0c-2.094 0-4.188.417-6.123 1.218a16.055 16.055 0 00-5.19 3.468 16.05 16.05 0 00-3.47 5.191A16.049 16.049 0 000 16c0 2.094.416 4.188 1.218 6.123a16.056 16.056 0 003.468 5.19 16.055 16.055 0 005.19 3.469A16.056 16.056 0 0016 32c2.094 0 4.188-.417 6.123-1.218a16.051 16.051 0 005.19-3.468 16.063 16.063 0 003.47-5.191A16.054 16.054 0 0032 16z" clip-rule="evenodd"/><path fill="url(#paint0_linear)" fill-rule="evenodd" d="M11.855 3.384a13.267 13.267 0 0113.213 2.914 13.155 13.155 0 013.417 5.189c.71 1.99.946 4.19.672 6.284a13.194 13.194 0 01-2.243 5.795 13.207 13.207 0 01-4.64 4.134 13.622 13.622 0 01-6.12 1.576 13.207 13.207 0 01-6.059-1.381 13.19 13.19 0 01-4.763-3.991 13.662 13.662 0 01-2.444-5.83 13.13 13.13 0 01.487-6.193 13.392 13.392 0 012.23-4.145H4.12V5.282h5.817v5.431H7.483V9.23a10.961 10.961 0 00-1.827 3.397 10.787 10.787 0 00-.4 5.07 11.107 11.107 0 002.81 5.75 10.952 10.952 0 006.8 3.375 11.023 11.023 0 007.351-1.892 10.999 10.999 0 004.325-6.24c.637-2.5.342-5.237-.807-7.547a10.919 10.919 0 00-5.546-5.183c-2.394-.99-5.181-1.085-7.585-.295l-.75-2.28z" clip-rule="evenodd"/><path fill="#000" fill-rule="evenodd" d="M19.705 10.4l-6.702 2.515c-.936-.436-1.454-1.21-1.362-2.09l.856-.91c1.412-.783 2.56-.965 3.675-.904 1.115.06 2.197.364 3.533 1.39z" clip-rule="evenodd"/><path fill="#AAA" fill-rule="evenodd" d="M9.677 12.466c.742-1.461 1.581-2.122 2.154-2.493.573-.372.879-.453 1.155-.47.276-.017.521.03.662.143.141.113.177.29.16.467-.017.176-.087.351-.245.549a3.333 3.333 0 01-.713.628c-.31.211-.684.415-1.186.65-.502.237-1.131.506-1.987.526zm4.002 9.221l-1.244-4.307c-.968-1.85-2.113-3.304-3.022-4.322-.713 2.064-.408 3.63.198 4.961.606 1.332 1.514 2.43 4.068 3.668zm8.398-6.43l-7.932.372c-.924-.538-1.202-.836-1.4-1.2-.197-.366-.314-.797-.196-1.237.118-.44.47-.887.928-1.274.456-.387 1.017-.713 1.623-.975.606-.262 1.258-.46 1.838-.6.58-.141 1.087-.223 1.497-.24.41-.016.722.033.975.136.253.103.446.259.707.534.26.275.587.67.94 1.228.354.558.733 1.28 1.02 3.256z" clip-rule="evenodd"/><path fill="gray" fill-rule="evenodd" d="M22.742 13.892a.98.98 0 01.116.032c.08.027.125.082.135.165.005.041.007.08.007.119v6.74c0 .44 0 .512-.005.576a.254.254 0 01-.065.174c-.052.056-.145.113-.299.183-.153.07-.367.15-.633.216a8.61 8.61 0 01-.949.163c-.362.047-.769.089-1.277.128-.508.04-1.119.075-1.815.101a84.46 84.46 0 01-2.292.05 228.988 228.988 0 01-3.112.005c-.15 0-.22 0-.293-.01a.457.457 0 01-.205-.078.435.435 0 01-.143-.184c-.027-.069-.03-.137-.03-.57-.002-.432-.002-1.228-.002-2.244V16.5c0-.706 0-.881.008-1a.523.523 0 01.06-.242.36.36 0 01.136-.135c.056-.03.117-.04.306-.047.188-.007.503-.01.96-.032a34.655 34.655 0 001.709-.127 47.84 47.84 0 002.096-.257c.727-.104 1.47-.225 2.182-.346.712-.12 1.395-.241 1.89-.316a10.94 10.94 0 011.09-.12c.153-.007.301-.01.425.014z" clip-rule="evenodd"/><path fill="#fff" fill-rule="evenodd" d="M11.882 21.917l-.002-.57c1.691-.039 2.484-.093 3.253-.169a44.93 44.93 0 002.31-.291c.794-.12 1.637-.261 2.355-.384.719-.123 1.313-.227 1.727-.288.415-.06.649-.077.826-.081.177-.005.297.002.385.018a.45.45 0 01.185.07c.04.03.063.061.079.15v.57c-.016-.088-.039-.12-.079-.148a.449.449 0 00-.185-.07 1.903 1.903 0 00-.385-.02 6.856 6.856 0 00-.826.082c-.414.06-1.008.165-1.726.288-.719.123-1.562.265-2.356.384-.795.12-1.54.216-2.31.291-.77.076-1.562.13-3.25.168z" clip-rule="evenodd"/><path fill="#000" fill-rule="evenodd" d="M11.88 21.346v-.571c1.691-.038 2.484-.092 3.253-.168.77-.075 1.515-.172 2.31-.291.794-.12 1.637-.261 2.355-.384.719-.124 1.313-.228 1.727-.288.415-.06.649-.077.826-.081.177-.005.297.002.385.018a.449.449 0 01.185.07c.04.03.063.061.079.15v.57c-.016-.088-.039-.12-.079-.148a.45.45 0 00-.185-.07 1.903 1.903 0 00-.385-.02 6.841 6.841 0 00-.826.082c-.414.06-1.008.165-1.726.288-.719.123-1.562.265-2.356.384-.795.12-1.54.216-2.31.291-.77.076-1.562.13-3.253.168z" clip-rule="evenodd"/><path fill="#fff" fill-rule="evenodd" d="M11.88 20.775v-.571c1.691-.038 2.484-.092 3.253-.168.77-.076 1.515-.172 2.31-.291.794-.12 1.637-.262 2.355-.385.719-.123 1.313-.227 1.727-.287a7.01 7.01 0 01.826-.082c.177-.004.297.003.385.019a.45.45 0 01.185.07c.04.03.063.06.079.15v.57c-.016-.088-.039-.12-.079-.149a.449.449 0 00-.185-.07 1.895 1.895 0 00-.385-.018 6.856 6.856 0 00-.826.081c-.414.06-1.008.164-1.726.288-.719.123-1.562.265-2.356.384-.795.12-1.54.216-2.31.291-.77.076-1.562.13-3.253.168z" clip-rule="evenodd"/><path fill="#000" fill-rule="evenodd" d="M11.88 20.204v-.571c1.691-.038 2.484-.092 3.253-.168.77-.076 1.515-.172 2.31-.291.794-.12 1.637-.262 2.355-.385.719-.123 1.313-.227 1.727-.287.415-.06.649-.077.826-.081.177-.005.297.002.385.018a.45.45 0 01.185.07c.04.03.063.06.079.15v.57c-.016-.088-.039-.12-.079-.149a.449.449 0 00-.185-.07 1.903 1.903 0 00-.385-.019 6.856 6.856 0 00-.826.082c-.414.06-1.008.164-1.726.287-.719.123-1.562.265-2.356.385-.795.119-1.54.215-2.31.291-.77.076-1.562.13-3.253.168z" clip-rule="evenodd"/><path fill="#fff" fill-rule="evenodd" d="M11.88 19.633v-.571c1.691-.038 2.484-.093 3.253-.168.77-.076 1.515-.172 2.31-.291.794-.12 1.637-.262 2.355-.385.719-.123 1.313-.227 1.727-.287a7.01 7.01 0 01.826-.082c.177-.004.297.003.385.019a.451.451 0 01.185.07c.04.029.063.06.079.15v.57c-.016-.088-.039-.12-.079-.149a.45.45 0 00-.185-.07 1.903 1.903 0 00-.385-.019 6.841 6.841 0 00-.826.082c-.414.06-1.008.164-1.726.287-.719.123-1.562.265-2.356.385-.795.119-1.54.215-2.31.291-.77.076-1.562.13-3.253.168z" clip-rule="evenodd"/><path fill="#000" fill-rule="evenodd" d="M23 17.516v.571c-.016-.088-.039-.12-.079-.149a.451.451 0 00-.185-.07 1.913 1.913 0 00-.385-.019 6.856 6.856 0 00-.826.082c-.414.06-1.008.164-1.726.287a118.99 118.99 0 01-2.526.41v-.571l.17-.025c.794-.12 1.637-.262 2.355-.385.719-.123 1.313-.227 1.727-.287a7.01 7.01 0 01.826-.082 1.9 1.9 0 01.385.019.451.451 0 01.185.07c.04.029.063.06.079.15z" clip-rule="evenodd"/><path fill="#fff" fill-rule="evenodd" d="M23 16.945v.571c-.016-.088-.039-.12-.079-.149a.45.45 0 00-.185-.07 1.912 1.912 0 00-.385-.019 6.856 6.856 0 00-.826.082c-.414.06-1.008.164-1.726.287a118.99 118.99 0 01-2.526.41v-.571a89.615 89.615 0 002.526-.41c.718-.123 1.312-.227 1.726-.287a7.01 7.01 0 01.826-.082 1.83 1.83 0 01.385.019.451.451 0 01.185.07c.04.029.063.06.079.15z" clip-rule="evenodd"/><path fill="#000" fill-rule="evenodd" d="M23 16.374v.571c-.016-.088-.039-.12-.079-.149a.451.451 0 00-.185-.07 1.913 1.913 0 00-.385-.019 6.835 6.835 0 00-.826.082c-.414.06-1.008.164-1.726.287a119.73 119.73 0 01-2.526.41v-.571l.17-.026c.794-.119 1.637-.26 2.355-.384.719-.123 1.313-.227 1.727-.287a7.01 7.01 0 01.826-.082 1.83 1.83 0 01.385.019.45.45 0 01.185.07c.04.029.063.06.079.15z" clip-rule="evenodd"/><path fill="#fff" fill-rule="evenodd" d="M23 15.803v.571c-.016-.088-.039-.12-.079-.149a.45.45 0 00-.185-.07 1.912 1.912 0 00-.385-.019 6.856 6.856 0 00-.826.082c-.414.06-1.008.164-1.726.287a118.99 118.99 0 01-2.526.41v-.571a89.615 89.615 0 002.526-.41c.718-.123 1.312-.227 1.726-.287a7.01 7.01 0 01.826-.082 1.83 1.83 0 01.385.019.451.451 0 01.185.07c.04.029.063.06.079.15z" clip-rule="evenodd"/><path fill="#000" fill-rule="evenodd" d="M23 15.232v.571c-.016-.089-.039-.12-.079-.149a.451.451 0 00-.185-.07 1.912 1.912 0 00-.385-.019 6.841 6.841 0 00-.826.082c-.414.06-1.008.164-1.726.287a118.258 118.258 0 01-2.526.41v-.572a89.615 89.615 0 002.526-.409c.718-.123 1.312-.227 1.726-.287a7.01 7.01 0 01.826-.082c.177-.005.297.002.385.018a.451.451 0 01.185.071c.04.029.063.06.079.15z" clip-rule="evenodd"/><path fill="#fff" fill-rule="evenodd" d="M17.273 15.201l.17-.025c.794-.119 1.637-.261 2.355-.384.719-.123 1.313-.227 1.727-.287a7.01 7.01 0 01.826-.082c.177-.005.297.002.385.018a.451.451 0 01.185.07c.04.03.063.061.079.15v.571c-.016-.088-.039-.12-.079-.149a.451.451 0 00-.185-.07 1.913 1.913 0 00-.385-.019 6.856 6.856 0 00-.826.082c-.414.06-1.008.164-1.726.287a118.99 118.99 0 01-2.526.41V15.2z" clip-rule="evenodd"/><path fill="#000" fill-rule="evenodd" d="M17.273 14.643c.69-.1 1.39-.215 2.064-.329.712-.12 1.395-.241 1.89-.316a10.94 10.94 0 011.09-.12c.153-.007.301-.01.425.014a.98.98 0 01.116.032c.08.027.125.082.135.165.005.041.007.08.007.119v.453c-.016-.089-.039-.12-.079-.15a.45.45 0 00-.185-.07 1.912 1.912 0 00-.385-.018 6.856 6.856 0 00-.826.082c-.414.06-1.008.164-1.726.287a118.99 118.99 0 01-2.526.41v-.559zm5.724 6.859c-.016-.076-.039-.105-.076-.132a.449.449 0 00-.185-.07 1.895 1.895 0 00-.385-.019 6.856 6.856 0 00-.826.082c-.414.06-1.008.164-1.726.287-.719.123-1.562.265-2.356.384-.795.12-1.54.216-2.31.292-.734.072-1.49.125-3.025.162a.435.435 0 01-.195-.216c-.023-.055-.029-.11-.03-.355 1.688-.038 2.48-.092 3.25-.168.77-.075 1.515-.172 2.31-.291.794-.12 1.637-.261 2.355-.384.719-.123 1.313-.228 1.727-.288.415-.06.649-.077.826-.081.177-.005.297.002.385.018a.449.449 0 01.185.07c.04.03.063.061.079.15v.005c0 .39 0 .491-.003.554zm-5.724-6.859l-.118.017c-.728.104-1.441.193-2.096.257-.656.065-1.253.106-1.71.127-.456.022-.771.025-.96.032-.188.007-.25.018-.305.047a.36.36 0 00-.136.135.524.524 0 00-.06.241c-.008.12-.008.295-.008 1v2.563c1.691-.038 2.484-.093 3.253-.168.714-.07 1.408-.158 2.14-.266v-3.985z" clip-rule="evenodd"/><defs><linearGradient id="paint0_linear" x1="2.043" x2="15.222" y1="13.297" y2="29.576" gradientUnits="userSpaceOnUse"><stop stop-color="#004CFF"/><stop offset=".252" stop-color="#00E0FB"/><stop offset=".506" stop-color="#87FF70"/><stop offset=".755" stop-color="#F8F500"/><stop offset="1" stop-color="#FF1A00"/></linearGradient></defs></svg>