<svg width="32" height="32" fill="none" xmlns="http://www.w3.org/2000/svg"><path fill-rule="evenodd" clip-rule="evenodd" d="M30.782 9.877A16.054 16.054 0 0132 16c0 2.094-.417 4.188-1.218 6.123a16.046 16.046 0 01-3.468 5.19 16.046 16.046 0 01-5.191 3.47A16.054 16.054 0 0116 32c-2.094 0-4.188-.417-6.123-1.218a16.046 16.046 0 01-5.19-3.468 16.046 16.046 0 01-3.47-5.191A16.055 16.055 0 010 16c0-2.094.417-4.188 1.218-6.123a16.047 16.047 0 013.468-5.19 16.047 16.047 0 015.191-3.47A16.054 16.054 0 0116 0c2.094 0 4.188.417 6.123 1.218a16.046 16.046 0 015.19 3.468 16.046 16.046 0 013.47 5.191zm-1.848.765A14.05 14.05 0 0130 16a14.05 14.05 0 01-1.066 5.358A14.053 14.053 0 0125.9 25.9a14.053 14.053 0 01-4.542 3.034A14.05 14.05 0 0116 30a14.05 14.05 0 01-5.358-1.066A14.052 14.052 0 016.1 25.9a14.053 14.053 0 01-3.034-4.542A14.052 14.052 0 012 16c0-1.832.365-3.665 1.066-5.358A14.052 14.052 0 016.1 6.1a14.052 14.052 0 014.542-3.034A14.052 14.052 0 0116 2c1.832 0 3.665.365 5.358 1.066A14.053 14.053 0 0125.9 6.1a14.052 14.052 0 013.034 4.542z" fill="url(#paint0_linear)"/><path fill-rule="evenodd" clip-rule="evenodd" d="M29 16c0-1.701-.338-3.403-.99-4.975a13.037 13.037 0 00-2.818-4.217 13.037 13.037 0 00-4.217-2.818A13.044 13.044 0 0016 3c-1.701 0-3.403.339-4.975.99a13.038 13.038 0 00-4.217 2.818 13.038 13.038 0 00-2.818 4.217A13.044 13.044 0 003 16c0 1.701.339 3.403.99 4.975a13.037 13.037 0 002.818 4.217 13.037 13.037 0 004.217 2.818c1.572.651 3.274.99 4.975.99 1.701 0 3.403-.338 4.975-.99a13.036 13.036 0 004.217-2.818 13.036 13.036 0 002.818-4.217C28.661 19.403 29 17.7 29 16z" fill="#2775CA"/><path fill-rule="evenodd" clip-rule="evenodd" d="M13.62 25.006c0 .317-.222.423-.542.423-4.013-1.284-6.828-4.932-6.828-9.223 0-4.29 2.815-7.939 6.828-9.223.322-.103.541.106.541.43v.749a.59.59 0 01-.327.536c-3.144 1.178-5.31 4.079-5.31 7.508 0 3.437 2.274 6.436 5.31 7.509a.598.598 0 01.327.536v.755z" fill="#fff"/><path fill-rule="evenodd" clip-rule="evenodd" d="M16.87 22.324c0 .212-.222.424-.435.424h-.87c-.213 0-.434-.212-.434-.424v-1.291c-1.732-.212-2.595-1.179-2.923-2.576 0-.212.107-.423.328-.423h.97c.22 0 .327.106.434.317.221.756.649 1.398 2.06 1.398 1.083 0 1.839-.537 1.839-1.398 0-.853-.428-1.178-1.946-1.39-2.275-.317-3.357-.966-3.357-2.794 0-1.39 1.084-2.463 2.595-2.682v-1.284c0-.212.22-.43.434-.43h.87c.213 0 .434.218.434.43v1.284c1.298.219 2.167.967 2.381 2.146 0 .218-.107.43-.328.43h-.862c-.221 0-.328-.106-.435-.318-.214-.755-.756-1.072-1.732-1.072-1.083 0-1.625.536-1.625 1.284s.32 1.178 1.946 1.397c2.282.308 3.364.96 3.364 2.788 0 1.39-1.084 2.575-2.709 2.893v1.291z" fill="#fff"/><path fill-rule="evenodd" clip-rule="evenodd" d="M18.922 25.43c-.32.112-.541-.107-.541-.424v-.755c0-.212.113-.43.327-.537 3.144-1.178 5.31-4.071 5.31-7.508 0-3.43-2.274-6.435-5.31-7.508a.59.59 0 01-.327-.536v-.748c0-.325.22-.43.541-.43 3.906 1.283 6.828 4.932 6.828 9.222 0 4.29-2.815 7.939-6.828 9.223z" fill="#fff"/><defs><linearGradient id="paint0_linear" x1="19.008" y1="-4.64" x2="-4.8" y2="15.392" gradientUnits="userSpaceOnUse"><stop stop-color="#B6509E"/><stop offset="1" stop-color="#2EBAC6"/></linearGradient></defs></svg>