<svg xmlns="http://www.w3.org/2000/svg" width="32" height="32"><g fill="none" fill-rule="evenodd"><path fill="#2775CA" d="M32 16c0-2.094-.417-4.188-1.218-6.123a16.047 16.047 0 00-3.468-5.19 16.047 16.047 0 00-5.191-3.47A16.055 16.055 0 0016 0c-2.094 0-4.188.417-6.123 1.218a16.047 16.047 0 00-5.19 3.468 16.047 16.047 0 00-3.47 5.191A16.055 16.055 0 000 16c0 2.094.417 4.188 1.218 6.123a16.047 16.047 0 003.468 5.19 16.047 16.047 0 005.191 3.47A16.055 16.055 0 0016 32c2.094 0 4.188-.417 6.123-1.218a16.047 16.047 0 005.19-3.468 16.047 16.047 0 003.47-5.191A16.055 16.055 0 0032 16z"/><path fill="#FFF" d="M13.07 27.084c0 .39-.272.521-.666.521C7.465 26.025 4 21.535 4 16.254c0-5.28 3.465-9.771 8.404-11.352.395-.126.666.13.666.53v.92c0 .27-.14.53-.403.66-3.869 1.451-6.535 5.02-6.535 9.242 0 4.23 2.798 7.92 6.535 9.24.263.131.403.4.403.66v.93z"/><path fill="#FFF" d="M17.07 23.784c0 .26-.272.52-.535.52h-1.07c-.263 0-.535-.26-.535-.52v-1.59c-2.132-.26-3.193-1.45-3.597-3.17 0-.26.132-.52.404-.52h1.193c.272 0 .403.13.535.39.272.93.798 1.72 2.535 1.72 1.333 0 2.263-.66 2.263-1.72 0-1.05-.526-1.45-2.395-1.711-2.8-.39-4.131-1.19-4.131-3.44 0-1.71 1.333-3.03 3.193-3.3v-1.58c0-.26.272-.53.535-.53h1.07c.263 0 .535.27.535.53v1.58c1.597.27 2.667 1.19 2.93 2.64 0 .27-.132.53-.404.53h-1.061c-.272 0-.403-.13-.535-.39-.263-.93-.93-1.32-2.132-1.32-1.333 0-2 .66-2 1.58s.395 1.45 2.395 1.72c2.809.378 4.14 1.18 4.14 3.43 0 1.711-1.333 3.17-3.333 3.561v1.59z"/><path fill="#FFF" d="M19.596 27.605c-.394.14-.666-.13-.666-.521v-.93c0-.26.14-.529.403-.66 3.869-1.45 6.535-5.01 6.535-9.24 0-4.221-2.798-7.921-6.535-9.241a.727.727 0 01-.403-.66v-.92c0-.4.272-.53.666-.53C24.404 6.482 28 10.972 28 16.252c0 5.281-3.465 9.771-8.404 11.352z"/></g></svg>