<svg width="32" height="32" fill="none" xmlns="http://www.w3.org/2000/svg"><path fill-rule="evenodd" clip-rule="evenodd" d="M32 16a16.002 16.002 0 01-9.876 14.782A16 16 0 1116.001 0C24.837 0 32 7.163 32 16z" fill="#fff"/><path fill-rule="evenodd" clip-rule="evenodd" d="M22.124 30.782A16.002 16.002 0 0032 15.999C32 7.163 24.837 0 16 0c-1.829 0-3.607.311-5.273.893l.004.002v15.548a5.303 5.303 0 009.02 3.782 5.304 5.304 0 00-3.622-9.086h-2.78V9.281h2.68a7.157 7.157 0 11-7.146 7.274V1.67a16.03 16.03 0 00-2.777 1.756v13.011a9.93 9.93 0 0016.892 7.077 9.929 9.929 0 00-6.803-17.005H13.35V4.66h2.68a11.776 11.776 0 11-11.77 11.97V5.13a15.976 15.976 0 00-3.041 4.745 16 16 0 0020.906 20.906zm-3.62-15.514a2.679 2.679 0 00-2.47-1.641h-2.68v2.736a2.678 2.678 0 004.593 1.818c.756-.77.975-1.919.557-2.913z" fill="url(#paint0_linear)"/><defs><linearGradient id="paint0_linear" x1="0" y1="0" x2="0" y2="32" gradientUnits="userSpaceOnUse"><stop stop-color="#137AEA"/><stop offset="1" stop-color="#005CD2"/></linearGradient></defs></svg>