<svg viewBox="0 0 32 32"><g fill="none" fill-rule="evenodd"><path fill="#FFF" d="M32 16c0-2.094-.417-4.188-1.218-6.123a16.047 16.047 0 00-3.468-5.19 16.047 16.047 0 00-5.191-3.47A16.055 16.055 0 0016 0c-2.094 0-4.188.417-6.123 1.218a16.047 16.047 0 00-5.19 3.468 16.047 16.047 0 00-3.47 5.191A16.055 16.055 0 000 16c0 2.094.417 4.188 1.218 6.123a16.047 16.047 0 003.468 5.19 16.047 16.047 0 005.191 3.47A16.055 16.055 0 0016 32c2.094 0 4.188-.417 6.123-1.218a16.047 16.047 0 005.19-3.468 16.047 16.047 0 003.47-5.191A16.055 16.055 0 0032 16z"/><path fill="#8A92B2" d="M8.49 17.651l7.507 10.58v-6.144z"/><path fill="#62688F" d="M15.997 22.087v6.144l7.513-10.58zM16 12l-7.51 4.227 7.507 4.438z"/><path fill="#454A75" d="M15.997 20.665l7.509-4.438L16 12z"/><path fill="#8A92B2" d="M15.997 3.769L8.49 16.227l7.507-3.412z"/><path fill="#62688F" d="M23.506 16.227L15.997 3.769v9.046z"/></g></svg>