<svg width="32" height="32" fill="none" xmlns="http://www.w3.org/2000/svg"><path fill-rule="evenodd" clip-rule="evenodd" d="M32 16c0-8.828-7.172-16-16-16S0 7.172 0 16c0 8.829 7.172 16 16 16s16-7.171 16-16z" fill="#fff"/><path fill-rule="evenodd" clip-rule="evenodd" d="M26.285 28.257L25.063 26.8c-5.721 4.8-14.193 4.307-19.318-1.125-5.125-5.433-5.125-13.92 0-19.351C10.87.893 19.342.399 25.063 5.199l1.222-1.456C19.792-1.704 10.178-1.145 4.362 5.02c-5.816 6.165-5.816 15.796 0 21.96 5.816 6.165 15.43 6.724 21.923 1.277z" fill="url(#paint0_linear)"/><path fill-rule="evenodd" clip-rule="evenodd" d="M26.285 28.257L25.063 26.8a14.1 14.1 0 000-21.602l1.222-1.456a16 16 0 010 24.514z" fill="#EDF0F2"/><path fill-rule="evenodd" clip-rule="evenodd" d="M14.047 23.21c0 .26-.182.347-.445.347C10.31 22.503 8 19.51 8 15.989c0-3.52 2.31-6.514 5.602-7.567.264-.085.445.087.445.353v.614c0 .18-.094.353-.27.44-2.578.967-4.356 3.346-4.356 6.16 0 2.82 1.866 5.28 4.357 6.161a.49.49 0 01.269.44v.62z" fill="#000"/><path fill-rule="evenodd" clip-rule="evenodd" d="M16.713 21.01c0 .173-.18.347-.356.347h-.714c-.175 0-.356-.174-.356-.348v-1.06c-1.422-.173-2.129-.966-2.398-2.113 0-.173.088-.347.269-.347h.795c.182 0 .27.087.357.26.181.62.532 1.147 1.69 1.147.889 0 1.509-.44 1.509-1.147 0-.7-.351-.966-1.597-1.14-1.866-.26-2.754-.793-2.754-2.293 0-1.14.889-2.02 2.129-2.2v-1.054c0-.174.181-.353.356-.353h.714c.175 0 .356.18.356.353v1.054c1.065.18 1.778.793 1.954 1.76 0 .18-.088.353-.27.353h-.707c-.181 0-.269-.087-.357-.26-.175-.62-.62-.88-1.42-.88-.89 0-1.334.44-1.334 1.053 0 .614.263.967 1.596 1.147 1.873.252 2.76.787 2.76 2.287 0 1.14-.888 2.113-2.222 2.374v1.06z" fill="#000"/><path fill-rule="evenodd" clip-rule="evenodd" d="M18.398 23.557c-.263.093-.445-.087-.445-.348v-.62a.49.49 0 01.27-.439c2.578-.967 4.356-3.34 4.356-6.16 0-2.815-1.866-5.281-4.357-6.161a.484.484 0 01-.269-.44v-.614c0-.267.182-.353.445-.353C21.602 9.475 24 12.469 24 15.989c0 3.52-2.31 6.514-5.602 7.568z" fill="#000"/><defs><linearGradient id="paint0_linear" x1="3.376" y1="0" x2="3.376" y2="32" gradientUnits="userSpaceOnUse"><stop stop-color="#27D3A2"/><stop offset="1" stop-color="#9388FD"/></linearGradient></defs></svg>