<svg fill="none" viewBox="0 0 32 32"><path fill="#fff" fill-rule="evenodd" d="M32 16c0-8.828-7.172-16-16-16S0 7.172 0 16c0 8.829 7.172 16 16 16s16-7.171 16-16z" clip-rule="evenodd"/><path fill="url(#paint0_linear)" fill-rule="evenodd" d="M26.285 28.257L25.063 26.8c-5.721 4.8-14.193 4.307-19.318-1.125-5.125-5.433-5.125-13.92 0-19.351C10.87.893 19.342.399 25.063 5.199l1.222-1.456C19.792-1.704 10.178-1.145 4.362 5.02c-5.816 6.165-5.816 15.796 0 21.96 5.816 6.165 15.43 6.724 21.923 1.277z" clip-rule="evenodd"/><path fill="#EDF0F2" fill-rule="evenodd" d="M26.285 28.257L25.063 26.8a14.1 14.1 0 000-21.602l1.222-1.456a16 16 0 010 24.514z" clip-rule="evenodd"/><path fill="#000" fill-rule="evenodd" d="M11.203 10.8h9.594v2.32h-3.523v1.307h.01c1.442.066 2.705.239 3.623.485.46.123.833.263 1.108.43.138.083.253.174.34.281.086.108.145.24.145.38s-.059.272-.145.38a1.272 1.272 0 01-.34.28c-.275.167-.648.307-1.107.43-.92.247-2.182.42-3.623.486h-.01v4.661h-2.55v-4.66l-.01-.001c-1.44-.066-2.704-.239-3.623-.486-.459-.123-.832-.263-1.107-.43a1.27 1.27 0 01-.34-.28.612.612 0 01-.145-.38c0-.14.059-.272.145-.38.087-.107.202-.197.34-.28.275-.168.648-.308 1.108-.43.918-.247 2.181-.42 3.623-.486h.01v-1.308h-3.523V10.8zm3.527 6.03l1.27.027 1.27-.028c1.256-.055 2.353-.192 3.128-.377.387-.092.694-.197.894-.305a.825.825 0 00.216-.154c.043-.047.054-.08.054-.11 0-.028-.011-.062-.054-.109a.829.829 0 00-.215-.154c-.2-.107-.508-.212-.895-.305-.773-.184-1.869-.32-3.123-.376v1.305l-.025.002a7.968 7.968 0 01-.356.022 17.715 17.715 0 01-.764.016h-.26a27.607 27.607 0 01-.764-.016 7.968 7.968 0 01-.356-.022l-.025-.002V14.94c-1.255.055-2.35.192-3.123.376-.387.093-.694.198-.895.305a.829.829 0 00-.215.154c-.043.047-.055.08-.055.11 0 .029.012.062.055.11a.85.85 0 00.216.154c.2.107.507.212.894.305.775.184 1.872.321 3.128.376z" clip-rule="evenodd"/><defs><linearGradient id="paint0_linear" x1="3.376" x2="3.376" y1="0" y2="32" gradientUnits="userSpaceOnUse"><stop stop-color="#27D3A2"/><stop offset="1" stop-color="#9388FD"/></linearGradient></defs></svg>