<svg fill="none" viewBox="0 0 32 32"><circle cx="16" cy="16" r="16" fill="#0E052F"/><circle cx="16" cy="16" r="16" fill="url(#paint0_linear)" fill-opacity=".75"/><circle cx="16" cy="16" r="13.867" fill="#fff"/><circle cx="15.967" cy="15.967" r="12.633" fill="#0E052F"/><path fill="#fff" d="M16.813 22.6a6.397 6.397 0 01-2.03-.31 5.433 5.433 0 01-1.663-.93 5.55 5.55 0 01-1.207-1.441 6.385 6.385 0 01-.676-1.897H9.5V16.69h1.59a1.931 1.931 0 01-.018-.274v-.693a3.79 3.79 0 00.019-.328H9.5v-1.332h1.719a6.083 6.083 0 01.694-1.933 5.294 5.294 0 011.244-1.441 5.33 5.33 0 011.7-.912 6.566 6.566 0 012.048-.31c.84 0 1.542.11 2.102.328a5.04 5.04 0 011.426.82l-.914 1.752a3.855 3.855 0 00-1.243-.657 4.668 4.668 0 00-1.353-.182c-.89 0-1.633.219-2.23.656-.598.438-.982 1.065-1.152 1.88h5.32l-.64 1.33h-4.827c0 .11-.006.22-.018.33v.638c.012.11.018.219.018.328h4.461l-.64 1.332h-3.674c.17.802.548 1.422 1.133 1.86.597.438 1.335.657 2.212.657.549 0 1.024-.067 1.427-.2a3.944 3.944 0 001.06-.548l1.06 1.66a4.485 4.485 0 01-1.554.857c-.585.195-1.274.292-2.066.292z"/><defs><linearGradient id="paint0_linear" x1="0" x2="32" y1="0" y2="32" gradientUnits="userSpaceOnUse"><stop stop-color="#31D8A4"/><stop offset="1" stop-color="#31D8A4" stop-opacity="0"/></linearGradient></defs></svg>