<svg width="32" height="32" fill="none" xmlns="http://www.w3.org/2000/svg"><path fill-rule="evenodd" clip-rule="evenodd" d="M32 16c0-2.094-.416-4.188-1.217-6.123a16.046 16.046 0 00-3.469-5.19 16.046 16.046 0 00-5.19-3.47A16.055 16.055 0 0016 0c-2.095 0-4.189.417-6.123 1.218a16.047 16.047 0 00-5.191 3.468 16.047 16.047 0 00-3.468 5.191A16.054 16.054 0 000 16c0 2.094.416 4.188 1.218 6.123a16.046 16.046 0 003.468 5.19 16.046 16.046 0 005.19 3.47A16.054 16.054 0 0016.002 32c2.094 0 4.188-.417 6.122-1.218a16.046 16.046 0 005.191-3.468 16.046 16.046 0 003.469-5.191A16.054 16.054 0 0032 16z" fill="#fff"/><path fill-rule="evenodd" clip-rule="evenodd" d="M16.07 12.651h-.14c-1.897 0-3.373 1.546-3.373 3.514v3.796l3.444-2.6 3.444 2.6v-3.796c0-1.897-1.547-3.443-3.374-3.514z" fill="#FF4339"/><path fill-rule="evenodd" clip-rule="evenodd" d="M28.147 26.415a16.245 16.245 0 003.7-8.2 16.023 16.023 0 00-1.31-8.9 16.143 16.143 0 00-5.904-6.786A16.108 16.108 0 0016.001 0c-3.038 0-6.076.89-8.633 2.529a16.143 16.143 0 00-5.904 6.787 16.024 16.024 0 00-1.31 8.899 16.244 16.244 0 003.7 8.2l6.313-4.697v-7.45L8.55 13.002 16 7.38l7.45 5.623-1.616 1.264v7.45l6.313 4.698z" fill="#FF4339"/></svg>