<svg fill="none" viewBox="0 0 32 32"><path fill="url(#paint0_radial)" fill-rule="evenodd" d="M32 16c0-8.828-7.172-16-16-16S0 7.172 0 16s7.172 16 16 16 16-7.172 16-16z" clip-rule="evenodd"/><path fill="#fff" fill-rule="evenodd" d="M19.522.392a16 16 0 015.89 2.67c-2.95.374-4.775.994-6.461 1.894-1.974 1.056-3.757 2.497-4.856 4.458a9.124 9.124 0 00-.265.51h14.675l-1.648 3.758H12.79a14.093 14.093 0 00.184 4.266h12.012l-1.648 3.759H14.42c.159.258.327.507.507.748 1.289 1.732 3.129 3 5.23 3.826 1.77.696 3.726 1.077 6.848 1.332a15.999 15.999 0 01-4.82 3.143c-3.81-.553-6.2-1.565-8.157-2.966-2.172-1.555-3.81-3.592-4.786-6.083H3.819l1.647-3.76h2.839a19.174 19.174 0 01-.062-4.265H3.819l1.647-3.759h3.565c.67-1.973 1.757-3.775 3.402-5.42 1.588-1.588 3.697-3.029 7.089-4.11z" clip-rule="evenodd"/><defs><radialGradient id="paint0_radial" cx="0" cy="0" r="1" gradientTransform="matrix(-31.99998 31.99998 -51.34642 -51.34642 32 0)" gradientUnits="userSpaceOnUse"><stop offset=".18" stop-color="#B33BEC"/><stop offset=".5" stop-color="#3861EC"/><stop offset=".883" stop-color="#15BCFF"/></radialGradient></defs></svg>