<svg fill="none" viewBox="0 0 32 32"><path fill="#fff" fill-rule="evenodd" d="M32 16c0-8.828-7.172-16-16-16S0 7.172 0 16s7.172 16 16 16 16-7.172 16-16z" clip-rule="evenodd"/><path fill="#000" fill-rule="evenodd" d="M8.517 26l2.901-2.9a8.45 8.45 0 009.164 0l2.9 2.9L26 23.483l-2.9-2.901a8.45 8.45 0 000-9.164l2.9-2.9L23.483 6l-2.901 2.9a8.45 8.45 0 00-9.164 0L8.518 6 6 8.517l2.9 2.901a8.45 8.45 0 000 9.164l-2.9 2.9L8.517 26zM16 10.89c2.82 0 5.11 2.29 5.11 5.11 0 2.82-2.29 5.11-5.11 5.11-2.82 0-5.11-2.29-5.11-5.11 0-2.82 2.29-5.11 5.11-5.11z" clip-rule="evenodd"/></svg>