<svg fill="none" viewBox="0 0 32 32"><path fill="url(#paint0_linear)" fill-rule="evenodd" d="M32 16c0-8.828-7.172-16-16-16S0 7.172 0 16s7.172 16 16 16 16-7.172 16-16z" clip-rule="evenodd"/><path fill="url(#paint1_linear)" fill-rule="evenodd" d="M5.832 11.28c.05.003.099.005.146.005h20.044c.048 0 .096-.002.146-.005a.285.285 0 00.233-.136 2.55 2.55 0 00.076-.124l.512-.907c.23-.383.284-.553.302-.747a1.143 1.143 0 00-.111-.64c-.115-.23-.329-.47-.864-.47H5.684c-.535 0-.749.24-.864.47-.114.229-.13.446-.112.64.02.194.072.364.303.747l.513.907c.023.04.048.082.075.124.055.084.133.13.233.136zm19.764 1.283a.965.965 0 01-.048.098l-1.227 2.17a2.098 2.098 0 01-.076.125.285.285 0 01-.232.135c-.05.003-.099.005-.146.005H8.133a2.28 2.28 0 01-.146-.005.285.285 0 01-.232-.135 2.11 2.11 0 01-.076-.125l-1.227-2.17a.986.986 0 01-.048-.098c-.03-.076-.006-.118.075-.128a.939.939 0 01.11-.007h18.823c.032 0 .069.002.11.007.08.01.105.052.074.128zm-2.203 3.91a.977.977 0 00.047-.099c.032-.075.007-.117-.074-.127a.938.938 0 00-.11-.007H8.744a.939.939 0 00-.11.007c-.08.01-.105.052-.073.127.015.038.031.07.047.099l.979 1.73c.023.041.048.083.075.125.055.084.133.13.233.136.05.003.099.005.146.005h11.92c.047 0 .096-.002.146-.005a.285.285 0 00.233-.136 2.43 2.43 0 00.075-.125l.979-1.73zm-1.86 3.274a.839.839 0 01-.047.099l-.976 1.726a2.6 2.6 0 01-.076.125.286.286 0 01-.233.135 2.28 2.28 0 01-.145.005h-8.112c-.047 0-.095-.002-.145-.005a.286.286 0 01-.233-.135 2.517 2.517 0 01-.076-.125l-.976-1.726a1.03 1.03 0 01-.047-.1c-.032-.074-.007-.117.074-.127a.883.883 0 01.11-.007H21.35c.032 0 .069.002.11.008.08.01.105.052.073.127zm-1.952 3.467a.896.896 0 00.048-.098c.031-.076.006-.118-.074-.128a.865.865 0 00-.11-.007h-6.89a.864.864 0 00-.11.007c-.08.01-.105.052-.074.128a1 1 0 00.048.098l.975 1.725c.023.04.048.082.076.124.054.084.132.13.232.136.05.003.099.004.146.004h4.304c.047 0 .096-.001.146-.004a.284.284 0 00.232-.136 2.13 2.13 0 00.076-.124l.975-1.725zm-1.855 3.268a.992.992 0 01-.048.099l-.51.9c-.38.674-.774.907-1.166.907-.392 0-.782-.233-1.17-.907l-.51-.9a.992.992 0 01-.047-.1c-.032-.074-.007-.117.074-.126a.857.857 0 01.11-.008h3.083c.032 0 .069.002.109.008.08.01.106.052.075.127z" clip-rule="evenodd"/><path fill="#fff" fill-rule="evenodd" d="M18.096 16.05c.676.131.963.365 1.16.577.196.21.303.4.427.733.124.334.265.814.373 1.224.107.41.18.748.182 1a.811.811 0 01-.188.561 1.25 1.25 0 01-.487.351c-.202.084-.44.129-1.198.22-.76.09-2.042.225-3.343.333-1.302.107-2.623.186-3.538.175-.914-.012-1.423-.113-1.812-.254-.39-.142-.661-.322-.87-.576-.209-.254-.356-.582-.528-1.037a27.023 27.023 0 01-.5-1.456c-.13-.421-.192-.68-.175-.893a.718.718 0 01.25-.495c.137-.12.315-.196.833-.346-.815-.087-1.31-.29-1.657-.49a2.811 2.811 0 01-.685-.537c-.136-.145-.205-.237-.427-.573a42.88 42.88 0 01-.869-1.367c-.27-.451-.44-.776-.532-1.091-.092-.316-.11-.623-.01-.827.1-.203.317-.303.56-.373.244-.07.515-.11.987-.114.471-.003 1.144.03 2.3.149a117.1 117.1 0 014.115.508c1.32.188 2.318.36 2.956.482.638.122.915.194 1.134.282.218.088.377.192.562.35.185.157.396.368.584.617.188.249.352.535.52.857.168.323.338.681.433.923.093.24.11.365.098.466-.013.102-.057.18-.178.299-.122.119-.321.28-.477.323zm-5.48 2.1a.915.915 0 01-.075-.37.452.452 0 01.132-.306.892.892 0 01.396-.215c.16-.044.337-.051.664-.051.236 0 .548.004.836.007l.321.004h.106c.295.004.498.006.691.025.215.023.418.067.56.148.143.082.227.2.306.341.08.142.155.307.223.472.068.165.128.331.15.453.023.122.008.2-.056.258-.065.058-.18.097-.36.125a9.175 9.175 0 01-.787.064c-.365.02-.85.041-1.237.055-.386.014-.675.02-.872.004a.872.872 0 01-.396-.106.898.898 0 01-.236-.198 1.354 1.354 0 01-.167-.275 4.748 4.748 0 01-.2-.436zm-2.114-4.829a.27.27 0 00-.08.24c.01.095.06.204.107.292.048.088.094.154.15.232.054.079.118.168.213.247.096.08.223.15.36.193.137.043.285.06.503.076a36 36 0 00.964.05l1.086.042a208.259 208.259 0 00.537.02c.332.013.508.02.625.016.132-.005.19-.022.223-.057s.042-.086.026-.157a1.114 1.114 0 00-.116-.27 3.66 3.66 0 00-.215-.342 1.038 1.038 0 00-.244-.255 1.23 1.23 0 00-.432-.19c-.201-.052-.474-.091-.959-.136a59.305 59.305 0 00-1.628-.124c-.447-.027-.643-.03-.795-.009a.583.583 0 00-.325.132zm16.003 2.831c.312.056.461.16.57.278.107.118.174.25.253.47.079.219.169.527.223.807.054.28.073.532.079.736.006.205-.002.362-.036.478a.522.522 0 01-.187.265c-.09.075-.209.151-.39.223a4.355 4.355 0 01-.77.204c-.344.064-.786.127-1.264.18-.479.053-.995.097-1.379.11a4.785 4.785 0 01-.853-.036 1.82 1.82 0 01-.55-.146 1.028 1.028 0 01-.388-.346c-.12-.165-.24-.39-.35-.747a9.637 9.637 0 01-.26-1.168c-.05-.32-.053-.47-.016-.621.038-.15.115-.3.514-.607-.286-.052-.559-.13-.748-.236a1.048 1.048 0 01-.383-.379 4.005 4.005 0 01-.292-.563 30.48 30.48 0 01-.412-.969c-.123-.303-.202-.516-.238-.706a.88.88 0 01.02-.479.45.45 0 01.267-.255c.128-.052.295-.077.57-.074.274.004.657.036 1.262.11.606.075 1.433.19 2.069.284.636.094 1.08.166 1.393.235.313.069.493.134.627.222.134.089.22.2.327.387.107.186.233.446.347.717.114.271.215.553.268.752.052.199.056.314.028.435-.027.12-.086.245-.301.44zm-4.032-1.66a.346.346 0 01.02-.237c.034-.061.1-.099.205-.12.105-.02.25-.025.462-.013.212.011.49.039.723.067.233.029.422.057.538.094a.32.32 0 01.214.17c.053.091.115.228.16.33a.966.966 0 01.076.223c.006.054-.005.096-.042.118-.037.022-.1.024-.227.02a17.993 17.993 0 01-.285-.015l-.237-.012c-.2-.01-.405-.018-.608-.023l-.075-.002a3.948 3.948 0 01-.455-.024c-.128-.021-.183-.06-.232-.112a.908.908 0 01-.132-.197 1.1 1.1 0 01-.105-.267zm1.223 2.623a.286.286 0 00-.12.187.878.878 0 00.02.333c.03.147.083.34.13.463.045.124.084.18.139.213.054.035.125.048.283.058.158.01.403.019.665.015.262-.003.54-.02.707-.042.167-.022.224-.052.253-.093.029-.042.029-.096.015-.192a4.516 4.516 0 00-.07-.354 1.802 1.802 0 00-.099-.312.596.596 0 00-.198-.27c-.096-.063-.226-.08-.385-.093a10.723 10.723 0 00-.532-.032 3.157 3.157 0 00-.506.01.652.652 0 00-.302.11z" clip-rule="evenodd"/><defs><linearGradient id="paint0_linear" x1="0" x2="0" y1="-1.5" y2="23" gradientUnits="userSpaceOnUse"><stop stop-color="#050074"/><stop offset="1"/></linearGradient><linearGradient id="paint1_linear" x1="8.538" x2="8.538" y1="9.502" y2="22.799" gradientUnits="userSpaceOnUse"><stop stop-color="#3535F5"/><stop offset=".461" stop-color="#F71899"/><stop offset="1" stop-color="#FFE401"/></linearGradient></defs></svg>