<svg viewBox="0 0 32 32"><defs><linearGradient id="a" x1="28.124%" x2="77.719%" y1="15.015%" y2="76.329%"><stop offset="0%" stop-color="#004CFF"/><stop offset="25.213%" stop-color="#00E0FB"/><stop offset="50.571%" stop-color="#87FF70"/><stop offset="75.505%" stop-color="#F8F500"/><stop offset="100%" stop-color="#FF1A00"/></linearGradient></defs><g fill="none" fill-rule="evenodd"><path fill="#FFF" d="M32 16c0-2.094-.417-4.188-1.218-6.123a16.057 16.057 0 00-3.468-5.19 16.052 16.052 0 00-5.191-3.47A16.055 16.055 0 0016 0c-2.094 0-4.188.417-6.123 1.218a16.055 16.055 0 00-5.19 3.468 16.05 16.05 0 00-3.47 5.191A16.049 16.049 0 000 16c0 2.094.416 4.188 1.218 6.123a16.056 16.056 0 003.468 5.19 16.054 16.054 0 005.19 3.469A16.056 16.056 0 0016 32c2.094 0 4.188-.417 6.123-1.218a16.05 16.05 0 005.19-3.468 16.062 16.062 0 003.47-5.191A16.055 16.055 0 0032 16z"/><path fill="url(#a)" d="M11.855 3.384a13.266 13.266 0 0113.213 2.914 13.155 13.155 0 013.417 5.189c.71 1.99.946 4.19.672 6.284a13.194 13.194 0 01-2.243 5.795 13.207 13.207 0 01-4.64 4.134 13.622 13.622 0 01-6.12 1.576 13.207 13.207 0 01-6.059-1.381 13.19 13.19 0 01-4.763-3.991 13.662 13.662 0 01-2.444-5.83 13.13 13.13 0 01.487-6.193 13.391 13.391 0 012.23-4.145H4.12V5.282h5.817v5.432H7.483V9.229a10.961 10.961 0 00-1.827 3.397 10.786 10.786 0 00-.4 5.07 11.107 11.107 0 002.81 5.75 10.952 10.952 0 006.8 3.375 11.023 11.023 0 007.351-1.892 10.999 10.999 0 004.325-6.24c.637-2.5.342-5.237-.807-7.547a10.919 10.919 0 00-5.546-5.183c-2.394-.99-5.181-1.085-7.585-.295l-.75-2.28z"/><path fill="#000" d="M10.823 20.111a1.234 1.234 0 01-.59-1.051v-2.395a.514.514 0 01.774-.444l5.403 3.151c.317.184.511.522.511.889v2.48a.615.615 0 01-.938.527l-5.16-3.157zm8.055-4.546c.316.184.51.524.51.889v5.035a.41.41 0 01-.209.358l-1.183.665a.206.206 0 01-.047.02v-2.796c0-.361-.19-.697-.502-.884l-4.745-2.838v-3.156a.514.514 0 01.774-.444l5.402 3.151zm2.365-3.718c.317.184.512.523.512.89v7.353a.416.416 0 01-.217.362l-1.121.605v-5.119c0-.362-.19-.696-.499-.882l-4.85-2.91V9.153c0-.09.024-.18.068-.258a.516.516 0 01.703-.187l5.404 3.139z"/></g></svg>