<svg width="32" height="32" fill="none" xmlns="http://www.w3.org/2000/svg"><path fill-rule="evenodd" clip-rule="evenodd" d="M32 16c0-8.828-7.172-16-16-16S0 7.172 0 16s7.172 16 16 16 16-7.172 16-16z" fill="#5956E9"/><path fill-rule="evenodd" clip-rule="evenodd" d="M8.65 18.546l4.376-9.14L9.042 22.45l-.552-2.507a2.159 2.159 0 01.16-1.397zM15.39 22.02c-1.09-.91-2.179-1.822-3.267-2.732a1.278 1.278 0 01-.406-.616c-.072-.24-.071-.496.004-.735.188-.597.373-1.195.555-1.794l3.115 3.894-.001 1.983zM13.032 13.77l3.004-9.81 3.004 9.81a1.772 1.772 0 01-.306 1.617 763.902 763.902 0 00-2.698 3.408l-2.699-3.408a1.756 1.756 0 01-.306-1.617zM19.724 16.071l.555 1.794a1.272 1.272 0 01-.402 1.351 1093.4 1093.4 0 00-3.268 2.732v-1.983l3.115-3.894zM16.61 27.968V23.68l4.283-3.595 1.192 3.87a.979.979 0 01-.448 1.13 4319.24 4319.24 0 01-5.028 2.883zM22.958 22.562L18.974 9.469l4.375 9.174c.208.436.266.93.162 1.402a1888.7 1888.7 0 00-.553 2.517zM15.391 27.968l-5.028-2.883a.972.972 0 01-.447-1.13c.401-1.289.799-2.579 1.191-3.87l4.284 3.595v4.288z" fill="#fff"/></svg>