<svg width="32" height="32" fill="none" xmlns="http://www.w3.org/2000/svg"><path fill-rule="evenodd" clip-rule="evenodd" d="M32 16c0-8.828-7.172-16-16-16S0 7.172 0 16s7.172 16 16 16 16-7.172 16-16z" fill="#0D74F6"/><path fill-rule="evenodd" clip-rule="evenodd" d="M9.515 7.516l5.497-.007v6.498c1.56-.923 3.13-2.183 4.375-4.203L18.092 7.51l6.834.01c-1.22 3.378-3.73 6.244-6.821 8.048-3.376 1.969-7.495 2.623-11.312 1.782-.993-.218-2.003-.473-2.89-.986 1.857.195 3.743.248 5.612-.113V7.515z" fill="#fff"/><path fill-rule="evenodd" clip-rule="evenodd" d="M17.34 17.147c.904-.405 1.729-.952 2.57-1.468l5.023 8.824-5.46.009-2.94-5.374-1.521.488v4.886l-5.497-.006V18.77c2.682.034 5.394-.454 7.825-1.623z" fill="#fff"/></svg>