<svg width="32" height="32" fill="none" xmlns="http://www.w3.org/2000/svg"><path fill-rule="evenodd" clip-rule="evenodd" d="M32 16c0-2.094-.417-4.188-1.218-6.123a16.058 16.058 0 00-3.468-5.19 16.051 16.051 0 00-5.191-3.47A16.054 16.054 0 0016 0c-2.094 0-4.188.417-6.123 1.218a16.055 16.055 0 00-5.19 3.468 16.05 16.05 0 00-3.47 5.191A16.049 16.049 0 000 16c0 2.094.416 4.188 1.218 6.123a16.056 16.056 0 003.468 5.19 16.055 16.055 0 005.19 3.469A16.056 16.056 0 0016 32c2.094 0 4.188-.417 6.123-1.218a16.051 16.051 0 005.19-3.468 16.063 16.063 0 003.47-5.191A16.054 16.054 0 0032 16z" fill="#fff"/><path fill-rule="evenodd" clip-rule="evenodd" d="M11.855 3.384a13.267 13.267 0 0113.213 2.914 13.155 13.155 0 013.417 5.189c.71 1.99.946 4.19.672 6.284a13.194 13.194 0 01-2.243 5.795 13.207 13.207 0 01-4.64 4.134 13.622 13.622 0 01-6.12 1.576 13.207 13.207 0 01-6.059-1.381 13.19 13.19 0 01-4.763-3.991 13.662 13.662 0 01-2.444-5.83 13.13 13.13 0 01.487-6.193 13.392 13.392 0 012.23-4.145H4.12V5.282h5.817v5.431H7.483V9.23a10.961 10.961 0 00-1.827 3.397 10.787 10.787 0 00-.4 5.07 11.107 11.107 0 002.81 5.75 10.952 10.952 0 006.8 3.375 11.023 11.023 0 007.351-1.892 10.999 10.999 0 004.325-6.24c.637-2.5.342-5.237-.807-7.547a10.919 10.919 0 00-5.546-5.183c-2.394-.99-5.181-1.085-7.585-.295l-.75-2.28z" fill="url(#paint0_linear)"/><path fill-rule="evenodd" clip-rule="evenodd" d="M24 16c-3.883 1.868-5.935.988-7.958-.001l-.174-.085C13.903 14.95 11.91 13.972 8 16l8 8 8-8z" fill="#000"/><path opacity=".5" fill-rule="evenodd" clip-rule="evenodd" d="M24 16l-8-8-8 8c4.025-2.088 6.019-.99 8.042-.001 2.023.989 4.075 1.869 7.958.001z" fill="#000"/><path fill-rule="evenodd" clip-rule="evenodd" d="M14.064 17.869c.039.271.235.666.47.915.236.248.51.35.766.41a2.9 2.9 0 00.752.068c.254-.007.521-.037.768-.095.247-.057.474-.141.649-.318.174-.176.295-.445.326-.708a1.12 1.12 0 00-.159-.73c-.132-.21-.338-.372-.732-.521-.393-.149-.975-.285-1.408-.403a5.672 5.672 0 01-.975-.343 2.853 2.853 0 01-.667-.427 1.718 1.718 0 01-.394-.51 1.733 1.733 0 01-.162-.515 2.117 2.117 0 01.071-.966 1.93 1.93 0 01.233-.487c.108-.163.25-.325.44-.473a2.6 2.6 0 01.687-.381c.263-.098.553-.16.87-.188V11.2h.688v.991c1.323.12 2.354.957 2.394 2.223h-.996c-.075-.773-.496-1.12-1.174-1.292-.207-.052-.438-.088-.912-.026-.87.115-1.329.642-1.329 1.198 0 .526.207.81.904 1.092.322.13.749.259 1.123.338 1.645.347 2.465.976 2.465 2.18 0 1.38-1.123 2.13-2.475 2.234v.99h-.688v-.996c-1.364-.12-2.492-.928-2.532-2.263h.997z" fill="#fff"/><defs><linearGradient id="paint0_linear" x1="2.043" y1="13.297" x2="15.222" y2="29.576" gradientUnits="userSpaceOnUse"><stop stop-color="#004CFF"/><stop offset=".252" stop-color="#00E0FB"/><stop offset=".506" stop-color="#87FF70"/><stop offset=".755" stop-color="#F8F500"/><stop offset="1" stop-color="#FF1A00"/></linearGradient></defs></svg>