<svg width="32" height="32" fill="none" xmlns="http://www.w3.org/2000/svg"><path fill-rule="evenodd" clip-rule="evenodd" d="M32 16c0-8.828-7.172-16-16-16S0 7.172 0 16s7.172 16 16 16 16-7.172 16-16z" fill="#F7F6E2"/><path fill-rule="evenodd" clip-rule="evenodd" d="M24.732 16c0-4.818-3.914-8.732-8.732-8.732S7.268 11.182 7.268 16s3.914 8.732 8.732 8.732 8.732-3.914 8.732-8.732z" fill="#F7931A"/><path fill-rule="evenodd" clip-rule="evenodd" d="M19.85 14.756c.174-1.162-.71-1.786-1.92-2.205l.392-1.573-.958-.239-.382 1.533c-.252-.063-.51-.123-.768-.18l.384-1.543-.956-.24-.394 1.575-.167-.04c-.15-.034-.3-.069-.444-.104v-.006l-1.321-.33-.255 1.024c.036.008.711.163.696.173.388.097.459.354.447.557l-1.076 4.313c-.047.118-.168.294-.439.228.01.012-.553-.136-.675-.168l-.022-.006-.476 1.096.713.178.535.134c.136.033.27.068.402.103l.28.073-.396 1.592.958.238.392-1.575a33 33 0 00.764.198l-.391 1.568.958.239.397-1.59c1.633.31 2.862.186 3.38-1.293.416-1.19-.022-1.876-.881-2.324.626-.143 1.097-.556 1.223-1.406zm-2.189 3.07c-.272 1.09-1.977.641-2.76.435a14.017 14.017 0 00-.19-.05l.526-2.109c.066.017.147.035.238.055.809.182 2.463.553 2.186 1.668zm-2.026-2.65c.651.175 2.074.555 2.322-.437.253-1.016-1.129-1.322-1.804-1.471a8.51 8.51 0 01-.197-.046l-.477 1.914c.045.01.098.025.156.04z" fill="#fff"/><path fill-rule="evenodd" clip-rule="evenodd" d="M9.562 23.987a10.258 10.258 0 1112.876 0 12.603 12.603 0 014.943 3.26c6.193-6.268 6.154-16.364-.09-22.583-6.243-6.219-16.339-6.219-22.583 0-6.243 6.219-6.282 16.315-.088 22.583a12.602 12.602 0 014.942-3.26z" fill="#E56868"/><path fill-rule="evenodd" clip-rule="evenodd" d="M27.35 4.723c6.188 6.228 6.201 16.28.03 22.524a12.601 12.601 0 00-4.942-3.26 10.259 10.259 0 00.84-15.217l4.072-4.047zM9.562 23.987c-.3-.242-.587-.501-.859-.776L4.62 27.247a12.602 12.602 0 014.942-3.26z" fill="#C8625D"/></svg>