<svg fill="none" viewBox="0 0 32 32"><path fill="#fff" fill-rule="evenodd" d="M32 16c0-2.094-.417-4.188-1.218-6.123a16.058 16.058 0 00-3.468-5.19 16.051 16.051 0 00-5.191-3.47A16.054 16.054 0 0016 0c-2.094 0-4.188.417-6.123 1.218a16.055 16.055 0 00-5.19 3.468 16.05 16.05 0 00-3.47 5.191A16.049 16.049 0 000 16c0 2.094.416 4.188 1.218 6.123a16.056 16.056 0 003.468 5.19 16.055 16.055 0 005.19 3.469A16.056 16.056 0 0016 32c2.094 0 4.188-.417 6.123-1.218a16.051 16.051 0 005.19-3.468 16.063 16.063 0 003.47-5.191A16.054 16.054 0 0032 16z" clip-rule="evenodd"/><path fill="url(#paint0_linear)" fill-rule="evenodd" d="M11.855 3.384a13.267 13.267 0 0113.213 2.914 13.155 13.155 0 013.417 5.189c.71 1.99.946 4.19.672 6.284a13.194 13.194 0 01-2.243 5.795 13.207 13.207 0 01-4.64 4.134 13.622 13.622 0 01-6.12 1.576 13.207 13.207 0 01-6.059-1.381 13.19 13.19 0 01-4.763-3.991 13.662 13.662 0 01-2.444-5.83 13.13 13.13 0 01.487-6.193 13.392 13.392 0 012.23-4.145H4.12V5.282h5.817v5.431H7.483V9.23a10.961 10.961 0 00-1.827 3.397 10.787 10.787 0 00-.4 5.07 11.107 11.107 0 002.81 5.75 10.952 10.952 0 006.8 3.375 11.023 11.023 0 007.351-1.892 10.999 10.999 0 004.325-6.24c.637-2.5.342-5.237-.807-7.547a10.919 10.919 0 00-5.546-5.183c-2.394-.99-5.181-1.085-7.585-.295l-.75-2.28z" clip-rule="evenodd"/><path fill="#ADADAD" fill-rule="evenodd" d="M24 16c0-4.414-3.586-8-8-8s-8 3.586-8 8 3.586 8 8 8 8-3.586 8-8z" clip-rule="evenodd"/><path fill="#fff" fill-rule="evenodd" d="M16 9.395A6.61 6.61 0 0122.605 16 6.61 6.61 0 0116 22.605 6.61 6.61 0 019.395 16 6.61 6.61 0 0116 9.395zm0 .624c3.3 0 5.981 2.68 5.981 5.981 0 3.3-2.68 5.981-5.981 5.981A5.985 5.985 0 0110.019 16c0-3.3 2.68-5.981 5.981-5.981z" clip-rule="evenodd"/><path fill="#000" fill-rule="evenodd" d="M21.981 16c0-3.3-2.68-5.981-5.981-5.981A5.985 5.985 0 0010.019 16c0 3.3 2.68 5.981 5.981 5.981 3.3 0 5.981-2.68 5.981-5.981z" clip-rule="evenodd"/><path fill="#fff" fill-rule="evenodd" d="M18.637 15.148c.12-.796-.486-1.224-1.315-1.51l.269-1.078-.657-.163-.262 1.05a16.767 16.767 0 00-.525-.124l.263-1.057-.656-.164-.27 1.079-.077-.018-.34-.08v-.005l-.906-.226-.174.701h.001c.033.008.486.112.475.119.266.066.315.243.307.382l-.737 2.954c-.032.08-.115.201-.301.155.007.01-.424-.104-.473-.117l-.004-.001-.326.75.855.214c.09.022.179.045.267.069l.2.051-.271 1.09.655.164.27-1.078c.179.048.352.093.522.135l-.268 1.074.657.163.271-1.088c1.12.212 1.961.127 2.316-.886.285-.815-.015-1.285-.604-1.592.43-.098.752-.38.838-.963zm-1.5 2.102c-.186.748-1.354.44-1.89.298a8.82 8.82 0 00-.13-.033l.36-1.445.163.038c.554.124 1.688.378 1.498 1.142zm-1.386-1.814c.446.12 1.42.38 1.59-.3.173-.695-.774-.905-1.236-1.007-.052-.012-.098-.022-.135-.032l-.327 1.311.107.028z" clip-rule="evenodd"/><defs><linearGradient id="paint0_linear" x1="2.043" x2="15.222" y1="13.297" y2="29.576" gradientUnits="userSpaceOnUse"><stop stop-color="#004CFF"/><stop offset=".252" stop-color="#00E0FB"/><stop offset=".506" stop-color="#87FF70"/><stop offset=".755" stop-color="#F8F500"/><stop offset="1" stop-color="#FF1A00"/></linearGradient></defs></svg>