<svg width="32" height="32" fill="none" xmlns="http://www.w3.org/2000/svg"><path fill-rule="evenodd" clip-rule="evenodd" d="M32 16c0-8.828-7.172-16-16-16S0 7.172 0 16s7.172 16 16 16 16-7.172 16-16z" fill="#F7931A"/><path fill-rule="evenodd" clip-rule="evenodd" d="M16 0c8.828 0 16 7.172 16 16s-7.172 16-16 16S0 24.828 0 16 7.172 0 16 0zm0 1.18c8.177 0 14.82 6.643 14.82 14.82S24.176 30.82 16 30.82 1.18 24.176 1.18 16 7.824 1.18 16 1.18z" fill="#137AEA"/><path clip-rule="evenodd" d="M28.845 16c0-7.087-5.758-12.844-12.845-12.844C8.913 3.156 3.156 8.913 3.156 16S8.913 28.845 16 28.845 28.845 23.087 28.845 16z" stroke="#fff" stroke-opacity=".65" stroke-width=".5"/><path clip-rule="evenodd" d="M26.325 16c0-5.697-4.628-10.324-10.325-10.324-5.697 0-10.324 4.627-10.324 10.324S10.303 26.325 16 26.325 26.325 21.697 26.325 16z" stroke="#fff" stroke-opacity=".4" stroke-width=".5"/><path clip-rule="evenodd" d="M24.045 16c0-4.439-3.606-8.045-8.045-8.045S7.955 11.56 7.955 16 11.56 24.045 16 24.045c4.44 0 8.045-3.606 8.045-8.045z" stroke="#fff" stroke-opacity=".25" stroke-width=".5"/><path fill-rule="evenodd" clip-rule="evenodd" d="M22.78 13.81c.305-2.047-1.252-3.146-3.382-3.883l.691-2.77-1.687-.42-.673 2.698c-.443-.11-.899-.215-1.352-.318l.677-2.716-1.685-.42-.694 2.77-.17-.04c-.308-.07-.61-.14-.906-.212l.003-.01-2.328-.581-.448 1.802c.062.014 1.251.288 1.224.305.682.17.808.624.788.981l-1.895 7.595c-.083.207-.295.518-.773.4.018.025-1.165-.289-1.227-.306l-.838 1.93 1.75.437.008.002.44.11c.228.057.455.116.679.175l.522.135-.698 2.803 1.687.42.69-2.773c.46.126.907.24 1.344.348l-.688 2.762 1.687.42.699-2.798c2.875.545 5.04.325 5.952-2.278.733-2.095-.038-3.304-1.552-4.093 1.103-.252 1.932-.978 2.155-2.475zm-3.855 5.404c-.48 1.923-3.485 1.13-4.862.766l-.332-.086.927-3.714c.115.03.257.06.418.097 1.425.32 4.337.973 3.85 2.937zm-3.567-4.664c1.147.307 3.652.977 4.088-.77.445-1.789-1.988-2.328-3.177-2.591-.133-.03-.251-.056-.347-.08l-.84 3.37c.08.019.173.044.276.071z" fill="#fff"/></svg>