<svg xmlns="http://www.w3.org/2000/svg" width="32" height="32"><g fill="none" fill-rule="evenodd"><circle cx="16" cy="16" r="16" fill="#FC9FCE"/><path fill="#9D2EE5" d="M20.713 4.993c.063 0 .119.022.166.06.047.04.086.095.146.254.059.158.139.418.119.882.545-.181.866-.39 1.057-.51.191-.12.254-.152.32-.16a.258.258 0 01.183.044c.05.037.083.097.128.191.046.094.104.222.135.406.032.183.037.423-.014.655-.041.188-.12.372-.323.616.289.26.549.552.773.87.394.559.678 1.197.832 1.864 1.108-.584 1.629-.606 1.985-.551.355.055.547.19.662.405.115.215.153.51.083.774-.071.264-.25.496-.494.681-.245.186-.554.325-1.472.634 1.238.316 1.346.796 1.35 1.113.002.318-.099.474-.25.597-.152.122-.354.21-.715.246a3.77 3.77 0 01-1.516-.185c-.36.534-.642.732-.832.947-.19.215-.288.445-.286.66.001.217.102.418.467.745.363.326.99.778 1.484 1.576.494.797.853 1.942.754 3.136-.098 1.195-.656 2.44-1.705 3.486-1.048 1.046-2.588 1.893-4.528 2.278-1.94.386-4.28.31-6.161-.091-1.882-.402-3.305-1.13-4.442-2.018-1.136-.889-1.986-1.939-2.568-3.128-.583-1.188-.898-2.516-1.005-3.533-.108-1.017-.008-1.725.118-2.254.125-.53.275-.882.389-1.064.114-.181.192-.193.266-.183.075.012.144.044.365.284.22.239.592.686 1.016 1.084.424.399.9.749 1.41.913.512.165 1.058.144 1.659.063.601-.08 1.258-.22 2.11-.521.849-.299 1.892-.757 3.4-.823a5.285 5.285 0 01-.988-1.055 5.436 5.436 0 01-.956-2.563 5.24 5.24 0 01.422-2.695c.38-.835 1.001-1.562 1.764-2.09a5.436 5.436 0 012.71-.951c.846-.057 1.244-.433 1.466-.661.222-.228.267-.31.325-.36a.283.283 0 01.191-.068zm-1.516 11.343a.468.468 0 00-.31.302.469.469 0 00.074.428c.09.112.243.163.387.217.145.053.282.11.418.172a4.3 4.3 0 01.399.211c.13.078.253.163.37.26.115.095.223.201.318.319a1.805 1.805 0 01.373.812 3.215 3.215 0 01.05.9c-.015.149-.045.298-.094.44-.05.142-.117.278-.198.405-.08.127-.174.246-.275.358a3.118 3.118 0 01-.698.57 3.514 3.514 0 01-.4.208 4.8 4.8 0 01-.859.275 6.054 6.054 0 01-1.345.14 6.104 6.104 0 01-.9-.074 5.086 5.086 0 01-.875-.218 5.368 5.368 0 01-.825-.365 6.047 6.047 0 01-.388-.23 5.073 5.073 0 01-.369-.262 3.876 3.876 0 01-.34-.297 2.379 2.379 0 01-.29-.346c-.1-.142-.21-.327-.169-.412.042-.087.237-.075.405-.049.169.027.31.068.445.028a.496.496 0 00.312-.305.54.54 0 00-.058-.433c-.073-.124-.187-.21-.3-.337-.114-.125-.227-.292-.184-.384.044-.092.243-.11.409-.093.165.017.296.07.43.131.134.063.27.137.39.228.12.092.224.202.353.281.13.078.285.124.426.086a.472.472 0 00.311-.304.51.51 0 00-.075-.428c-.084-.122-.217-.207-.343-.293-.126-.085-.246-.174-.374-.252a2.904 2.904 0 00-.833-.34 2.057 2.057 0 00-.447-.052 1.4 1.4 0 00-.445.065 1.099 1.099 0 00-.389.224c-.11.101-.2.227-.26.365-.062.138-.096.288-.102.413-.007.125.013.226.009.306a.243.243 0 01-.097.186c-.062.05-.157.093-.248.18a.936.936 0 00-.23.356c-.05.141-.061.295-.049.445.012.151.048.298.1.44.053.14.121.275.201.403.08.128.17.249.27.363.098.113.205.22.317.32.111.102.228.197.349.288a6.323 6.323 0 001.159.696 6.31 6.31 0 001.279.441 6.778 6.778 0 00.892.136 7.404 7.404 0 001.353-.02 6.872 6.872 0 00.89-.157 5.864 5.864 0 00.854-.288 4.637 4.637 0 00.786-.444 4.053 4.053 0 00.673-.6c.1-.112.192-.231.277-.356a2.78 2.78 0 00.484-1.252c.02-.15.029-.3.029-.45a4.324 4.324 0 00-.101-.896 2.93 2.93 0 00-.334-.836 2.744 2.744 0 00-.264-.366 3.057 3.057 0 00-.318-.32c-.113-.1-.233-.19-.357-.276a4.615 4.615 0 00-.386-.234 5.957 5.957 0 00-.825-.368c-.145-.05-.299-.098-.438-.06zM20.925 9.3a1.01 1.01 0 100 2.02 1.01 1.01 0 000-2.02z"/></g></svg>