<svg width="32" height="32" fill="none" xmlns="http://www.w3.org/2000/svg"><path fill-rule="evenodd" clip-rule="evenodd" d="M32 16c0-2.094-.417-4.188-1.218-6.123a16.058 16.058 0 00-3.468-5.19 16.051 16.051 0 00-5.191-3.47A16.054 16.054 0 0016 0c-2.094 0-4.188.417-6.123 1.218a16.055 16.055 0 00-5.19 3.468 16.05 16.05 0 00-3.47 5.191A16.049 16.049 0 000 16c0 2.094.416 4.188 1.218 6.123a16.056 16.056 0 003.468 5.19 16.055 16.055 0 005.19 3.469A16.056 16.056 0 0016 32c2.094 0 4.188-.417 6.123-1.218a16.051 16.051 0 005.19-3.468 16.063 16.063 0 003.47-5.191A16.054 16.054 0 0032 16z" fill="#fff"/><path fill-rule="evenodd" clip-rule="evenodd" d="M11.855 3.384a13.267 13.267 0 0113.213 2.914 13.155 13.155 0 013.417 5.189c.71 1.99.946 4.19.672 6.284a13.194 13.194 0 01-2.243 5.795 13.207 13.207 0 01-4.64 4.134 13.622 13.622 0 01-6.12 1.576 13.207 13.207 0 01-6.059-1.381 13.19 13.19 0 01-4.763-3.991 13.662 13.662 0 01-2.444-5.83 13.13 13.13 0 01.487-6.193 13.392 13.392 0 012.23-4.145H4.12V5.282h5.817v5.431H7.483V9.23a10.961 10.961 0 00-1.827 3.397 10.787 10.787 0 00-.4 5.07 11.107 11.107 0 002.81 5.75 10.952 10.952 0 006.8 3.375 11.023 11.023 0 007.351-1.892 10.999 10.999 0 004.325-6.24c.637-2.5.342-5.237-.807-7.547a10.919 10.919 0 00-5.546-5.183c-2.394-.99-5.181-1.085-7.585-.295l-.75-2.28z" fill="url(#paint0_linear)"/><path fill-rule="evenodd" clip-rule="evenodd" d="M20.366 16A4.369 4.369 0 0016 11.634 4.369 4.369 0 0011.634 16 4.369 4.369 0 0016 20.366 4.369 4.369 0 0020.366 16z" fill="#000"/><path fill-rule="evenodd" clip-rule="evenodd" d="M17.925 15.378c.087-.581-.355-.893-.96-1.102l.196-.787-.479-.12-.191.767a17.982 17.982 0 00-.384-.09l.192-.771-.478-.12-.197.787-.084-.02c-.075-.017-.15-.034-.222-.052v-.003l-.66-.165-.127.512c.018.004.355.082.347.087.194.048.23.177.224.278l-.538 2.156c-.023.06-.084.148-.22.114a6.56 6.56 0 01-.337-.084l-.01-.002-.239.548.624.155.201.052.14.036-.198.796.479.12.196-.788c.131.036.258.068.382.099l-.196.784.48.12.198-.795c.816.155 1.431.092 1.69-.647.208-.595-.01-.938-.44-1.162.313-.072.548-.278.611-.703zm-1.094 1.535c-.136.545-.989.32-1.38.218l-.095-.025.263-1.055.118.028c.405.09 1.232.276 1.094.834zm-1.013-1.325c.325.087 1.037.278 1.16-.218.127-.508-.564-.661-.902-.736l-.098-.023-.238.957.078.02z" fill="#fff"/><path fill-rule="evenodd" clip-rule="evenodd" d="M12.78 19.994a5.13 5.13 0 116.439 0 6.3 6.3 0 012.471 1.63 8 8 0 10-11.38 0 6.301 6.301 0 012.47-1.63z" fill="#ADADAD"/><path fill-rule="evenodd" clip-rule="evenodd" d="M21.675 10.362a8 8 0 01.015 11.261 6.3 6.3 0 00-2.471-1.63 5.129 5.129 0 00.42-7.608l2.036-2.023zM12.781 19.993a5.088 5.088 0 01-.43-.388l-2.041 2.018a6.3 6.3 0 012.471-1.63z" fill="#696969"/><defs><linearGradient id="paint0_linear" x1="2.043" y1="13.297" x2="15.222" y2="29.576" gradientUnits="userSpaceOnUse"><stop stop-color="#004CFF"/><stop offset=".252" stop-color="#00E0FB"/><stop offset=".506" stop-color="#87FF70"/><stop offset=".755" stop-color="#F8F500"/><stop offset="1" stop-color="#FF1A00"/></linearGradient></defs></svg>